<svg width="80" height="73" viewBox="0 0 80 73" fill="none" xmlns="http://www.w3.org/2000/svg">
<path d="M77.4501 12.4649H3.16406V46.2529H77.4501V12.4649Z" fill="#949494"/>
<path d="M77.4501 48.2649H3.16406V61.6649H77.4501V48.2649Z" fill="#DFDFDF"/>
<path d="M79.8086 0.264893V12.4649H0.808594V0.264893H79.8086ZM77.8086 2.26489H2.80859V10.4649H77.8086V2.26489Z" fill="#A6A3A3"/>
<path d="M73.2082 48.6649V61.6649H77.1081C78.2441 61.6649 78.2841 64.0649 77.1081 64.0649H73.2082V72.2649H7.20815V64.0649H3.50815C2.74015 64.0649 2.47015 61.6649 3.50815 61.6649H7.20815V48.6649H3.50815C2.95615 48.6649 1.97615 46.4569 4.09615 46.2529H76.7181C78.4941 46.4849 77.9381 48.6389 77.1081 48.6649H73.2082ZM3.50815 46.6649C3.15815 46.6649 3.00415 48.0289 3.50815 48.2649H76.8661C77.0481 48.2649 77.2242 48.1769 77.3141 48.0209C77.4961 47.6989 77.5002 47.2489 77.3141 46.9169C77.2242 46.7569 77.0462 46.6669 76.8621 46.6669H3.50815V46.6649ZM71.2082 48.6649H9.20815V61.6649H71.2082V48.6649ZM3.50815 62.0649C3.15815 62.0649 3.00415 63.4289 3.50815 63.6649H77.1081C77.5562 63.3069 77.5761 62.4529 77.1081 62.0649H3.50815ZM71.2082 64.0649H9.20815V70.2649H71.2082V64.0649Z" fill="#A6A3A3"/>
</svg>
