<svg width="70" height="70" viewBox="0 0 70 70" fill="none" xmlns="http://www.w3.org/2000/svg">
<path d="M69.3665 0.0175L0.6335 0C0.2835 0 0 0.2835 0 0.6335V7.2275C0 7.5775 0.2835 7.861 0.6335 7.861H2.9855L1.477 15.33C1.3895 15.771 1.5015 16.2435 1.7885 16.625C1.799 16.639 1.8095 16.6495 1.8165 16.6635C2.114 17.003 2.513 17.192 2.9505 17.213L1.568 22.8165C1.4385 23.268 1.54 23.7755 1.841 24.178C2.1 24.5245 2.5165 24.752 2.9505 24.7905L1.568 30.3975C1.4385 30.849 1.54 31.3565 1.841 31.759C2.1 32.1055 2.513 32.3295 2.9435 32.3715L1.568 37.9505C1.4385 38.402 1.54 38.9095 1.841 39.312C2.1 39.6585 2.513 39.8825 2.9435 39.9245L1.568 45.5035C1.4385 45.955 1.54 46.4625 1.841 46.865C2.1 47.2115 2.5165 47.439 2.9505 47.4775L1.568 53.0845C1.4385 53.536 1.54 54.0435 1.841 54.446C2.128 54.8275 2.604 55.0655 3.08 55.0655H17.3355C17.3985 55.0865 17.465 55.1005 17.5385 55.1005H21.9695C22.0395 55.1005 22.1095 55.0865 22.1725 55.0655H39.8685V53.7985H22.603V47.488H39.8685V46.221H22.603V39.935H39.8685V38.668H22.603V32.3855H39.8685V31.1185H22.603V24.808H39.8685V23.541H22.603V17.227H39.8685V15.96H22.603V7.8715H39.8685V6.6045H1.267V1.267L68.7295 1.2845V6.6115L63.42 6.594V7.861L65.716 7.8785L67.277 15.596C67.3015 15.715 67.235 15.8235 67.193 15.8795C67.1545 15.9285 67.0635 15.9635 66.969 15.9635L63.42 15.946V17.213L65.737 17.2305L67.1895 23.1175C67.2105 23.2295 67.1895 23.3345 67.1265 23.4395C67.074 23.499 66.9865 23.541 66.9095 23.541L63.42 23.5235V24.7905L65.737 24.808L67.1895 30.695C67.2105 30.807 67.1895 30.912 67.1265 31.0205C67.074 31.08 66.9865 31.122 66.9095 31.122H66.4125C66.3075 31.0905 66.1955 31.0835 66.0835 31.1115C66.073 31.1115 66.066 31.1185 66.0555 31.122L63.42 31.1045V32.3715L65.744 32.389L67.1895 38.248C67.2105 38.36 67.1895 38.465 67.1265 38.57C67.074 38.6295 66.9865 38.6715 66.9095 38.6715H66.4125C66.3075 38.64 66.1955 38.633 66.0835 38.661C66.073 38.661 66.066 38.668 66.0555 38.6715L63.42 38.654V39.921L65.744 39.9385L67.1895 45.7975C67.2105 45.9095 67.1895 46.0145 67.1265 46.1195C67.074 46.179 66.9865 46.221 66.9095 46.221L63.42 46.2035V47.4705L65.737 47.488L67.1895 53.375C67.2105 53.487 67.1895 53.613 67.137 53.6865C67.088 53.753 66.9935 53.7985 66.9095 53.7985L63.42 53.781V55.048L66.9095 55.0655C67.3855 55.0655 67.8615 54.8275 68.1485 54.446C68.418 54.0855 68.5265 53.592 68.425 53.095L67.039 47.4775C67.473 47.439 67.886 47.2115 68.1485 46.865C68.1555 46.8545 68.1625 46.8475 68.1695 46.837C68.432 46.4415 68.523 45.997 68.425 45.5175L67.046 39.9245C67.4765 39.8825 67.8895 39.6585 68.1485 39.312C68.1555 39.3015 68.1625 39.2945 68.1695 39.284C68.432 38.8885 68.523 38.444 68.425 37.9645L67.046 32.3715C67.4765 32.3295 67.8895 32.1055 68.1485 31.759C68.1555 31.7485 68.1625 31.738 68.1695 31.731C68.432 31.3355 68.523 30.891 68.425 30.4115L67.039 24.794C67.473 24.7555 67.886 24.528 68.1485 24.1815C68.1555 24.171 68.1625 24.164 68.1695 24.1535C68.432 23.758 68.523 23.3135 68.425 22.834L67.039 17.22C67.508 17.199 67.9385 16.9855 68.201 16.632C68.488 16.2505 68.6 15.778 68.5125 15.337L67.004 7.868H69.356C69.706 7.868 69.9895 7.5845 69.9895 7.2345V0.651C69.9895 0.301 69.706 0.0175 69.356 0.0175H69.3665ZM18.1755 53.795V7.861H21.336V53.83H18.1755V53.795ZM16.9085 53.795H3.087C3.0065 53.795 2.912 53.746 2.863 53.683C2.8035 53.6025 2.7755 53.494 2.793 53.4275C2.793 53.417 2.8 53.4065 2.8 53.396L4.2595 47.481H16.9085V53.7915V53.795ZM16.9085 46.214H3.087C3.0065 46.214 2.912 46.165 2.863 46.102C2.8035 46.0215 2.7755 45.913 2.793 45.8465C2.793 45.836 2.8 45.8255 2.8 45.815L4.2525 39.928H16.9085V46.214ZM16.9085 38.661H3.941C3.941 38.661 3.9235 38.654 3.913 38.6505C3.801 38.6225 3.689 38.6295 3.584 38.661H3.0835C3.003 38.661 2.9085 38.612 2.8595 38.549C2.8 38.4685 2.772 38.36 2.7895 38.2935C2.7895 38.283 2.7965 38.2725 2.7965 38.262L4.249 32.375H16.905V38.6575L16.9085 38.661ZM16.9085 31.108H3.941C3.941 31.108 3.9235 31.101 3.913 31.0975C3.801 31.0695 3.6855 31.0765 3.584 31.108H3.087C3.0065 31.108 2.912 31.059 2.863 30.996C2.8035 30.9155 2.7755 30.807 2.793 30.7405C2.793 30.73 2.8 30.7195 2.8 30.709L4.2595 24.794H16.9085V31.1045V31.108ZM16.9085 23.527H3.087C3.0065 23.527 2.912 23.478 2.863 23.415C2.8035 23.3345 2.7755 23.226 2.793 23.1595C2.793 23.149 2.8 23.1385 2.8 23.128L4.2595 17.213H16.9085V23.527ZM16.9085 7.8575V15.946H3.031C2.9365 15.946 2.8595 15.9145 2.793 15.841C2.7545 15.7815 2.702 15.6835 2.723 15.5785L4.284 7.8575H16.912H16.9085Z" fill="#A6A3A3"/>
<path d="M62.082 61.033H45.912C45.8875 61.033 45.863 61.033 45.8385 61.0365C45.821 61.0365 45.807 61.0435 45.7895 61.0435C45.7895 61.0435 45.786 61.0435 45.7825 61.0435C43.098 61.3865 42.9755 63.476 42.9685 65.261C42.9685 65.345 42.9685 65.4325 42.9685 65.5165C42.9685 67.1405 44.288 68.46 45.912 68.46C47.536 68.46 48.8555 67.1405 48.8555 65.5165C48.8555 64.89 48.6175 64.2775 48.2185 63.7945C48.0645 63.609 47.886 63.4375 47.683 63.2975C47.13 62.916 46.5 62.7865 45.912 62.93C45.8385 62.9475 45.7615 62.9685 45.688 62.9965C44.7885 63.3325 44.575 64.0815 44.5225 64.827C44.505 65.0615 44.505 65.296 44.505 65.5165C44.505 66.29 45.135 66.92 45.9085 66.92C46.682 66.92 47.312 66.29 47.312 65.5165C47.312 65.1665 47.0285 64.883 46.6785 64.883C46.3285 64.883 46.045 65.1665 46.045 65.5165C46.045 65.59 45.9855 65.653 45.9085 65.653C45.835 65.653 45.772 65.5935 45.772 65.5165C45.772 64.967 45.7895 64.6485 45.8665 64.449C45.877 64.4175 45.891 64.393 45.905 64.3685C45.9575 64.281 46.0275 64.2215 46.129 64.1865C46.3075 64.12 46.5105 64.134 46.7135 64.2145C46.794 64.246 46.8745 64.288 46.955 64.3405C47.3435 64.61 47.5815 65.0615 47.5815 65.52C47.5815 66.444 46.829 67.1965 45.905 67.1965C44.981 67.1965 44.2285 66.444 44.2285 65.52C44.2285 65.303 44.2285 65.1 44.2355 64.911C44.274 63.203 44.533 62.4925 45.905 62.3105C45.919 62.3105 45.9295 62.307 45.94 62.3035C47.025 62.314 47.977 62.867 48.551 63.7C48.908 64.218 49.118 64.8445 49.118 65.52C49.118 67.2945 47.676 68.7365 45.9015 68.7365C44.127 68.7365 42.685 67.2945 42.685 65.52V5.2955H60.668V60.1265C60.668 60.186 60.6785 60.242 60.6925 60.298C60.766 60.564 61.011 60.7635 61.3015 60.7635C61.6515 60.7635 61.935 60.48 61.935 60.13V4.662C61.935 4.312 61.6515 4.0285 61.3015 4.0285H42.0515C41.7015 4.0285 41.418 4.312 41.418 4.662V65.5165C41.418 67.9875 43.4305 70 45.9015 70H62.0715C64.5425 70 66.555 67.9875 66.555 65.5165C66.555 63.0455 64.5425 61.033 62.0715 61.033H62.082ZM62.082 68.733H49.0305C49.8705 67.9175 50.3955 66.78 50.3955 65.5165C50.3955 64.729 50.189 63.987 49.8285 63.343C49.615 62.958 49.342 62.608 49.027 62.3035H62.0785C63.853 62.3035 65.295 63.7455 65.295 65.52C65.295 67.2945 63.853 68.7365 62.0785 68.7365L62.082 68.733Z" fill="#A6A3A3"/>
</svg>
