<svg width="72" height="72" viewBox="0 0 72 72" fill="none" xmlns="http://www.w3.org/2000/svg">
<path d="M70.8916 0.299927H0.632993C0.289675 0.299927 0 0.589601 0 0.932919V7.52749C0 7.87438 0.289675 8.16048 0.632993 8.16048H18.3425V10.4779H4.59188C4.01253 10.4779 3.71928 10.8498 3.71928 11.4685V44.6344C3.71928 44.6344 3.71928 44.6595 3.72286 44.6738C3.72286 44.6845 3.72286 44.6952 3.72286 44.706C3.72286 44.7239 3.71928 44.7417 3.7157 44.7596C3.7157 44.7596 3.56908 69.55 3.56908 69.5643C3.62272 70.4763 4.13412 71.238 4.9352 71.6028C5.26063 71.7494 5.60395 71.8245 5.96158 71.8245H66.5286C68.1164 71.8245 69.2322 71.4597 69.9403 70.6694C70.6377 69.8898 70.863 68.7668 70.6127 67.3292C70.6127 67.3113 70.6055 67.2934 70.6019 67.2756L68.4955 59.1897C69.1035 58.993 69.597 58.6926 69.9689 58.2778C70.6663 57.4981 70.8916 56.3752 70.6413 54.9376C70.6413 54.9197 67.8339 44.2732 67.7588 44.1946V11.6616C67.7588 10.9106 67.4548 10.4779 66.8397 10.4779H56.3793V8.16048H70.8916C71.2385 8.16048 71.5246 7.8708 71.5246 7.52749V0.932919C71.5246 0.586025 71.2349 0.299927 70.8916 0.299927ZM3.83014 6.86588H1.2946V1.56591H3.83014V6.86588ZM5.01745 11.7725H21.1999V15.1306H5.01745V11.7725ZM52.3739 11.7725V15.1306H22.4945V11.7725H52.3703H52.3739ZM25.0551 10.4779V8.16048H49.6452V10.4779H25.0551ZM54.6913 57.4123C54.3122 57.8379 53.6506 58.0811 52.7244 58.1419H24.8369C25.3018 57.5554 25.5236 56.7901 25.4985 55.8602H55.1276C55.1526 56.5361 55.006 57.0583 54.6877 57.4123H54.6913ZM67.2224 59.4293L67.3583 59.9514H55.0024L54.8701 59.4365C54.8701 59.4365 67.0114 59.4436 67.226 59.4293H67.2224ZM22.4873 48.8544L23.0631 51.0609H6.70543L6.11893 48.8544H22.4838H22.4873ZM5.77919 47.5598L5.19269 45.3533H21.5754L22.1512 47.5598H5.77561H5.77919ZM52.3703 18.7604H22.4945V16.4323H52.3703V18.7604ZM52.4955 45.3533L53.0712 47.5598H23.4887L22.9129 45.3533H52.4955ZM52.3703 20.055V22.3867H22.4945V20.055H52.3703ZM52.3703 23.6813V26.0094H22.4945V23.6813H52.3703ZM52.3703 27.3076V29.6357H22.4945V27.3076H52.3703ZM52.3703 30.9339V33.262H22.4945V30.9339H52.3703ZM52.3703 34.5602V36.8919H22.4945V34.5602H52.3703ZM52.3703 38.1865V40.5146H22.4945V38.1865H52.3703ZM52.3703 41.8128V44.0623H22.4945V41.8128H52.3703ZM23.3957 52.3627L23.9715 54.5692H7.63883L7.05232 52.3627H23.3957ZM20.7815 59.4436C20.9603 59.4508 21.1391 59.4615 21.3108 59.4615C21.4931 59.4615 21.6648 59.4543 21.8329 59.4436H22.6018L22.7341 59.9586H5.747L5.60038 59.4043C5.72912 59.4257 5.85429 59.4365 5.98303 59.4365C6.05456 59.4365 20.785 59.44 20.785 59.44L20.7815 59.4436ZM23.0738 61.2532L23.6496 63.4597H6.67682L6.09032 61.2532H23.0738ZM21.8007 58.149H8.01433C8.18599 57.7556 8.2754 57.2335 8.15738 56.5469C8.15738 56.529 8.15023 56.5111 8.14665 56.4896L7.98214 55.8674H24.2039C24.229 56.5433 24.0823 57.0654 23.764 57.4195C23.385 57.845 22.7234 58.0882 21.8007 58.149ZM53.5254 59.4436L53.6577 59.9586H24.0752L23.9429 59.4436H53.5254ZM25.309 54.5692L24.7332 52.3627H54.3158L54.8916 54.5692H25.309ZM24.397 51.0681L23.8213 48.8615H53.4038L53.9796 51.0681H24.397ZM53.6649 40.5182V38.1901H66.4607V40.5182H53.6649ZM66.4607 41.8128V44.0623H53.6649V41.8128H66.4607ZM53.6649 36.8919V34.5602H66.4607V36.8919H53.6649ZM53.6649 33.2656V30.9375H66.4607V33.2656H53.6649ZM53.6649 29.6393V27.3112H66.4607V29.6393H53.6649ZM53.6649 26.013V23.6849H66.4607V26.013H53.6649ZM53.6649 22.3867V20.055H66.4607V22.3867H53.6649ZM53.6649 18.7604V16.4323H66.4607V18.7604H53.6649ZM50.9076 10.4815V8.16406H55.1133V10.4815H50.9076ZM23.7819 10.4815H19.6085V8.16406H23.7819V10.4815ZM5.01745 16.4287H21.1999V18.7568H5.01745V16.4287ZM5.01745 20.055H21.1999V22.3867H5.01745V20.055ZM5.01745 23.6813H21.1999V26.0094H5.01745V23.6813ZM5.01745 27.3076H21.1999V29.6357H5.01745V27.3076ZM5.01745 30.9339H21.1999V33.262H5.01745V30.9339ZM5.01745 34.5602H21.1999V36.8919H5.01745V34.5602ZM5.01745 38.1865H21.1999V40.5146H5.01745V38.1865ZM5.01745 41.8128H21.1999V44.0623H5.01745V41.8128ZM4.96738 49.5589L6.88782 56.7901C6.94861 57.1727 6.94146 57.6734 6.58026 57.9523C6.30132 58.1705 5.85786 58.2205 5.50024 58.0382C4.86367 57.7091 4.92089 56.8938 4.89586 56.8473L4.96738 49.5625V49.5589ZM6.55165 70.344C6.27271 70.5621 5.83641 70.5943 5.47163 70.4298C5.26063 70.3332 4.90659 70.09 4.86367 69.5143L4.9352 61.9506L6.85563 69.1817C6.91643 69.5643 6.90928 70.065 6.54808 70.344H6.55165ZM7.02372 64.7543H23.9858L24.5615 66.9608H7.61022L7.02372 64.7543ZM24.3577 69.8147C23.9858 70.2295 23.3492 70.4691 22.4623 70.5371H7.98572C8.15738 70.1437 8.24679 69.6216 8.12877 68.9349C8.12877 68.917 8.12162 68.8992 8.11804 68.8777L7.95354 68.2554H24.794C24.819 68.9349 24.6724 69.4606 24.3577 69.8147ZM24.4149 61.2532H53.9975L54.5733 63.4597H24.9907L24.4149 61.2532ZM54.9094 64.7543L55.4852 66.9608H25.9026L25.3269 64.7543H54.9094ZM55.2814 69.8147C54.913 70.2295 54.2729 70.4691 53.3895 70.5371H25.4377C25.8991 69.9506 26.1208 69.1853 26.0957 68.2554H55.7248C55.7498 68.9349 55.6032 69.4606 55.2885 69.8147H55.2814ZM55.3386 61.2532H67.6945L68.2702 63.4597H55.9144L55.3386 61.2532ZM68.9747 69.8111C68.4598 70.3869 67.437 70.6301 65.9314 70.5407C65.9171 70.5407 65.9063 70.5407 65.892 70.5407H56.3542C56.8156 69.9542 57.0373 69.1888 57.0123 68.259H69.4146C69.4397 68.9385 69.293 69.4606 68.9747 69.8147V69.8111ZM68.6064 64.7543L69.1822 66.9608H56.8263L56.2505 64.7543H68.6064ZM69.0033 57.4195C68.4884 57.9952 67.4656 58.2384 65.96 58.149C65.9457 58.149 65.935 58.149 65.9206 58.149H55.757C56.2219 57.5625 56.4436 56.7972 56.4186 55.8674H69.4397C69.4647 56.5469 69.3181 57.069 68.9998 57.423L69.0033 57.4195ZM69.2072 54.5692H56.2326L55.6569 52.3627H68.6314L69.2072 54.5692ZM67.7195 48.8615L68.2953 51.0681H55.3207L54.7449 48.8615H67.7195ZM67.3833 47.567H54.4088L53.833 45.3604H66.8075L67.3833 47.567ZM66.4642 11.7796V15.1377H53.6685V11.7796H66.4642ZM66.4285 6.87304H5.09613V1.56591H66.4285V6.86588V6.87304ZM70.2586 6.87304H67.6945V1.56591H70.2586V6.86588V6.87304Z" fill="#A6A3A3"/>
</svg>
