<svg width="62" height="80" viewBox="0 0 62 80" fill="none" xmlns="http://www.w3.org/2000/svg">
<path d="M30.7506 6.42767L30.8888 75.7751C30.6223 75.563 30.4855 75.2574 30.1939 75.0077C28.2376 73.3388 26.0958 74.1816 24.332 75.637V6.42767H30.7506Z" stroke="#A6A3A3"/>
<path d="M23.6326 6.42767V75.3579C21.6372 73.516 19.2693 73.1839 17.3535 75.3579V6.42767H23.6326Z" stroke="#A6A3A3"/>
<path d="M10.5184 6.42767V75.3579C9.28077 73.943 7.79472 74.243 6.23891 74.9156C5.5803 75.2002 5.03193 75.6412 4.37891 75.916V6.42767H10.5184Z" stroke="#A6A3A3"/>
<path d="M16.6548 6.42767V75.4974C15.4478 74.4439 14.2185 74.1314 12.6724 74.6546C12.138 74.836 11.7292 75.1863 11.2129 75.3579V6.42767H16.6548Z" stroke="#A6A3A3"/>
<path d="M1.02821 1.26489H60.6794L60.8887 1.47419V5.38117L60.6794 5.59047H1.09797L0.888672 5.38117V1.61373C0.888672 1.56768 1.07286 1.40164 1.02821 1.26489Z" stroke="#A6A3A3"/>
<path d="M39.1239 6.42767C39.1951 10.0081 39.6863 13.664 40.2835 17.1984C42.1895 28.4658 46.063 39.9691 52.6574 49.336C51.1142 49.9988 50.7388 49.0933 49.8709 48.076C48.1128 46.0151 46.3295 43.5258 44.8128 41.2737C37.8165 30.8826 32.8853 18.937 31.3086 6.42907H39.1225L39.1239 6.42767Z" stroke="#A6A3A3"/>
<path d="M58.0985 53.5905V78.1486C56.5818 76.5747 54.345 76.3012 52.259 76.1742C51.2153 73.7421 48.1371 74.0393 45.959 74.3826C46.1711 67.5509 48.6325 60.9733 50.9934 54.6496C51.2474 54.2979 52.1013 54.2868 52.5171 54.2909C51.0855 57.8896 49.852 62.2696 50.6264 66.157C50.6739 66.397 50.7632 67.0109 50.9808 67.1254C50.4911 62.7886 51.6729 58.5133 52.8185 54.3803L53.0236 54.1668L55.446 53.8696C54.4553 56.8751 53.812 59.991 53.4953 63.15C53.2176 65.91 53.0194 69.4737 53.2092 72.224C53.2246 72.4375 53.2399 73.0528 53.4925 73.1254C53.8301 66.7068 54.0394 60.157 55.7194 53.9323L58.0985 53.5905Z" stroke="#A6A3A3"/>
<path d="M58.0982 6.42767V48.8463C56.7838 47.1426 56.0512 44.6853 55.4861 42.5979C54.5945 39.3035 54.0475 35.8263 53.6498 32.4342C52.6424 23.8402 52.5907 15.0663 52.7959 6.42767H58.0982Z" stroke="#A6A3A3"/>
<path d="M52.0993 6.42767L52.0937 19.0612C52.1021 19.3905 52.2346 19.696 52.2444 20.0267C52.4649 27.0021 52.8639 34.0556 54.4267 40.8677C55.0462 43.5677 55.8444 46.4016 57.2607 48.7779C56.7402 49.064 55.7718 49.1714 55.3825 48.7026C54.3555 47.4635 52.8793 44.2249 52.2137 42.6621C47.4388 31.4588 46.4983 18.4974 46.5179 6.42767H52.0993Z" stroke="#A6A3A3"/>
<path d="M45.9588 6.42767L46.0997 16.6821C47.0122 27.796 48.776 39.4053 54.8876 48.9188C54.935 49.2077 54.8485 49.0849 54.6992 49.1407C54.3211 49.2844 53.4755 49.3988 53.1462 49.1239C44.6499 36.6132 40.6899 21.4486 39.6797 6.42767H45.9588Z" stroke="#A6A3A3"/>
<path d="M50.1748 50.4146C50.5934 49.9988 57.0957 49.703 58.1562 49.403C59.0366 49.5412 59.2697 52.4505 58.7855 52.816L50.832 53.8109C50.6645 53.7663 50.4776 53.7174 50.3534 53.5891C50.0813 53.31 49.8483 50.7398 50.1762 50.416L50.1748 50.4146Z" stroke="#A6A3A3"/>
</svg>
