<svg width="72" height="72" viewBox="0 0 72 72" fill="none" xmlns="http://www.w3.org/2000/svg">
<path d="M71.0816 1H1M11.5122 43.7778C13.6077 41.0283 17.7039 33.6433 18.5204 24.3333M60.5693 43.7778C58.4704 41.0283 54.3776 33.6433 53.5612 24.3333M4.50408 1V46.2083M4.50408 46.2083V54.4722C4.50408 62.2617 4.50408 66.1583 6.55747 68.5811C8.61086 71 11.9117 71 18.5204 71H22.0245C22.0245 65.2872 20.6228 51.8589 15.0163 43.8361M4.50408 46.2083C8.52676 45.9089 12.0063 45.0806 15.0163 43.8361M15.0163 43.8361C28.6121 38.2361 36.0408 17.3917 36.0408 1C36.0408 17.3917 43.4694 38.2361 57.0653 43.8361M67.5775 1V46.2083M67.5775 46.2083V54.4722C67.5775 62.2617 67.5775 66.1583 65.5241 68.5811C63.4707 71 60.1699 71 53.5612 71H50.0571C50.0571 65.2872 51.4587 51.8589 57.0653 43.8361M67.5775 46.2083C63.5548 45.9089 60.0753 45.0806 57.0653 43.8361" stroke="#A6A3A3" stroke-width="1.5" stroke-linecap="round" stroke-linejoin="round"/>
</svg>
