<svg width="70" height="69" viewBox="0 0 70 69" fill="none" xmlns="http://www.w3.org/2000/svg">
<path d="M28.2512 65.3112C28.1971 65.9689 27.957 66.2887 27.5404 66.7832C25.5711 69.1226 22.9689 69.4206 20.7054 67.2757C19.5837 68.2903 18.2987 68.9641 16.747 68.6537C15.7514 68.4545 15.0378 67.8689 14.2662 67.2634C12.4279 69.2412 9.76491 69.1482 7.89625 67.2757C7.81274 67.2738 7.02693 67.9761 6.83428 68.0938C4.2918 69.6512 1.81576 68.1593 0.438709 65.8826L0.345703 2.76583C0.40834 1.87563 0.616179 1.10786 1.42286 0.616258C2.83218 -0.241672 3.40445 0.825047 4.66857 0.829792C5.53694 0.832639 6.02759 0.29833 6.78208 0.281248C7.2025 0.271757 7.53562 0.519456 7.80609 0.537488C8.07657 0.55552 8.57671 0.274605 8.9383 0.274605C9.61591 0.274605 10.1673 0.776646 10.8326 0.827894C11.8547 0.906664 12.3302 0.304974 13.2251 0.291687C13.619 0.285993 14.1219 0.55552 14.3412 0.540335C14.5917 0.522303 15.0102 0.270808 15.3927 0.275554C16.2506 0.285993 16.7289 0.912358 17.7643 0.823149C18.4201 0.767155 19.0057 0.275554 19.6634 0.274605C20.0069 0.274605 20.4482 0.527998 20.7073 0.527998C20.9892 0.527998 21.4162 0.272706 21.8205 0.281248C22.6329 0.29833 23.1653 0.894326 24.1286 0.827894C24.81 0.781391 25.3851 0.282197 26.0219 0.274605C27.1873 0.261318 28.2095 1.27869 28.2114 2.43841H41.0651C40.9114 1.34037 42.0645 0.284095 43.1141 0.265114C43.7708 0.252777 44.3555 0.759563 45.0017 0.824098C46.0277 0.927543 46.5534 0.29833 47.4009 0.281248C47.8043 0.272706 48.2313 0.527998 48.5141 0.527998C48.7732 0.527998 49.2145 0.273655 49.5581 0.274605C50.2926 0.274605 50.8867 0.83169 51.7409 0.829792C52.5485 0.827894 53.08 0.284095 53.8288 0.274605C54.2103 0.269859 54.6316 0.522303 54.8803 0.539386C55.1289 0.556469 55.6139 0.27935 56.0628 0.29928C57.0469 0.342935 57.4655 1.00441 58.647 0.801321C59.1491 0.714958 59.6084 0.302127 60.2129 0.27935C60.6267 0.264165 61.1202 0.557418 61.4163 0.537488C61.6555 0.521354 62.0133 0.27935 62.371 0.274605C63.1948 0.265114 63.7756 0.894326 64.7484 0.827894C65.7211 0.761461 66.1738 0.0107719 67.3535 0.397979C68.4335 0.751971 68.871 1.79212 68.8776 2.85978L68.7846 65.8826C67.4076 68.1593 64.9315 69.6521 62.3891 68.0938C62.1964 67.9761 61.4106 67.2738 61.3271 67.2757C59.4556 69.1539 56.7992 69.2298 54.9572 67.2634C54.1856 67.8689 53.4719 68.4554 52.4764 68.6537C50.9247 68.9641 49.6397 68.2893 48.5179 67.2757C47.1684 68.4924 45.6907 69.1159 43.8876 68.4687C42.8645 68.1014 40.9712 66.4425 40.9712 65.3112V55.8683H28.2541V65.3112H28.2512ZM6.80296 2.43746C5.4762 3.19574 3.86474 3.17202 2.53229 2.43746V65.2163C3.52973 66.2812 4.32122 67.0736 5.78939 66.1957C5.98584 66.0781 6.80296 65.3872 6.80296 65.2163V2.43746ZM47.4218 29.2003V2.43746C46.0438 3.24699 44.588 3.06762 43.1511 2.53237V33.471H41.1107L40.9683 33.3287V13.3039C40.9683 13.2755 41.0889 13.2309 41.0632 13.1616H28.1563C28.1307 13.2309 28.2512 13.2755 28.2512 13.3039V33.3287L28.1089 33.471H26.0684V2.53237C25.3624 2.71268 24.6809 3.01258 23.9331 3.01258C23.1853 3.01258 22.519 2.72882 21.7978 2.53237V29.2003H19.7573L19.615 29.058V2.53237C18.8937 2.72977 18.2531 3.01353 17.4796 3.01258C16.7062 3.01163 16.0504 2.71173 15.3443 2.53237V32.4271C14.6449 32.521 13.9331 32.1547 13.2564 32.4271V2.53237C12.5295 2.6937 11.8936 3.01258 11.1211 3.01258C10.3486 3.01258 9.68709 2.74021 8.98575 2.53237V65.2163C8.98575 65.2638 9.45742 65.7952 9.55422 65.8816C10.993 67.1751 12.2628 66.5089 13.2564 65.1214V47.327H15.3443V65.2163C16.448 66.4852 17.5954 67.1799 19.0465 65.8816C19.1433 65.7952 19.615 65.2638 19.615 65.2163V50.5537H21.7978V65.2163C21.7978 65.3502 22.6253 66.0828 22.8113 66.1957C24.27 67.0783 25.0795 66.2745 26.0684 65.2163V46.283H28.2512V53.5432C28.2512 53.5669 28.1744 53.5992 28.1772 53.6381L28.2987 53.7804H40.9209L40.9683 46.283H43.1511V65.2163C44.14 66.2745 44.9495 67.0783 46.4082 66.1957C46.5942 66.0828 47.4218 65.3502 47.4218 65.2163V50.5537H49.6046V65.2163C49.6046 65.4033 50.5157 66.1559 50.7292 66.2745C52.1309 67.0518 52.9452 66.1881 53.8753 65.2163V47.327H55.9631V65.1214C56.9568 66.5089 58.2266 67.1751 59.6653 65.8816C59.7621 65.7952 60.2338 65.2638 60.2338 65.2163V2.43746C58.8558 3.24699 57.4 3.06762 55.9631 2.53237V32.4271C55.2865 32.1547 54.5747 32.521 53.8753 32.4271V2.53237C53.1483 2.6937 52.5124 3.01258 51.7399 3.01258C50.9674 3.01258 50.3059 2.74021 49.6046 2.53237V29.058L49.4622 29.2003H47.4218ZM62.4166 2.53237V65.2163C62.4166 65.3872 63.2328 66.0781 63.4302 66.1957C64.8983 67.0727 65.6898 66.2812 66.6873 65.2163V2.43746C65.3074 3.22232 63.8458 3.09135 62.4166 2.53237ZM41.0632 4.62025H28.1563C28.3395 5.2637 28.2607 6.06184 28.1563 6.70813H41.0632C40.9588 6.06184 40.8801 5.2637 41.0632 4.62025ZM41.0632 8.89092H28.1563C28.1307 8.9602 28.2512 9.00481 28.2512 9.03328V10.8364C28.2512 10.8649 28.1307 10.9095 28.1563 10.9788H41.0632C41.0889 10.9095 40.9683 10.8649 40.9683 10.8364V9.03328C40.9683 9.01335 41.1107 8.92509 41.0632 8.89092Z" fill="#A6A3A3" stroke="white" stroke-width="0.5"/>
<path d="M19.6156 31.3831L31.005 39.7831L19.6156 48.3709V44.1002H11.0742V42.0124H21.7983V44.1002L27.3986 39.7831L21.7983 35.6538V37.7417H11.0742V35.5589H19.6156V31.3831Z" fill="#A6A3A3" stroke="white" stroke-width="0.5"/>
<path d="M49.6042 31.3831V35.5589H58.1456V37.7417H47.4215V35.6538L41.8212 39.7831L47.4215 44.1002V42.0124H58.1456V44.1002H49.6042V48.3709L38.2148 39.7831L49.6042 31.3831Z" fill="#A6A3A3" stroke="white" stroke-width="0.5"/>
</svg>
