<svg width="66" height="66" viewBox="0 0 66 66" fill="none" xmlns="http://www.w3.org/2000/svg">
<path d="M0.577241 7.29868H3.05905L1.3632 9.8979C0.46962 11.2644 0.46962 13.0222 1.3632 14.3886L3.4504 17.5912L1.3632 20.7937C0.46962 22.1602 0.46962 23.918 1.3632 25.2845L3.46019 28.5001L1.3632 31.7157C0.46962 33.0821 0.46962 34.84 1.3632 36.2064L3.46019 39.422L1.3632 42.6148C0.46962 43.9812 0.46962 45.7391 1.3632 47.1055L3.46019 50.3211L1.3632 53.5139C0.46962 54.8803 0.46962 56.6382 1.3632 58.0046L3.19603 60.8191C2.37419 61.1941 1.79695 61.9181 1.79695 62.8639C1.79695 64.1782 2.87316 65.2283 4.16136 65.2283H61.0604C62.3747 65.2283 63.4248 64.1782 63.4248 62.9161C63.4248 61.941 62.841 61.217 62.0094 60.855L63.8846 57.9818C64.201 57.5187 64.3999 56.9839 64.4912 56.4262C64.4978 56.3936 64.5043 56.3642 64.5075 56.3316C64.5075 56.3218 64.5108 56.3088 64.5141 56.299C64.6445 55.301 64.4358 54.3031 63.8846 53.4878L61.7877 50.295L63.8846 47.0794C64.2271 46.5805 64.4358 46.0032 64.5141 45.3999C64.6445 44.4019 64.4358 43.4301 63.8846 42.5887L61.7746 39.3764L63.8586 36.1803C64.1618 35.7401 64.3543 35.2346 64.4488 34.703C64.488 34.6247 64.5141 34.5399 64.5141 34.4453C64.5141 34.4062 64.5108 34.3703 64.501 34.3345C64.5891 33.392 64.3771 32.4592 63.8553 31.6896L61.7648 28.5033L63.8814 25.2551C64.1879 24.7855 64.3804 24.2735 64.4749 23.7387C64.4978 23.6799 64.5108 23.6147 64.5108 23.5495C64.6413 22.5776 64.4325 21.5797 63.8814 20.7677L61.7811 17.5455L63.8553 14.3886C64.1651 13.9353 64.3608 13.4168 64.4554 12.8722C64.4912 12.7972 64.5108 12.7156 64.5108 12.6276C64.5108 12.595 64.5075 12.5591 64.501 12.5265C64.5858 11.5905 64.3738 10.6839 63.8553 9.89464L62.1497 7.29542H64.6445C64.9869 7.29542 65.2478 7.03126 65.2218 6.71818V0.577242C65.2218 0.2609 64.9576 0 64.6445 0H0.577241C0.264161 0 0 0.264161 0 0.577242V6.72144C0 7.03778 0.264161 7.29868 0.577241 7.29868ZM2.36441 24.6812C1.73499 23.7093 1.73499 22.4505 2.36441 21.4786L4.17766 18.6968L5.99092 21.4786C6.62034 22.4505 6.62034 23.7093 5.99092 24.6812L4.17766 27.463L2.36441 24.6812ZM2.36441 35.577C1.73499 34.6051 1.73499 33.3463 2.36441 32.3744L4.17766 29.5926L5.99092 32.3744C6.62034 33.3463 6.62034 34.6051 5.99092 35.577L4.17766 38.3588L2.36441 35.577ZM2.33832 46.4728C1.7089 45.501 1.7089 44.2421 2.33832 43.2703L4.17766 40.4884L5.96157 43.2703C6.59099 44.2421 6.59099 45.501 5.96157 46.4728L4.14831 49.2547L2.33506 46.4728H2.33832ZM2.36441 57.3948C1.73499 56.4229 1.73499 55.1641 2.36441 54.1922L4.17766 51.4104L5.99092 54.1922C6.62034 55.1641 6.62034 56.4229 5.99092 57.3948L4.17766 60.1766L2.36441 57.3948ZM22.4668 64.064H4.39943C4.32768 64.0314 4.24941 64.0118 4.16462 64.0118C3.50911 64.0118 2.98404 63.4868 2.98404 62.8313C2.98404 62.241 3.42431 61.8627 3.98851 61.7746C4.00808 61.7812 4.02764 61.7877 4.05047 61.7909C4.09287 61.8007 4.13527 61.8072 4.17766 61.8072H22.4798L22.4668 64.064ZM41.607 64.064H23.6212L23.6343 61.8072H41.6201L41.607 64.064ZM62.2442 62.8835C62.2442 63.539 61.7192 64.064 61.0637 64.064H42.7615L42.7746 61.8072H61.0767C61.7322 61.8072 62.2475 62.2279 62.2475 62.8835H62.2442ZM62.9128 57.3426L60.7571 60.6495H5.25714L6.9856 57.9981C7.22367 57.6361 7.39326 57.2448 7.50414 56.8436H63.1672C63.0954 57.0165 63.0139 57.1861 62.9128 57.3426ZM62.9128 54.14C63.2226 54.6162 63.3857 55.1412 63.3889 55.6891H7.65089C7.63785 54.9293 7.41608 54.1727 6.98234 53.5106L5.2767 50.9114H60.7897L62.9095 54.14H62.9128ZM62.9128 46.4467L60.7571 49.7537H5.25714L6.9856 47.1023C7.22693 46.7337 7.40304 46.3326 7.51392 45.9217H63.1867C63.115 46.1043 63.0237 46.2772 62.916 46.4467H62.9128ZM62.9128 43.2442C63.2193 43.7138 63.3791 44.2291 63.3889 44.7672H7.65089C7.63459 44.0171 7.41282 43.2703 6.9856 42.6148L5.27997 40.0156H60.793L62.9128 43.2442ZM62.9128 35.5509L60.7571 38.8578H5.25714L6.9856 36.2064C7.22693 35.8379 7.40304 35.4368 7.51392 35.0258H63.1802C63.1085 35.2085 63.0204 35.3846 62.9128 35.5509ZM62.9128 32.3484C63.2193 32.818 63.3791 33.3333 63.3889 33.8714H7.65089C7.63459 33.1213 7.41282 32.3744 6.9856 31.7189L5.27344 29.0936H60.7506L62.9128 32.3484ZM62.9128 24.629L60.7571 27.9391H5.25714L6.9856 25.2877C7.22367 24.9257 7.39326 24.5344 7.50414 24.1333H63.1672C63.0954 24.3061 63.0139 24.4757 62.9128 24.6322V24.629ZM62.9128 21.4264C63.2226 21.9026 63.3857 22.4276 63.3889 22.9755H7.65089C7.63785 22.2156 7.41608 21.459 6.98234 20.797L5.28649 18.1978H60.8028L62.9095 21.4264H62.9128ZM62.9128 13.7592L60.7571 17.04H5.25714L6.9856 14.3886C7.22693 14.0201 7.40304 13.619 7.51392 13.2081H63.1933C63.1183 13.4005 63.0269 13.5864 62.916 13.7592H62.9128ZM61.6539 1.15448H64.0705V6.11811H61.6539V1.15448ZM62.9128 10.5534C63.2128 11.0132 63.3759 11.522 63.3889 12.0503H7.65089C7.63459 11.3002 7.41282 10.5534 6.9856 9.8979L5.28975 7.29868H60.7506L62.9128 10.5534ZM4.75164 1.15448H60.4962V6.11811H4.75164V1.15448ZM5.9844 10.5534C6.61382 11.5253 6.61382 12.7841 5.9844 13.756L4.17114 16.5378L2.35788 13.756C1.72846 12.7841 1.72846 11.5253 2.35788 10.5534L4.17114 7.77156L5.9844 10.5534ZM1.18057 1.15448H3.59716V6.11811H1.18057V1.15448Z" fill="#A6A3A3"/>
</svg>
