<svg width="67" height="66" viewBox="0 0 67 66" fill="none" xmlns="http://www.w3.org/2000/svg">
<path d="M55.7649 0L54.5103 1.84892V1.18859H13.8009V6.2071H51.5388L50.7134 7.3957H14.3292L16.046 10.037C16.4752 10.6973 16.7064 11.4567 16.7064 12.2161H47.3787L46.5863 13.3717H16.5743C16.5743 13.4377 16.5413 13.5038 16.5083 13.5698C16.4092 13.9 16.2441 14.2301 16.046 14.5603L15.3197 15.6498L14.7254 16.5743L14.2961 17.2346H43.945L43.1526 18.3902H14.3292L14.8574 19.1826C14.8574 19.2156 15.2206 19.8099 15.2206 19.8099L16.013 20.9985C16.046 21.0975 16.079 21.1306 16.1121 21.1966C16.3102 21.5598 16.4752 21.923 16.5743 22.2861C16.6403 22.5503 16.6733 22.8144 16.7064 23.0785C16.7064 23.1116 16.7064 23.1776 16.7064 23.2106H39.8179L39.0255 24.3662H16.5743C16.4752 24.6633 16.3762 24.9605 16.2111 25.2576C16.1451 25.3567 16.1121 25.4557 16.046 25.5218L15.5508 26.2811L14.3292 28.1301V28.1961H36.3512L35.5588 29.3517H14.3292L15.0555 30.4742L16.079 32.026C16.5083 32.6863 16.7394 33.4457 16.7394 34.2051H32.2901L31.4977 35.3607H16.5743C16.4752 35.7899 16.2771 36.1861 16.046 36.5493L14.2961 39.2236H28.8234L28.031 40.3792H14.3292L16.046 43.0205C16.4752 43.6808 16.7064 44.4402 16.7064 45.1996H24.7294L23.937 46.3552H16.5743C16.4752 46.7844 16.2771 47.1806 16.046 47.5438L15.2206 48.7984H13.7679L15.0225 46.9165C15.2536 46.5533 15.4187 46.1241 15.4847 45.7279C15.5838 45.0345 15.4187 44.3082 15.0225 43.6808L13.2066 40.8744L11.3577 43.6808C10.7304 44.6713 10.7304 45.926 11.3577 46.9165L12.6123 48.8644L0 49.0625V65.8679H66.033V0H55.7649Z" fill="#FCFAE8"/>
<path d="M15.0559 13.933C15.287 13.5698 15.4521 13.1406 15.5181 12.7444C15.6171 12.084 15.4851 11.4237 15.1549 10.8294C15.1549 10.7964 15.1219 10.7634 15.0889 10.6973L14.6597 10.037L13.273 7.89093L11.4241 10.6973C11.292 10.8954 11.1929 11.1265 11.0939 11.3577C10.8958 11.985 10.8958 12.6783 11.0939 13.3056C11.1269 13.4377 11.1929 13.5368 11.259 13.6688C11.292 13.7679 11.358 13.8339 11.391 13.933L12.0184 14.8904L12.0844 14.9895L12.8768 16.2111L13.2069 16.7394L13.8343 15.7819L14.4286 14.8904L15.0559 13.933Z" fill="#FCFAE8"/>
<path d="M14.6932 25.4887L15.0233 24.9605C15.1224 24.7954 15.2214 24.5973 15.3205 24.3992C15.3865 24.2011 15.4525 23.97 15.4856 23.7389C15.4856 23.5408 15.5186 23.3427 15.4856 23.1446C15.4525 22.6493 15.2875 22.1541 15.0233 21.7249L14.9573 21.6258L14.8583 21.4937L14.5611 20.9985L13.7687 19.8099L13.7027 19.7109L13.1744 18.9185L12.5801 19.8099L12.2499 20.3052L12.1509 20.4702L11.8207 20.9655C11.8207 20.9985 11.5236 21.4607 11.5236 21.4607C11.5236 21.4937 11.3585 21.7249 11.3585 21.7249C11.2925 21.8239 11.2595 21.8899 11.1934 21.989C11.1274 22.088 11.0944 22.2201 11.0614 22.3522C10.9953 22.5833 10.9293 22.8144 10.8963 23.0455C10.8633 23.4747 10.8963 23.937 11.0614 24.3662C11.1274 24.5313 11.1934 24.7294 11.2925 24.8944C11.2925 24.8944 11.3255 24.9605 11.3585 24.9935L11.9858 25.951L12.283 26.4132L12.5801 26.8754L13.1744 27.7999L13.7687 26.8754L14.363 25.951L14.6602 25.4887H14.6932Z" fill="#FCFAE8"/>
<path d="M11.3572 32.7854C10.7299 33.7759 10.7299 35.0305 11.3572 36.021L13.2061 38.8274L15.0551 36.021C15.2862 35.6578 15.4513 35.2286 15.5173 34.8324C15.6163 34.1391 15.4513 33.4127 15.0551 32.7854L13.2061 29.979L11.3572 32.7854Z" fill="#FCFAE8"/>
<path d="M12.6131 1.15558H10.1699V6.17409H12.6131V1.15558Z" fill="#FCFAE8"/>
<path d="M5.25069 16.079C5.51482 15.7819 5.77895 15.4847 6.10912 15.2206L4.59036 13.7018C4.35924 13.4707 3.96305 13.4707 3.73193 13.7018C3.50081 13.933 3.50081 14.3292 3.73193 14.5603L5.25069 16.079Z" fill="#A6A3A3"/>
<path d="M5.25069 24.7954L3.73193 26.3142C3.50081 26.5453 3.50081 26.9415 3.73193 27.1726C3.864 27.3047 3.99606 27.3377 4.16115 27.3377C4.32623 27.3377 4.45829 27.2717 4.59036 27.1726L6.10912 25.6538C5.81197 25.3897 5.51482 25.1256 5.25069 24.7954Z" fill="#A6A3A3"/>
<path d="M1.55133 19.8429C1.22116 19.8429 0.957031 20.107 0.957031 20.4372C0.957031 20.7674 1.22116 21.0315 1.55133 21.0315H3.6974C3.6974 20.8334 3.6974 20.6353 3.6974 20.4372C3.6974 20.2391 3.6974 20.041 3.6974 19.8429H1.55133Z" fill="#A6A3A3"/>
<path d="M11.0597 29.3517V27.2056C10.8616 27.2056 10.6635 27.2056 10.4654 27.2056C10.2673 27.2056 10.0692 27.2056 9.87109 27.2056V29.3517C9.87109 29.6819 10.1352 29.946 10.4654 29.946C10.7956 29.946 11.0597 29.6819 11.0597 29.3517Z" fill="#A6A3A3"/>
<path d="M0.429601 16.9044L3.99538 18.3902C4.12745 17.994 4.25952 17.6308 4.45762 17.3006L0.891832 15.8149C0.594684 15.6828 0.231502 15.8149 0.0994363 16.1451C-0.0326298 16.4422 0.0994363 16.8054 0.429601 16.9375V16.9044Z" fill="#A6A3A3"/>
<path d="M6.17393 30.8044C6.23996 30.8044 6.33901 30.8374 6.40504 30.8374C6.63616 30.8374 6.86728 30.7054 6.96633 30.4742L8.45207 26.9085C8.05587 26.7764 7.69269 26.6443 7.36252 26.4462L5.87678 30.012C5.74471 30.3092 5.87678 30.6723 6.20695 30.8044H6.17393Z" fill="#A6A3A3"/>
<path d="M0.660041 25.0926C0.726074 25.0926 0.825123 25.0926 0.891156 25.0595L4.45694 23.5738C4.25884 23.2106 4.12677 22.8474 3.99471 22.4843L0.428925 23.97C0.131776 24.1021 -0.033306 24.4322 0.09876 24.7624C0.19781 24.9935 0.428925 25.1256 0.660041 25.1256V25.0926Z" fill="#A6A3A3"/>
<path d="M7.33041 14.3952C7.69359 14.1971 8.05677 14.065 8.41995 13.9329L6.93421 10.3672C6.80215 10.07 6.47198 9.90493 6.14182 10.037C5.84467 10.1691 5.67958 10.4992 5.81165 10.8294L7.29739 14.3952H7.33041Z" fill="#A6A3A3"/>
<path d="M64.4812 36.8464H57.7789L57.911 36.6153C58.2081 36.1531 58.4062 35.6578 58.5053 35.0965V34.7664C58.6373 33.8089 58.4392 32.8514 57.911 32.059L55.7979 28.8234L57.944 25.5218C58.2411 25.0265 58.4722 24.5313 58.5383 23.97C58.5383 23.904 58.5383 23.8709 58.5383 23.8049C58.6703 22.8144 58.4722 21.8239 57.911 20.9985L55.7979 17.7299L57.911 14.5273C58.2411 14.065 58.4392 13.5368 58.5383 12.9755V12.6453C58.6703 11.6878 58.4392 10.7634 57.911 9.97099L56.1941 7.32967H58.7034C59.0335 7.32967 59.3307 7.06553 59.2977 6.73537V0.594297C59.2977 0.264132 59.0335 0 58.7034 0H9.57479C9.24462 0 8.98049 0.264132 8.98049 0.594297V6.8014C8.98049 7.13157 9.24462 7.3957 9.57479 7.3957H12.084L10.3672 10.037C9.67384 11.0935 9.50876 12.3812 9.87194 13.5698V13.6688C9.87194 13.6688 9.87194 13.6688 9.90495 13.6688C10.004 13.999 10.1691 14.2961 10.3672 14.5933L10.4332 14.7254C10.2351 14.7254 10.07 14.7254 9.87194 14.7254C9.50876 14.7584 9.17859 14.8244 8.84842 14.9235C8.45223 15.0225 8.08905 15.1876 7.72586 15.3857C7.42872 15.5508 7.13157 15.7489 6.83442 15.98C6.53727 16.2441 6.24012 16.5083 5.97599 16.8384C5.74487 17.1026 5.54677 17.3997 5.38169 17.6968C5.18359 18.06 5.05153 18.4232 4.91946 18.7864C4.82041 19.1166 4.75438 19.4797 4.72136 19.8099C4.72136 20.008 4.72136 20.2061 4.72136 20.4042C4.72136 20.6023 4.72136 20.8004 4.72136 20.9985C4.75438 21.3617 4.82041 21.6918 4.91946 22.022C5.01851 22.4182 5.18359 22.7814 5.38169 23.1446C5.54677 23.4417 5.74487 23.7389 5.97599 24.036C6.24012 24.3332 6.50425 24.6303 6.83442 24.8944C7.09855 25.1256 7.3957 25.3237 7.69285 25.4887C8.05603 25.6868 8.41921 25.8189 8.78239 25.951C9.11256 26.05 9.47574 26.1161 9.8059 26.1491C10.004 26.1491 10.2021 26.1491 10.4002 26.1491C10.5983 26.1491 10.5653 26.1491 10.6643 26.1491L11.0275 26.6773L11.3247 27.1396L12.4142 28.8234L10.3012 32.092C9.40971 33.4787 9.40971 35.2616 10.3012 36.6483L12.4142 39.917L10.3012 43.1526C9.40971 44.5393 9.40971 46.3222 10.3012 47.7089L10.8954 48.6333H0V49.8219H11.7539L12.3812 50.7794C12.2821 50.7794 12.1831 50.8454 12.084 50.8784C11.2586 51.2416 10.6643 52.1 10.6643 53.0575C10.6643 54.015 11.7539 55.4347 13.0415 55.4347H27.1726C27.4697 55.5668 27.7999 55.6328 28.1301 55.6988V64.4812C28.1301 65.3067 28.8234 66 29.6488 66H66.033V64.8114H29.6488C29.4507 64.8114 29.3187 64.6793 29.3187 64.4812V55.1376C29.3187 54.8074 29.0545 54.5433 28.7244 54.5433C28.3942 54.5433 27.8329 54.4442 27.4697 54.2791C26.5123 53.8499 25.7859 52.9585 25.6208 51.902C25.6208 51.8029 25.6208 51.6708 25.6208 51.5718C25.6208 51.5388 25.6208 51.5058 25.6208 51.4727C25.6208 51.2086 25.6538 50.9775 25.7199 50.7464C25.7199 50.6473 25.7859 50.5153 25.8189 50.4162C26.2481 49.2276 27.4037 48.3692 28.7574 48.3692C30.1111 48.3692 31.2666 49.2276 31.6959 50.4162C31.7289 50.5153 31.7619 50.6473 31.7949 50.7464C31.8609 50.9775 31.8939 51.2086 31.8939 51.4727V58.9345C31.8939 59.2646 32.1581 59.5288 32.4882 59.5288H66.066V58.3402H33.0825V55.7979H66.066V54.6093H33.0825V51.4727C33.0825 51.2086 33.0825 50.9775 33.0165 50.7464C33.0165 50.6473 32.9835 50.5153 32.9505 50.4162C32.5213 48.7654 31.1016 47.4777 29.3517 47.2466V44.9685C29.3517 44.9685 29.3517 43.2186 30.6063 41.5348C30.8704 41.1716 31.1676 40.8744 31.4647 40.5773C31.96 40.1151 32.5213 39.7519 33.1486 39.4217C34.7994 38.5633 36.9455 38.1341 39.4877 38.1341H64.5143C65.0425 38.1341 65.5708 38.1341 66.066 38.2001V37.0115C65.5708 36.9785 65.0425 36.9455 64.5143 36.9455L64.4812 36.8464ZM56.9535 24.9275L54.7744 28.2621H14.2961V28.1961C14.3292 28.1961 15.5508 26.3472 15.5508 26.3472L16.046 25.5878C16.1121 25.4887 16.1451 25.3897 16.2111 25.3237C16.3762 25.0265 16.4752 24.7294 16.5743 24.4322H57.1846C57.1186 24.5973 57.0195 24.7624 56.9205 24.9275H56.9535ZM56.9535 21.6918C57.2836 22.1871 57.4157 22.7154 57.4487 23.2766H16.7394C16.7394 23.2436 16.7394 23.1776 16.7394 23.1446C16.7394 22.8804 16.6733 22.6163 16.6073 22.3522C16.5083 21.989 16.3762 21.5928 16.1451 21.2626C16.1121 21.1966 16.079 21.1636 16.046 21.0975L15.2536 19.8759L14.8904 19.3147C14.8904 19.2816 14.3622 18.4892 14.3622 18.4892H54.8404L56.9865 21.7579L56.9535 21.6918ZM56.9535 13.933L54.7744 17.2676H14.2961L14.7254 16.6073L15.3197 15.6828L16.046 14.5933C16.2441 14.2961 16.4092 13.933 16.5083 13.6028C16.5083 13.5368 16.5413 13.4707 16.5743 13.4047H57.2176C57.1516 13.6028 57.0525 13.8009 56.9205 13.966L56.9535 13.933ZM55.6658 1.15558H58.1091V6.17409H55.6658V1.15558ZM56.9535 10.6973C57.2506 11.1596 57.4157 11.6878 57.4487 12.2161H16.7394C16.7394 11.4567 16.5083 10.6973 16.079 10.037L14.3622 7.3957H54.7744L56.9535 10.6973ZM13.8009 1.15558H54.5103V6.17409H13.8009V1.15558ZM10.1691 6.2071V1.15558H12.6123V6.17409H10.1691V6.2071ZM11.0605 11.3577C11.1266 11.1266 11.2256 10.8954 11.3907 10.6973L13.2396 7.89095L14.6263 10.037L15.0555 10.6973C15.0555 10.7304 15.0885 10.7634 15.1216 10.8294C15.4517 11.4237 15.5838 12.084 15.4847 12.7444C15.4187 13.1736 15.2866 13.5698 15.0225 13.933L14.3952 14.8904L13.8009 15.7819L13.1736 16.7394L12.8434 16.2111L12.051 14.9895L11.985 14.8904L11.3577 13.933C11.2916 13.8339 11.2586 13.7679 11.2256 13.6688C11.1596 13.5368 11.1266 13.4377 11.0605 13.3057C10.8294 12.6783 10.8294 11.985 11.0605 11.3577ZM10.3672 21.0315C10.3672 21.0315 10.3672 21.0645 10.3342 21.0975C10.3012 21.1636 10.2681 21.2296 10.2351 21.2956C10.1691 21.4277 10.1031 21.5598 10.037 21.7249C10.004 21.8239 9.93797 21.956 9.90495 22.055C9.73987 22.6163 9.67384 23.2106 9.73987 23.8049C9.73987 24.069 9.83892 24.3002 9.90495 24.5643C9.93797 24.6963 10.004 24.8284 10.037 24.9275C10.004 24.9275 9.93797 24.9275 9.90495 24.9275C9.70685 24.9275 9.50875 24.8614 9.34367 24.8284C8.94747 24.7294 8.58429 24.5643 8.25413 24.3662C8.08905 24.2671 7.92396 24.1681 7.75888 24.036C7.42872 23.8049 7.16458 23.5078 6.90045 23.1776C6.76838 23.0125 6.66934 22.8474 6.57029 22.6823C6.37219 22.3522 6.2071 21.956 6.10805 21.5928C6.07504 21.3947 6.00901 21.2296 6.00901 21.0315C6.00901 20.8334 5.97599 20.6353 5.97599 20.4372C5.97599 20.2391 5.97599 20.041 6.00901 19.8429C6.00901 19.6448 6.07504 19.4467 6.10805 19.2816C6.2071 18.8854 6.37219 18.5223 6.57029 18.1921C6.66934 18.027 6.76838 17.8619 6.90045 17.6968C7.13157 17.3667 7.42872 17.1026 7.75888 16.8384C7.92396 16.7064 8.08905 16.6073 8.25413 16.5083C8.58429 16.3102 8.98049 16.1451 9.34367 16.046C9.54177 16.013 9.70685 15.947 9.90495 15.947C10.1031 15.947 10.3012 15.914 10.4993 15.914C10.6973 15.914 10.8954 15.914 11.0935 15.947C11.1596 15.947 11.2256 15.947 11.2916 15.947L11.5558 16.3432L12.3482 17.5648L12.4142 17.6638L12.5133 17.7959L11.7869 18.9185L11.4897 19.3477L11.1926 19.8099L11.0935 19.942V20.008C11.0605 20.008 10.9945 20.074 10.9945 20.074L10.4002 20.9985L10.3672 21.0315ZM12.3152 26.4462L12.018 25.984L11.3907 25.0265C11.3907 25.0265 11.3577 24.9605 11.3247 24.9275C11.2256 24.7624 11.1596 24.5973 11.0935 24.3992C10.9285 23.97 10.8954 23.5408 10.9285 23.0785C10.9285 22.8474 10.9945 22.6163 11.0935 22.3852C11.1266 22.2531 11.1926 22.1541 11.2256 22.022C11.2586 21.923 11.3247 21.8239 11.3907 21.7579L11.5558 21.5268C11.5558 21.4937 11.8529 21.0315 11.8529 21.0315C11.8529 20.9985 12.1831 20.5033 12.1831 20.5033L12.2821 20.3382L12.6123 19.8429L13.2066 18.9515L13.7349 19.7439L13.8009 19.8429L14.5933 21.0315L14.8904 21.5268L14.9895 21.6588L15.0555 21.7579C15.3527 22.1871 15.4847 22.6823 15.5178 23.1776C15.5178 23.3757 15.5178 23.5738 15.5178 23.7719C15.5178 24.003 15.4187 24.2011 15.3527 24.4322C15.2866 24.6303 15.1876 24.8284 15.0555 24.9935L14.7254 25.5218L14.4282 25.984L13.8339 26.9085L13.2396 27.8329L12.6453 26.9085L12.3482 26.4462H12.3152ZM11.3577 36.021C10.7304 35.0305 10.7304 33.7759 11.3577 32.7854L13.2066 29.979L15.0555 32.7854C15.4517 33.4127 15.6168 34.1391 15.5178 34.8324C15.4517 35.2616 15.3197 35.6578 15.0555 36.021L13.2066 38.8274L11.3577 36.021ZM11.3577 47.0485C10.7304 46.058 10.7304 44.8034 11.3577 43.8129L13.2066 41.0065L15.0225 43.8129C15.4187 44.4402 15.5838 45.1666 15.4847 45.8599C15.4187 46.2891 15.2866 46.6853 15.0225 47.0485L13.1736 49.8549L11.3247 47.0485H11.3577ZM13.2726 54.2791C13.2066 54.2461 13.1076 54.2131 13.0415 54.2131C12.3812 54.2131 11.8529 53.6848 11.8529 53.0245C11.8529 52.3642 12.2821 51.935 12.8434 51.8359C12.8434 51.8359 12.9095 51.8359 12.9425 51.8359C12.9755 51.8359 13.0085 51.8359 13.0745 51.8359H24.4652C24.5643 52.7604 24.9275 53.5858 25.5218 54.2131H13.3057L13.2726 54.2791ZM28.1301 47.2136C26.3802 47.4447 24.9605 48.7324 24.5313 50.3832H14.2961L16.046 47.7089C16.2771 47.3457 16.4752 46.9165 16.5743 46.5203H28.1301V47.2136ZM28.1301 44.9025V45.3317H16.7394C16.7394 44.5723 16.5083 43.8129 16.079 43.1526L14.3622 40.5113H29.8469C28.1631 42.5913 28.1631 44.8034 28.1631 44.9025H28.1301ZM56.9535 35.988L56.3922 36.8464H39.4547C35.7899 36.8464 32.9505 37.6718 30.9695 39.3227H14.3292L16.079 36.6483C16.3102 36.2851 16.5083 35.8559 16.6073 35.4597H57.2506C57.1846 35.6578 57.0856 35.8229 56.9865 35.988H56.9535ZM16.7394 34.3042C16.7394 33.5448 16.5083 32.7854 16.079 32.1251L15.0555 30.5733L14.3292 29.4507H54.7744L56.9535 32.7524C57.2506 33.2146 57.4157 33.7429 57.4487 34.3042H16.7394Z" fill="#A6A3A3"/>
</svg>
