<svg width="70" height="72" viewBox="0 0 70 72" fill="none" xmlns="http://www.w3.org/2000/svg">
<path d="M67.0454 39.5585C60.0425 39.5225 53.0397 39.4861 46.0368 39.4497C32.0336 39.3769 18.0304 39.3041 4.02719 39.2349L4.46245 39.4398C4.41571 39.5391 4.36788 39.6379 4.31914 39.7363M67.0454 39.5585L4.31914 39.7363M67.0454 39.5585C67.2757 39.5585 68.1032 41.4634 68.5193 42.4213M67.0454 39.5585L68.5193 42.4213M4.31914 39.7363C4.02061 40.3391 3.68811 40.9256 3.36365 41.4979C3.3324 41.553 3.30122 41.608 3.27016 41.6629C2.86002 42.3872 2.46754 43.0921 2.14869 43.819C1.50957 45.2763 1.20882 46.8203 1.70494 48.1821C2.19935 49.5392 3.67744 50.6856 5.27249 50.5991L5.79959 50.5705V51.0983V66.4103C5.79959 67.0481 5.79845 67.6869 5.79731 68.3251V68.3252C5.79617 68.9636 5.79503 69.6014 5.79503 70.2383C5.79503 70.3401 5.7803 70.4893 5.76708 70.6231L5.76507 70.6435L5.76505 70.6437C5.74986 70.7977 5.73343 70.9644 5.72416 71.1264C5.71593 71.27 5.71444 71.3936 5.72121 71.4889C5.73132 71.4899 5.74204 71.4909 5.75338 71.4918C5.8985 71.5034 6.08906 71.5019 6.30143 71.4924C6.51014 71.4831 6.7238 71.467 6.91545 71.4525L6.91826 71.4523L6.93611 71.451C7.11087 71.4378 7.28673 71.4245 7.40016 71.4245H16.167H16.2355H16.304H16.3725H16.441H16.5095H16.578H16.6465H16.715H16.7835H16.852H16.9205H16.9891H17.0576H17.1261H17.1946H17.2631H17.3316H17.4001H17.4686H17.5371H17.6056H17.6741H17.7426H17.8111H17.8796H17.9481H18.0167H18.0852H18.1537H18.2222H18.2907H18.3592H18.4277H18.4962H18.5647H18.6332H18.7017H18.7702H18.8387H18.9072H18.9757H19.0442H19.1127H19.1812H19.2497H19.3182H19.3867H19.4553H19.5238H19.5923H19.6608H19.7293H19.7978H19.8663H19.9348H20.0033H20.0718H20.1403H20.2088H20.2773H20.3458H20.4143H20.4828H20.5513H20.6198H20.6883H20.7568H20.8253H20.8938H20.9623H21.0308H21.0993H21.1678H21.2363H21.3048H21.3733H21.4418H21.5103H21.5788H21.6473H21.7158H21.7843H21.8528H21.9213H21.9898H22.0583H22.1268H22.1953H22.2638H22.3323H22.4008H22.4693H22.5378H22.6063H22.6748H22.7433H22.8118H22.8804H22.9488H23.0173H23.0858H23.1544H23.2228H23.2913H23.3598H23.4283H23.4968H23.5653H23.6338H23.7023H23.7708H23.8393H23.9078H23.9763H24.0448H24.1133H24.1818H24.2503H24.3188H24.3873H24.4558H24.5243H24.5928H24.6613H24.7298H24.7983H24.8668H24.9353H25.0038H25.0723H25.1408H25.2093H25.2778H25.3463H25.4148H25.4833H25.5518H25.6203H25.6888H25.7573H25.8258H25.8943H25.9628H26.0313H26.0998H26.1683H26.2368H26.3053H26.3738H26.4423H26.5108H26.5793H26.6478H26.7163H26.7848H26.8533H26.9218H26.9903H27.0588H27.1273H27.1957H27.2642H27.3327H27.4012H27.4697H27.5382H27.6067H27.6752H27.7437H27.8122H27.8807H27.9492H28.0177H28.0862H28.1547H28.2232H28.2917H28.3602H28.4287H28.4972H28.5657H28.6342H28.7027H28.7712H28.8397H28.9082H28.9767H29.0452H29.1136H29.1821H29.2506H29.3191H29.3876H29.4561H29.5246H29.5931H29.6616H29.7301H29.7986H29.8671H29.9356H30.0041H30.0726H30.1411H30.2096H30.2781H30.3466H30.4151H30.4836H30.5521H30.6206H30.6891H30.7575H30.826H30.8945H30.963H31.0315H31.1H31.1685H31.237H31.3055H31.374H31.4425H31.511H31.5795H31.648H31.7165H31.785H31.8535H31.922H31.9905H32.059H32.1275H32.1959H32.2644H32.3329H32.4014H32.4699H32.5384H32.6069H32.6754H32.7439H32.8124H32.8809H32.9494H33.0179H33.0864H33.1549H33.2234H33.2919H33.3604H33.4289H33.4974H33.5658H33.6343H33.7028H33.7713H33.8398H33.9083H33.9768H34.0453H34.1138H34.1823H34.2508H34.3193H34.3878H34.4563H34.5248H34.5933H34.6618H34.7303H34.7988H34.8673H34.9358H35.0042H35.0727H35.1412H35.2097H35.2782H35.3467H35.4152H35.4837H35.5522H35.6207H35.6892H35.7577H35.8262H35.8947H35.9632H36.0317H36.1002H36.1687H36.2372H36.3057H36.3742H36.4426H36.5111H36.5796H36.6481H36.7166H36.7851H36.8536H36.9221H36.9906H37.0591H37.1276H37.1961H37.2646H37.3331H37.4016H37.4701H37.5386H37.6071H37.6756H37.7441H37.8126H37.8811H37.9496H38.018H38.0865H38.155H38.2235H38.292H38.3605H38.429H38.4975H38.566H38.6345H38.703H38.7715H38.84H38.9085H38.977H39.0455H39.114H39.1825H39.251H39.3195H39.388H39.4565H39.525H39.5935H39.662H39.7305H39.799H39.8674H39.9359H40.0044H40.0729H40.1414H40.2099H40.2784H40.3469H40.4154H40.4839H40.5524H40.6209H40.6894H40.7579H40.8264H40.8949H40.9634H41.0319H41.1004H41.1689H41.2374H41.3059H41.3744H41.4429H41.5114H41.5799H41.6484H41.7169H41.7854H41.8539H41.9224H41.9909H42.0594H42.1279H42.1964H42.2649H42.3334H42.4019H42.4704H42.5389H42.6074H42.6758H42.7444H42.8128H42.8813H42.9498H43.0183H43.0868H43.1553H43.2238H43.2923H43.3608H43.4293H43.4978H43.5663H43.6348H43.7033H43.7718H43.8403H43.9088H43.9773H44.0458H44.1143H44.1828H44.2513H44.3198H44.3883H44.4568H44.5253H44.5938H44.6623H44.7308H44.7993H44.8678H44.9363H45.0048H45.0733H45.1418H45.2103H45.2788H45.3473H45.4158H45.4843H45.5528H45.6213H45.6898H45.7583H45.8268H45.8954H45.9639H46.0324H46.1009H46.1694H46.2379H46.3064H46.3749H46.4434H46.5119H46.5804H46.6489H46.7174H46.7859H46.8544H46.9229H46.9914H47.0599H47.1284H47.1969H47.2654H47.3339H47.4024H47.4709H47.5394H47.6079H47.6764H47.7449H47.8134H47.8819H47.9504H48.0189H48.0874H48.1559H48.2244H48.293H48.3615H48.43H48.4985H48.567H48.6355H48.704H48.7725H48.841H48.9095H48.978H49.0465H49.115H49.1835H49.252H49.3205H49.389H49.4575H49.526H49.5946H49.6631H49.7316H49.8001H49.8686H49.9371H50.0056H50.0741H50.1426H50.2111H50.2796H50.3481H50.4166H50.4851H50.5536H50.6222H50.6907H50.7592H50.8277H50.8962H50.9647H51.0332H51.1017H51.1702H51.2387H51.2458H51.2531H51.2608H51.2686H51.2768H51.2852H51.2939H51.3028H51.312H51.3215H51.3312H51.3412H51.3514H51.3619H51.3727H51.3837H51.395H51.4065H51.4182H51.4302H51.4425H51.455H51.4678H51.4808H51.494H51.5075H51.5212H51.5352H51.5494H51.5639H51.5785H51.5935H51.6086H51.624H51.6396H51.6555H51.6716H51.6879H51.7044H51.7212H51.7382H51.7554H51.7729H51.7906H51.8085H51.8266H51.8449H51.8635H51.8822H51.9012H51.9204H51.9398H51.9595H51.9793H51.9994H52.0196H52.0401H52.0608H52.0817H52.1027H52.124H52.1455H52.1672H52.1891H52.2112H52.2335H52.256H52.2787H52.3016H52.3247H52.348H52.3714H52.3951H52.4189H52.443H52.4672H52.4916H52.5162H52.541H52.566H52.5911H52.6164H52.6419H52.6676H52.6935H52.7195H52.7457H52.7721H52.7987H52.8254H52.8523H52.8794H52.9066H52.934H52.9616H52.9894H53.0173H53.0453H53.0736H53.1019H53.1305H53.1592H53.1881H53.2171H53.2463H53.2756H53.3051H53.3347H53.3645H53.3945H53.4246H53.4548H53.4852H53.5157H53.5464H53.5772H53.6081H53.6392H53.6705H53.7018H53.7334H53.765H53.7968H53.8287H53.8608H53.8929H53.9253H53.9577H53.9903H54.023H54.0558H54.0888H54.1218H54.155H54.1884H54.2218H54.2554H54.289H54.3228H54.3568H54.3908H54.4249H54.4592H54.4936H54.528H54.5626H54.5973H54.6321H54.667H54.7021H54.7372H54.7724H54.8077H54.8432H54.8787H54.9143H54.95H54.9859H55.0218H55.0578H55.0939H55.1301H55.1664H55.2027H55.2392H55.2758H55.3124H55.3491H55.3859H55.4228H55.4598H55.4968H55.534H55.5712H55.6085H55.6458H55.6833H55.7208H55.7584H55.7961H55.8338H55.8716H55.9095H55.9474H55.9854H56.0235H56.0616H56.0998H56.1381H56.1764H56.2148H56.2532H56.2917H56.3302H56.3688H56.4075H56.4462H56.485H56.5238H56.5627H56.6016H56.6405H56.6796H56.7186H56.7577H56.7969H56.836H56.8753H56.9145H56.9538H56.9932H57.0326H57.072H57.1114H57.1509H57.1904H57.2299H57.2695H57.3091H57.3488H57.3884H57.4281H57.4678H57.5075H57.5473H57.587H57.6268H57.6666H57.7065H57.7463H57.7862H57.826H57.8659H57.9058H57.9457H57.9857H58.0256H58.0655H58.1055H58.1454H58.1854H58.2253H58.2653H58.3052H58.3452H58.3851H58.4251H58.465H58.505H58.5449H58.5849H58.6248H58.6647H58.7046H58.7445H58.7844H58.8242H58.8641H58.9039H58.9437H58.9836H59.0233H59.0631H59.1028H59.1426H59.1823H59.2219H59.2616H59.3012H59.3408H59.3803H59.4199H59.4594H59.4988H59.5383H59.5777H59.617H59.6564H59.6956H59.7349H59.7741H59.8133H59.8524H59.8915H59.9305H59.9695H60.0084H60.0473H60.0862H60.125H60.1637H60.2024H60.2411H60.2796H60.3182H60.3566H60.3951H60.4334H60.4717H60.5099H60.5481H60.5862H60.6243H60.6622H60.7001H60.738H60.7758H60.8135H60.8511H60.8887H60.9261H60.9636H61.0009H61.0381H61.0753H61.1124H61.1494H61.1864H61.2232H61.26H61.2967H61.3333H61.3698H61.4063H61.4426H61.4788H61.515H61.5511H61.587H61.6229H61.6587H61.6944H61.73H61.7655H61.8008H61.8361H61.8713H61.9064H61.9414H61.9762H62.011H62.0457H62.0802H62.1146H62.149H62.1832H62.2173H62.2512H62.2851H62.3189H62.3525H62.386H62.4194H62.4527H62.4858H62.5188H62.5518H62.5845H62.6172H62.6497H62.6821H62.7143H62.7465H62.7785H62.8103H62.8421H62.8737H62.9051H62.9364H62.9676H62.9987H63.0296H63.0603H63.0909H63.1214H63.1517H63.1819H63.2119H63.2418H63.2715H63.3011H63.3305H63.3598H63.3889H63.4179H63.4467H63.4753H63.5038H63.5321H63.5603H63.5883H63.6161H63.6438H63.6713H63.6987H63.7258H63.7528H63.7797H63.8063H63.8328H63.8591H63.8853H63.9112H63.937H63.9626H63.9881H64.0133H64.0384H64.0633H64.088H64.1125H64.1368H64.161H64.185H64.2087H64.2323H64.2557H64.2789H64.3019H64.3247H64.3473H64.3697H64.392H64.414H64.4358H64.4574H64.4788H64.5H64.521H64.5418H64.5624H64.5828H64.603H64.623H64.6427H64.6623H64.6816H64.7007H64.7196H64.7383H64.7568H64.775H64.793H64.8108H64.8284H64.8458H64.8629H64.8798H64.8965H64.9129H64.9292H64.9415V71.3967V71.3561V71.3155V71.2749V71.2343V71.1937V71.1531V71.1125V71.0719V71.0313V70.9907V70.9501V70.9095V70.8689V70.8283V70.7877V70.7471V70.7065V70.6659V70.6253V70.5847V70.5441V70.5035V70.4629V70.4223V70.3817V70.3411V70.3005V70.2599V70.2193V70.1787V70.1381V70.0975V70.0569V70.0163V69.9757V69.9351V69.8945V69.8539V69.8133V69.7727V69.7321V69.6915V69.6509V69.6103V69.5697V69.5291V69.4885V69.4478V69.4072V69.3666V69.326V69.2854V69.2448V69.2042V69.1636V69.123V69.0824V69.0418V69.0012V68.9606V68.92V68.8794V68.8388V68.7982V68.7576V68.717V68.6764V68.6358V68.5952V68.5546V68.514V68.4734V68.4328V68.3922V68.3515V68.3109V68.2703V68.2297V68.1891V68.1485V68.1079V68.0673V68.0267V67.9861V67.9455V67.9049V67.8643V67.8237V67.7831V67.7425V67.7019V67.6613V67.6207V67.58V67.5394V67.4988V67.4582V67.4176V67.377V67.3364V67.2958V67.2552V67.2146V67.174V67.1334V67.0928V67.0522V67.0116V66.971V66.9303V66.8897V66.8491V66.8085V66.7679V66.7273V66.6867V66.6461V66.6055V66.5649V66.5243V66.4837V66.4431V66.4025V66.3619V66.3212V66.2806V66.24V66.1994V66.1588V66.1182V66.0776V66.037V65.9964V65.9558V65.9152V65.8746V65.834V65.7933V65.7527V65.7121V65.6715V65.6309V65.5903V65.5497V65.5091V65.4685V65.4279V65.3873V65.3467V65.3061V65.2654V65.2248V65.1842V65.1436V65.103V65.0624V65.0218V64.9812V64.9406V64.9V64.8594V64.8188V64.7781V64.7375V64.6969V64.6563V64.6157V64.5751V64.5345V64.4939V64.4533V64.4127V64.3721V64.3314V64.2908V64.2502V64.2096V64.169V64.1284V64.0878V64.0472V64.0066V63.966V63.9254V63.8847V63.8441V63.8035V63.7629V63.7223V63.6817V63.6411V63.6005V63.5599V63.5193V63.4787V63.438V63.3974V63.3568V63.3162V63.2756V63.235V63.1944V63.1538V63.1132V63.0726V63.032V62.9913V62.9507V62.9101V62.8695V62.8289V62.7883V62.7477V62.7071V62.6665V62.6259V62.5852V62.5446V62.504V62.4634V62.4228V62.3822V62.3416V62.301V62.2604V62.2198V62.1792V62.1385V62.0979V62.0573V62.0167V61.9761V61.9355V61.8949V61.8543V61.8137V61.7731V61.7324V61.6918V61.6512V61.6106V61.57V61.5294V61.4888V61.4482V61.4076V61.367V61.3263V61.2857V61.2451V61.2045V61.1639V61.1233V61.0827V61.0421V61.0015V60.9609V60.9202V60.8796V60.839V60.7984V60.7578V60.7172V60.6766V60.636V60.5954V60.5548V60.5142V60.4735V60.4329V60.3923V60.3517V60.3111V60.2705V60.2299V60.1893V60.1487V60.1081V60.0674V60.0268V59.9862V59.9456V59.905V59.8644V59.8238V59.7832V59.7426V59.702V59.6614V59.6207V59.5801V59.5395V59.4989V59.4583V59.4177V59.3771V59.3365V59.2959V59.2553V59.2147V59.174V59.1334V59.0928V59.0522V59.0116V58.971V58.9304V58.8898V58.8492V58.8086V58.768V58.7273V58.6867V58.6461V58.6055V58.5649V58.5243V58.4837V58.4431V58.4025V58.3619V58.3213V58.2806V58.24V58.1994V58.1588V58.1182V58.0776V58.037V57.9964V57.9558V57.9152V57.8746V57.834V57.7933V57.7527V57.7121V57.6715V57.6309V57.5903V57.5497V57.5091V57.4685V57.4279V57.3873V57.3467V57.3061V57.2654V57.2248V57.1842V57.1436V57.103V57.0624V57.0218V56.9812V56.9406V56.9V56.8594V56.8188V56.7782V56.7375V56.6969V56.6563V56.6157V56.5751V56.5345V56.4939V56.4533V56.4127V56.3721V56.3315V56.2909V56.2503V56.2097V56.1691V56.1284V56.0878V56.0472V56.0066V55.966V55.9254V55.8848V55.8442V55.8036V55.763V55.7224V55.6818V55.6412V55.6006V55.56V55.5194V55.4787V55.4381V55.3975V55.3569V55.3163V55.2757V55.2351V55.1945V55.1539V55.1133V55.0727V55.0321V54.9915V54.9509V54.9103V54.8697V54.8291V54.7885V54.7479V54.7072V54.6666V54.626V54.5854V54.5448V54.5042V54.4636V54.423V54.3824V54.3418V54.3012V54.2606V54.22V54.1794V54.1388V54.0982V54.0576V54.017V53.9764V53.9358V53.8952V53.8546V53.814V53.7734V53.7328V53.6921V53.6515V53.6109V53.5703V53.5297V53.4891V53.4485V53.4079V53.3673V53.3267V53.2861V53.2455V53.2049V53.1643V53.1237V53.0831V53.0425V53.0019V52.9613V52.9207V52.8801V52.8395V52.7989V52.7583V52.7177V52.6771V52.6365V52.5959V52.5553V52.5147V52.4741V52.4335V52.3929V52.3523V52.3117V52.2711V52.2305V52.1899V52.1493V52.1087V52.0681V52.0275V51.9869V51.9463V51.9057V51.8651V51.8245V51.7839V51.7433V51.7027V51.6621V51.6215V51.5809V51.5403V51.4997V51.4591V51.4185V51.3779V51.3373V51.2967V51.2561V51.2155V51.1749V51.1343V50.7807L65.2749 50.6629C66.0398 50.3926 66.7967 50.114 67.4622 49.7568C68.1266 49.4001 68.665 48.9828 69.017 48.4555C69.5345 47.6789 69.5921 46.822 69.3964 45.9098C69.1975 44.983 68.7474 44.0476 68.2984 43.1557L68.2976 43.1541C68.2576 43.0739 68.1687 42.8694 68.0593 42.6174C68.0385 42.5693 68.0168 42.5195 67.9946 42.4685C67.8508 42.1378 67.6724 41.7301 67.4903 41.3333C67.3072 40.9342 67.125 40.5563 66.9737 40.2819C66.9221 40.1883 66.8778 40.1136 66.8415 40.0574C59.9057 40.0218 52.9698 39.9857 46.034 39.9497C32.129 39.8774 18.2241 39.8051 4.31914 39.7363ZM68.5193 42.4213C68.6299 42.676 68.7115 42.8638 68.745 42.9309L68.5193 42.4213ZM67.0454 40.0585C67.0445 40.0585 67.0437 40.0585 67.0428 40.0585H67.0454ZM5.59311 71.4669C5.59319 71.4669 5.59501 71.4674 5.59826 71.4687C5.59464 71.4676 5.59302 71.467 5.59311 71.4669ZM60.4736 66.6295V51.1503V50.6503H59.9736H51.7718H51.2718V51.1503V57.7234V58.1031L51.6377 58.205C52.7277 58.5087 53.4453 59.3771 53.4453 60.3327C53.4453 61.5113 52.334 62.5738 50.8195 62.5738C49.305 62.5738 48.1937 61.5113 48.1937 60.3327C48.1937 59.3559 48.9438 58.4712 50.0725 58.184L50.4492 58.0881V57.6994V51.1463V50.6463H49.9492H10.7629H10.2629V51.1463V67.1295V67.6295H10.7629H59.9736V67.1335H60.4736V67.1295V66.6295Z" stroke="#A6A3A3"/>
<path d="M68.7557 21.7918L65.8919 23.3791L35.7675 23.4309L5.56858 23.4827C3.07526 22.888 1.98992 22.0041 1.58322 21.0627C1.16321 20.0906 1.37779 18.8702 1.94689 17.3938C2.22675 16.6677 2.5787 15.9123 2.94843 15.129C2.97773 15.0669 3.00714 15.0046 3.03664 14.9422C3.37655 14.2227 3.72664 13.4817 4.03132 12.7431C4.60596 11.35 5.05321 9.88973 4.95018 8.48761H65.7741C65.6668 9.5963 65.9203 10.708 66.314 11.7806C66.6816 12.782 67.1904 13.7954 67.6801 14.7707C67.8078 15.0249 67.9341 15.2766 68.0564 15.5248C68.6593 16.7492 69.1653 17.8952 69.3436 18.9705C69.5126 19.9895 69.3839 20.9218 68.7557 21.7918Z" stroke="#A6A3A3"/>
<path d="M5.17109 37.0366C3.36454 36.5513 2.36493 35.8724 1.84927 35.1355C1.33735 34.404 1.24249 33.5284 1.43787 32.5124C1.63507 31.4869 2.11871 30.3718 2.69888 29.2225C2.93503 28.7547 3.19374 28.2696 3.45152 27.7862C3.75093 27.2247 4.04909 26.6656 4.30919 26.1387L66.7251 26.4671C66.8985 26.8153 67.0786 27.1662 67.2607 27.5209C67.6056 28.1928 67.9576 28.8788 68.285 29.5877C68.8245 30.7559 69.248 31.8899 69.376 32.9117C69.5025 33.9219 69.3358 34.7738 68.7518 35.4524C68.1592 36.141 67.0683 36.7328 65.1673 37.0605L5.17109 37.0366Z" stroke="#A6A3A3"/>
<path d="M1.23828 5.89329V0.5H69.4978V5.89329H1.23828Z" stroke="#A6A3A3"/>
</svg>
