<svg width="69" height="69" viewBox="0 0 69 69" fill="none" xmlns="http://www.w3.org/2000/svg">
<path d="M64.4721 1.95891e-05C64.3116 1.95891e-05 0.806278 1.95891e-05 0.584232 1.95891e-05C0.228957 -0.00339651 -0.0477469 0.440697 0.00691073 0.772058C0.00691073 0.772058 7.85243e-05 7.0406 0.00691073 7.09526V7.10209C0.00691073 7.43004 0.283615 7.69991 0.61156 7.69991H3.77487V67.714C3.77487 68.0453 4.05157 68.3186 4.37952 68.3186H60.4821C60.8135 68.3186 61.0868 68.0419 61.0595 67.714V7.70333H64.4687C66.5867 7.70333 68.3187 5.97136 68.3187 3.82605C68.3187 1.68074 66.5901 1.95891e-05 64.4721 1.95891e-05ZM1.24354 6.43254V1.27081C2.66122 1.31522 3.77487 2.44936 3.77487 3.85338C3.77487 5.2574 2.63731 6.39154 1.24354 6.43595V6.43254ZM4.13014 6.43595C4.08573 6.43595 4.03791 6.43595 3.99008 6.43595C4.61181 5.7459 4.99783 4.8338 5.0115 3.82605C5.0115 2.84905 4.62889 1.95061 4.00716 1.27081C4.04816 1.27081 4.08915 1.27081 4.13014 1.27081C5.58882 1.27081 6.74346 2.42545 6.74346 3.8568C6.74346 5.28814 5.56149 6.44278 4.13014 6.44278V6.43595ZM59.8467 67.1093H4.98417V65.3227H59.8502V67.1093H59.8467ZM59.8467 64.11H4.98417V7.70333H59.8502V64.1134L59.8467 64.11ZM60.9331 6.45987H6.93476C7.57357 5.7664 7.96984 4.84063 7.98351 3.81922C7.98351 2.8388 7.6009 1.94036 6.97917 1.26056H61.7222C63.1809 1.26056 64.3355 2.4152 64.3355 3.84655C64.3355 6.2754 62.6172 6.45987 60.9399 6.45987H60.9331ZM64.5815 6.4257C65.1998 5.73565 65.579 4.82355 65.5653 3.81922C65.5653 2.84222 65.1827 1.9472 64.5644 1.26739C65.9752 1.31863 67.0786 2.44936 67.0786 3.84996C67.0786 5.25057 65.9581 6.36763 64.5815 6.42912V6.4257Z" fill="#A6A3A3"/>
</svg>
