<svg width="70" height="71" viewBox="0 0 70 71" fill="none" xmlns="http://www.w3.org/2000/svg">
<path d="M69.3652 42.1876C69.3652 41.9918 69.3375 41.7645 69.282 41.5687C69.282 41.4848 69.2542 41.4009 69.2265 41.345C69.2022 41.2716 69.164 41.2051 69.1189 41.1492L66.378 31.0418C65.8472 29.042 65.5696 26.9897 65.5696 24.906L65.5939 14.5399L68.7754 14.5189C69.1397 14.5189 69.4173 14.2357 69.3895 13.9001V0.92232C69.3895 0.583192 69.112 0.303499 68.7754 0.303499H0.614097C0.277558 0.300003 0 0.583192 0 0.918824V13.8966C0 14.2357 0.277558 14.5154 0.614097 14.5154L3.7401 14.5399L3.71581 42.1596V67.7166C3.71581 69.0975 4.83298 70.2233 6.19996 70.2233H66.8499C68.2169 70.2233 69.334 69.0975 69.334 67.776C69.334 67.5522 69.3063 67.353 69.2508 67.1572V67.1292C69.2438 67.1117 69.2438 67.0977 69.2404 67.0837C69.2404 67.0243 69.2404 66.9649 69.223 66.9054L66.6799 57.4483H66.8499C68.2169 57.4483 69.334 56.3226 69.334 55.001C69.334 54.7772 69.3063 54.578 69.2508 54.3822V54.3542C69.2438 54.3367 69.2438 54.3227 69.2404 54.3088C69.2404 54.2493 69.2404 54.1899 69.223 54.1305L66.6799 44.6733H66.8499C68.2169 44.6733 69.334 43.5476 69.3618 42.1945L69.3652 42.1876ZM1.25595 13.2498V1.53764H68.1579V13.2498H1.25595ZM7.40039 42.1631C7.40039 42.8378 6.84181 43.4007 6.1722 43.4007C5.95709 43.4007 5.75586 43.3378 5.57892 43.2364C5.40891 43.1525 5.4332 43.135 5.3083 43.0336C5.08625 42.8099 4.944 42.4987 4.944 42.1596V32.8178L7.37264 41.8519C7.40039 41.9638 7.40039 42.0477 7.40039 42.1631ZM7.37264 54.6339C7.40039 54.7458 7.40039 54.8297 7.40039 54.9451C7.40039 55.6198 6.84181 56.1827 6.1722 56.1827C5.95709 56.1827 4.944 56.1093 4.944 54.9451V45.5579C4.944 45.5579 7.37264 54.578 7.37264 54.6339ZM6.1722 68.9612C5.50259 68.9612 4.944 68.3983 4.944 67.7235V58.3363C4.944 58.3363 7.37264 67.3565 7.37264 67.4124C7.40039 67.5243 7.40039 67.6082 7.40039 67.7235C7.40039 68.3983 6.84181 68.9612 6.1722 68.9612ZM67.9983 67.2446C68.0052 67.2621 68.0122 67.2795 68.0191 67.3005C68.0191 67.311 68.0226 67.3215 68.026 67.332C68.026 67.3599 68.0538 67.4159 68.0538 67.4439C68.0815 67.5557 68.0815 67.6396 68.0815 67.755C68.0815 68.4298 67.523 68.9927 66.8534 68.9927H8.33368C8.55573 68.6151 8.6841 68.1746 8.6841 67.6991C8.6841 67.5033 6.01954 57.4448 6.01954 57.4448C6.07852 57.4483 6.13751 57.4553 6.19996 57.4553H65.3615L67.9983 67.2516V67.2446ZM67.9983 54.4661C68.0052 54.4836 68.0122 54.501 68.0191 54.522C68.0191 54.5325 68.0226 54.543 68.026 54.55C68.026 54.578 68.0538 54.6339 68.0538 54.6619C68.0815 54.7738 68.0815 54.8577 68.0815 54.973C68.0815 55.6478 67.523 56.2107 66.8534 56.2107H8.33368C8.55573 55.8331 8.6841 55.3926 8.6841 54.9171C8.6841 54.7213 8.65635 54.4941 8.60083 54.3262C8.60083 54.3088 6.01954 44.6628 6.01954 44.6628C6.07852 44.6663 6.13751 44.6733 6.19996 44.6733H65.3615L67.9983 54.4696V54.4661ZM8.34062 43.4252C8.56614 43.0476 8.70145 42.6071 8.71186 42.1316C8.71186 41.9358 8.6841 41.7365 8.62859 41.5408C8.61471 41.4953 8.60083 41.4604 8.58349 41.4219C8.58349 41.3974 4.94054 27.9442 4.94054 27.9442L4.96482 14.5399H64.3588L64.3345 24.906C64.3345 27.1016 64.6433 29.2692 65.2019 31.3809L67.9948 41.6841C68.0017 41.7016 68.0087 41.7191 68.0156 41.74C68.0156 41.7505 68.0191 41.761 68.0226 41.768C68.0226 41.796 68.0503 41.8519 68.0503 41.8799C68.0781 41.9918 68.0781 42.0757 68.0781 42.1911C68.0781 42.8658 67.5195 43.4287 66.8499 43.4287H8.34062V43.4252Z" fill="#A6A3A3"/>
</svg>
