<svg width="67" height="67" viewBox="0 0 67 67" fill="none" xmlns="http://www.w3.org/2000/svg">
<path d="M26.9596 12.8888C27.0635 12.155 26.906 11.3945 26.4872 10.7479L24.5608 7.78955L22.6343 10.7479C21.9642 11.7798 21.9642 13.1199 22.6343 14.1518L24.5608 17.1102L26.4872 14.1518C26.7385 13.7632 26.8959 13.3277 26.9596 12.8888ZM26.9596 24.1124C27.0635 23.3787 26.906 22.6181 26.4872 21.9715L24.5608 19.0132L22.6343 21.9715C21.9642 23.0034 21.9642 24.3436 22.6343 25.3755L24.5608 28.3338L26.4872 25.3755C26.7385 24.9868 26.8959 24.5513 26.9596 24.1124ZM27.0601 35.326C27.1673 34.5621 27.0065 33.768 26.5676 33.0946L24.5608 30.0123L22.5539 33.0946C21.857 34.1701 21.857 35.5672 22.5539 36.6426L24.5608 39.7249L26.5676 36.6426C26.8289 36.2372 26.9964 35.785 27.0601 35.326ZM26.9596 57.7229C27.0635 56.9892 26.906 56.2287 26.4872 55.5821L24.5608 52.6237L22.6343 55.5821C21.9642 56.614 21.9642 57.9541 22.6343 58.986L24.5608 61.9444L26.4872 58.986C26.7385 58.5974 26.8959 58.1618 26.9596 57.7229ZM26.9328 46.506C27.0367 45.7689 26.8792 45.0051 26.4604 44.3585L24.5641 41.4001L22.6109 44.3585C21.9408 45.3904 21.9408 46.7305 22.6109 47.7624L24.5373 50.7207L26.4637 47.7624C26.715 47.3738 26.8725 46.9449 26.9361 46.5027L26.9328 46.506Z" fill="#A6A3A3"/>
<path d="M5.99841 11.9506C6.26309 11.6424 6.54787 11.3543 6.8561 11.093L5.02347 9.26367C4.78559 9.0258 4.40031 9.0258 4.16578 9.26367C3.92791 9.50155 3.92791 9.88348 4.16578 10.1214L5.99841 11.9506ZM17.5872 11.9506L19.4199 10.1214C19.6577 9.88348 19.6577 9.50155 19.4199 9.26367C19.182 9.0258 18.7967 9.0258 18.5622 9.26367L16.7295 11.093C17.0378 11.3576 17.3259 11.6424 17.5872 11.9506ZM5.99841 21.8241L4.16578 23.6534C3.92791 23.8912 3.92791 24.2732 4.16578 24.511C4.28304 24.6283 4.44051 24.6886 4.59462 24.6886C4.74874 24.6886 4.90621 24.6283 5.02347 24.511L6.8561 22.6818C6.54787 22.4171 6.25974 22.1323 5.99841 21.8241ZM22.2643 17.415L21.5239 16.2793H19.3864L19.4132 16.8857L19.3864 17.4921H21.9728C22.08 17.4921 22.1772 17.4619 22.2643 17.415ZM1.61618 16.2793C1.28114 16.2793 1.00977 16.5507 1.00977 16.8857C1.00977 17.2207 1.28114 17.4921 1.61618 17.4921H4.20264L4.17583 16.8857L4.20264 16.2793H1.61618ZM11.1881 27.064C11.1881 27.399 11.4595 27.6704 11.7945 27.6704C11.9285 27.6704 12.0491 27.6269 12.1496 27.5532L11.1881 25.2012V27.064Z" fill="#A6A3A3"/>
<path d="M12.4018 9.29718V6.71072C12.4018 6.37569 12.1304 6.10431 11.7954 6.10431C11.4604 6.10431 11.189 6.37569 11.189 6.71072V9.29718L11.7954 9.27038L12.4018 9.29718ZM0.377462 12.8083L4.54863 14.5371C4.67594 14.1485 4.83006 13.7732 5.01433 13.4181L0.843159 11.686C0.531578 11.5587 0.179793 11.7061 0.0491295 12.0143C-0.0781832 12.3225 0.0658812 12.6777 0.377462 12.8083ZM19.0388 19.2343C18.9115 19.6229 18.7574 19.9981 18.5731 20.3533L20.5599 21.1775L20.8145 20.7352L21.2098 20.1322L19.0422 19.2343H19.0388ZM16.9951 5.93679C17.1224 5.62856 16.9784 5.27343 16.6668 5.14276C16.3552 5.01545 16.0034 5.16287 15.8728 5.4711L14.144 9.64226C14.5326 9.76958 14.9079 9.92369 15.263 10.108L16.9951 5.93679ZM6.92067 28.6286C6.99772 28.6588 7.07478 28.6755 7.15184 28.6755C7.38971 28.6755 7.61419 28.5348 7.71135 28.3003L9.44012 24.1291C9.05148 24.0018 8.67624 23.8477 8.32111 23.6634L6.58898 27.8346C6.46167 28.1428 6.60574 28.4979 6.91732 28.6286H6.92067ZM18.5765 13.4248C18.7607 13.7833 18.9182 14.1585 19.0422 14.5472L20.255 14.0446C20.121 13.6526 20.0339 13.2472 19.997 12.8385L18.5765 13.4248ZM5.01098 20.3466C4.82671 19.9881 4.66924 19.6129 4.54528 19.2242L0.374112 20.9496C0.0658812 21.077 -0.0815336 21.4321 0.0457792 21.7437C0.142939 21.9782 0.367411 22.1189 0.608635 22.1189C0.685693 22.1189 0.766101 22.1055 0.839809 22.072L5.01433 20.3466H5.01098ZM8.33451 10.1046C8.69299 9.92034 9.06823 9.76288 9.45687 9.63891L7.73145 5.46775C7.60414 5.15952 7.249 5.0121 6.93742 5.13941C6.62919 5.26673 6.48177 5.62186 6.60909 5.93344L8.33451 10.108V10.1046ZM8.7466 11.103L8.31106 11.3576C8.07653 11.5051 7.85206 11.6659 7.63764 11.8434C7.63094 11.8468 7.62759 11.8535 7.62424 11.8568L7.40312 12.0478C7.17529 12.2555 6.96422 12.4766 6.76655 12.7145C6.65934 12.8418 6.56553 12.9758 6.46837 13.1099C6.31761 13.3209 6.17354 13.5387 6.04958 13.7699L6.01943 13.8302C5.83181 14.1853 5.67434 14.5606 5.55373 14.9492C5.42307 15.3747 5.33261 15.8203 5.2924 16.2759L5.26225 16.8823L5.2924 17.4887C5.33596 17.9444 5.42307 18.3866 5.55373 18.8088C5.67434 19.2008 5.83181 19.5727 6.01943 19.9311C6.03283 19.9546 6.04288 19.978 6.05293 19.9981C6.17689 20.2293 6.32096 20.4471 6.47172 20.6582L6.7699 21.0535C6.96757 21.2914 7.17864 21.5125 7.40647 21.7202L7.62759 21.9112C7.95592 22.1826 8.30771 22.4238 8.68629 22.6282L8.7466 22.6583L9.25585 22.9029C9.45352 22.9866 9.65789 23.0604 9.86561 23.124L10.405 23.2647L10.1102 22.5411L9.81201 21.8107C9.60764 21.7269 9.40997 21.6331 9.21565 21.5259C8.96102 21.3852 8.72315 21.221 8.49532 21.0401C8.17704 20.7888 7.88891 20.5007 7.63764 20.1824C7.45672 19.9546 7.29255 19.7134 7.14849 19.4554C6.95417 19.1036 6.7967 18.7284 6.68614 18.333C6.60574 18.0583 6.54878 17.7735 6.51528 17.482C6.49182 17.281 6.47842 17.08 6.47842 16.8756C6.47842 16.6713 6.49182 16.4669 6.51528 16.2692C6.54878 15.9744 6.60909 15.6896 6.68614 15.4115C6.80005 15.0162 6.95417 14.641 7.15184 14.2892C7.29255 14.0346 7.45672 13.7967 7.63764 13.5689C7.88891 13.2506 8.17704 12.9624 8.49532 12.7112C8.72315 12.5303 8.96437 12.3661 9.22235 12.222C9.57413 12.0277 9.94937 11.8702 10.3447 11.7597C10.6194 11.6793 10.9042 11.6223 11.1957 11.5888C11.3967 11.5654 11.5977 11.552 11.8021 11.552C12.0065 11.552 12.2108 11.5654 12.4085 11.5888C12.7033 11.6223 12.9881 11.6826 13.2662 11.7597C13.6615 11.8736 14.0368 12.0277 14.3886 12.2254C14.6432 12.3661 14.8811 12.5303 15.1089 12.7112C15.4272 12.9624 15.7153 13.2506 15.9666 13.5689C16.1475 13.7967 16.3117 14.0379 16.4557 14.2959C16.65 14.6477 16.8075 15.0229 16.9181 15.4182C16.9985 15.693 17.0554 15.9777 17.0889 16.2692C17.1124 16.4702 17.1258 16.6713 17.1258 16.8756C17.1258 17.08 17.1124 17.2844 17.0889 17.482L17.0487 17.7367L17.3737 18.5307L17.7791 19.5224C17.7925 19.4889 17.8093 19.4554 17.826 19.4219C17.9098 19.2242 17.9835 19.0199 18.0471 18.8121L18.1778 18.3263L18.2716 17.8271L18.3118 17.4854L18.342 16.879L18.3118 16.2726C18.2683 15.8169 18.1811 15.3747 18.0505 14.9525C17.9868 14.7415 17.9098 14.5371 17.826 14.3361L17.5848 13.8335C17.5714 13.8101 17.5613 13.7866 17.5513 13.7665C17.3469 13.3913 17.1057 13.0362 16.8343 12.7078L16.6433 12.4867C16.4356 12.2589 16.2145 12.0478 15.9766 11.8501L15.7153 11.6424L15.3568 11.3945L14.861 11.103L14.3517 10.8584C14.154 10.7747 13.9497 10.701 13.7419 10.6373C13.4237 10.5402 13.092 10.4631 12.7536 10.4162L12.4119 10.376L11.8055 10.3458L11.199 10.376C10.9712 10.3961 10.7467 10.4296 10.5256 10.4731L10.1973 10.5469L9.87566 10.6373C9.66459 10.701 9.46022 10.778 9.2592 10.8618L8.75665 11.103H8.7466ZM10.1705 55.2705L7.62424 57.2706C7.36291 57.4783 7.31266 57.8603 7.52038 58.1216C7.63764 58.269 7.81186 58.3528 7.99947 58.3528C8.13684 58.3528 8.2675 58.3092 8.37471 58.2221L10.921 56.222C11.0684 56.1047 11.1521 55.9338 11.1521 55.7462C11.1521 55.6089 11.1052 55.4782 11.0215 55.371C10.8205 55.1164 10.4251 55.0695 10.1705 55.2671V55.2705ZM15.263 51.2702L12.7167 53.2703C12.4554 53.4747 12.4085 53.86 12.6129 54.1213C12.7301 54.2687 12.9044 54.3525 13.092 54.3525C13.2293 54.3525 13.36 54.3089 13.4672 54.2218L16.0135 52.225C16.1609 52.1078 16.2446 51.9335 16.2446 51.7459C16.2446 51.6086 16.2011 51.4779 16.114 51.3707C15.913 51.1127 15.5176 51.0658 15.263 51.2668V51.2702ZM17.8093 49.2734C17.5479 49.4777 17.501 49.863 17.7054 50.1244C17.8227 50.2684 17.9969 50.3555 18.1845 50.3555C18.3219 50.3555 18.4525 50.3086 18.5597 50.2249L20.6738 48.5665C20.4594 48.1979 20.2919 47.8126 20.1779 47.4139L17.8093 49.2734ZM14.1741 28.3941C14.2747 28.6052 14.4891 28.7425 14.7236 28.7425C14.8141 28.7425 14.8978 28.7224 14.9816 28.6822C15.1256 28.6119 15.2395 28.4912 15.2932 28.3371C15.3501 28.1864 15.3434 28.0222 15.2731 27.8748L13.8894 24.9499C13.752 24.6551 13.3768 24.5178 13.0819 24.6585C12.8709 24.759 12.7368 24.97 12.7335 25.2046C12.7335 25.295 12.7536 25.3855 12.7905 25.4692L14.1741 28.3974V28.3941ZM16.9382 34.2471C17.0387 34.4582 17.2531 34.5956 17.4876 34.5956C17.5781 34.5956 17.6652 34.5755 17.7456 34.5353C18.0471 34.3912 18.1778 34.0294 18.0337 33.7245L16.6534 30.7963C16.5127 30.5048 16.1374 30.3674 15.8426 30.5082C15.6349 30.6087 15.4975 30.8197 15.4942 31.0543C15.4942 31.1447 15.5143 31.2352 15.5545 31.3189L16.9348 34.2471H16.9382ZM20.8045 39.5809L19.4208 36.6527C19.2834 36.3612 18.9082 36.2238 18.61 36.3645C18.4023 36.465 18.2649 36.6761 18.2649 36.9106C18.2649 37.0011 18.285 37.0916 18.3219 37.1753L19.7055 40.1035C19.8061 40.3146 20.0205 40.4519 20.2516 40.4519C20.3421 40.4519 20.4292 40.4318 20.5096 40.3916C20.8145 40.2476 20.9452 39.8857 20.8011 39.5809H20.8045ZM12.4018 22.6918C12.5358 22.5478 12.5928 22.3467 12.5492 22.1524C12.5392 22.1089 12.5258 22.0653 12.5057 22.0218L12.4018 21.8006L11.3431 19.5626L11.189 19.2343L11.122 19.0969C11.0516 18.9461 10.9143 18.8356 10.7568 18.7853C10.6261 18.7418 10.4787 18.7418 10.3447 18.7954L10.3112 18.8054C10.1671 18.8758 10.0566 18.9964 9.99963 19.1505C9.95272 19.2778 9.95272 19.4152 9.99627 19.5425C10.003 19.5593 10.0063 19.576 10.013 19.5894C10.013 19.5961 10.0164 19.6062 10.0197 19.6129L10.7099 21.0736L11.1823 22.0754L11.2325 22.1826L11.4034 22.5411C11.5039 22.7521 11.7183 22.8895 11.9495 22.8895C12.04 22.8895 12.1271 22.8694 12.2075 22.8292C12.2812 22.7957 12.3415 22.7488 12.3951 22.6918H12.4018ZM0.0591805 63.8306L8.34121 60.1653L5.72795 56.8384L0.0591805 63.8306ZM19.471 42.9044C19.471 42.7704 19.4208 42.6397 19.337 42.5325C19.136 42.2812 18.7339 42.2377 18.486 42.442L15.9632 44.4724C15.7052 44.6834 15.6617 45.0654 15.8728 45.3233C15.99 45.4674 16.1609 45.5512 16.3485 45.5512C16.4892 45.5512 16.6199 45.5042 16.7304 45.4171L19.2499 43.3868C19.394 43.2696 19.4777 43.0954 19.4777 42.9077L19.471 42.9044ZM14.4288 46.9784C14.4288 46.8377 14.3819 46.7003 14.2948 46.5931C14.0937 46.3385 13.6917 46.2949 13.4438 46.4993L10.921 48.5296C10.663 48.7407 10.6228 49.1226 10.8305 49.3839C10.9478 49.528 11.1186 49.6084 11.3063 49.6084C11.4436 49.6084 11.5776 49.5615 11.6882 49.4777L14.2076 47.4474C14.3517 47.3335 14.4321 47.1627 14.4355 46.9817L14.4288 46.9784ZM21.7694 41.3565L22.2552 40.9645L22.6304 40.395L22.2082 39.745L22.0776 39.5474L21.4444 40.0566L21.0055 40.4084C20.7475 40.6195 20.7039 41.0014 20.915 41.2627C21.0323 41.4068 21.2031 41.4872 21.3908 41.4872C21.5281 41.4872 21.6621 41.4403 21.7727 41.3565H21.7694ZM16.1173 23.1542L16.8678 24.6953C16.9717 24.9064 17.1794 25.0337 17.4139 25.0337C17.5044 25.0337 17.5948 25.0136 17.6786 24.9734C17.9801 24.826 18.1041 24.4608 17.96 24.1626L17.7188 23.6668L17.0856 22.3635L16.5864 21.3383L16.5462 21.2545C16.4055 20.963 16.0269 20.8324 15.7354 20.9731C15.5779 21.0502 15.4607 21.1942 15.4171 21.3617C15.4037 21.412 15.3937 21.4656 15.397 21.5192C15.397 21.6097 15.4171 21.7001 15.4607 21.7839L15.6483 22.1725L16.124 23.1542H16.1173ZM19.3739 27.0741C19.2331 26.7826 18.8546 26.6519 18.5631 26.7926C18.352 26.8965 18.2213 27.1076 18.2213 27.3387C18.2213 27.4292 18.2414 27.5197 18.285 27.6034L19.7022 30.5149C19.8027 30.7226 20.0171 30.8532 20.2483 30.8532C20.3388 30.8532 20.4326 30.8331 20.5163 30.7929C20.6604 30.7192 20.771 30.5986 20.8246 30.4445C20.8748 30.2904 20.8681 30.1262 20.7944 29.9821L19.3772 27.0707L19.3739 27.0741ZM12.6162 15.9643L12.6732 16.0783L12.7368 16.2056L12.7737 16.2793L12.9345 16.6076L12.9915 16.7249L13.1221 16.9963L13.3634 17.4955L13.4605 17.6931L13.7922 18.3732L14.0368 18.8758C14.1406 19.0869 14.3484 19.2142 14.5829 19.2142C14.6733 19.2142 14.7638 19.1941 14.8476 19.1539C14.8643 19.1472 14.8777 19.1338 14.8945 19.1237C14.9816 19.0701 15.0553 18.9998 15.1055 18.916C15.206 18.7451 15.2228 18.5307 15.129 18.3431L14.7169 17.4955L14.6834 17.4284L14.2478 16.5339L14.1272 16.2826L13.8458 15.703L13.8056 15.6193L13.7185 15.4417V15.435C13.618 15.234 13.4136 15.1134 13.2025 15.1C13.102 15.0933 13.0015 15.11 12.9044 15.1536C12.6263 15.2909 12.499 15.6126 12.5995 15.9007C12.6062 15.9208 12.6129 15.9442 12.6229 15.9643H12.6162ZM9.82206 52.9118L8.87391 51.7359L9.15869 51.5081C9.30276 51.3908 9.38651 51.2132 9.38651 51.029C9.38651 50.8916 9.33626 50.7609 9.2525 50.6537C9.05148 50.4024 8.64944 50.3589 8.40152 50.5633L8.11674 50.7944L7.16859 49.6185L1.58358 56.6709L9.82206 52.9118ZM66.4126 0H20.848C20.523 0 20.255 0.271377 20.255 0.593009V6.79783C20.255 7.12281 20.523 7.39084 20.848 7.39084H23.3976L21.6588 10.0611C20.7408 11.4648 20.7408 13.2707 21.6588 14.6745L23.803 17.9645L21.6588 21.2545C20.7408 22.6583 20.7408 24.4641 21.6588 25.8679L23.8131 29.1714L21.6588 32.4748C20.7408 33.8786 20.7408 35.6844 21.6588 37.0882L23.8131 40.3916L21.6588 43.6683C20.7408 45.0721 20.7408 46.8779 21.6588 48.2817L23.8131 51.5851L21.6588 54.8617C20.7408 56.2655 20.7408 58.0714 21.6588 59.4752L23.5417 62.3631C22.7007 62.7484 22.1178 63.6028 22.1178 64.571C22.1178 65.9212 23.2234 67 24.5468 67H62.7439H62.8076C64.1276 66.9665 65.1696 65.9011 65.1696 64.628C65.1696 63.6262 64.5598 62.7752 63.7055 62.4L65.6286 59.4483C65.9569 58.9659 66.168 58.4131 66.2585 57.8335C66.2585 57.8268 66.2652 57.8201 66.2652 57.8134C66.2719 57.7866 66.2719 57.7598 66.2752 57.733V57.7229C66.4092 56.6977 66.1948 55.6725 65.6286 54.8349L63.4743 51.5583L65.6286 48.2549C65.9804 47.7423 66.1948 47.1493 66.2752 46.5295C66.4092 45.5043 66.1948 44.5058 65.6286 43.6415L63.4609 40.3414L65.6018 37.0581C65.9134 36.6024 66.1211 36.0831 66.2182 35.5337C66.2551 35.4566 66.2786 35.3695 66.2786 35.279C66.2786 35.2455 66.2786 35.212 66.2685 35.1785C66.3657 34.2036 66.1445 33.242 65.6051 32.4446L63.4576 29.1714L65.6319 25.8344C65.9469 25.3486 66.1546 24.8159 66.2484 24.2631V24.2564C66.2652 24.1995 66.2752 24.1392 66.2752 24.0822C66.4092 23.0838 66.1948 22.0586 65.6286 21.2244L63.471 17.9142L65.6018 14.6678C65.9234 14.2021 66.1311 13.6627 66.2216 13.1032C66.2551 13.0295 66.2752 12.9457 66.2752 12.8619C66.2752 12.8284 66.2752 12.7983 66.2685 12.7715C66.359 11.8099 66.1378 10.8718 65.6018 10.0577L63.8496 7.38749H66.4126C66.7644 7.38749 67.0324 7.11611 67.0056 6.79448V0.593009C67.0056 0.268027 66.7375 0 66.4126 0ZM62.1476 6.17802H25.1364V1.18602H62.1476V6.17802ZM21.4678 6.17802V1.18602H23.9504V6.17802H21.4678ZM22.6806 14.0279C22.034 13.0295 22.034 11.7362 22.6806 10.7378L24.5434 7.87999L26.4062 10.7378C26.8116 11.361 26.9624 12.0981 26.8619 12.8083C26.8016 13.2338 26.6474 13.656 26.4062 14.0312L24.5434 16.889L22.6806 14.0312V14.0279ZM22.6806 25.2481C22.034 24.2497 22.034 22.9565 22.6806 21.9581L24.5434 19.1003L26.4062 21.9581C26.8116 22.5813 26.9624 23.3183 26.8619 24.0286C26.8016 24.4541 26.6474 24.8762 26.4062 25.2515L24.5434 28.1093L22.6806 25.2515V25.2481ZM22.6806 36.4416C22.034 35.4432 22.034 34.15 22.6806 33.1516L24.5434 30.2937L26.4062 33.1516C26.8116 33.7747 26.9624 34.5118 26.8619 35.2221C26.8016 35.6476 26.6474 36.0697 26.4062 36.4449L24.5434 39.3028L22.6806 36.4449V36.4416ZM22.6538 47.6351C22.0072 46.6367 22.0072 45.3434 22.6538 44.345L24.5434 41.4872L26.3794 44.345C26.7848 44.9682 26.9356 45.7086 26.8351 46.4189C26.7714 46.8444 26.6206 47.2598 26.3794 47.6351L24.5166 50.4929L22.6538 47.6351ZM22.6806 58.8553C22.034 57.8569 22.034 56.5637 22.6806 55.5653L24.5434 52.7075L26.4062 55.5653C26.8116 56.1885 26.9624 56.9255 26.8619 57.6358C26.8016 58.0613 26.6474 58.4834 26.4062 58.8587L24.5434 61.7165L22.6806 58.8587V58.8553ZM63.9534 64.6012C63.9534 65.2746 63.414 65.814 62.7406 65.814H24.7847C24.7109 65.7805 24.6305 65.7604 24.5434 65.7604C23.87 65.7604 23.3306 65.221 23.3306 64.5476C23.3306 63.9445 23.7628 63.4486 24.3357 63.3515C24.3659 63.3615 24.396 63.3716 24.4262 63.3716C24.463 63.3816 24.5032 63.385 24.5434 63.385H62.7406C63.414 63.385 63.9534 63.9244 63.9534 64.5978V64.6012ZM64.6268 58.8017L62.4123 62.2023H25.6524L27.4281 59.4785C27.6693 59.1066 27.8502 58.7046 27.9608 58.2925H64.8915C64.8212 58.4701 64.7307 58.6443 64.6268 58.8051V58.8017ZM64.6268 55.5117C64.9451 56.0042 65.1126 56.5403 65.1193 57.1031H28.1149C28.1048 56.3225 27.8737 55.5452 27.4281 54.8651L25.6758 52.1949H62.4491L64.6302 55.5117H64.6268ZM64.6268 47.6083L62.4123 51.0089H25.6524L27.4281 48.285C27.676 47.9031 27.8569 47.4944 27.9675 47.0722H64.9049C64.8312 47.2598 64.7374 47.4407 64.6268 47.6116V47.6083ZM64.6268 44.3182C64.9418 44.8007 65.1059 45.33 65.116 45.8828H28.1149C28.0981 45.1156 27.8703 44.345 27.4281 43.6716L25.6758 41.0014H62.4491L64.6302 44.3182H64.6268ZM64.6268 36.4148L62.4123 39.8154H25.6524L27.4281 37.0916C27.676 36.7096 27.8569 36.3009 27.9675 35.8787H64.9016C64.8279 36.0664 64.7374 36.2473 64.6268 36.4181V36.4148ZM64.6268 33.1248C64.9418 33.6072 65.1059 34.1366 65.116 34.6894H28.1149C28.0981 33.9221 27.8703 33.1516 27.4281 32.4781L25.6691 29.7811H62.4056L64.6302 33.1248H64.6268ZM64.6268 25.1945L62.4123 28.5918H25.6524L27.4281 25.8679C27.6693 25.496 27.8502 25.094 27.9608 24.6819H64.8915C64.8212 24.8595 64.7307 25.0337 64.6268 25.1945ZM64.6268 21.9045C64.9451 22.397 65.1126 22.933 65.1193 23.4959H28.1149C28.1048 22.7153 27.8737 21.938 27.4281 21.2579L25.6892 18.5877H62.4659L64.6302 21.9045H64.6268ZM64.6268 14.0279L62.4123 17.3983H25.6524L27.4281 14.6745C27.676 14.2925 27.8569 13.8838 27.9675 13.4616H64.9116C64.8379 13.6593 64.7407 13.8503 64.6268 14.0279ZM64.6268 10.7378C64.9384 11.2136 65.1026 11.7295 65.116 12.2756H28.1149C28.0981 11.5084 27.8703 10.7378 27.4281 10.0644L25.6892 7.39419H62.4056L64.6302 10.7378H64.6268ZM65.8129 6.17802H63.3303V1.18602H65.8129V6.17802Z" fill="#A6A3A3"/>
</svg>
