<svg width="70" height="71" viewBox="0 0 70 71" fill="none" xmlns="http://www.w3.org/2000/svg">
<path d="M50.3508 57.2566C50.5991 57.2566 50.8333 57.1086 50.9347 56.8656C51.0711 56.5415 50.9207 56.168 50.5991 56.0306L46.1275 54.1248C45.9841 54.5264 45.8198 54.9174 45.6345 55.3014L50.1061 57.2073C50.1865 57.2425 50.2704 57.2566 50.3543 57.2566H50.3508ZM27.9334 65.2887C27.7971 65.6128 27.9474 65.9862 28.2691 66.1236C28.3495 66.1589 28.4334 66.1729 28.5173 66.1729C28.7655 66.1729 28.9998 66.025 29.1012 65.7819L30.9891 61.2903C30.5905 61.1458 30.1989 60.9803 29.8214 60.7935L27.9369 65.2817L27.9334 65.2887ZM23.8254 53.9557L19.3329 55.7911C19.0077 55.925 18.8539 56.2949 18.9832 56.6225C19.0846 56.8691 19.3189 57.0206 19.5706 57.0206C19.651 57.0206 19.7314 57.0065 19.8083 56.9748L24.3009 55.1394L24.0457 54.5546L23.8254 53.9557ZM39.4533 61.1247L38.8589 61.3466L40.6805 65.8735C40.7818 66.1201 41.0161 66.2716 41.2678 66.2716C41.3482 66.2716 41.4286 66.2575 41.5055 66.2258C41.8307 66.0919 41.9845 65.722 41.8552 65.3944L40.0337 60.8675L39.4533 61.1247ZM34.279 61.9737L34.3279 69.9459C34.3279 70.2982 34.6076 70.5871 34.9572 70.5906H34.9607C35.3068 70.5906 35.59 70.3088 35.5935 69.9565V61.9737L34.9607 61.9984C34.716 61.9984 34.5237 61.9878 34.279 61.9737ZM20.4307 64.5278C20.553 64.6546 20.7173 64.718 20.8817 64.718C21.046 64.718 21.2033 64.6581 21.3257 64.5348L27.0279 58.8842C26.7168 58.5988 26.4196 58.2923 26.1399 57.9717L20.4377 63.6259C20.1894 63.8725 20.1859 64.2776 20.4307 64.5278ZM42.8376 59.0075L48.4524 64.7603C48.5748 64.8871 48.7391 64.9505 48.9034 64.9505C49.0678 64.9505 49.2251 64.8906 49.3474 64.7673C49.5957 64.5207 49.5992 64.1156 49.3544 63.8655L43.7396 58.1127C43.4564 58.4262 43.1557 58.7256 42.8376 59.0075Z" fill="#A6A3A3"/>
<path d="M43.4255 54.3608C43.0619 55.0901 42.6039 55.7735 42.062 56.39C41.7823 56.7071 41.4816 57.0065 41.16 57.2848C40.5551 57.8097 39.8769 58.2606 39.1322 58.627L38.5553 58.8877L37.961 59.1061C37.1813 59.3668 36.3807 59.5218 35.5696 59.5676L35.0172 59.5852C34.776 59.5852 34.5382 59.5746 34.304 59.557C33.4824 59.4936 32.6853 59.321 31.9301 59.0603C31.528 58.9194 31.14 58.7574 30.7624 58.5636C30.0352 58.1937 29.3569 57.7322 28.7451 57.1826C28.4304 56.9008 28.1368 56.5943 27.8606 56.2702C27.3396 55.6572 26.8921 54.9738 26.532 54.227L26.4027 53.9381H25.0287L25.0986 54.1248L25.3608 54.7061L25.4063 54.8047L25.4867 54.9668L25.8363 55.6079L25.8573 55.6432L26.2314 56.2209L26.3327 56.3653L26.7628 56.9325L26.8082 56.9854L26.9655 57.1615L27.2382 57.468L27.3536 57.5913L27.8501 58.0739L27.92 58.1373L28.3955 58.5354L28.5248 58.6376L29.0842 59.0392L29.1786 59.0991L29.6926 59.4161L29.8289 59.4936L30.2729 59.7226L30.4337 59.8072L30.5491 59.86L31.098 60.096L31.2379 60.1524L31.4406 60.2229L31.8812 60.3743L32.014 60.4131L32.5874 60.5646L32.7272 60.5963L33.3985 60.7231L33.5453 60.7442L34.1397 60.8112L34.2725 60.8217H34.297L34.9613 60.8464H35.0207L35.213 60.8429L35.4507 60.8358L35.5626 60.8323C35.6186 60.8323 35.6745 60.8253 35.7304 60.8217L35.9647 60.8041L36.2479 60.7724L36.4786 60.7442L36.7653 60.6984L36.9925 60.6597L37.2862 60.5963L37.503 60.547L37.8141 60.4624L38.0134 60.4096L38.3596 60.2968L38.4365 60.2722L38.5239 60.244L39.0308 60.0538L39.6112 59.7966C40.5132 59.3633 41.3313 58.8172 42.0515 58.1831C42.3627 57.9083 42.6598 57.6195 42.936 57.313C42.943 57.3059 42.95 57.2954 42.957 57.2883L43.5933 56.5062C43.9814 55.9813 44.317 55.4247 44.6037 54.8435L44.6596 54.7343L45.0023 53.924H43.6283L43.4325 54.3432L43.4255 54.3608ZM19.2495 44.1903L19.3789 44.2467C19.4698 44.2855 19.5607 44.3031 19.6516 44.3031C19.6621 44.3031 19.6691 44.2996 19.6795 44.2996C19.9418 44.289 20.19 44.1305 20.2984 43.8698C20.4067 43.6091 20.3473 43.3237 20.176 43.1229C20.1096 43.0454 20.0257 42.982 19.9243 42.9397L19.7949 42.8834C19.4348 42.7319 19.0258 42.901 18.8719 43.2603C18.7216 43.6196 18.8894 44.0353 19.246 44.1903H19.2495ZM21.9241 45.2543C21.9905 45.3318 22.0744 45.3952 22.1758 45.4374L22.4555 45.5572C22.5464 45.596 22.6373 45.6136 22.7282 45.6136C22.7387 45.6136 22.7457 45.6101 22.7562 45.6101C23.0184 45.5995 23.2666 45.441 23.375 45.1803C23.4834 44.9196 23.4274 44.6342 23.2526 44.4334C23.1862 44.3559 23.1023 44.2925 23.0009 44.2502L22.7212 44.1305C22.6198 44.0882 22.5184 44.0741 22.417 44.0776C22.1548 44.0882 21.9101 44.2467 21.7982 44.5074C21.6898 44.7681 21.7458 45.0535 21.9206 45.2543H21.9241ZM41.0271 35.4044C41.118 35.4431 41.2089 35.4607 41.2998 35.4607C41.4746 35.4607 41.6424 35.3867 41.7718 35.2705C41.8452 35.2036 41.9082 35.126 41.9501 35.0274L42.0061 34.8971C42.1564 34.5377 41.9886 34.1185 41.632 33.967C41.2754 33.8155 40.8628 33.9846 40.709 34.344L40.653 34.4743C40.6111 34.573 40.5971 34.6786 40.6006 34.7808C40.6111 35.045 40.7684 35.2916 41.0271 35.4044ZM39.7265 38.5009C39.8174 38.5397 39.9084 38.5573 39.9993 38.5573C40.1741 38.5573 40.3419 38.4833 40.4712 38.3671C40.5447 38.3001 40.6076 38.2226 40.6495 38.1275L40.7684 37.8457C40.8104 37.7435 40.8243 37.6414 40.8209 37.5392C40.8104 37.275 40.653 37.0284 40.3943 36.9157C40.1356 36.8064 39.8524 36.8663 39.6531 37.039C39.5762 37.1059 39.5133 37.1904 39.4713 37.2926L39.3525 37.5744C39.3105 37.6766 39.2965 37.7788 39.3 37.8809C39.3105 38.1451 39.4678 38.3917 39.7265 38.5009ZM47.0965 44.3172L46.8168 44.4334C46.7154 44.4757 46.6315 44.5391 46.565 44.6131C46.3867 44.8104 46.3238 45.0957 46.4322 45.3564C46.5371 45.6206 46.7818 45.7792 47.0475 45.7933C47.0615 45.7933 47.072 45.8003 47.086 45.8003C47.1734 45.8003 47.2643 45.7827 47.3517 45.7475L47.6314 45.6312C47.7328 45.5889 47.8167 45.5255 47.8831 45.4515C48.0614 45.2578 48.1243 44.9689 48.0195 44.7082C47.9146 44.4475 47.6698 44.2855 47.4076 44.2679C47.3062 44.2608 47.2014 44.2749 47.1 44.3172H47.0965ZM49.5193 44.0917C49.6242 44.3559 49.8724 44.5145 50.1346 44.5285C50.1486 44.5285 50.1591 44.5356 50.1731 44.5356C50.2605 44.5356 50.3514 44.518 50.4353 44.4827L50.5647 44.4299C50.9248 44.2819 51.0996 43.8698 50.9527 43.5069C50.8059 43.1441 50.3968 42.9679 50.0367 43.1159L49.9074 43.1687C49.806 43.211 49.7221 43.2744 49.6522 43.3484C49.4739 43.5421 49.4109 43.831 49.5158 44.0917H49.5193ZM28.0074 34.9217C28.0459 35.0204 28.1088 35.0979 28.1822 35.1648C28.3116 35.2881 28.4794 35.3621 28.6612 35.3621C28.7486 35.3621 28.8395 35.3445 28.9234 35.3092C29.1821 35.2036 29.3429 34.957 29.3604 34.6927C29.3674 34.5906 29.3534 34.4849 29.3115 34.3862L29.259 34.2559C29.1122 33.8931 28.7031 33.7169 28.343 33.8649C27.9829 34.0128 27.8081 34.425 27.955 34.7879L28.0074 34.9182V34.9217ZM29.0982 37.4441C29.0912 37.5462 29.1052 37.6519 29.1472 37.7541L29.2625 38.0359C29.301 38.1346 29.3639 38.2121 29.4373 38.279C29.5667 38.4023 29.7345 38.4763 29.9163 38.4763C30.0037 38.4763 30.0946 38.4587 30.1785 38.4234C30.4372 38.3178 30.5981 38.0712 30.6155 37.8069C30.6225 37.7048 30.6086 37.5991 30.5666 37.5005L30.4512 37.2186C30.4093 37.1165 30.3463 37.0319 30.2729 36.965C30.0806 36.7853 29.7939 36.7219 29.5352 36.8276C29.2765 36.9333 29.1157 37.1799 29.0982 37.4441ZM35.0207 30.962H35.0277C35.3039 30.962 35.5451 30.8 35.657 30.5604C35.7025 30.4688 35.7304 30.3667 35.7304 30.2575V30.1166C35.7339 29.7255 35.4228 29.4049 35.0347 29.4014C34.6501 29.4014 34.3285 29.7114 34.325 30.1025V30.2434C34.325 30.3526 34.3494 30.4547 34.3914 30.5499C34.5033 30.7894 34.741 30.9585 35.0207 30.962ZM34.9927 34.2947H34.9997C35.2759 34.2947 35.5172 34.1326 35.629 33.8931C35.6745 33.8015 35.7025 33.6993 35.7025 33.5901V33.2871C35.7025 33.1779 35.6815 33.0757 35.636 32.9806C35.5242 32.7411 35.2864 32.572 35.0067 32.572H34.9997C34.7235 32.572 34.4823 32.7376 34.3704 32.9736C34.325 33.0652 34.297 33.1673 34.297 33.2766V33.5795C34.297 33.6887 34.318 33.7909 34.3634 33.8825C34.4753 34.122 34.713 34.2911 34.9927 34.2947ZM34.9683 37.6238H34.9753C35.2515 37.6238 35.4927 37.4582 35.6046 37.2221C35.65 37.1306 35.678 37.0284 35.678 36.9192V36.6162C35.678 36.507 35.657 36.4048 35.6116 36.3133C35.4997 36.0737 35.2619 35.9046 34.9823 35.9046H34.9753C34.6991 35.9046 34.4578 36.0667 34.346 36.3062C34.3005 36.3978 34.2725 36.5 34.2725 36.6092V36.9121C34.2725 37.0213 34.2935 37.1235 34.339 37.2151C34.4508 37.4547 34.6886 37.6238 34.9683 37.6238ZM44.1772 41.5553C44.2541 41.5553 44.331 41.5412 44.4079 41.513C44.5023 41.4813 44.5932 41.4284 44.6701 41.3509L44.8834 41.1396C44.9603 41.0621 45.0128 40.974 45.0477 40.8753C45.1386 40.6252 45.0862 40.3363 44.8904 40.1355C44.6946 39.9347 44.4079 39.8784 44.1597 39.9664C44.0653 39.9982 43.9744 40.051 43.894 40.1285L43.6807 40.3399C43.6038 40.4174 43.5514 40.509 43.5164 40.6041C43.4255 40.8542 43.4779 41.1431 43.6737 41.3439C43.8101 41.4848 43.9919 41.5553 44.1737 41.5553H44.1772ZM46.5336 39.2196C46.6105 39.2196 46.6874 39.2055 46.7643 39.1773C46.8587 39.1456 46.9496 39.0928 47.03 39.0153L47.2433 38.8039C47.3202 38.7264 47.3727 38.6383 47.4076 38.5397C47.4985 38.2896 47.4461 38.0007 47.2503 37.7999C47.0545 37.5991 46.7678 37.5427 46.5196 37.6308C46.4252 37.6625 46.3343 37.7153 46.2539 37.7929L46.0406 38.0042C45.9637 38.0817 45.9113 38.1698 45.8763 38.2684C45.7854 38.5186 45.8378 38.8074 46.0336 39.0082C46.17 39.1491 46.3518 39.2196 46.5336 39.2196ZM48.8935 36.884C48.9704 36.884 49.0473 36.8699 49.1242 36.8417C49.2221 36.81 49.313 36.7571 49.3899 36.6796L49.4913 36.581C49.7675 36.3062 49.771 35.8588 49.4983 35.577C49.2256 35.2987 48.7781 35.2951 48.5019 35.5699L48.4005 35.6686C48.3236 35.7461 48.2712 35.8341 48.2362 35.9328C48.1453 36.1829 48.1978 36.4718 48.3935 36.6726C48.5299 36.8135 48.7117 36.884 48.8935 36.884ZM20.5641 36.4436C20.641 36.5211 20.7319 36.5775 20.8263 36.6092C20.9032 36.6374 20.9836 36.655 21.0675 36.655C21.2458 36.655 21.4241 36.588 21.5605 36.4506C21.7598 36.2534 21.8157 35.9645 21.7318 35.7144C21.7003 35.6157 21.6479 35.5241 21.571 35.4466L21.4731 35.3445C21.2004 35.0662 20.7564 35.0626 20.4767 35.3374C20.2005 35.6122 20.197 36.0596 20.4697 36.3414L20.5676 36.4436H20.5641ZM22.6723 38.5996L22.882 38.8145C22.9589 38.892 23.0498 38.9483 23.1442 38.98C23.2212 39.0082 23.3016 39.0258 23.3855 39.0258C23.5638 39.0258 23.7421 38.9589 23.8784 38.8215C24.0777 38.6242 24.1337 38.3354 24.0497 38.0852C24.0183 37.9866 23.9658 37.895 23.8889 37.8175L23.6792 37.6026C23.6022 37.5251 23.5113 37.4723 23.4169 37.437C23.1687 37.3454 22.882 37.3983 22.6827 37.5956C22.4835 37.7928 22.4275 38.0817 22.5149 38.3318C22.5464 38.4305 22.5988 38.5221 22.6758 38.5996H22.6723ZM24.9902 40.974L25.2 41.1889C25.2769 41.2664 25.3678 41.3228 25.4622 41.3545C25.5391 41.3826 25.6195 41.4002 25.7034 41.4002C25.8817 41.4002 26.06 41.3333 26.1964 41.1959C26.3957 40.9986 26.4516 40.7098 26.3642 40.4596C26.3327 40.361 26.2803 40.2694 26.2034 40.1919L25.9936 39.977C25.9167 39.8995 25.8258 39.8467 25.7314 39.8114C25.4832 39.7198 25.1965 39.7727 24.9972 39.97C24.7979 40.1673 24.742 40.4561 24.8294 40.7062C24.8609 40.8049 24.9133 40.8965 24.9902 40.974ZM41.4152 41.4707C41.4152 41.4707 41.4082 41.4848 41.4012 41.4883L41.3802 41.52C41.174 41.8195 41.2229 42.2281 41.5026 42.4677C41.5096 42.4747 41.5166 42.4782 41.5201 42.4853L41.5725 42.5311L41.7089 42.6509C41.8417 42.7706 42.0095 42.827 42.1739 42.827C42.3382 42.827 42.4955 42.7671 42.6284 42.6544L42.6493 42.6333C42.6598 42.6227 42.6738 42.6121 42.6843 42.6015L42.7018 42.5839C42.9605 42.2915 42.929 41.8406 42.6389 41.5834L42.5794 41.5306L42.4046 41.3791C42.1074 41.129 41.6634 41.1677 41.4117 41.4672L41.4152 41.4707ZM26.6089 42.6473C26.6089 42.6473 26.6194 42.6579 26.6264 42.6614C26.7103 42.7495 26.8117 42.8094 26.9166 42.8446H26.9236C26.9865 42.8622 27.046 42.8763 27.1124 42.8798H27.1334C27.3012 42.8798 27.469 42.82 27.6018 42.7002L27.8081 42.517C27.9165 42.4254 27.9899 42.3056 28.0284 42.1753C28.0284 42.1718 28.0284 42.1682 28.0319 42.1612C28.0668 42.0344 28.0633 41.9005 28.0284 41.7737C28.0039 41.6891 27.962 41.6046 27.9025 41.5306C27.899 41.5236 27.8955 41.52 27.892 41.513C27.7137 41.2981 27.434 41.2241 27.1823 41.2875C27.0809 41.3122 26.9865 41.358 26.8991 41.432L26.6649 41.6398C26.4551 41.83 26.3852 42.1154 26.4621 42.3726C26.4901 42.4677 26.539 42.5628 26.6089 42.6438V42.6473ZM32.1993 39.5437L32.2203 39.6283C32.3147 39.9171 32.5839 40.1144 32.8881 40.1144C32.9265 40.1144 32.9615 40.1144 32.9999 40.1038L33.2726 40.0651C33.6362 40.0158 33.8915 39.6987 33.881 39.3359V39.2936V39.2689C33.8285 38.8814 33.4789 38.6066 33.0908 38.6595L32.7832 38.7053C32.3986 38.7652 32.1364 39.1315 32.1993 39.5155C32.1993 39.5226 32.2028 39.5331 32.2063 39.5402L32.1993 39.5437ZM24.6895 45.2648C24.6895 45.2648 24.7035 45.2683 24.7105 45.2754C24.8224 45.3388 24.9413 45.374 25.0601 45.374C25.1266 45.374 25.1895 45.3635 25.2524 45.3458C25.2769 45.3388 25.2979 45.3282 25.3223 45.3177C25.4552 45.2648 25.5776 45.1732 25.658 45.0394L25.8048 44.8069C25.9237 44.6237 25.9447 44.4052 25.8887 44.2115C25.8433 44.0635 25.7559 43.9332 25.623 43.8381C25.616 43.8345 25.6125 43.8275 25.6055 43.824C25.3433 43.6514 25.0077 43.6795 24.7769 43.8698C24.721 43.9156 24.6721 43.9649 24.6301 44.0283L24.4623 44.2925C24.3994 44.3947 24.3679 44.5074 24.3609 44.6201C24.3539 44.7258 24.3714 44.8315 24.4099 44.9302C24.4623 45.064 24.5567 45.1873 24.6895 45.2683V45.2648ZM29.9478 39.5543C29.8953 39.5648 29.8429 39.5789 29.7904 39.6036L29.5073 39.7339C29.1576 39.903 29.0073 40.3258 29.1751 40.6781C29.1786 40.6851 29.1856 40.6922 29.1891 40.6992C29.2206 40.7626 29.259 40.8155 29.3045 40.8648C29.4373 41.0022 29.6191 41.0832 29.8114 41.0832C29.9128 41.0832 30.0142 41.0621 30.1121 41.0127L30.3638 40.8965L30.4023 40.8753L30.4652 40.8401C30.7029 40.6816 30.8183 40.3962 30.7694 40.1179C30.7624 40.0721 30.7379 39.9982 30.7204 39.9594C30.5946 39.6494 30.2624 39.4944 29.9478 39.5543ZM35.4123 39.2654V39.2901V39.3077V39.3112C35.4123 39.3429 35.4088 39.3781 35.4123 39.4098C35.4228 39.5648 35.4892 39.7058 35.5871 39.822L35.65 39.8889C35.7514 39.977 35.8808 40.0404 36.0241 40.058L36.2968 40.0968C36.3318 40.1038 36.3667 40.1038 36.4052 40.1038C36.7373 40.1038 37.0275 39.8678 37.0939 39.5331V39.5296C37.0939 39.5226 37.0974 39.512 37.1009 39.505C37.1604 39.1174 36.8947 38.7546 36.5101 38.6982L36.2024 38.6559C35.9647 38.6278 35.7444 38.7194 35.5941 38.8814C35.4997 38.9871 35.4333 39.1174 35.4158 39.2689L35.4123 39.2654ZM43.6702 44.9689C43.8031 45.1838 44.0338 45.3001 44.2646 45.3001C44.324 45.3001 44.3834 45.2895 44.4429 45.2754C44.5023 45.2578 44.5617 45.2331 44.6177 45.2014C44.6247 45.1979 44.6317 45.1979 44.6387 45.1908C44.9673 44.983 45.0652 44.5426 44.8589 44.2115L44.6876 43.9473C44.4708 43.6232 44.0338 43.5351 43.7122 43.7535C43.7052 43.757 43.7017 43.7641 43.6947 43.7676C43.6597 43.7923 43.6283 43.8169 43.6003 43.8451C43.3731 44.0811 43.3311 44.451 43.5199 44.7329L43.6702 44.9654V44.9689ZM38.9329 40.8648L39.1846 40.9775C39.2406 41.0022 39.2965 41.0198 39.3525 41.0303L39.4259 41.0374C39.4469 41.0374 39.4643 41.0444 39.4853 41.0444C39.737 41.0444 39.9748 40.9035 40.1006 40.671C40.1006 40.6675 40.1076 40.6604 40.1111 40.6569C40.1146 40.6499 40.1216 40.6464 40.1251 40.6358C40.2719 40.3187 40.1671 39.9488 39.8909 39.7551C39.8594 39.7304 39.8244 39.7093 39.786 39.6917L39.4993 39.5613C39.1427 39.4063 38.7266 39.5684 38.5728 39.9277C38.5728 39.9347 38.5693 39.9418 38.5658 39.9488V39.9559V39.9594C38.5588 39.9735 38.5553 39.9911 38.5518 40.0052C38.4504 40.3434 38.6113 40.7168 38.9399 40.8613L38.9329 40.8648ZM65.9827 0.133545H0.614952C0.303794 0.133545 0.00661961 0.545719 0.00661961 0.926187V7.28141C-0.00386889 7.3413 -0.000372723 7.40119 0.00661961 7.45756C0.00661961 7.79575 0.289809 8.07406 0.625441 8.07406H3.86289V51.613C3.86289 51.9547 4.14608 52.2365 4.48171 52.2365H61.8992C62.2384 52.2365 62.5181 51.9512 62.4901 51.613V8.07406H65.9793C68.1469 8.07406 69.9194 6.28797 69.9194 4.07562C69.9194 1.86327 68.1469 0.133545 65.9793 0.133545H65.9827ZM1.27223 6.76708V1.44405C2.72314 1.48984 3.86289 2.65943 3.86289 4.10732C3.86289 5.55522 2.69867 6.7248 1.27223 6.7706V6.76708ZM4.40829 6.76356C4.34886 6.76708 4.28942 6.77412 4.22999 6.77412H4.08664C4.20551 6.64378 4.3104 6.50286 4.41179 6.3549C4.59708 6.08364 4.75441 5.78772 4.87328 5.47067C5.0341 5.03736 5.1285 4.57234 5.13549 4.08266C5.13549 3.07513 4.74392 2.14862 4.10762 1.44757H4.23348C5.72635 1.44757 6.90805 2.63829 6.90805 4.11437C6.90805 4.61109 6.7682 5.07611 6.52697 5.47419C6.08645 6.20694 5.30681 6.71071 4.41179 6.7706L4.40829 6.76356ZM61.2524 50.993H5.10053V49.1505H61.2524V50.993ZM61.2524 47.8999H5.10053V8.07406H61.2524V47.8999ZM65.8254 4.38915C65.8254 4.42086 65.8149 4.45256 65.8114 4.48427C65.8009 4.54768 65.794 4.60757 65.78 4.66746C65.773 4.70269 65.7625 4.73791 65.752 4.77314C65.738 4.82599 65.724 4.88235 65.7066 4.93519L65.6646 5.0444C65.6471 5.09372 65.6261 5.14304 65.6052 5.19236L65.5527 5.29805L65.4793 5.43192C65.4583 5.46714 65.4373 5.49885 65.4164 5.53408C65.3884 5.57635 65.3604 5.61863 65.329 5.6609C65.3045 5.69261 65.2835 5.72431 65.2555 5.75602C65.2241 5.79477 65.1891 5.83352 65.1542 5.87227C65.1297 5.90046 65.1017 5.93216 65.0737 5.95682C65.0388 5.99557 65.0003 6.0308 64.9619 6.06603C64.9339 6.09069 64.9059 6.11887 64.878 6.14353C64.836 6.17876 64.7906 6.21047 64.7486 6.2457L64.6647 6.30911C64.6123 6.34434 64.5563 6.37604 64.5004 6.41127C64.4759 6.42536 64.4549 6.43945 64.4339 6.45354C64.3535 6.49582 64.2731 6.53457 64.1892 6.5698C64.1682 6.57684 64.1473 6.58389 64.1298 6.59094C64.0634 6.6156 64.0004 6.64026 63.934 6.66139C63.9025 6.67196 63.8676 6.67901 63.8361 6.68605L63.6648 6.72833C63.6263 6.73537 63.5914 6.7389 63.5529 6.74594C63.497 6.75299 63.4445 6.76356 63.3886 6.76708C63.3501 6.76708 63.2418 6.77765 63.1648 6.77765L7.09684 6.80231C7.44646 6.41832 7.72266 5.96739 7.90795 5.46715C8.06878 5.03383 8.16317 4.56882 8.17017 4.07914C8.17017 3.06808 7.77859 2.14509 7.14229 1.44052H63.1683C64.6612 1.44052 65.8429 2.63125 65.8429 4.10732C65.8429 4.20596 65.8359 4.30108 65.8254 4.39267V4.38915ZM66.1016 6.76356C66.7344 6.05194 67.1225 5.11134 67.1085 4.07562C67.1085 3.06808 66.7169 2.14509 66.0841 1.44405C67.5281 1.49689 68.6573 2.66295 68.6573 4.1038C68.6573 5.54465 67.5106 6.70014 66.1016 6.76356Z" fill="#A6A3A3"/>
</svg>
