<svg width="75" height="74" viewBox="0 0 75 74" fill="none" xmlns="http://www.w3.org/2000/svg">
<path fill-rule="evenodd" clip-rule="evenodd" d="M70.6259 4.06764C70.6259 4.77285 70.6259 5.47818 70.6259 6.18339C70.6259 6.71232 70.6259 7.24126 70.6259 7.7702C48.4095 7.7702 26.193 7.7702 3.97656 7.7702C3.97656 7.24126 3.97656 6.71232 3.97656 6.18339C3.97656 6.13935 3.97656 6.09519 3.97656 6.05115C3.97656 5.38998 3.97656 4.72881 3.97656 4.06764C3.97656 4.02361 3.97656 3.97944 3.97656 3.93541C3.97656 3.40647 3.97656 2.87754 3.97656 2.3486C26.193 2.3486 48.4095 2.3486 70.6259 2.3486C70.6259 2.92157 70.6259 3.49467 70.6259 4.06764Z" fill="#A6A3A3"/>
<path fill-rule="evenodd" clip-rule="evenodd" d="M70.623 4.06766C71.1123 4.06766 71.6015 4.06766 72.0907 4.06766C72.0907 4.77286 72.0907 5.4782 72.0907 6.1834C71.6015 6.1834 71.1123 6.1834 70.623 6.1834C70.623 5.4782 70.623 4.77286 70.623 4.06766Z" fill="#A6A3A3"/>
<path fill-rule="evenodd" clip-rule="evenodd" d="M3.97548 3.93542C3.97548 3.97946 3.97548 4.02362 3.97548 4.06766C3.51506 4.06766 3.05456 4.06766 2.59415 4.06766C2.59415 4.72883 2.59415 5.39 2.59415 6.05117C3.05456 6.05117 3.51506 6.05117 3.97548 6.05117C3.97548 6.0952 3.97548 6.13937 3.97548 6.1834C3.48623 6.1834 2.99706 6.1834 2.50781 6.1834C2.50781 5.43403 2.50781 4.68479 2.50781 3.93542C2.99706 3.93542 3.48623 3.93542 3.97548 3.93542Z" fill="#A6A3A3"/>
<path fill-rule="evenodd" clip-rule="evenodd" d="M69.4168 7.9024C69.4742 22.7573 69.4166 37.5675 69.2442 52.333C69.2442 51.4956 69.2442 50.658 69.2442 49.8206C69.1867 35.8031 69.2443 21.8303 69.4168 7.9024Z" fill="#A6A3A3"/>
<path fill-rule="evenodd" clip-rule="evenodd" d="M12.6953 7.9024C28.667 7.9024 44.6386 7.9024 60.6103 7.9024C60.6103 8.25507 60.6103 8.60761 60.6103 8.96028C44.6386 8.96028 28.667 8.96028 12.6953 8.96028C12.6953 8.60761 12.6953 8.25507 12.6953 7.9024Z" fill="#A6A3A3"/>
<path fill-rule="evenodd" clip-rule="evenodd" d="M69.4168 7.9024C69.5031 21.853 69.5319 35.8256 69.5031 49.8206C69.5031 50.7022 69.5031 51.5837 69.5031 52.4653C69.4168 52.4653 69.3305 52.4653 69.2441 52.4653C69.2441 52.4212 69.2441 52.3771 69.2441 52.333C69.4166 37.5675 69.4742 22.7573 69.4168 7.9024Z" fill="#A6A3A3"/>
<path fill-rule="evenodd" clip-rule="evenodd" d="M60.5243 13.9852C60.5243 13.4563 60.5243 12.9273 60.5243 12.3984C44.6102 12.3984 28.696 12.3984 12.7819 12.3984C12.7819 12.9273 12.7819 13.4563 12.7819 13.9852C12.6969 13.4386 12.6681 12.8655 12.6956 12.2662C28.6673 12.2662 44.6389 12.2662 60.6106 12.2662C60.6381 12.8655 60.6093 13.4386 60.5243 13.9852Z" fill="#A6A3A3"/>
<path fill-rule="evenodd" clip-rule="evenodd" d="M60.5255 13.9852C44.6115 13.9852 28.6973 13.9852 12.7832 13.9852C12.7832 13.4562 12.7832 12.9273 12.7832 12.3984C28.6973 12.3984 44.6115 12.3984 60.5255 12.3984C60.5255 12.9273 60.5255 13.4562 60.5255 13.9852Z" fill="#A6A3A3"/>
<path fill-rule="evenodd" clip-rule="evenodd" d="M12.6953 17.291C28.667 17.291 44.6386 17.291 60.6103 17.291C60.6103 17.864 60.6103 18.4371 60.6103 19.0101C44.6386 19.0101 28.667 19.0101 12.6953 19.0101C12.6953 18.4371 12.6953 17.864 12.6953 17.291Z" fill="#A6A3A3"/>
<path fill-rule="evenodd" clip-rule="evenodd" d="M12.6953 22.3159C28.667 22.3159 44.6386 22.3159 60.6103 22.3159C60.6103 22.8889 60.6103 23.462 60.6103 24.035C44.6386 24.035 28.667 24.035 12.6953 24.035C12.6953 23.462 12.6953 22.8889 12.6953 22.3159Z" fill="#A6A3A3"/>
<path fill-rule="evenodd" clip-rule="evenodd" d="M12.6953 27.3409C28.667 27.3409 44.6386 27.3409 60.6103 27.3409C60.6103 27.9138 60.6103 28.4869 60.6103 29.0599C44.6386 29.0599 28.667 29.0599 12.6953 29.0599C12.6953 28.4869 12.6953 27.9138 12.6953 27.3409Z" fill="#A6A3A3"/>
<path fill-rule="evenodd" clip-rule="evenodd" d="M12.7832 32.3657C28.7261 32.3657 44.669 32.3657 60.6119 32.3657C60.6119 32.498 60.6119 32.6302 60.6119 32.7624C60.5275 33.131 60.4988 33.5277 60.5255 33.9525C44.6115 33.9525 28.6973 33.9525 12.7832 33.9525C12.7832 33.4236 12.7832 32.8947 12.7832 32.3657Z" fill="#A6A3A3"/>
<path fill-rule="evenodd" clip-rule="evenodd" d="M12.7819 32.3657C12.7819 32.8947 12.7819 33.4236 12.7819 33.9525C28.696 33.9525 44.6102 33.9525 60.5243 33.9525C60.4975 33.5277 60.5263 33.131 60.6106 32.7624C60.6106 33.2032 60.6106 33.644 60.6106 34.0848C44.6389 34.0848 28.6673 34.0848 12.6956 34.0848C12.6681 33.4855 12.6969 32.9124 12.7819 32.3657Z" fill="#A6A3A3"/>
<path fill-rule="evenodd" clip-rule="evenodd" d="M12.7819 37.3906C12.7819 37.9196 12.7819 38.4485 12.7819 38.9774C28.696 38.9774 44.6102 38.9774 60.5243 38.9774C60.5243 38.4485 60.5243 37.9196 60.5243 37.3906C60.6093 37.9373 60.6381 38.5104 60.6106 39.1097C44.6389 39.1097 28.6673 39.1097 12.6956 39.1097C12.6681 38.5104 12.6969 37.9373 12.7819 37.3906Z" fill="#A6A3A3"/>
<path fill-rule="evenodd" clip-rule="evenodd" d="M12.7832 37.3906C28.6973 37.3906 44.6115 37.3906 60.5255 37.3906C60.5255 37.9196 60.5255 38.4485 60.5255 38.9774C44.6115 38.9774 28.6973 38.9774 12.7832 38.9774C12.7832 38.4485 12.7832 37.9196 12.7832 37.3906Z" fill="#A6A3A3"/>
<path fill-rule="evenodd" clip-rule="evenodd" d="M12.7832 42.4155C28.7261 42.4155 44.669 42.4155 60.6119 42.4155C60.6119 42.5478 60.6119 42.68 60.6119 42.8122C60.5275 43.1808 60.4988 43.5775 60.5255 44.0023C44.6115 44.0023 28.6973 44.0023 12.7832 44.0023C12.7832 43.4734 12.7832 42.9445 12.7832 42.4155Z" fill="#A6A3A3"/>
<path fill-rule="evenodd" clip-rule="evenodd" d="M12.7819 42.4155C12.7819 42.9445 12.7819 43.4734 12.7819 44.0023C28.696 44.0023 44.6102 44.0023 60.5243 44.0023C60.4975 43.5775 60.5263 43.1808 60.6106 42.8122C60.6106 43.253 60.6106 43.6938 60.6106 44.1346C44.6389 44.1346 28.6673 44.1346 12.6956 44.1346C12.6681 43.5353 12.6969 42.9622 12.7819 42.4155Z" fill="#A6A3A3"/>
<path fill-rule="evenodd" clip-rule="evenodd" d="M12.7832 47.4404C28.7261 47.4404 44.669 47.4404 60.6119 47.4404C60.6119 47.9694 60.6119 48.4983 60.6119 49.0272C44.669 49.0272 28.7261 49.0272 12.7832 49.0272C12.7832 48.4983 12.7832 47.9694 12.7832 47.4404Z" fill="#A6A3A3"/>
<path fill-rule="evenodd" clip-rule="evenodd" d="M12.7819 47.4404C12.7819 47.9694 12.7819 48.4983 12.7819 49.0272C28.7249 49.0272 44.6677 49.0272 60.6106 49.0272C44.6534 49.1595 28.6817 49.2035 12.6956 49.1595C12.6681 48.5602 12.6969 47.9871 12.7819 47.4404Z" fill="#A6A3A3"/>
<path fill-rule="evenodd" clip-rule="evenodd" d="M12.7832 52.4653C28.7261 52.4653 44.669 52.4653 60.6119 52.4653C60.6119 52.9942 60.6119 53.5231 60.6119 54.0521C44.669 54.0521 28.7261 54.0521 12.7832 54.0521C12.7832 53.5231 12.7832 52.9942 12.7832 52.4653Z" fill="#A6A3A3"/>
<path fill-rule="evenodd" clip-rule="evenodd" d="M69.2416 49.8206C69.2416 50.6581 69.2416 51.4956 69.2416 52.3331C69.2416 52.3771 69.2416 52.4213 69.2416 52.4653C69.1562 51.6527 69.1274 50.8153 69.1553 49.9529C69.0402 49.9529 68.925 49.9529 68.81 49.9529C68.81 55.9916 68.81 62.0302 68.81 68.0689C68.7237 62.0086 68.695 55.9259 68.7236 49.8206C68.8963 49.8206 69.069 49.8206 69.2416 49.8206Z" fill="#A6A3A3"/>
<path fill-rule="evenodd" clip-rule="evenodd" d="M69.5032 49.8206C69.6471 49.8206 69.7909 49.8206 69.9348 49.8206C69.9348 55.9034 69.9348 61.9861 69.9348 68.0689C69.5608 68.0689 69.1866 68.0689 68.8125 68.0689C68.8125 62.0302 68.8125 55.9916 68.8125 49.9529C68.9276 49.9529 69.0428 49.9529 69.1578 49.9529C69.1299 50.8153 69.1587 51.6527 69.2442 52.4653C69.3305 52.4653 69.4168 52.4653 69.5032 52.4653C69.5032 51.5837 69.5032 50.7022 69.5032 49.8206Z" fill="#A6A3A3"/>
<path fill-rule="evenodd" clip-rule="evenodd" d="M12.7819 52.4653C12.7819 52.9942 12.7819 53.5231 12.7819 54.0521C28.7249 54.0521 44.6677 54.0521 60.6106 54.0521C44.6534 54.1843 28.6817 54.2283 12.6956 54.1843C12.6681 53.585 12.6969 53.0119 12.7819 52.4653Z" fill="#A6A3A3"/>
<path fill-rule="evenodd" clip-rule="evenodd" d="M12.7832 57.4902C28.7261 57.4902 44.669 57.4902 60.6119 57.4902C60.6119 58.0191 60.6119 58.548 60.6119 59.077C44.669 59.077 28.7261 59.077 12.7832 59.077C12.7832 58.548 12.7832 58.0191 12.7832 57.4902Z" fill="#A6A3A3"/>
<path fill-rule="evenodd" clip-rule="evenodd" d="M12.7819 57.4902C12.7819 58.0191 12.7819 58.548 12.7819 59.077C28.7249 59.077 44.6677 59.077 60.6106 59.077C44.6534 59.2092 28.6817 59.2532 12.6956 59.2092C12.6681 58.6099 12.6969 58.0368 12.7819 57.4902Z" fill="#A6A3A3"/>
<path fill-rule="evenodd" clip-rule="evenodd" d="M60.5232 62.5151C60.6081 63.0173 60.6369 63.5463 60.6095 64.1019C60.5808 64.1019 60.5519 64.1019 60.5232 64.1019C44.6523 63.9697 28.7669 63.9256 12.8672 63.9697C12.8672 63.5289 12.8672 63.0881 12.8672 62.6473C28.7669 62.6914 44.6523 62.6473 60.5232 62.5151Z" fill="#A6A3A3"/>
<path fill-rule="evenodd" clip-rule="evenodd" d="M12.7832 62.5151C28.6973 62.5151 44.6115 62.5151 60.5255 62.5151C44.6546 62.6473 28.7693 62.6914 12.8695 62.6473C12.8695 63.0881 12.8695 63.5289 12.8695 63.9697C28.7693 63.9256 44.6546 63.9697 60.5255 64.1019C44.6115 64.1019 28.6973 64.1019 12.7832 64.1019C12.7832 63.573 12.7832 63.044 12.7832 62.5151Z" fill="#A6A3A3"/>
<path fill-rule="evenodd" clip-rule="evenodd" d="M12.7819 62.5151C12.7819 63.044 12.7819 63.573 12.7819 64.1019C28.696 64.1019 44.6102 64.1019 60.5243 64.1019C60.553 64.1019 60.5819 64.1019 60.6106 64.1019C44.6534 64.2341 28.6817 64.2782 12.6956 64.2341C12.6681 63.6349 12.6969 63.0618 12.7819 62.5151Z" fill="#A6A3A3"/>
</svg>
