<svg width="68" height="67" viewBox="0 0 68 67" fill="none" xmlns="http://www.w3.org/2000/svg">
<path d="M0.608653 7.62628H3.68218V66.2471C3.68218 66.5807 3.95456 66.8509 4.29084 66.8509H14.9305C15.2668 66.8509 15.5391 66.5807 15.5391 66.2471C15.5391 65.9135 15.2668 65.6433 14.9305 65.6433H4.89949V7.62628H17.7585V66.2471C17.7585 66.5807 18.0309 66.8509 18.3672 66.8509H29.0069C29.3431 66.8509 29.6155 66.5807 29.6155 66.2471C29.6155 65.9135 29.3431 65.6433 29.0069 65.6433H18.9759V7.62628H31.8618V66.2471C31.8618 66.5807 32.1342 66.8509 32.4705 66.8509H62.856C63.1923 66.8509 63.4647 66.5807 63.4647 66.2471V7.62628H66.6391C66.9754 7.62628 67.2477 7.35606 67.2477 7.02246V0.737367C67.2477 0.403764 66.9754 0.133545 66.6391 0.133545H0.608653C0.272381 0.133545 0 0.403764 0 0.737367V7.02246C0 7.35606 0.272381 7.62628 0.608653 7.62628ZM63.5454 1.34119H66.0372V6.41864H63.5454V1.34119ZM62.2541 65.6433H33.0858V7.62628H62.2541V65.6433ZM4.89949 1.34119H62.3247V6.41864H4.89949V1.34119ZM1.21731 1.34119H3.68218V6.41864H1.21731V1.34119Z" fill="#A6A3A3"/>
</svg>
