<svg width="70" height="70" viewBox="0 0 70 70" fill="none" xmlns="http://www.w3.org/2000/svg">
<path d="M65.9832 1.98952e-05C65.8189 1.98952e-05 0.825175 1.98952e-05 0.597925 1.98952e-05C0.234323 -0.00344958 -0.0488659 0.447582 0.0070727 0.784122C0.0070727 0.784122 8.03647e-05 7.15061 0.0070727 7.20612V7.21306C0.0070727 7.54613 0.290262 7.82022 0.625894 7.82022H3.86334V68.772C3.86334 69.1085 4.14653 69.3861 4.48216 69.3861H61.8997C62.2388 69.3861 62.5185 69.1051 62.4905 68.772V7.82369H65.9797C68.1473 7.82369 69.9199 6.06467 69.9199 3.88583C69.9199 1.707 68.1508 1.98952e-05 65.9832 1.98952e-05ZM1.27268 6.53304V1.29067C2.72359 1.33577 3.86334 2.48763 3.86334 3.91359C3.86334 5.33954 2.69912 6.49141 1.27268 6.53651V6.53304ZM4.22694 6.53651C4.18149 6.53651 4.13255 6.53651 4.0836 6.53651C4.7199 5.83568 5.11497 4.90933 5.12895 3.88583C5.12895 2.89356 4.73738 1.98109 4.10108 1.29067C4.14304 1.29067 4.18499 1.29067 4.22694 1.29067C5.71981 1.29067 6.90151 2.46335 6.90151 3.91706C6.90151 5.37077 5.69184 6.54345 4.22694 6.54345V6.53651ZM61.2494 10.3842H9.74389V7.82022H61.2529V10.3842H61.2494ZM5.10099 65.1152V62.5165H8.54121V65.1152H5.10099ZM5.10099 11.6158H56.5366V16.0429H5.10099V11.6158ZM5.10099 17.2711H8.50275V21.6981H5.10099V17.2711ZM5.10099 22.9263H56.5366V27.3534H5.10099V22.9263ZM5.10099 28.5816H8.50275V33.0086H5.10099V28.5816ZM5.10099 34.2368H56.5366V38.6639H5.10099V34.2368ZM5.10099 39.8921H8.54121V44.3191H5.10099V39.8921ZM5.10099 45.5473H56.575V49.9744H5.10099V45.5473ZM5.10099 51.2026H8.54121V55.6296H5.10099V51.2026ZM5.10099 61.2849V56.8578H56.575V61.2849H5.10099ZM57.8127 56.8578H61.2529V61.2849H57.8127V56.8578ZM9.77885 55.6296V51.2026H61.2529V55.6296H9.77885ZM57.8127 49.9744V45.5473H61.2529V49.9744H57.8127ZM9.77885 44.3226V39.8955H61.2529V44.3226H9.77885ZM57.7742 38.6673V34.2403H61.2494V38.6673H57.7742ZM9.74389 33.0086V28.5816H61.2529V33.0086H9.74389ZM57.7777 27.3534V22.9263H61.2529V27.3534H57.7777ZM9.74389 21.6981V17.2711H61.2529V21.6981H9.74389ZM57.7777 16.0429V11.6158H61.2529V16.0429H57.7777ZM8.50625 10.3876H5.10448V7.82369H8.50625V10.3876ZM5.10448 66.3468H56.5785V68.1614H5.10099V66.3468H5.10448ZM61.2564 68.1614H57.8162V66.3468H61.2564V68.1614ZM9.78235 65.1152V62.5165H61.2564V65.1152H9.77885H9.78235ZM62.3647 6.56427H7.0973C7.75108 5.85997 8.15663 4.91974 8.17062 3.88236C8.17062 2.88662 7.77905 1.97415 7.14275 1.28373H63.1688C64.6617 1.28373 65.8434 2.45641 65.8434 3.91012C65.8434 6.37692 64.0848 6.56427 62.3682 6.56427H62.3647ZM66.0986 6.52957C66.7314 5.82874 67.1195 4.90239 67.1055 3.88236C67.1055 2.89009 66.7139 1.98109 66.0811 1.29067C67.525 1.34271 68.6543 2.4911 68.6543 3.91359C68.6543 5.33607 67.5075 6.47059 66.0986 6.53304V6.52957Z" fill="#A6A3A3"/>
</svg>
