<svg width="153" height="177" viewBox="0 0 153 177" fill="none" xmlns="http://www.w3.org/2000/svg">
<path d="M114.769 125.195C114.067 122.434 114.982 119.508 117.15 117.672L153 87.2114L146.233 84.9316C143.226 83.9184 141.397 80.8533 141.923 77.6869L146.158 52.0139L130.207 57.954C127.049 59.1319 123.565 57.4601 122.463 54.2431L119.33 45.0859L104.682 59.8919C103.015 61.5764 100.208 60.1072 100.584 57.7641L106.762 20.2741L97.0629 26.3029C94.2685 28.0381 90.6096 27.0502 89.0432 24.1245L76.5 0.642578L63.9568 24.1245C62.403 27.0375 58.7314 28.0381 55.9371 26.3029L46.2383 20.2741L52.416 57.7641C52.8044 60.1072 49.985 61.5764 48.3184 59.8919L33.67 45.0859L30.5374 54.2431C29.4347 57.4474 25.9511 59.1193 22.7934 57.954L6.84178 52.0139L11.0772 77.6869C11.6035 80.8406 9.77397 83.9184 6.7666 84.9316L0 87.2114L35.8504 117.672C38.0056 119.508 38.9329 122.434 38.2312 125.195L35.3993 136.252L74.5076 129.122V176.643H78.5049V129.122L117.613 136.252L114.781 125.195H114.769Z" fill="#EC1A23"/>
</svg>
