<svg width="546" height="430" viewBox="0 0 546 430" fill="none" xmlns="http://www.w3.org/2000/svg">
<g filter="url(#filter0_d_610_29)">
<path d="M106.146 356.038C106.146 356.038 106.146 372.582 81.5622 372.582H1L20.4706 340.477L1 306.384H106.122V356.038H106.146Z" fill="url(#paint0_linear_610_29)"/>
<path d="M38.54 320.767C38.54 332.745 50.2421 333.285 54.0035 333.849C69.8111 336.255 106.146 326.608 106.146 351.448V296.222C106.146 296.222 38.54 296.222 38.54 320.767Z" fill="#A53B11"/>
<path d="M425.839 354.394C425.839 354.394 425.839 370.937 450.423 370.937H530.985L511.515 338.832L530.985 304.739H425.863V354.394H425.839Z" fill="url(#paint1_linear_610_29)"/>
<path d="M493.248 320.767C493.248 332.745 481.546 333.285 477.785 333.849C461.977 336.255 425.642 326.608 425.642 351.448V296.222C425.642 296.222 493.248 296.222 493.248 320.767Z" fill="#A53B11"/>
<path d="M472.819 210.167C473.385 324.179 381.243 417.106 267.001 417.671C228.084 417.867 191.651 407.313 160.502 388.781C100.124 353.019 59.5354 287.386 59.1667 212.18C58.6012 98.1678 150.718 5.24026 264.936 4.67573C290.872 4.553 315.678 9.16747 338.615 17.7828C416.669 46.9914 472.377 121.976 472.819 210.167Z" fill="#FFA600"/>
<path d="M464.705 210.216C465.246 319.761 376.719 409.056 266.95 409.595C229.558 409.792 194.55 399.63 164.607 381.86C106.613 347.497 67.5976 284.44 67.2534 212.18C66.7126 102.635 155.215 13.3403 264.959 12.8003C289.887 12.6776 313.709 17.1203 335.737 25.3919C410.718 53.4469 464.263 125.487 464.681 210.216H464.705Z" fill="url(#paint2_linear_610_29)"/>
<path d="M168.812 318.68C168.812 318.68 169.918 319.662 171.59 320.644C173.212 321.675 175.548 322.534 177.785 322.46C182.259 322.289 184.816 318.386 184.816 318.386C184.816 318.386 183.734 317.551 182.112 316.741C180.465 315.931 178.301 315.146 176.162 315.121C171.811 315.121 168.836 318.705 168.836 318.705L168.812 318.68ZM179.53 310.973C179.85 313.133 181.202 314.974 182.456 316.275C183.685 317.6 184.816 318.386 184.816 318.386C184.816 318.386 187.594 314.655 186.783 310.556C186.365 308.519 185.136 306.801 184.103 305.451C183.046 304.125 182.038 303.34 182.038 303.34C182.038 303.34 178.842 306.752 179.53 310.973ZM159.421 309.942C159.421 309.942 160.453 310.998 162.051 312.102C163.649 313.207 165.812 314.336 168.025 314.508C172.548 314.68 175.425 310.998 175.425 310.998C175.425 310.998 174.392 310.09 172.819 309.181C171.319 308.175 169.254 307.144 167.066 306.972C162.666 306.653 159.421 309.942 159.421 309.942ZM170.803 303.168C171 305.279 172.106 307.292 173.188 308.764C174.343 310.163 175.4 311.022 175.4 311.022C175.4 311.022 178.498 307.537 177.982 303.462C177.785 301.352 176.777 299.437 175.818 298.087C174.835 296.713 173.925 295.854 173.925 295.854C173.925 295.854 170.41 298.995 170.803 303.192V303.168ZM150.914 300.345C150.914 300.345 151.824 301.523 153.275 302.8C154.75 304.052 156.888 305.303 159.076 305.647C163.477 306.285 166.673 302.873 166.673 302.873C166.673 302.873 163.059 298.823 158.708 298.112C154.455 297.302 150.914 300.321 150.914 300.321V300.345ZM162.789 294.651C162.789 298.897 166.673 302.873 166.673 302.873C166.673 302.873 170.065 299.683 170.016 295.485C170.016 293.374 169.082 291.46 168.246 290.012C167.46 288.515 166.624 287.557 166.624 287.557C166.624 287.557 162.887 290.355 162.789 294.675V294.651ZM143.22 290.085C143.22 290.085 144.055 291.313 145.408 292.687C146.784 294.037 148.628 295.608 150.89 296.074C155.29 297.056 158.757 293.939 158.757 293.939C158.757 293.939 155.364 289.693 151.234 288.515C147.006 287.385 143.195 290.085 143.195 290.085H143.22ZM155.61 285.422C155.118 289.766 158.757 293.964 158.757 293.964C158.757 293.964 162.42 291.092 162.666 286.944C162.739 284.906 162.174 282.796 161.461 281.274C160.773 279.752 159.986 278.721 159.986 278.721C159.986 278.721 156.003 281.176 155.61 285.422ZM138.991 278.181C137.467 278.574 136.484 279.163 136.484 279.163C136.484 279.163 136.656 279.482 136.975 280.022C137.27 280.537 137.737 281.249 138.401 281.986C139.679 283.458 141.499 285.103 143.588 285.839C145.653 286.576 147.694 286.183 149.169 285.643C150.644 285.103 151.578 284.416 151.578 284.416C151.578 284.416 150.792 283.311 149.611 281.936C148.407 280.587 146.661 279.065 144.572 278.353C142.457 277.641 140.515 277.788 138.991 278.206V278.181ZM149.194 275.628C148.825 277.715 149.415 279.924 150.103 281.617C150.742 283.336 151.603 284.416 151.603 284.416C151.603 284.416 152.586 283.777 153.643 282.648C154.676 281.495 155.782 279.85 156.151 277.764C156.52 275.678 156.003 273.591 155.413 272.045C155.094 271.259 154.799 270.597 154.602 270.106C154.381 269.639 154.233 269.345 154.233 269.345C154.233 269.345 153.201 269.885 152.045 270.916C150.914 271.947 149.562 273.567 149.243 275.653L149.194 275.628ZM130.755 267.676C130.755 267.676 131.345 269.026 132.427 270.646C133.46 272.266 135.181 274.058 137.246 274.941C141.351 276.708 145.334 274.254 145.334 274.254C145.334 274.254 144.719 273.027 143.588 271.603C142.457 270.179 140.81 268.535 138.893 267.578C134.959 265.712 130.731 267.676 130.731 267.676H130.755ZM143.736 265.295C143.097 267.381 143.539 269.615 144.105 271.333C144.67 273.051 145.334 274.254 145.334 274.254C145.334 274.254 149.439 272.069 150.447 268.019C150.939 266.007 150.57 263.92 150.226 262.251C149.833 260.607 149.267 259.478 149.267 259.478C149.267 259.478 144.916 261.196 143.736 265.319V265.295ZM126.011 255.771C126.011 255.771 128.002 261.392 131.837 263.577C135.844 265.663 140.024 263.577 140.024 263.577C140.024 263.577 139.483 262.325 138.45 260.803C137.516 259.257 136.115 257.441 134.197 256.361C130.387 254.176 125.986 255.771 125.986 255.771H126.011ZM139.237 254.495C138.499 256.483 138.647 258.79 138.991 260.558C139.434 262.3 140.024 263.552 140.024 263.552C140.024 263.552 144.326 261.736 145.604 257.809C147.079 253.832 145.186 249.193 145.186 249.193C145.186 249.193 140.687 250.519 139.212 254.495H139.237ZM122.446 243.425C122.446 243.425 122.766 244.873 123.503 246.665C124.364 248.408 125.691 250.494 127.535 251.722C131.223 254.201 135.574 252.482 135.574 252.482C135.574 252.482 134.099 247.254 130.411 244.775C126.92 242.223 122.421 243.425 122.421 243.425H122.446ZM135.623 243.376C133.853 247.205 135.623 252.482 135.623 252.482C135.623 252.482 140.073 251.059 141.818 247.23C142.703 245.315 142.728 243.18 142.556 241.535C142.482 239.842 142.162 238.614 142.162 238.614C142.162 238.614 137.59 239.523 135.623 243.401V243.376ZM119.938 230.858C119.938 230.858 120.16 232.331 120.774 234.147C121.389 235.988 122.446 238.173 124.265 239.547C127.805 242.321 132.28 240.995 132.28 240.995C132.28 240.995 131.985 239.645 131.272 237.976C130.51 236.307 129.477 234.27 127.83 232.871C124.511 230.024 119.914 230.834 119.914 230.834L119.938 230.858ZM133.116 231.963C131.985 233.804 131.69 236.086 131.837 237.878C131.935 239.67 132.28 241.02 132.28 241.02C132.28 241.02 136.828 239.989 138.844 236.356C139.802 234.565 140.097 232.429 140.171 230.736C140.22 229.042 139.974 227.815 139.974 227.815C139.974 227.815 135.328 228.33 133.116 231.987V231.963ZM118.537 218.119C118.537 218.119 118.611 219.592 119.127 221.482C119.643 223.372 120.528 225.63 122.102 227.176C125.372 230.245 129.993 229.336 129.993 229.336C129.993 229.336 129.747 227.986 129.231 226.244C128.74 224.501 127.855 222.39 126.281 220.844C123.134 217.727 118.537 218.119 118.537 218.119ZM131.591 220.378C130.362 222.096 129.92 224.354 129.772 226.17C129.674 227.986 129.969 229.336 129.969 229.336C129.969 229.336 134.541 228.723 136.901 225.287C138.131 223.568 138.598 221.457 138.745 219.788C138.893 218.119 138.745 216.843 138.745 216.843C138.745 216.843 134.025 216.941 131.567 220.378H131.591ZM118.34 205.307C118.34 205.307 118.267 206.78 118.513 208.694C118.881 210.609 119.619 212.94 121.094 214.634C124.019 217.972 128.666 217.481 128.666 217.481C128.666 217.481 128.592 212.057 125.716 208.694C123.036 205.331 118.365 205.307 118.365 205.307H118.34ZM131.05 208.694C128.346 211.934 128.666 217.481 128.666 217.481C128.666 217.481 133.337 217.26 136.016 214.045C137.369 212.425 137.959 210.388 138.229 208.719C138.598 207.074 138.622 205.798 138.622 205.798C138.622 205.798 133.976 205.479 131.05 208.694ZM119.201 192.519C119.201 192.519 119.029 193.992 119.152 195.931C119.25 197.87 119.742 200.251 121.118 202.067C123.798 205.65 128.469 205.552 128.469 205.552C128.469 205.552 128.543 204.178 128.297 202.386C127.977 200.594 127.486 198.336 126.306 196.544C123.847 192.936 119.201 192.519 119.201 192.519ZM131.616 197.011C130.018 198.483 129.182 200.619 128.862 202.386C128.494 204.153 128.469 205.528 128.469 205.528C128.469 205.528 133.14 205.724 136.041 202.73C137.442 201.232 138.254 199.244 138.77 197.624C139.262 196.004 139.36 194.752 139.36 194.752C139.36 194.752 134.738 194.041 131.64 196.986L131.616 197.011ZM121.143 179.854C121.143 179.854 120.012 185.695 122.225 189.524C124.609 193.353 129.28 193.648 129.28 193.648C129.28 193.648 129.428 192.273 129.33 190.457C129.33 188.641 129.01 186.383 127.904 184.468C125.691 180.639 121.118 179.829 121.118 179.829L121.143 179.854ZM133.165 185.425C131.518 186.775 130.51 188.837 129.895 190.555C129.354 192.273 129.28 193.648 129.28 193.648C129.28 193.648 133.902 194.237 137 191.513C140.294 188.837 141.007 183.854 141.007 183.854C141.007 183.854 136.459 182.725 133.165 185.401V185.425ZM124.314 167.409C124.314 167.409 123.847 168.808 123.601 170.723C123.454 172.662 123.552 175.116 124.511 177.129C126.453 181.13 131.075 181.842 131.075 181.842C131.075 181.842 132.427 176.589 130.534 172.588C128.813 168.637 124.314 167.385 124.314 167.385V167.409ZM135.672 174.012C132.206 176.417 131.05 181.866 131.05 181.866C131.05 181.866 135.599 182.873 139.065 180.467C140.786 179.265 141.892 177.448 142.605 175.926C143.392 174.429 143.736 173.226 143.736 173.226C143.736 173.226 139.311 171.705 135.672 174.036V174.012ZM128.494 155.284C128.494 155.284 127.928 156.659 127.56 158.549C127.166 160.438 126.969 162.868 127.83 164.979C129.477 169.152 134.001 170.281 134.001 170.281C134.001 170.281 134.443 168.98 134.664 167.188C134.836 165.372 135.008 163.089 134.296 161.028C132.87 156.904 128.494 155.284 128.494 155.284ZM139.311 162.893C137.418 163.924 135.992 165.74 135.205 167.36C134.369 168.956 134.001 170.281 134.001 170.281C134.001 170.281 138.45 171.705 142.015 169.569C143.76 168.489 145.113 166.82 145.998 165.372C146.883 163.948 147.301 162.746 147.301 162.746C147.301 162.746 143.048 160.831 139.262 162.868L139.311 162.893ZM135.992 145.098C134.812 144.067 133.755 143.576 133.755 143.576C133.755 143.576 133.017 144.852 132.525 146.742C132.009 148.632 131.64 151.038 132.23 153.173C132.771 155.309 134.296 156.781 135.549 157.689C136.828 158.598 137.909 158.99 137.909 158.99C137.909 158.99 138.032 158.671 138.204 158.131C138.352 157.591 138.573 156.83 138.819 155.947C139.262 154.204 139.581 151.921 138.991 149.786C138.401 147.651 137.098 146.08 135.943 145.049L135.992 145.098ZM143.859 152.118C141.917 152.977 140.417 154.719 139.384 156.217C138.844 156.953 138.499 157.665 138.278 158.18C138.057 158.696 137.934 159.015 137.934 159.015C137.934 159.015 139.016 159.481 140.54 159.702C142.113 159.923 144.031 159.874 145.973 159.015C147.915 158.156 149.366 156.585 150.324 155.21C151.259 153.836 151.849 152.707 151.849 152.707C151.849 152.707 150.816 152.142 149.292 151.774C147.768 151.406 145.752 151.234 143.834 152.118H143.859ZM140.097 132.433C140.097 132.433 139.286 133.684 138.549 135.452C137.762 137.219 137.344 139.673 137.713 141.858C138.549 146.227 142.802 148.141 142.802 148.141C142.802 148.141 143.465 146.939 144.031 145.221C144.621 143.502 144.99 141.195 144.719 139.084C144.08 134.789 140.073 132.408 140.073 132.408L140.097 132.433ZM149.341 141.809C147.227 142.447 145.703 144.116 144.547 145.515C143.416 146.939 142.802 148.166 142.802 148.166C142.802 148.166 146.932 150.35 150.865 148.902C154.7 147.43 157.282 143.134 157.282 143.134C157.282 143.134 153.422 140.508 149.316 141.809H149.341ZM147.301 121.829C147.301 121.829 146.416 123.007 145.555 124.75C144.719 126.517 143.834 128.775 144.105 131.009C144.621 135.476 148.702 137.759 148.702 137.759C148.702 137.759 149.464 136.605 150.128 134.912C150.816 133.218 151.603 131.083 151.406 128.898C151.087 124.529 147.301 121.805 147.301 121.805V121.829ZM155.758 132.015C153.717 132.531 151.824 133.905 150.595 135.231C149.39 136.581 148.702 137.759 148.702 137.759C148.702 137.759 152.611 140.287 156.593 139.158C158.585 138.593 160.379 137.366 161.584 136.188C162.813 135.034 163.502 133.979 163.502 133.979C163.502 133.979 159.888 131.009 155.733 132.015H155.758ZM155.512 111.937C155.512 111.937 154.479 112.993 153.447 114.637C152.488 116.331 151.504 118.589 151.504 120.798C151.504 125.216 155.413 127.892 155.413 127.892C155.413 127.892 156.274 126.812 157.159 125.241C158.044 123.645 158.904 121.535 158.904 119.301C159.027 114.981 155.512 111.937 155.512 111.937ZM162.936 122.786C160.871 123.13 158.953 124.406 157.577 125.585C156.2 126.763 155.389 127.892 155.389 127.892C155.389 127.892 159.027 130.714 163.206 130.052C165.296 129.708 167.091 128.554 168.369 127.474C169.697 126.444 170.557 125.511 170.557 125.511C170.557 125.511 167.214 122.222 162.936 122.811V122.786ZM164.485 102.807C164.485 102.807 163.403 103.813 162.223 105.359C161.043 106.881 159.838 109.017 159.716 111.299C159.396 115.766 163.01 118.736 163.01 118.736C163.01 118.736 163.969 117.755 164.952 116.208C165.886 114.637 166.992 112.625 167.238 110.489C167.73 106.145 164.46 102.807 164.46 102.807H164.485ZM171 114.294C168.836 114.392 166.796 115.472 165.394 116.576C163.944 117.656 163.034 118.712 163.034 118.712C163.034 118.712 166.452 121.903 170.606 121.51C172.647 121.289 174.564 120.332 176.015 119.424C177.441 118.516 178.326 117.607 178.326 117.607C178.326 117.607 175.302 114.073 171 114.294ZM175.621 96.7932C175.007 95.3696 174.269 94.4614 174.269 94.4614C174.269 94.4614 173.04 95.2959 171.811 96.8177C170.557 98.2904 169.18 100.328 168.787 102.488C168.394 104.648 169.107 106.636 169.869 108.01C170.631 109.385 171.442 110.219 171.442 110.219C171.442 110.219 172.426 109.262 173.581 107.863C174.736 106.464 175.99 104.549 176.384 102.389C176.777 100.205 176.261 98.2413 175.671 96.8177L175.621 96.7932ZM179.727 106.513C177.613 106.464 175.499 107.372 173.925 108.28C172.352 109.188 171.418 110.219 171.418 110.219C171.418 110.219 172.18 111.103 173.483 111.962C174.786 112.846 176.556 113.607 178.695 113.656C180.809 113.705 182.8 112.895 184.275 112.06C185.726 111.201 186.734 110.44 186.734 110.44C186.734 110.44 186.045 109.508 184.816 108.526C183.587 107.544 181.841 106.538 179.727 106.513ZM128.174 214.683C129.108 236.921 135.599 258.741 146.956 277.788C158.29 296.884 174.343 313.06 193.396 324.571L193.789 323.909C174.859 312.471 158.88 296.394 147.62 277.396C136.336 258.471 129.87 236.774 128.961 214.659C127.928 192.47 132.476 170.257 142.089 150.522C151.677 130.641 166.206 113.263 184.103 100.279L183.66 99.6649C165.665 112.747 151.062 130.224 141.4 150.203C132.624 168.195 128.051 188.223 128.051 208.498C128.051 210.559 128.1 212.646 128.199 214.708L128.174 214.683ZM184.546 95.2468C180.661 98.1186 179.702 103.052 179.702 103.052C179.702 103.052 184.791 103.469 188.43 100.819C192.216 98.3886 193.592 93.455 193.592 93.455C193.592 93.455 188.626 92.6451 184.57 95.2714L184.546 95.2468Z" fill="#FFA600"/>
<path d="M353.808 315.097C351.669 315.146 349.481 315.931 347.858 316.717C346.236 317.527 345.154 318.361 345.154 318.361C345.154 318.361 347.711 322.289 352.161 322.436C354.398 322.534 356.733 321.65 358.356 320.619C360.027 319.638 361.134 318.656 361.134 318.656C361.134 318.656 358.159 315.072 353.808 315.072V315.097ZM347.907 303.34C347.907 303.34 346.924 304.125 345.842 305.451C344.81 306.801 343.581 308.519 343.163 310.556C342.327 314.655 345.129 318.386 345.129 318.386C345.129 318.386 346.26 317.6 347.49 316.275C348.743 314.974 350.095 313.133 350.415 310.973C351.103 306.727 347.907 303.34 347.907 303.34ZM362.879 306.972C360.691 307.144 358.626 308.175 357.127 309.181C355.553 310.114 354.521 310.998 354.521 310.998C354.521 310.998 357.397 314.68 361.92 314.508C364.108 314.336 366.272 313.207 367.894 312.102C369.492 310.998 370.525 309.942 370.525 309.942C370.525 309.942 367.28 306.653 362.879 306.972ZM355.996 295.829C355.996 295.829 355.061 296.688 354.103 298.063C353.119 299.437 352.111 301.327 351.939 303.438C351.423 307.537 354.521 310.998 354.521 310.998C354.521 310.998 355.602 310.139 356.733 308.74C357.815 307.267 358.921 305.279 359.118 303.143C359.487 298.922 355.996 295.804 355.996 295.804V295.829ZM371.213 298.136C366.862 298.823 363.248 302.898 363.248 302.898C363.248 302.898 366.444 306.31 370.844 305.672C373.032 305.328 375.171 304.076 376.646 302.824C378.097 301.548 379.006 300.37 379.006 300.37C379.006 300.37 375.442 297.351 371.213 298.161V298.136ZM363.322 287.533C363.322 287.533 362.486 288.49 361.699 289.987C360.863 291.46 359.954 293.35 359.929 295.461C359.855 299.658 363.273 302.849 363.273 302.849C363.273 302.849 367.157 298.873 367.157 294.626C367.059 290.306 363.322 287.508 363.322 287.508V287.533ZM378.687 288.515C374.557 289.693 371.164 293.939 371.164 293.939C371.164 293.939 374.655 297.056 379.031 296.074C381.268 295.608 383.112 294.037 384.513 292.687C385.89 291.313 386.701 290.085 386.701 290.085C386.701 290.085 382.891 287.385 378.662 288.515H378.687ZM369.935 278.721C369.935 278.721 369.173 279.727 368.46 281.274C367.747 282.796 367.157 284.906 367.255 286.944C367.501 291.092 371.164 293.964 371.164 293.964C371.164 293.964 374.827 289.766 374.311 285.422C373.893 281.176 369.935 278.721 369.935 278.721ZM385.349 278.328C383.259 279.04 381.539 280.562 380.309 281.912C379.129 283.286 378.343 284.391 378.343 284.391C378.343 284.391 379.277 285.078 380.752 285.618C382.227 286.158 384.267 286.526 386.332 285.815C388.422 285.103 390.241 283.434 391.52 281.961C392.184 281.225 392.651 280.537 392.946 279.997C393.241 279.457 393.437 279.138 393.437 279.138C393.437 279.138 392.429 278.549 390.93 278.157C389.405 277.739 387.463 277.617 385.349 278.304V278.328ZM377.925 270.891C376.769 269.836 375.737 269.32 375.737 269.32C375.737 269.32 375.589 269.615 375.368 270.081C375.171 270.572 374.876 271.235 374.557 272.02C373.967 273.591 373.45 275.653 373.819 277.739C374.188 279.826 375.294 281.495 376.327 282.624C377.359 283.777 378.367 284.391 378.367 284.391C378.367 284.391 379.228 283.311 379.867 281.593C380.531 279.899 381.121 277.69 380.776 275.604C380.457 273.542 379.105 271.922 377.974 270.867L377.925 270.891ZM391.028 267.578C389.11 268.535 387.463 270.179 386.332 271.603C385.202 273.027 384.587 274.254 384.587 274.254C384.587 274.254 388.57 276.708 392.675 274.941C394.74 274.057 396.461 272.29 397.494 270.646C398.575 269.026 399.165 267.676 399.165 267.676C399.165 267.676 394.937 265.688 391.003 267.578H391.028ZM380.654 259.453C380.654 259.453 380.088 260.582 379.695 262.227C379.351 263.896 378.957 265.982 379.473 267.995C380.481 272.045 384.587 274.229 384.587 274.229C384.587 274.229 385.275 273.027 385.816 271.308C386.382 269.59 386.824 267.357 386.185 265.27C384.98 261.147 380.654 259.429 380.654 259.429V259.453ZM395.724 256.361C393.806 257.441 392.405 259.257 391.471 260.803C390.438 262.3 389.897 263.577 389.897 263.577C389.897 263.577 394.076 265.663 398.084 263.577C401.919 261.392 403.91 255.771 403.91 255.771C403.91 255.771 399.534 254.176 395.724 256.361ZM384.734 249.218C384.734 249.218 382.842 253.857 384.317 257.833C385.595 261.76 389.897 263.577 389.897 263.577C389.897 263.577 390.487 262.325 390.93 260.582C391.274 258.79 391.421 256.508 390.684 254.52C389.209 250.543 384.71 249.218 384.71 249.218H384.734ZM399.485 244.775C395.822 247.254 394.322 252.482 394.322 252.482C394.322 252.482 398.674 254.201 402.361 251.722C404.205 250.47 405.557 248.408 406.393 246.665C407.155 244.873 407.45 243.425 407.45 243.425C407.45 243.425 402.927 242.223 399.46 244.775H399.485ZM387.783 238.614C387.783 238.614 387.463 239.842 387.39 241.535C387.217 243.204 387.242 245.34 388.127 247.23C389.873 251.059 394.322 252.482 394.322 252.482C394.322 252.482 396.068 247.205 394.322 243.376C392.356 239.523 387.783 238.59 387.783 238.59V238.614ZM402.066 232.895C400.419 234.319 399.411 236.356 398.625 238.001C397.912 239.67 397.617 241.02 397.617 241.02C397.617 241.02 402.091 242.345 405.631 239.572C407.45 238.197 408.532 235.988 409.122 234.172C409.761 232.331 409.958 230.883 409.958 230.883C409.958 230.883 405.361 230.073 402.042 232.92L402.066 232.895ZM389.946 227.79C389.946 227.79 389.701 229.042 389.75 230.711C389.823 232.405 390.118 234.54 391.077 236.332C393.093 239.964 397.641 240.995 397.641 240.995C397.641 240.995 397.985 239.67 398.084 237.854C398.231 236.062 397.936 233.779 396.805 231.938C394.593 228.281 389.946 227.766 389.946 227.766V227.79ZM403.664 220.844C402.091 222.39 401.206 224.501 400.714 226.244C400.198 227.986 399.952 229.336 399.952 229.336C399.952 229.336 404.574 230.245 407.844 227.176C409.417 225.63 410.302 223.347 410.818 221.482C411.335 219.592 411.408 218.119 411.408 218.119C411.408 218.119 406.811 217.727 403.664 220.844ZM391.176 216.843C391.176 216.843 391.053 218.095 391.176 219.788C391.323 221.457 391.79 223.544 393.019 225.287C395.355 228.747 399.952 229.336 399.952 229.336C399.952 229.336 400.247 227.986 400.149 226.17C400.001 224.354 399.559 222.096 398.33 220.378C395.871 216.941 391.151 216.843 391.151 216.843H391.176ZM404.254 208.694C401.353 212.032 401.304 217.481 401.304 217.481C401.304 217.481 405.951 217.997 408.876 214.634C410.327 212.965 411.089 210.609 411.457 208.694C411.728 206.78 411.63 205.307 411.63 205.307C411.63 205.307 406.959 205.307 404.279 208.694H404.254ZM391.323 205.798C391.323 205.798 391.323 207.074 391.716 208.719C391.987 210.388 392.577 212.425 393.929 214.045C396.633 217.285 401.28 217.481 401.28 217.481C401.28 217.481 401.599 211.934 398.895 208.694C395.994 205.479 391.323 205.798 391.323 205.798ZM403.64 196.544C402.46 198.336 401.943 200.57 401.648 202.386C401.403 204.178 401.476 205.552 401.476 205.552C401.476 205.552 406.147 205.65 408.827 202.067C410.204 200.251 410.72 197.87 410.794 195.931C410.917 193.992 410.745 192.519 410.745 192.519C410.745 192.519 406.098 192.936 403.64 196.544ZM390.586 194.777C390.586 194.777 390.684 196.029 391.176 197.649C391.692 199.269 392.503 201.257 393.904 202.754C396.805 205.749 401.476 205.552 401.476 205.552C401.476 205.552 401.476 204.178 401.083 202.411C400.763 200.643 399.903 198.508 398.33 197.035C395.232 194.09 390.61 194.802 390.61 194.802L390.586 194.777ZM402.017 184.493C400.911 186.407 400.616 188.665 400.591 190.482C400.493 192.298 400.64 193.672 400.64 193.672C400.64 193.672 405.311 193.353 407.696 189.549C409.909 185.72 408.778 179.878 408.778 179.878C408.778 179.878 404.205 180.713 401.993 184.517L402.017 184.493ZM388.914 183.879C388.914 183.879 389.627 188.837 392.921 191.537C396.043 194.262 400.64 193.672 400.64 193.672C400.64 193.672 400.542 192.298 400.026 190.58C399.411 188.862 398.403 186.8 396.756 185.45C393.462 182.774 388.914 183.904 388.914 183.904V183.879ZM399.411 172.613C397.494 176.589 398.87 181.866 398.87 181.866C398.87 181.866 403.492 181.155 405.434 177.154C406.393 175.141 406.516 172.686 406.344 170.747C406.098 168.833 405.631 167.434 405.631 167.434C405.631 167.434 401.132 168.661 399.411 172.637V172.613ZM386.185 173.202C386.185 173.202 386.529 174.429 387.316 175.902C388.029 177.424 389.11 179.24 390.856 180.443C394.298 182.848 398.87 181.842 398.87 181.842C398.87 181.842 397.739 176.417 394.249 173.987C390.61 171.656 386.185 173.177 386.185 173.177V173.202ZM395.625 161.052C394.912 163.114 395.084 165.372 395.257 167.213C395.478 169.029 395.92 170.306 395.92 170.306C395.92 170.306 400.444 169.177 402.091 165.004C402.951 162.893 402.755 160.463 402.361 158.573C401.993 156.659 401.427 155.309 401.427 155.309C401.427 155.309 397.051 156.929 395.625 161.052ZM382.596 162.77C382.596 162.77 383.014 163.973 383.899 165.397C384.808 166.82 386.16 168.514 387.881 169.594C391.471 171.729 395.896 170.306 395.896 170.306C395.896 170.306 395.527 168.98 394.691 167.385C393.929 165.765 392.503 163.924 390.586 162.918C386.824 160.88 382.547 162.795 382.547 162.795L382.596 162.77ZM390.905 149.835C390.34 151.97 390.635 154.253 391.077 155.996C391.323 156.879 391.544 157.64 391.692 158.18C391.888 158.72 391.987 159.039 391.987 159.039C391.987 159.039 393.093 158.647 394.347 157.739C395.601 156.83 397.125 155.333 397.666 153.222C398.231 151.087 397.862 148.657 397.371 146.791C396.904 144.901 396.142 143.625 396.142 143.625C396.142 143.625 395.084 144.116 393.904 145.147C392.749 146.178 391.446 147.749 390.856 149.884L390.905 149.835ZM380.604 151.799C379.08 152.167 378.048 152.731 378.048 152.731C378.048 152.731 378.638 153.86 379.572 155.235C380.555 156.609 382.006 158.18 383.923 159.039C385.89 159.898 387.783 159.948 389.356 159.727C390.905 159.506 391.962 159.039 391.962 159.039C391.962 159.039 391.839 158.72 391.618 158.205C391.397 157.689 391.053 156.978 390.512 156.241C389.479 154.744 387.955 153.026 386.037 152.142C384.12 151.259 382.104 151.43 380.58 151.799H380.604ZM385.202 139.084C384.931 141.195 385.3 143.502 385.89 145.221C386.455 146.939 387.119 148.141 387.119 148.141C387.119 148.141 391.397 146.227 392.208 141.858C392.601 139.673 392.159 137.219 391.372 135.452C390.635 133.66 389.823 132.433 389.823 132.433C389.823 132.433 385.816 134.813 385.177 139.109L385.202 139.084ZM372.615 143.11C372.615 143.11 375.196 147.405 379.031 148.878C382.964 150.301 387.095 148.141 387.095 148.141C387.095 148.141 386.48 146.914 385.349 145.491C384.194 144.091 382.669 142.422 380.555 141.784C376.45 140.459 372.59 143.11 372.59 143.11H372.615ZM378.515 128.923C378.318 131.107 379.129 133.243 379.793 134.936C380.457 136.63 381.219 137.783 381.219 137.783C381.219 137.783 385.3 135.501 385.816 131.034C386.062 128.8 385.202 126.517 384.366 124.775C383.505 123.032 382.62 121.854 382.62 121.854C382.62 121.854 378.834 124.578 378.515 128.947V128.923ZM366.419 133.979C366.419 133.979 367.132 135.034 368.337 136.188C369.542 137.366 371.336 138.593 373.327 139.158C377.31 140.287 381.219 137.759 381.219 137.759C381.219 137.759 380.531 136.581 379.326 135.231C378.121 133.905 376.228 132.531 374.163 132.015C370.009 131.009 366.395 133.979 366.395 133.979H366.419ZM371.041 119.301C371.041 121.51 371.902 123.645 372.787 125.241C373.672 126.812 374.532 127.892 374.532 127.892C374.532 127.892 378.441 125.216 378.441 120.798C378.441 118.589 377.482 116.331 376.499 114.637C375.466 112.993 374.434 111.937 374.434 111.937C374.434 111.937 370.918 114.981 371.041 119.301ZM359.364 125.486C359.364 125.486 360.224 126.419 361.552 127.45C362.83 128.53 364.625 129.684 366.714 130.027C370.894 130.714 374.532 127.867 374.532 127.867C374.532 127.867 373.745 126.763 372.344 125.56C370.967 124.382 369.074 123.105 366.985 122.762C362.707 122.197 359.364 125.462 359.364 125.462V125.486ZM362.658 110.489C362.904 112.625 364.01 114.637 364.944 116.208C365.928 117.755 366.886 118.736 366.886 118.736C366.886 118.736 370.5 115.767 370.181 111.299C370.058 109.041 368.853 106.906 367.673 105.359C366.518 103.813 365.411 102.807 365.411 102.807C365.411 102.807 362.166 106.145 362.633 110.489H362.658ZM351.62 117.632C351.62 117.632 352.505 118.54 353.931 119.448C355.381 120.356 357.299 121.314 359.339 121.535C363.494 121.903 366.911 118.736 366.911 118.736C366.911 118.736 366.001 117.706 364.551 116.601C363.15 115.472 361.109 114.417 358.946 114.318C354.668 114.097 351.62 117.632 351.62 117.632ZM353.586 102.365C353.98 104.525 355.234 106.464 356.389 107.838C357.544 109.238 358.528 110.195 358.528 110.195C358.528 110.195 359.364 109.36 360.101 107.986C360.839 106.636 361.576 104.648 361.158 102.463C360.765 100.303 359.388 98.2659 358.134 96.7932C356.881 95.2959 355.676 94.4369 355.676 94.4369C355.676 94.4369 354.939 95.345 354.324 96.7687C353.709 98.1923 353.218 100.156 353.611 102.34L353.586 102.365ZM345.129 108.526C343.9 109.508 343.212 110.44 343.212 110.44C343.212 110.44 344.22 111.201 345.67 112.06C347.145 112.895 349.112 113.68 351.251 113.656C353.365 113.607 355.135 112.821 356.463 111.962C357.766 111.103 358.528 110.219 358.528 110.219C358.528 110.219 357.594 109.188 356.02 108.28C354.447 107.372 352.333 106.464 350.218 106.513C348.104 106.538 346.359 107.544 345.129 108.526ZM401.894 208.473C401.894 188.223 397.322 168.195 388.545 150.179C378.883 130.199 364.28 112.723 346.285 99.6404L345.842 100.254C363.74 113.263 378.269 130.641 387.857 150.498C397.469 170.207 402.017 192.445 400.985 214.634C400.075 236.749 393.609 258.447 382.325 277.371C371.066 296.369 355.086 312.446 336.156 323.884L336.55 324.547C355.602 313.06 371.656 296.884 382.989 277.764C394.347 258.741 400.837 236.921 401.771 214.659C401.87 212.597 401.919 210.51 401.919 208.449L401.894 208.473ZM336.353 93.4305C336.353 93.4305 337.73 98.3641 341.516 100.794C345.129 103.469 350.243 103.028 350.243 103.028C350.243 103.028 349.284 98.0941 345.4 95.2223C341.343 92.596 336.377 93.406 336.377 93.406L336.353 93.4305Z" fill="#FFA600"/>
<path d="M264.96 389.935C264.074 389.935 263.362 389.199 263.362 388.315C263.362 387.431 264.099 386.72 264.984 386.72C265.869 386.72 266.582 387.456 266.582 388.34C266.582 389.223 265.869 389.935 264.984 389.935H264.96ZM271.376 388.266C271.351 387.382 272.04 386.621 272.925 386.597C273.81 386.548 274.572 387.26 274.597 388.143C274.646 389.027 273.933 389.788 273.048 389.812C273.048 389.812 273.023 389.812 272.999 389.812C272.138 389.812 271.425 389.125 271.376 388.266ZM256.871 389.714C255.986 389.665 255.298 388.904 255.347 388.02C255.396 387.137 256.134 386.45 257.043 386.499C257.928 386.548 258.617 387.284 258.568 388.168C258.518 389.027 257.83 389.689 256.97 389.689C256.97 389.689 256.921 389.689 256.871 389.689V389.714ZM279.39 387.849C279.317 386.965 279.98 386.18 280.865 386.106C281.75 386.032 282.537 386.695 282.611 387.579C282.685 388.462 282.021 389.248 281.136 389.321C281.136 389.321 281.038 389.321 281.013 389.321C280.177 389.321 279.464 388.683 279.39 387.849ZM248.808 389.125C247.923 389.027 247.284 388.266 247.357 387.382C247.431 386.499 248.218 385.86 249.103 385.934C249.988 386.008 250.627 386.793 250.553 387.677C250.479 388.511 249.767 389.125 248.955 389.125C248.955 389.125 248.857 389.125 248.783 389.125H248.808ZM287.356 387.063C287.233 386.18 287.872 385.37 288.732 385.271C289.617 385.149 290.429 385.787 290.527 386.67C290.65 387.554 290.011 388.364 289.15 388.462C289.15 388.462 289.027 388.462 288.954 388.462C288.142 388.462 287.454 387.873 287.356 387.063ZM240.769 388.192C239.884 388.07 239.269 387.26 239.392 386.376C239.515 385.492 240.326 384.879 241.211 385.001C242.096 385.124 242.711 385.934 242.588 386.818C242.465 387.603 241.801 388.192 241.015 388.192C241.015 388.192 240.842 388.192 240.769 388.192ZM295.296 385.934C295.149 385.05 295.739 384.216 296.599 384.069C297.484 383.921 298.32 384.51 298.468 385.37C298.615 386.253 298.05 387.088 297.165 387.235C297.165 387.235 296.993 387.26 296.894 387.26C296.132 387.26 295.444 386.72 295.296 385.934ZM232.779 386.867C231.918 386.695 231.328 385.86 231.501 385.001C231.673 384.142 232.508 383.553 233.369 383.725C234.229 383.897 234.819 384.731 234.647 385.59C234.5 386.351 233.836 386.891 233.074 386.891C233.074 386.891 232.877 386.891 232.754 386.867H232.779ZM303.163 384.437C302.967 383.578 303.507 382.719 304.392 382.522C305.253 382.326 306.113 382.866 306.31 383.75C306.507 384.609 305.966 385.468 305.081 385.664C305.081 385.664 304.835 385.689 304.737 385.689C303.999 385.689 303.335 385.173 303.163 384.437ZM224.863 385.198C224.002 385.001 223.462 384.118 223.658 383.259C223.855 382.4 224.715 381.86 225.6 382.056C226.461 382.252 227.002 383.136 226.805 383.995C226.633 384.731 225.969 385.222 225.256 385.247C225.256 385.247 225.01 385.247 224.887 385.198H224.863ZM310.981 382.596C310.76 381.737 311.251 380.853 312.112 380.632C312.972 380.411 313.857 380.902 314.079 381.761C314.3 382.621 313.808 383.504 312.948 383.725C312.8 383.774 312.677 383.774 312.53 383.774C311.817 383.774 311.178 383.308 310.956 382.596H310.981ZM217.045 383.185C216.185 382.94 215.693 382.056 215.939 381.197C216.185 380.338 217.07 379.847 217.93 380.092C218.791 380.338 219.282 381.221 219.036 382.081C218.84 382.792 218.2 383.259 217.488 383.259C217.34 383.259 217.193 383.259 217.045 383.185ZM318.676 380.387C318.405 379.552 318.873 378.644 319.708 378.374C320.569 378.104 321.478 378.571 321.724 379.405C321.995 380.24 321.528 381.148 320.692 381.418C320.52 381.467 320.372 381.491 320.2 381.491C319.512 381.491 318.873 381.074 318.676 380.362V380.387ZM209.301 380.804C208.465 380.51 207.998 379.601 208.268 378.767C208.564 377.932 209.473 377.466 210.309 377.736C211.145 378.031 211.612 378.939 211.317 379.773C211.096 380.436 210.481 380.878 209.793 380.878C209.621 380.878 209.449 380.878 209.276 380.804H209.301ZM326.297 377.859C325.977 377.024 326.42 376.116 327.256 375.797C328.092 375.502 329.001 375.92 329.321 376.754C329.616 377.589 329.198 378.522 328.362 378.816C328.19 378.89 327.993 378.914 327.797 378.914C327.133 378.914 326.518 378.522 326.272 377.859H326.297ZM201.655 378.055C200.819 377.736 200.426 376.803 200.721 375.969C201.041 375.134 201.975 374.717 202.811 375.036C203.647 375.355 204.065 376.288 203.745 377.122C203.499 377.761 202.909 378.153 202.245 378.153C202.049 378.153 201.852 378.129 201.655 378.055ZM333.746 374.962C333.402 374.152 333.795 373.195 334.606 372.852C335.418 372.508 336.376 372.901 336.721 373.711C337.065 374.521 336.671 375.478 335.86 375.822C335.663 375.92 335.442 375.944 335.246 375.944C334.606 375.944 334.016 375.576 333.746 374.962ZM194.157 374.987C193.346 374.619 192.977 373.686 193.321 372.876C193.666 372.066 194.624 371.698 195.436 372.042C196.247 372.41 196.616 373.342 196.247 374.152C195.976 374.766 195.411 375.11 194.772 375.11C194.551 375.11 194.329 375.061 194.133 374.962L194.157 374.987ZM341.072 371.747C340.679 370.937 341.023 369.98 341.834 369.612C342.621 369.243 343.604 369.563 343.973 370.373C344.366 371.183 344.022 372.14 343.211 372.508C342.99 372.606 342.744 372.655 342.522 372.655C341.908 372.655 341.342 372.312 341.072 371.747ZM186.831 371.551C186.044 371.158 185.7 370.201 186.094 369.391C186.487 368.605 187.446 368.262 188.257 368.654C189.068 369.047 189.388 370.004 188.995 370.814C188.724 371.379 188.159 371.698 187.569 371.723C187.323 371.723 187.077 371.673 186.856 371.551H186.831ZM348.226 368.188C347.808 367.403 348.103 366.445 348.89 366.004C349.676 365.586 350.635 365.881 351.078 366.666C351.496 367.452 351.201 368.409 350.414 368.851C350.168 368.973 349.922 369.047 349.676 369.047C349.086 369.047 348.546 368.753 348.251 368.188H348.226ZM179.628 367.82C178.866 367.378 178.571 366.421 178.989 365.635C179.407 364.85 180.39 364.58 181.177 364.997C181.963 365.439 182.234 366.396 181.816 367.182C181.521 367.722 180.98 368.016 180.415 368.016C180.144 368.016 179.874 367.943 179.628 367.82ZM355.232 364.334C354.79 363.574 355.036 362.592 355.798 362.125C356.56 361.684 357.543 361.929 358.01 362.69C358.453 363.451 358.207 364.433 357.445 364.899C357.199 365.046 356.904 365.12 356.634 365.12C356.068 365.12 355.527 364.85 355.232 364.334ZM172.621 363.745C171.859 363.279 171.638 362.297 172.081 361.536C172.548 360.775 173.531 360.53 174.293 360.996C175.055 361.463 175.301 362.444 174.834 363.205C174.539 363.696 173.998 363.966 173.457 363.966C173.162 363.966 172.867 363.893 172.621 363.721V363.745ZM362.067 360.137C361.575 359.401 361.772 358.395 362.534 357.904C363.271 357.413 364.279 357.609 364.771 358.37C365.263 359.106 365.042 360.113 364.304 360.604C364.034 360.775 363.739 360.874 363.444 360.874C362.903 360.874 362.386 360.628 362.091 360.162L362.067 360.137ZM165.812 359.376C165.074 358.885 164.877 357.879 165.369 357.143C165.861 356.406 166.869 356.21 167.606 356.701C168.344 357.192 168.541 358.198 168.049 358.935C167.729 359.401 167.238 359.646 166.721 359.646C166.402 359.646 166.082 359.573 165.812 359.376ZM368.705 355.67C368.188 354.958 368.336 353.952 369.073 353.436C369.786 352.921 370.794 353.068 371.335 353.805C371.851 354.516 371.704 355.523 370.966 356.038C370.696 356.259 370.352 356.333 370.032 356.333C369.54 356.333 369.024 356.112 368.705 355.67ZM159.223 354.688C158.51 354.148 158.363 353.142 158.879 352.43C159.42 351.718 160.428 351.571 161.141 352.086C161.854 352.626 162.001 353.633 161.485 354.345C161.165 354.762 160.698 354.983 160.207 354.983C159.862 354.983 159.518 354.885 159.248 354.664L159.223 354.688ZM375.121 350.884C374.556 350.172 374.679 349.19 375.367 348.626C376.055 348.061 377.063 348.184 377.629 348.871C378.169 349.558 378.071 350.565 377.383 351.129C377.088 351.35 376.744 351.473 376.375 351.473C375.908 351.473 375.416 351.276 375.121 350.859V350.884ZM152.831 349.73C152.143 349.166 152.045 348.159 152.61 347.472C153.175 346.785 154.183 346.687 154.872 347.251C155.56 347.816 155.658 348.822 155.093 349.509C154.773 349.902 154.306 350.098 153.864 350.098C153.495 350.098 153.151 349.976 152.831 349.73ZM381.316 345.803C380.726 345.14 380.8 344.109 381.464 343.52C382.128 342.931 383.16 343.005 383.75 343.668C384.34 344.33 384.266 345.361 383.603 345.926C383.308 346.196 382.939 346.318 382.545 346.318C382.103 346.318 381.636 346.147 381.316 345.778V345.803ZM146.685 344.477C146.021 343.888 145.972 342.858 146.562 342.219C147.152 341.557 148.16 341.508 148.824 342.097C149.488 342.686 149.537 343.692 148.947 344.355C148.627 344.698 148.185 344.895 147.767 344.895C147.374 344.895 147.005 344.747 146.685 344.477ZM387.29 340.477C386.676 339.838 386.7 338.808 387.339 338.219C387.979 337.605 389.011 337.629 389.626 338.268C390.24 338.906 390.216 339.937 389.577 340.526C389.282 340.82 388.864 340.968 388.47 340.968C388.052 340.968 387.61 340.796 387.29 340.477ZM140.76 338.955C140.121 338.341 140.121 337.31 140.736 336.697C141.35 336.059 142.383 336.059 142.998 336.672C143.637 337.286 143.661 338.317 142.998 338.93C142.678 339.249 142.285 339.421 141.867 339.421C141.449 339.421 141.055 339.274 140.736 338.955H140.76ZM393.018 334.88C392.379 334.267 392.355 333.236 392.969 332.598C393.584 331.96 394.592 331.935 395.231 332.549C395.87 333.162 395.895 334.169 395.28 334.807C394.96 335.126 394.543 335.298 394.125 335.298C393.731 335.298 393.313 335.15 392.994 334.856L393.018 334.88ZM135.106 333.187C134.491 332.549 134.541 331.518 135.18 330.904C135.844 330.29 136.852 330.34 137.466 330.978C138.081 331.64 138.032 332.647 137.392 333.26C137.097 333.555 136.704 333.678 136.311 333.678C135.868 333.678 135.426 333.506 135.131 333.162L135.106 333.187ZM398.501 329.014C397.837 328.425 397.763 327.419 398.353 326.756C398.943 326.093 399.951 326.02 400.615 326.609C401.279 327.198 401.352 328.204 400.762 328.867C400.443 329.235 400 329.407 399.558 329.407C399.189 329.407 398.796 329.284 398.501 329.014ZM129.722 327.149C129.157 326.486 129.23 325.455 129.894 324.891C130.558 324.301 131.591 324.4 132.156 325.062C132.746 325.725 132.648 326.756 131.984 327.32C131.689 327.566 131.32 327.713 130.951 327.713C130.484 327.713 130.042 327.517 129.722 327.149ZM403.688 322.902C403 322.338 402.877 321.331 403.442 320.644C404.007 319.957 405.015 319.834 405.704 320.399C406.392 320.963 406.515 321.97 405.95 322.657C405.63 323.05 405.163 323.271 404.696 323.271C404.352 323.271 403.983 323.148 403.688 322.902ZM124.609 320.914C124.068 320.202 124.191 319.196 124.904 318.656C125.617 318.116 126.6 318.239 127.165 318.951C127.706 319.662 127.583 320.644 126.895 321.209C126.6 321.43 126.256 321.552 125.912 321.552C125.42 321.552 124.953 321.332 124.633 320.939L124.609 320.914ZM408.605 316.594C407.892 316.079 407.72 315.073 408.26 314.361C408.777 313.649 409.785 313.477 410.522 313.993C411.235 314.508 411.383 315.514 410.866 316.251C410.547 316.693 410.055 316.913 409.563 316.913C409.244 316.913 408.9 316.815 408.605 316.594ZM119.79 314.434C119.274 313.698 119.446 312.692 120.184 312.201C120.896 311.685 121.904 311.857 122.421 312.593C122.937 313.305 122.765 314.312 122.027 314.827C121.757 315.023 121.437 315.122 121.118 315.122C120.601 315.122 120.11 314.876 119.79 314.434ZM413.251 310.041C412.514 309.55 412.317 308.544 412.784 307.807C413.276 307.071 414.284 306.85 415.021 307.341C415.759 307.832 415.955 308.838 415.488 309.574C415.169 310.041 414.677 310.286 414.161 310.286C413.841 310.286 413.546 310.213 413.276 310.016L413.251 310.041ZM115.267 307.734C114.775 306.997 114.996 305.991 115.758 305.525C116.496 305.034 117.504 305.255 117.971 306.015C118.463 306.752 118.241 307.758 117.504 308.224C117.233 308.396 116.938 308.47 116.643 308.494C116.103 308.494 115.586 308.224 115.267 307.758V307.734ZM417.578 303.291C416.816 302.849 416.57 301.843 417.012 301.082C417.48 300.321 418.463 300.075 419.225 300.517C419.987 300.959 420.233 301.965 419.79 302.726C419.495 303.242 418.955 303.512 418.414 303.512C418.119 303.512 417.848 303.438 417.578 303.291ZM111.063 300.861C110.62 300.1 110.866 299.118 111.653 298.652C112.415 298.21 113.398 298.456 113.841 299.241C114.283 300.002 114.037 300.984 113.251 301.45C113.005 301.597 112.735 301.671 112.44 301.671C111.874 301.671 111.333 301.376 111.038 300.885L111.063 300.861ZM421.61 296.369C420.823 295.952 420.528 294.97 420.946 294.185C421.364 293.399 422.347 293.105 423.134 293.522C423.921 293.939 424.216 294.921 423.798 295.706C423.503 296.246 422.962 296.566 422.396 296.566C422.126 296.566 421.88 296.492 421.634 296.369H421.61ZM107.154 293.792C106.736 293.007 107.056 292.025 107.842 291.607C108.629 291.19 109.612 291.509 110.006 292.295C110.424 293.08 110.104 294.037 109.317 294.455C109.071 294.577 108.826 294.626 108.58 294.651C107.99 294.651 107.424 294.332 107.154 293.792ZM425.322 289.251C424.511 288.858 424.191 287.901 424.56 287.116C424.953 286.306 425.912 285.987 426.699 286.355C427.51 286.748 427.829 287.705 427.461 288.49C427.19 289.079 426.625 289.398 426.01 289.398C425.764 289.398 425.543 289.349 425.297 289.251H425.322ZM103.589 286.551C103.22 285.741 103.589 284.784 104.376 284.416C105.187 284.048 106.146 284.391 106.515 285.201C106.884 286.011 106.539 286.968 105.753 287.337C105.531 287.435 105.31 287.484 105.089 287.484C104.474 287.484 103.884 287.14 103.614 286.551H103.589ZM428.69 281.961C427.879 281.618 427.485 280.66 427.829 279.85C428.174 279.04 429.132 278.648 429.944 278.991C430.755 279.335 431.148 280.292 430.804 281.102C430.534 281.716 429.944 282.084 429.329 282.084C429.132 282.084 428.911 282.035 428.69 281.961ZM100.344 279.188C99.9999 278.378 100.393 277.42 101.229 277.077C102.04 276.733 102.975 277.126 103.319 277.96C103.663 278.795 103.27 279.728 102.434 280.071C102.237 280.145 102.04 280.194 101.819 280.194C101.18 280.194 100.565 279.826 100.32 279.212L100.344 279.188ZM431.738 274.549C430.902 274.23 430.485 273.321 430.78 272.487C431.099 271.652 432.009 271.235 432.845 271.53C433.681 271.849 434.098 272.781 433.803 273.591C433.558 274.23 432.943 274.622 432.304 274.647C432.107 274.647 431.91 274.622 431.738 274.549ZM97.4432 271.652C97.1482 270.818 97.5907 269.885 98.4266 269.591C99.2624 269.296 100.172 269.738 100.492 270.572C100.787 271.407 100.369 272.34 99.5328 272.634C99.3608 272.683 99.1641 272.732 98.992 272.732C98.3282 272.732 97.7136 272.315 97.4678 271.677L97.4432 271.652ZM434.443 266.989C433.607 266.719 433.14 265.811 433.41 264.976C433.681 264.142 434.59 263.675 435.426 263.945C436.262 264.215 436.729 265.123 436.459 265.958C436.237 266.645 435.598 267.062 434.934 267.062C434.762 267.062 434.615 267.062 434.443 266.989ZM94.8619 263.97C94.5914 263.135 95.0831 262.227 95.919 261.957C96.7794 261.687 97.6645 262.178 97.9349 263.012C98.2053 263.872 97.7136 264.755 96.8532 265.025C96.7057 265.074 96.5336 265.099 96.3861 265.099C95.6977 265.099 95.0585 264.657 94.8373 263.97H94.8619ZM436.803 259.331C435.942 259.11 435.426 258.202 435.672 257.367C435.893 256.508 436.803 255.993 437.639 256.238C438.499 256.459 439.015 257.343 438.769 258.202C438.573 258.913 437.934 259.38 437.221 259.38C437.073 259.38 436.926 259.38 436.803 259.331ZM92.6739 256.213C92.4526 255.354 92.9689 254.471 93.8293 254.25C94.6898 254.029 95.5748 254.544 95.7961 255.404C96.0173 256.263 95.501 257.146 94.6406 257.367C94.5177 257.392 94.3702 257.416 94.2473 257.416C93.5343 257.416 92.8705 256.95 92.6739 256.213ZM438.794 251.574C437.934 251.378 437.368 250.519 437.565 249.66C437.761 248.801 438.622 248.236 439.482 248.457C440.343 248.654 440.908 249.513 440.687 250.372C440.515 251.133 439.851 251.624 439.138 251.624C439.138 251.624 438.892 251.624 438.769 251.574H438.794ZM90.8055 248.335C90.6088 247.475 91.1742 246.616 92.0347 246.42C92.8951 246.224 93.7556 246.788 93.9522 247.672C94.1489 248.531 93.5835 249.39 92.6985 249.562C92.6985 249.562 92.4772 249.586 92.3789 249.586C91.6167 249.586 90.953 249.071 90.8055 248.31V248.335ZM440.441 243.745C439.556 243.597 438.991 242.763 439.138 241.879C439.286 240.996 440.122 240.431 441.007 240.578C441.892 240.726 442.457 241.56 442.31 242.444C442.162 243.205 441.498 243.769 440.736 243.769C440.736 243.769 440.539 243.769 440.441 243.745ZM89.3058 240.406C89.1583 239.523 89.7484 238.713 90.6334 238.566C91.5184 238.418 92.3297 239.007 92.4772 239.891C92.6247 240.775 92.0347 241.585 91.1496 241.732C91.1496 241.732 90.9776 241.732 90.9038 241.732C90.1171 241.732 89.4288 241.167 89.3058 240.382V240.406ZM441.72 235.841C440.835 235.718 440.22 234.908 440.318 234.049C440.441 233.166 441.252 232.552 442.113 232.65C442.998 232.773 443.612 233.583 443.514 234.442C443.416 235.252 442.727 235.841 441.941 235.841C441.941 235.841 441.793 235.841 441.72 235.841ZM88.175 232.405C88.0766 231.521 88.6912 230.711 89.5763 230.613C90.4613 230.515 91.248 231.128 91.3709 232.012C91.4692 232.896 90.8546 233.681 89.9696 233.804C89.9696 233.804 89.8467 233.804 89.7975 233.804C88.9862 233.804 88.2733 233.19 88.1996 232.38L88.175 232.405ZM442.654 227.889C441.769 227.815 441.105 227.029 441.179 226.146C441.252 225.262 442.039 224.599 442.924 224.673C443.809 224.747 444.473 225.532 444.399 226.416C444.325 227.25 443.637 227.889 442.801 227.889C442.801 227.889 442.703 227.889 442.654 227.889ZM87.4129 224.379C87.3391 223.495 88.0029 222.71 88.9125 222.66C89.7975 222.587 90.5596 223.249 90.6334 224.133C90.7071 225.017 90.0434 225.778 89.1583 225.851C89.1583 225.851 89.0846 225.851 89.06 225.851C88.2241 225.851 87.5112 225.213 87.4374 224.354L87.4129 224.379ZM443.219 219.911C442.334 219.887 441.646 219.126 441.67 218.242C441.695 217.359 442.457 216.671 443.342 216.696C444.227 216.721 444.915 217.481 444.891 218.365C444.866 219.224 444.153 219.911 443.293 219.911C443.293 219.911 443.244 219.911 443.219 219.911ZM87.0195 216.303C86.9949 215.42 87.6833 214.683 88.5929 214.659C89.4779 214.659 90.2155 215.346 90.24 216.23C90.2646 217.113 89.5763 217.85 88.6912 217.874C88.6912 217.874 88.6667 217.874 88.6421 217.874C87.7816 217.874 87.0441 217.187 87.0195 216.303ZM441.818 210.314C441.818 210.314 441.818 210.192 441.818 210.142C441.818 210.142 441.818 210.02 441.818 209.971C441.818 209.087 442.531 208.351 443.416 208.351C444.301 208.351 445.038 209.062 445.038 209.946C445.038 209.946 445.038 210.069 445.038 210.142C445.038 210.142 445.038 210.265 445.038 210.314C445.038 211.198 444.325 211.934 443.44 211.934C442.555 211.934 441.818 211.222 441.818 210.339V210.314ZM88.5437 209.848C87.6587 209.848 86.9458 209.112 86.9703 208.203C86.9703 207.32 87.7325 206.608 88.6175 206.632C89.5025 206.632 90.2155 207.393 90.1909 208.277C90.1909 209.161 89.4779 209.848 88.5929 209.848C88.5929 209.848 88.5929 209.848 88.5683 209.848H88.5437ZM441.572 202.018C441.523 201.134 442.211 200.373 443.096 200.324C443.981 200.275 444.743 200.963 444.793 201.846C444.842 202.73 444.153 203.491 443.268 203.54C443.268 203.54 443.219 203.54 443.195 203.54C442.334 203.54 441.621 202.877 441.572 202.018ZM88.765 201.846C87.88 201.797 87.2162 201.036 87.2654 200.153C87.3145 199.269 88.0766 198.582 88.9862 198.655C89.8713 198.704 90.535 199.465 90.4859 200.349C90.4367 201.208 89.7238 201.871 88.8879 201.871C88.8879 201.871 88.8142 201.871 88.7896 201.871L88.765 201.846ZM440.982 194.115C440.908 193.231 441.547 192.445 442.432 192.372C443.317 192.298 444.104 192.936 444.178 193.82C444.252 194.704 443.612 195.489 442.727 195.563C442.727 195.563 442.629 195.563 442.58 195.563C441.744 195.563 441.056 194.949 440.982 194.115ZM89.3796 193.869C88.4946 193.771 87.8554 192.985 87.9537 192.102C88.052 191.218 88.8387 190.58 89.7238 190.678C90.6088 190.776 91.248 191.562 91.1496 192.445C91.0513 193.28 90.363 193.894 89.5517 193.894C89.5517 193.894 89.4288 193.894 89.3796 193.894V193.869ZM440.048 186.236C439.925 185.352 440.539 184.542 441.424 184.419C442.31 184.296 443.121 184.91 443.244 185.794C443.367 186.677 442.752 187.487 441.867 187.61C441.867 187.61 441.72 187.61 441.646 187.61C440.859 187.61 440.171 187.046 440.048 186.236ZM90.3384 185.916C89.4533 185.794 88.8633 184.959 88.9862 184.1C89.1337 183.217 89.945 182.627 90.8055 182.75C91.6905 182.873 92.2805 183.707 92.1576 184.566C92.0347 185.352 91.3463 185.941 90.5842 185.941C90.5842 185.941 90.4121 185.941 90.3384 185.941V185.916ZM438.745 178.406C438.573 177.547 439.163 176.688 440.023 176.54C440.884 176.368 441.744 176.958 441.892 177.817C442.064 178.676 441.474 179.535 440.613 179.682C440.613 179.682 440.417 179.707 440.318 179.707C439.556 179.707 438.892 179.167 438.745 178.406ZM91.6413 178.013C90.7809 177.841 90.2155 176.982 90.3875 176.123C90.5596 175.264 91.3955 174.675 92.2805 174.847C93.141 175.018 93.731 175.878 93.5589 176.737C93.4114 177.498 92.723 178.038 91.9855 178.038C91.9855 178.038 91.7643 178.038 91.6659 178.013H91.6413ZM437.098 170.649C436.901 169.79 437.442 168.931 438.302 168.71C439.163 168.514 440.023 169.054 440.244 169.913C440.441 170.772 439.9 171.631 439.04 171.852C439.04 171.852 438.794 171.901 438.671 171.901C437.934 171.901 437.27 171.41 437.098 170.674V170.649ZM93.3131 170.183C92.4526 169.962 91.9363 169.103 92.133 168.244C92.3543 167.385 93.2147 166.87 94.0752 167.066C94.9356 167.287 95.4765 168.146 95.2552 169.005C95.0831 169.741 94.4193 170.232 93.7064 170.232C93.5835 170.232 93.436 170.232 93.3131 170.183ZM435.106 162.967C434.861 162.108 435.352 161.224 436.213 160.979C437.073 160.733 437.958 161.224 438.204 162.083C438.45 162.942 437.958 163.826 437.098 164.071C436.95 164.12 436.803 164.12 436.68 164.145C435.967 164.145 435.328 163.679 435.106 162.991V162.967ZM95.329 162.451C94.4685 162.206 93.9768 161.298 94.2473 160.463C94.4931 159.604 95.4027 159.113 96.2386 159.383C97.099 159.629 97.5907 160.537 97.3203 161.371C97.1236 162.059 96.4844 162.525 95.7715 162.525C95.624 162.525 95.4519 162.5 95.3044 162.451H95.329ZM432.746 155.382C432.451 154.548 432.918 153.64 433.754 153.345C434.59 153.075 435.524 153.517 435.795 154.352C436.065 155.186 435.623 156.119 434.787 156.389C434.615 156.438 434.443 156.462 434.295 156.462C433.607 156.462 432.992 156.045 432.771 155.358L432.746 155.382ZM97.7136 154.769C96.8778 154.474 96.4352 153.566 96.7057 152.732C97.0007 151.897 97.9103 151.455 98.7462 151.725C99.582 152.02 100.025 152.928 99.7541 153.762C99.5328 154.425 98.9182 154.842 98.2545 154.842C98.0824 154.842 97.8857 154.818 97.7136 154.744V154.769ZM430.067 147.921C429.747 147.086 430.165 146.153 430.976 145.834C431.812 145.515 432.746 145.933 433.066 146.743C433.385 147.577 432.968 148.51 432.156 148.829C431.96 148.903 431.763 148.927 431.591 148.927C430.952 148.927 430.337 148.534 430.091 147.896L430.067 147.921ZM100.442 147.233C99.6066 146.914 99.2132 145.982 99.5328 145.147C99.8524 144.313 100.811 143.92 101.622 144.239C102.458 144.558 102.852 145.491 102.532 146.325C102.286 146.963 101.696 147.332 101.032 147.356C100.836 147.356 100.639 147.307 100.442 147.233ZM427.043 140.606C426.699 139.796 427.043 138.839 427.879 138.495C428.69 138.127 429.649 138.495 429.993 139.305C430.337 140.115 429.993 141.073 429.157 141.416C428.96 141.514 428.739 141.564 428.518 141.564C427.903 141.564 427.289 141.22 427.043 140.606ZM103.515 139.821C102.704 139.453 102.335 138.495 102.704 137.685C103.073 136.875 104.007 136.532 104.843 136.875C105.654 137.244 106.023 138.201 105.654 139.011C105.384 139.6 104.818 139.944 104.204 139.944C103.983 139.944 103.737 139.895 103.54 139.796L103.515 139.821ZM423.675 133.439C423.281 132.654 423.601 131.672 424.412 131.279C425.199 130.886 426.182 131.206 426.576 132.016C426.969 132.801 426.649 133.783 425.838 134.175C425.617 134.298 425.371 134.347 425.125 134.347C424.535 134.347 423.945 134.028 423.675 133.464V133.439ZM106.933 132.556C106.146 132.163 105.826 131.181 106.22 130.396C106.613 129.61 107.596 129.291 108.383 129.684C109.17 130.076 109.489 131.058 109.096 131.844C108.826 132.408 108.26 132.727 107.67 132.727C107.424 132.727 107.179 132.678 106.933 132.556ZM420.012 126.419C419.569 125.634 419.864 124.677 420.626 124.235C421.413 123.793 422.372 124.088 422.814 124.848C423.232 125.634 422.962 126.591 422.175 127.033C421.929 127.18 421.659 127.229 421.413 127.229C420.848 127.229 420.282 126.935 420.012 126.395V126.419ZM110.645 125.462C109.883 125.02 109.588 124.038 110.03 123.278C110.473 122.517 111.456 122.222 112.218 122.664C112.98 123.106 113.275 124.088 112.833 124.848C112.538 125.364 111.997 125.658 111.432 125.658C111.161 125.658 110.891 125.585 110.62 125.462H110.645ZM416.004 119.571C415.537 118.81 415.783 117.829 416.545 117.362C417.307 116.896 418.291 117.141 418.758 117.902C419.225 118.663 418.979 119.645 418.217 120.111C417.947 120.258 417.676 120.357 417.381 120.357C416.84 120.357 416.299 120.087 416.004 119.596V119.571ZM114.701 118.54C113.939 118.074 113.718 117.068 114.185 116.331C114.652 115.57 115.66 115.349 116.398 115.816C117.16 116.282 117.381 117.289 116.914 118.025C116.619 118.516 116.078 118.761 115.562 118.786C115.267 118.786 114.972 118.712 114.701 118.54ZM411.702 112.92C411.211 112.183 411.407 111.177 412.145 110.686C412.882 110.195 413.89 110.391 414.382 111.128C414.874 111.864 414.677 112.87 413.939 113.361C413.669 113.533 413.349 113.631 413.03 113.631C412.514 113.631 411.997 113.386 411.678 112.92H411.702ZM119.053 111.815C118.315 111.3 118.143 110.318 118.635 109.581C119.151 108.845 120.134 108.673 120.872 109.164C121.609 109.68 121.781 110.661 121.29 111.398C120.995 111.84 120.479 112.085 119.962 112.085C119.643 112.085 119.323 111.987 119.053 111.79V111.815ZM407.105 106.464C406.564 105.752 406.712 104.746 407.425 104.231C408.138 103.691 409.146 103.838 409.662 104.55C410.203 105.261 410.055 106.268 409.342 106.783C409.047 107.004 408.728 107.102 408.383 107.102C407.892 107.102 407.4 106.881 407.08 106.464H407.105ZM123.724 105.286C123.011 104.746 122.888 103.74 123.429 103.028C123.969 102.316 124.977 102.193 125.69 102.733C126.403 103.273 126.526 104.28 125.985 104.991C125.666 105.409 125.199 105.63 124.707 105.63C124.363 105.63 124.019 105.531 123.724 105.311V105.286ZM402.237 100.205C401.672 99.5179 401.77 98.5116 402.459 97.947C403.147 97.3825 404.155 97.4807 404.72 98.1679C405.286 98.8552 405.188 99.8615 404.499 100.426C404.204 100.672 403.835 100.794 403.491 100.794C403.024 100.794 402.557 100.598 402.237 100.205ZM128.665 98.9779C127.977 98.4134 127.878 97.407 128.468 96.7198C129.034 96.0325 130.042 95.9589 130.73 96.5234C131.418 97.0879 131.492 98.0943 130.927 98.7815C130.607 99.1497 130.165 99.3461 129.698 99.3461C129.329 99.3461 128.96 99.2234 128.665 98.9779ZM397.075 94.1671C396.485 93.5044 396.534 92.498 397.198 91.8844C397.861 91.2953 398.869 91.3444 399.484 92.0071C400.074 92.6698 400.025 93.6762 399.361 94.2898C399.066 94.5598 398.673 94.7071 398.304 94.7071C397.861 94.7071 397.419 94.5353 397.099 94.1671H397.075ZM133.877 92.8907C133.213 92.3017 133.164 91.2708 133.779 90.608C134.369 89.9453 135.401 89.9208 136.04 90.5099C136.704 91.0989 136.753 92.1298 136.139 92.768C135.819 93.1116 135.401 93.2835 134.959 93.2835C134.565 93.2835 134.172 93.1362 133.877 92.8662V92.8907ZM391.642 88.3744C391.027 87.7363 391.027 86.7299 391.666 86.0918C392.305 85.4781 393.313 85.4781 393.928 86.0918C394.543 86.7299 394.543 87.7363 393.928 88.3744C393.608 88.669 393.215 88.8163 392.822 88.8163C392.404 88.8163 391.986 88.669 391.666 88.3254L391.642 88.3744ZM139.359 87.049C138.745 86.4354 138.745 85.4045 139.359 84.7663C139.998 84.1281 141.006 84.1527 141.645 84.7663C142.26 85.4045 142.26 86.4108 141.645 87.0245C141.326 87.3436 140.933 87.4908 140.515 87.4908C140.097 87.4908 139.679 87.3436 139.359 87.0245V87.049ZM385.963 82.8518C385.299 82.2382 385.274 81.2318 385.889 80.5937C386.504 79.9555 387.511 79.9064 388.151 80.52C388.79 81.1337 388.839 82.14 388.224 82.7782C387.905 83.1218 387.487 83.2936 387.044 83.2936C386.651 83.2936 386.258 83.1464 385.938 82.8518H385.963ZM145.112 81.4773C144.522 80.8146 144.571 79.8082 145.21 79.2191C145.874 78.6301 146.882 78.6546 147.472 79.3173C148.062 79.98 148.013 80.9864 147.374 81.6C147.079 81.8946 146.685 82.0173 146.292 82.0173C145.849 82.0173 145.407 81.8455 145.087 81.5018L145.112 81.4773ZM380.013 77.5501C379.35 76.961 379.251 75.9547 379.841 75.2919C380.431 74.6292 381.439 74.531 382.103 75.1201C382.767 75.7092 382.865 76.7155 382.275 77.3783C381.955 77.7464 381.513 77.9428 381.046 77.9428C380.677 77.9428 380.308 77.8201 379.989 77.5501H380.013ZM151.11 76.151C150.545 75.4637 150.643 74.4574 151.307 73.8929C151.995 73.3283 153.003 73.4265 153.569 74.0892C154.134 74.7765 154.036 75.7828 153.372 76.3474C153.077 76.5928 152.708 76.7155 152.34 76.7155C151.872 76.7155 151.405 76.5192 151.086 76.151H151.11ZM373.867 72.5429C373.179 72.0029 373.031 70.9966 373.597 70.2847C374.138 69.5975 375.146 69.4502 375.859 70.0147C376.547 70.5547 376.694 71.5611 376.129 72.2729C375.809 72.6656 375.342 72.8865 374.875 72.8865C374.531 72.8865 374.187 72.7883 373.892 72.5429H373.867ZM157.33 71.0947C156.789 70.3829 156.937 69.3766 157.625 68.8366C158.338 68.2966 159.346 68.4439 159.887 69.1311C160.428 69.8429 160.28 70.8493 159.592 71.3893C159.297 71.6102 158.953 71.7084 158.633 71.7329C158.141 71.7329 157.65 71.512 157.33 71.0947ZM367.475 67.8057C366.738 67.2902 366.566 66.2839 367.082 65.5721C367.598 64.8357 368.606 64.6639 369.319 65.2039C370.057 65.7194 370.229 66.7257 369.713 67.4375C369.393 67.8793 368.901 68.1002 368.41 68.1248C368.09 68.1248 367.77 68.0266 367.475 67.8302V67.8057ZM163.771 66.333C163.255 65.5966 163.452 64.5903 164.165 64.0994C164.902 63.6085 165.91 63.7803 166.402 64.5167C166.918 65.253 166.721 66.2594 165.984 66.7503C165.713 66.9466 165.394 67.0448 165.074 67.0448C164.558 67.0448 164.042 66.7993 163.747 66.3575L163.771 66.333ZM360.887 63.363C360.149 62.8967 359.928 61.8903 360.395 61.154C360.862 60.4176 361.87 60.1967 362.608 60.6631C363.345 61.154 363.566 62.1358 363.099 62.8721C362.804 63.3385 362.288 63.6085 361.747 63.6085C361.452 63.6085 361.133 63.5349 360.862 63.363H360.887ZM170.409 61.8903C169.942 61.154 170.163 60.1476 170.925 59.6813C171.687 59.2149 172.671 59.4358 173.138 60.1967C173.605 60.9576 173.384 61.9394 172.621 62.4058C172.351 62.5776 172.056 62.6512 171.761 62.6512C171.22 62.6512 170.704 62.3812 170.384 61.8903H170.409ZM354.102 59.2395C353.34 58.7977 353.069 57.8159 353.512 57.0304C353.954 56.2695 354.937 55.9995 355.7 56.4413C356.462 56.8831 356.732 57.8649 356.29 58.6504C355.995 59.1658 355.454 59.4604 354.913 59.4604C354.642 59.4604 354.347 59.3867 354.102 59.2395ZM177.243 57.7177C176.801 56.9568 177.071 55.975 177.858 55.5332C178.645 55.0914 179.603 55.3614 180.046 56.1468C180.488 56.9077 180.218 57.8895 179.431 58.3313C179.185 58.4786 178.915 58.5277 178.645 58.5277C178.079 58.5277 177.538 58.2331 177.243 57.7177ZM347.12 55.4104C346.333 55.0177 346.038 54.0359 346.431 53.2505C346.849 52.465 347.833 52.1705 348.619 52.5632C349.406 52.9805 349.701 53.9377 349.308 54.7232C349.013 55.2632 348.472 55.5823 347.882 55.5823C347.636 55.5823 347.366 55.5332 347.12 55.4104ZM184.274 53.8641C183.856 53.0787 184.176 52.1214 184.987 51.7041C185.774 51.3114 186.733 51.606 187.151 52.4159C187.544 53.2014 187.224 54.1832 186.438 54.5759C186.192 54.6986 185.971 54.7477 185.725 54.7477C185.135 54.7477 184.569 54.4286 184.274 53.8641ZM339.99 51.9005C339.179 51.5323 338.835 50.5751 339.204 49.7651C339.572 48.9551 340.531 48.6115 341.342 48.9796C342.154 49.3478 342.498 50.3051 342.129 51.1151C341.859 51.7041 341.293 52.0478 340.679 52.0478C340.457 52.0478 340.212 51.9987 339.99 51.9005ZM191.453 50.3542C191.084 49.5442 191.453 48.5869 192.264 48.2187C193.075 47.8506 194.034 48.2187 194.403 49.0287C194.772 49.8387 194.403 50.796 193.592 51.1642C193.395 51.2623 193.149 51.3114 192.953 51.3114C192.338 51.3114 191.748 50.9678 191.478 50.3787L191.453 50.3542ZM332.689 48.7096C331.853 48.366 331.484 47.4333 331.804 46.6233C332.148 45.8133 333.082 45.4206 333.893 45.7397C334.729 46.0588 335.123 47.016 334.778 47.826C334.508 48.4396 333.918 48.8324 333.303 48.8324C333.107 48.8324 332.885 48.7833 332.689 48.7096ZM198.779 47.1633C198.435 46.3288 198.853 45.3961 199.664 45.077C200.5 44.7333 201.434 45.1506 201.754 45.9606C202.073 46.7951 201.68 47.7278 200.844 48.0469C200.647 48.1206 200.451 48.1451 200.254 48.1451C199.615 48.1451 199 47.7769 198.754 47.1388L198.779 47.1633ZM325.264 45.8624C324.429 45.5679 323.986 44.6352 324.281 43.8006C324.576 42.9661 325.51 42.5243 326.346 42.8188C327.182 43.1134 327.624 44.0461 327.305 44.8806C327.084 45.5433 326.469 45.9361 325.805 45.9361C325.609 45.9361 325.436 45.9115 325.264 45.8379V45.8624ZM206.253 44.2915C205.958 43.457 206.4 42.5488 207.261 42.2543C208.096 41.9598 209.031 42.4016 209.301 43.2606C209.596 44.0952 209.154 45.0279 208.293 45.2979C208.121 45.347 207.949 45.3715 207.777 45.3715C207.113 45.3715 206.474 44.9543 206.253 44.2915ZM317.692 43.3343C316.857 43.0888 316.365 42.1807 316.635 41.3216C316.906 40.4871 317.791 39.9962 318.651 40.2661C319.487 40.5116 319.979 41.4198 319.708 42.2788C319.487 42.9661 318.873 43.4079 318.184 43.4079C318.012 43.4079 317.865 43.4079 317.692 43.3343ZM213.874 41.7879C213.628 40.9289 214.095 40.0452 214.955 39.7752C215.816 39.5298 216.701 39.9962 216.971 40.8552C217.217 41.7143 216.75 42.5979 215.89 42.8434C215.742 42.8925 215.595 42.917 215.422 42.917C214.734 42.917 214.095 42.4752 213.874 41.7634V41.7879ZM310.071 41.1743C309.211 40.9534 308.695 40.0698 308.916 39.2107C309.137 38.3516 310.022 37.8362 310.883 38.0571C311.743 38.278 312.259 39.1616 312.038 40.0207C311.841 40.7325 311.202 41.2234 310.489 41.2234C310.366 41.2234 310.219 41.2234 310.071 41.1743ZM221.593 39.6034C221.372 38.7444 221.913 37.8853 222.773 37.6644C223.634 37.4435 224.494 37.9835 224.715 38.8425C224.937 39.7016 224.396 40.5852 223.535 40.7816C223.412 40.8061 223.289 40.8307 223.142 40.8307C222.429 40.8307 221.765 40.3398 221.569 39.6034H221.593ZM302.327 39.3825C301.442 39.2107 300.902 38.3516 301.074 37.4926C301.246 36.6089 302.106 36.0689 302.991 36.2408C303.852 36.4126 304.417 37.2717 304.245 38.1553C304.097 38.9162 303.409 39.4316 302.672 39.4316C302.672 39.4316 302.45 39.4316 302.327 39.4071V39.3825ZM229.411 37.7871C229.239 36.928 229.804 36.0689 230.665 35.8971C231.525 35.7253 232.386 36.2899 232.558 37.1489C232.73 38.0326 232.164 38.8671 231.304 39.0389C231.304 39.0389 231.107 39.0634 230.984 39.0634C230.222 39.0634 229.558 38.548 229.411 37.7626V37.7871ZM294.51 37.9344C293.625 37.7871 293.035 36.9526 293.182 36.0935C293.33 35.2099 294.141 34.6208 295.026 34.7681C295.911 34.9153 296.501 35.7499 296.353 36.6089C296.231 37.3944 295.542 37.9589 294.78 37.9589C294.78 37.9589 294.608 37.9589 294.51 37.9589V37.9344ZM237.278 36.3144C237.155 35.4308 237.745 34.6208 238.63 34.4735C239.515 34.3262 240.326 34.9399 240.449 35.8235C240.597 36.7071 239.982 37.5171 239.097 37.6644C239.097 37.6644 238.925 37.6644 238.851 37.6644C238.064 37.6644 237.376 37.0998 237.253 36.2899L237.278 36.3144ZM286.643 36.8298C285.758 36.7317 285.118 35.9217 285.241 35.0381C285.34 34.1544 286.151 33.5163 287.036 33.639C287.921 33.7372 288.56 34.5472 288.462 35.4308C288.364 36.2408 287.675 36.8298 286.864 36.8544C286.864 36.8544 286.741 36.8544 286.667 36.8544L286.643 36.8298ZM245.218 35.2099C245.12 34.3262 245.759 33.5408 246.644 33.4426C247.529 33.3444 248.316 33.9826 248.414 34.8662C248.513 35.7499 247.874 36.5353 246.989 36.6335C246.989 36.6335 246.89 36.6335 246.816 36.6335C246.005 36.6335 245.292 36.0199 245.194 35.1853L245.218 35.2099ZM278.727 36.0935C277.842 36.0199 277.178 35.259 277.227 34.3753C277.301 33.4917 278.063 32.829 278.948 32.8781C279.833 32.9517 280.497 33.7126 280.448 34.5962C280.374 35.4308 279.685 36.0689 278.85 36.0935C278.85 36.0935 278.776 36.0935 278.727 36.0935ZM253.208 34.4735C253.159 33.5899 253.823 32.829 254.708 32.7554C255.593 32.7063 256.355 33.369 256.404 34.2526C256.453 35.1362 255.79 35.8971 254.905 35.9462C254.905 35.9462 254.855 35.9462 254.806 35.9462C253.97 35.9462 253.257 35.2835 253.184 34.449L253.208 34.4735ZM270.811 35.7008C269.926 35.6762 269.213 34.9399 269.237 34.0563C269.237 33.1726 269.999 32.4608 270.884 32.4854C271.769 32.4854 272.482 33.2463 272.458 34.1299C272.458 34.989 271.72 35.7008 270.86 35.7008C270.86 35.7008 270.835 35.7008 270.811 35.7008ZM261.223 34.0808C261.223 33.1972 261.911 32.4608 262.796 32.4363C263.681 32.4363 264.419 33.1235 264.443 34.0072C264.443 34.8908 263.755 35.6271 262.845 35.6517C261.96 35.6517 261.247 34.9644 261.223 34.0808Z" fill="url(#paint3_linear_610_29)"/>
<path d="M265.993 380.902C172.475 380.902 96.3867 304.935 96.3867 211.566C96.3867 118.196 172.475 42.2295 265.993 42.2295C359.511 42.2295 435.599 118.196 435.599 211.566C435.599 304.935 359.511 380.902 265.993 380.902ZM265.993 45.3713C174.22 45.3713 99.5581 119.915 99.5581 211.541C99.5581 303.168 174.22 377.711 265.993 377.711C357.765 377.711 432.427 303.168 432.427 211.541C432.427 119.915 357.765 45.3713 265.993 45.3713Z" fill="#FFA600"/>
<path d="M265.992 400.882C161.436 400.882 76.375 315.956 76.375 211.566C76.375 107.176 161.436 22.25 265.992 22.25C370.549 22.25 455.61 107.176 455.61 211.566C455.61 315.956 370.549 400.882 265.992 400.882ZM265.992 25.7845C163.403 25.7845 79.9151 109.115 79.9151 211.566C79.9151 314.017 163.378 397.347 265.992 397.347C368.607 397.347 452.07 314.017 452.07 211.566C452.07 109.115 368.582 25.7845 265.992 25.7845Z" fill="#FFA600"/>
<path d="M413.375 253.268C394.249 258.349 374.754 262.325 355.259 265.663C338.123 268.609 320.841 270.965 303.484 272.045C241.237 275.972 178.671 269.296 118.415 253.268C56.9545 234.859 38.541 253.268 38.541 253.268V320.767C38.541 317.282 47.3667 313.796 49.8743 312.986C55.037 311.293 60.5684 310.753 66.0015 310.63C77.556 310.384 90.2169 311.808 101.304 315.195C186.906 341.385 281.85 347.153 370.107 332.303C372.959 331.812 375.835 331.321 378.687 330.781C396.388 327.492 413.4 320.767 430.535 315.195C441.549 311.612 454.283 310.384 465.838 310.63C471.246 310.753 476.778 311.293 481.965 312.986C484.448 313.796 493.298 317.282 493.298 320.767V253.268C493.298 253.268 474.86 234.859 413.425 253.268H413.375Z" fill="url(#paint4_linear_610_29)"/>
<path d="M73.3272 262.08L78.4407 272.413L89.8477 274.082L81.5875 282.108L83.5296 293.473L73.3272 288.097L63.1248 293.473L65.0669 282.108L56.8066 274.082L68.2137 272.413L73.3272 262.08Z" fill="white"/>
<path d="M455.61 262.08L460.724 272.413L472.131 274.082L463.871 282.108L465.813 293.473L455.61 288.097L445.383 293.473L447.35 282.108L439.09 274.082L450.497 272.413L455.61 262.08Z" fill="white"/>
<path d="M266.337 346.073L270.245 353.976L278.997 355.253L272.679 361.413L274.154 370.127L266.337 366.003L258.519 370.127L259.994 361.413L253.676 355.253L262.428 353.976L266.337 346.073Z" fill="#FFA600"/>
<path d="M239.295 344.526L241.778 349.534L247.284 350.319L243.302 354.222L244.236 359.695L239.295 357.118L234.353 359.695L235.312 354.222L231.305 350.319L236.836 349.534L239.295 344.526Z" fill="#FFA600"/>
<path d="M292.691 344.526L295.149 349.534L300.681 350.319L296.674 354.222L297.632 359.695L292.691 357.118L287.75 359.695L288.684 354.222L284.701 350.319L290.233 349.534L292.691 344.526Z" fill="#FFA600"/>
</g>
<path d="M192.385 288.097L180.511 314.655L172.325 313.305L170.923 294.307L163.278 311.808L155.091 310.458L152.657 281.544L159.91 282.746L160.549 303.61L168.858 284.219L176.307 285.446L177.684 306.432L185.084 286.895L192.361 288.097H192.385Z" fill="black"/>
<path d="M210.184 313.207L199.736 312.053L197.523 316.815L190.394 316.03L203.595 289.177L211.487 290.036L218.542 319.122L211.315 318.337L210.184 313.207ZM209.004 307.758L206.668 297.13L202.12 306.997L209.028 307.758H209.004Z" fill="black"/>
<path d="M236.711 320.325L231.548 309.353L229.901 309.255L229.212 319.859L222.354 319.417L224.197 291.337L235.703 292.098C237.915 292.245 239.784 292.761 241.283 293.62C242.783 294.503 243.889 295.633 244.578 297.032C245.266 298.431 245.561 299.952 245.438 301.597C245.315 303.462 244.676 305.082 243.52 306.481C242.365 307.881 240.742 308.813 238.653 309.304L244.405 320.84L236.686 320.325H236.711ZM230.22 304.395L234.473 304.665C235.727 304.739 236.686 304.493 237.35 303.929C238.014 303.364 238.382 302.505 238.456 301.401C238.53 300.345 238.259 299.486 237.669 298.823C237.079 298.161 236.17 297.793 234.916 297.719L230.663 297.449L230.196 304.395H230.22Z" fill="black"/>
<path d="M263.63 321.356L258 310.605L256.353 310.556L256.107 321.184L249.248 321.037L249.887 292.908L261.393 293.178C263.605 293.227 265.498 293.669 267.047 294.479C268.596 295.289 269.751 296.369 270.489 297.744C271.226 299.118 271.595 300.615 271.546 302.284C271.497 304.15 270.931 305.819 269.85 307.267C268.768 308.715 267.17 309.722 265.105 310.286L271.349 321.577L263.605 321.405L263.63 321.356ZM256.476 305.721L260.729 305.819C261.983 305.843 262.941 305.573 263.581 304.96C264.22 304.346 264.564 303.487 264.589 302.383C264.589 301.303 264.318 300.468 263.704 299.83C263.089 299.192 262.155 298.873 260.901 298.848L256.648 298.75L256.5 305.721H256.476Z" fill="black"/>
<path d="M293.671 316.128L283.149 316.398L281.6 321.405L274.422 321.577L283.911 293.203L291.852 293.006L302.767 320.865L295.515 321.037L293.696 316.103L293.671 316.128ZM291.778 310.9L288.017 300.689L284.821 311.072L291.754 310.9H291.778Z" fill="black"/>
<path d="M331.925 318.607L325.09 319.147L312.257 302.775L313.634 320.079L306.8 320.619L304.562 292.564L311.397 292.024L324.23 308.494L322.829 291.116L329.663 290.576L331.9 318.607H331.925Z" fill="black"/>
<path d="M354.149 287.361L354.861 292.81L347.462 293.792L350.436 316.226L343.626 317.134L340.652 294.7L333.252 295.682L332.539 290.233L354.149 287.361Z" fill="black"/>
<path d="M380.75 282.525L374.604 302.824L376.3 311.955L369.564 313.207L367.867 304.076L354.838 287.336L362.484 285.913L370.006 296.492L373.178 283.924L380.75 282.525Z" fill="black"/>
<path d="M216.477 124.652H216.207L200.94 132.874L198.629 123.842L217.829 113.582H227.958V201.33H216.477V124.652Z" fill="white"/>
<path d="M319.78 156.511C319.78 186.333 308.692 202.803 289.222 202.803C272.062 202.803 260.434 186.751 260.163 157.714C260.163 128.284 272.873 112.085 290.721 112.085C308.569 112.085 319.78 128.554 319.78 156.487V156.511ZM272.062 157.861C272.062 180.664 279.093 193.623 289.91 193.623C302.079 193.623 307.881 179.461 307.881 157.051C307.881 134.642 302.349 121.289 290.033 121.289C279.634 121.289 272.062 133.979 272.062 157.861Z" fill="white"/>
<path d="M222.058 215.665L210.946 237.093V247.672H203.129V237.093L192.017 215.665H200.867L207.087 229.066L213.257 215.665H222.034H222.058Z" fill="white"/>
<path d="M233.023 221.899V228.379H243.471V234.392H233.023V241.412H244.848V247.671H225.205V215.665H244.848V221.924H233.023V221.899Z" fill="white"/>
<path d="M269.873 242.026H257.901L255.983 247.672H247.797L259.401 215.665H268.448L280.051 247.672H271.791L269.873 242.026ZM267.882 236.013L263.899 224.28L259.966 236.013H267.858H267.882Z" fill="white"/>
<path d="M299.94 247.672L293.278 235.595H291.41V247.672H283.592V215.665H296.695C299.227 215.665 301.366 216.107 303.161 216.99C304.931 217.874 306.283 219.077 307.168 220.623C308.053 222.169 308.496 223.863 308.496 225.753C308.496 227.888 307.906 229.778 306.701 231.447C305.496 233.116 303.726 234.294 301.366 235.006L308.766 247.696H299.94V247.672ZM291.385 230.073H296.228C297.654 230.073 298.736 229.729 299.449 229.017C300.162 228.33 300.53 227.324 300.53 226.047C300.53 224.771 300.162 223.863 299.449 223.176C298.736 222.488 297.654 222.12 296.228 222.12H291.385V230.048V230.073Z" fill="white"/>
<path d="M318.673 246.861C316.805 246.101 315.329 244.972 314.223 243.474C313.117 241.977 312.527 240.185 312.453 238.099H320.763C320.885 239.277 321.303 240.185 321.992 240.823C322.68 241.437 323.614 241.756 324.721 241.756C325.827 241.756 326.786 241.486 327.449 240.946C328.113 240.406 328.457 239.67 328.457 238.737C328.457 237.952 328.187 237.289 327.646 236.773C327.105 236.258 326.466 235.841 325.679 235.497C324.893 235.153 323.786 234.785 322.361 234.368C320.295 233.73 318.599 233.092 317.296 232.454C315.993 231.815 314.862 230.883 313.904 229.631C312.969 228.379 312.478 226.759 312.478 224.746C312.478 221.776 313.559 219.445 315.723 217.751C317.886 216.057 320.713 215.223 324.18 215.223C327.646 215.223 330.572 216.057 332.71 217.751C334.849 219.445 336.029 221.776 336.177 224.795H327.72C327.671 223.765 327.277 222.955 326.589 222.366C325.876 221.776 324.991 221.482 323.885 221.482C322.951 221.482 322.188 221.727 321.598 222.243C321.008 222.734 320.738 223.47 320.738 224.403C320.738 225.434 321.23 226.244 322.188 226.808C323.172 227.397 324.696 228.011 326.761 228.674C328.826 229.385 330.522 230.048 331.801 230.686C333.079 231.324 334.21 232.257 335.169 233.46C336.103 234.687 336.595 236.233 336.595 238.148C336.595 240.062 336.128 241.633 335.193 243.131C334.259 244.628 332.907 245.806 331.162 246.69C329.392 247.573 327.302 248.015 324.893 248.015C322.483 248.015 320.443 247.647 318.599 246.886L318.673 246.861Z" fill="white"/>
<defs>
<filter id="filter0_d_610_29" x="0" y="0.67334" width="545.985" height="429" filterUnits="userSpaceOnUse" color-interpolation-filters="sRGB">
<feFlood flood-opacity="0" result="BackgroundImageFix"/>
<feColorMatrix in="SourceAlpha" type="matrix" values="0 0 0 0 0 0 0 0 0 0 0 0 0 0 0 0 0 0 127 0" result="hardAlpha"/>
<feOffset dx="7" dy="4"/>
<feGaussianBlur stdDeviation="4"/>
<feColorMatrix type="matrix" values="0 0 0 0 0 0 0 0 0 0 0 0 0 0 0 0 0 0 0.28 0"/>
<feBlend mode="normal" in2="BackgroundImageFix" result="effect1_dropShadow_610_29"/>
<feBlend mode="normal" in="SourceGraphic" in2="effect1_dropShadow_610_29" result="shape"/>
</filter>
<linearGradient id="paint0_linear_610_29" x1="1" y1="339.484" x2="106.135" y2="339.484" gradientUnits="userSpaceOnUse">
<stop stop-color="#FFA600"/>
<stop offset="1" stop-color="#CA7B04"/>
</linearGradient>
<linearGradient id="paint1_linear_610_29" x1="425.839" y1="337.839" x2="530.974" y2="337.839" gradientUnits="userSpaceOnUse">
<stop stop-color="#FFA600"/>
<stop offset="1" stop-color="#CA7B04"/>
</linearGradient>
<linearGradient id="paint2_linear_610_29" x1="67.278" y1="211.173" x2="464.705" y2="211.173" gradientUnits="userSpaceOnUse">
<stop stop-color="#013F68"/>
<stop offset="1" stop-color="#1E3C6F"/>
</linearGradient>
<linearGradient id="paint3_linear_610_29" x1="86.9458" y1="211.198" x2="445.038" y2="211.198" gradientUnits="userSpaceOnUse">
<stop stop-color="#E28A30"/>
<stop offset="0.07" stop-color="#E1832C"/>
<stop offset="0.29" stop-color="#E07122"/>
<stop offset="0.36" stop-color="#E06C20"/>
<stop offset="0.42" stop-color="#DF681E"/>
<stop offset="0.7" stop-color="#DE5D17"/>
<stop offset="1" stop-color="#DE5A16"/>
</linearGradient>
<linearGradient id="paint4_linear_610_29" x1="38.541" y1="292.712" x2="493.249" y2="292.712" gradientUnits="userSpaceOnUse">
<stop stop-color="#FFA600"/>
<stop offset="1" stop-color="#CA7B04"/>
</linearGradient>
</defs>
</svg>
