<svg width="18" height="27" viewBox="0 0 18 27" fill="none" xmlns="http://www.w3.org/2000/svg">
<path d="M8.59238 0.705078L8.86188 0.907391C8.60945 1.27818 8.59637 1.74868 8.8528 2.12127C8.94651 2.25734 9.0493 2.33366 9.17824 2.43158C10.3532 3.32615 11.6259 4.13216 12.7925 5.03429C14.277 6.18192 14.6133 8.1579 13.5531 9.71844L11.1407 13.0271L10.8548 12.8237C10.966 12.6408 11.072 12.4554 11.1294 12.247C11.3281 11.5259 11.0753 10.7635 10.4832 10.3063C9.49241 9.56796 8.45944 8.88291 7.47115 8.1417C5.9286 6.98506 5.51927 5.05084 6.59291 3.41614L8.56768 0.705078H8.59238Z" fill="white"/>
<path d="M0.486328 20.8054L3.40435 20.8047C4.40172 20.8497 5.2618 21.3778 5.1917 22.4678C5.1601 22.9571 4.87062 23.3692 4.43732 23.5928L4.42969 23.6176C4.95271 23.8005 5.38239 24.1357 5.4928 24.7008C5.77937 26.1674 4.54483 26.653 3.319 26.6858C2.42368 26.7096 1.44811 26.7128 0.553885 26.6862C0.53064 26.6854 0.507394 26.6872 0.487055 26.6736V20.8054H0.486328ZM1.76373 23.1795C2.19813 23.1615 2.65251 23.2036 3.08473 23.1799C3.47772 23.1586 3.89141 23.0208 3.90158 22.565C3.91175 22.1093 3.52348 21.9595 3.13376 21.9368H1.76373V23.1792V23.1795ZM1.76373 25.5418H3.47772C3.86962 25.5101 4.2321 25.3452 4.23392 24.9024C4.23573 24.374 3.72252 24.2681 3.29393 24.2512C2.78871 24.231 2.27005 24.2663 1.76373 24.2512V25.5418Z" fill="white"/>
<path d="M6.47527 8.55859L6.83485 8.8203C6.68048 9.03522 6.69174 9.32537 6.85519 9.53272C7.65497 10.1825 8.53975 10.7336 9.35915 11.3611C10.3322 12.1066 10.6427 13.3122 10.0576 14.4109C9.61085 15.0877 9.10744 15.727 8.63491 16.3865L8.59895 16.3761L8.27606 16.136C8.46529 15.7918 8.39519 15.5182 8.09409 15.2814C7.32808 14.6791 6.46401 14.1557 5.69582 13.5552C4.68392 12.7643 4.45401 11.4176 5.16881 10.3445L6.47527 8.55859Z" fill="white"/>
<path d="M6.08789 20.8054L9.00591 20.8047C9.87798 20.8371 10.7359 21.2853 10.7925 22.236C10.8245 22.7749 10.6102 23.2137 10.1678 23.5158C10.1537 23.5255 10.0055 23.6043 10.0189 23.6176C10.5525 23.7893 11.0028 24.163 11.0962 24.7354C11.3028 26.0029 10.3658 26.6059 9.21476 26.6743L6.08789 26.6858V20.8054ZM7.35331 23.1795H8.68665C9.04078 23.1529 9.46174 23.0438 9.49116 22.6262C9.52639 22.1269 9.17771 21.9736 8.73568 21.9372H7.35331V23.1795ZM7.35331 24.2692V25.5414H9.07964C9.89287 25.5637 10.1602 24.5273 9.31863 24.3056C8.75384 24.1569 7.98566 24.3048 7.39581 24.2501L7.35331 24.2688V24.2692Z" fill="white"/>
<path d="M11.6895 20.805H14.5955C15.5969 20.8338 16.5031 21.421 16.3818 22.5153C16.3225 23.0506 16.0676 23.3134 15.6361 23.5899C15.6241 23.5975 15.6143 23.5885 15.6201 23.6169C16.2245 23.8171 16.6752 24.24 16.7141 24.901C16.7849 26.1123 15.9081 26.5897 14.8163 26.6736L11.6895 26.6851V20.8047V20.805ZM12.9549 23.1792C13.3893 23.1612 13.8436 23.2033 14.2759 23.1795C14.7081 23.1558 15.1229 23.0024 15.0927 22.5027C15.0684 22.096 14.6943 21.9606 14.3372 21.9365H12.9549V23.1788V23.1792ZM12.9549 25.5414H14.6812C15.0927 25.5047 15.4454 25.3261 15.4243 24.865C15.4022 24.3718 14.9184 24.2692 14.509 24.2501C13.9976 24.2264 13.4677 24.2688 12.9545 24.2505V25.541L12.9549 25.5414Z" fill="white"/>
<path d="M13.6036 16.9846L13.9613 18.1761L11.291 18.1747L10.7847 19.8083H6.38952L5.86686 18.1707L3.21289 18.1761L3.57719 16.9824L13.6036 16.9846Z" fill="white"/>
<path d="M16.8813 25.8623C17.2477 25.8137 17.2616 26.3893 16.8667 26.3328C16.6169 26.2972 16.6183 25.8972 16.8813 25.8623ZM16.894 25.8983C16.6732 25.9217 16.6593 26.2561 16.8689 26.2943C17.2016 26.3551 17.2009 25.8655 16.894 25.8983Z" fill="white"/>
<path d="M16.8242 25.9743C16.8333 25.9451 16.9615 25.9591 16.9869 25.9714C17.0607 26.0063 17.0407 26.1024 16.9717 26.1334L17.0331 26.236C16.9434 26.2594 16.9546 26.0934 16.8733 26.1337V26.2363H16.8242V25.9746V25.9743ZM16.8733 26.0902C17.0396 26.1139 17.0269 25.9789 16.8733 25.9926V26.0902Z" fill="white"/>
</svg>
