<svg width="25" height="25" viewBox="0 0 25 25" fill="none" xmlns="http://www.w3.org/2000/svg">
<path d="M6.8074 18.3962C1.66845 13.3965 3.1738 4.7341 9.66301 1.70933C18.0641 -2.20641 27.0228 6.00691 23.8211 14.6345C21.2291 21.6172 12.1692 23.6123 6.8074 18.397V18.3962ZM20.6299 4.50791C15.282 -0.804685 5.97063 2.3052 4.91264 9.71916C3.89791 16.8291 11.1651 22.3881 17.8298 19.4663C23.7802 16.8575 25.2423 9.09005 20.6299 4.5071V4.50791Z" fill="white"/>
<path d="M6.58972 20.4235C5.90725 21.1905 4.78394 22.1998 4.00595 22.9246C3.54635 23.3534 3.05735 23.7726 2.58223 24.1852C1.98711 24.6457 0.653185 23.2391 0.533181 22.8046C0.45726 22.5298 0.45726 22.2517 0.657267 22.032L4.73414 18.1365C4.9864 18.0782 5.29253 18.0595 5.53417 18.1617C5.65907 18.2143 6.56115 19.0988 6.65339 19.2391C6.91789 19.6404 6.91463 20.0579 6.5889 20.4243L6.58972 20.4235Z" fill="white"/>
<path d="M13.3128 8.20898L19.8437 16.8009C19.5187 16.8795 17.953 18.1126 17.8093 18.0145L12.1699 8.93862C12.4899 8.73433 12.8573 8.27627 13.3128 8.20898Z" fill="white"/>
<path d="M12.1682 8.93793C11.4334 9.40733 11.1975 9.58569 10.7861 8.66229C10.6816 8.53176 10.3379 8.78633 10.3003 8.91361C10.2301 9.15196 10.4522 9.24519 10.4555 9.38463C10.4612 9.62136 9.36317 10.2326 9.11663 10.3907C9.00316 10.3688 7.83659 8.61202 7.83985 8.48798C7.84312 8.37043 7.90271 8.35746 7.97373 8.29828C8.14109 8.15965 9.16479 7.47703 9.29868 7.56945C9.37296 7.91238 9.72073 7.98291 9.96482 7.76159C10.2089 7.54026 9.55093 7.14788 9.73216 6.84305C10.195 6.6882 12.2261 5.0457 12.5225 5.13326C12.8964 5.81831 13.1853 5.29946 13.7805 5.22811C14.2107 5.17623 14.494 5.27351 14.8556 5.49646C14.9911 5.57996 15.5438 6.10368 15.5952 6.22205C15.6671 6.38581 15.4809 6.33636 15.3928 6.34284C15.0466 6.36716 13.8964 6.3777 13.6743 6.66469C13.5372 6.84143 14.1405 7.22084 14.0344 7.58323C13.9674 7.81266 13.4066 7.93994 13.3102 8.20748C12.8547 8.27477 12.4874 8.73282 12.1673 8.93712L12.1682 8.93793Z" fill="white"/>
</svg>
