<svg width="89" height="70" viewBox="0 0 89 70" fill="none" xmlns="http://www.w3.org/2000/svg">
<path d="M7.29612 1.38671C7.50481 0.968235 7.80381 0.696578 8.17508 0.599324L80.4351 0.688224C81.0601 0.976042 81.4646 1.84883 81.4234 2.87956C81.3817 3.92175 80.9019 4.73771 80.1757 4.93144L8.70653 5.0392C8.19417 5.03511 7.81105 4.81005 7.53139 4.44785C7.24132 4.07217 7.06096 3.54162 7.01908 2.96824C6.97727 2.3957 7.0771 1.82592 7.29612 1.38671Z" stroke="#A6A3A3"/>
<path d="M75.014 55.7758C75.8209 56.4469 76.6348 57.1687 77.0714 57.5598H11.5248L15.103 54.4248L73.0567 54.3346C73.0779 54.3437 73.1284 54.3661 73.2156 54.4168C73.3436 54.4913 73.5062 54.5998 73.6973 54.7378C74.0782 55.0129 74.5416 55.383 75.014 55.7758Z" stroke="#A6A3A3"/>
<path d="M73.3125 60.678L76.8908 63.8142H11.5244L15.1027 60.678H73.3125Z" stroke="#A6A3A3"/>
<path d="M73.3125 66.1786L76.8908 69.3148H11.5244L15.1027 66.1786H73.3125Z" stroke="#A6A3A3"/>
<path d="M73.4018 10.5591L76.8942 13.6352H11.5195L15.0118 10.5592C34.4223 10.3169 54.0007 10.3169 73.4018 10.5591Z" stroke="#A6A3A3"/>
<path d="M73.4018 16.812L76.8942 19.888H11.5195L15.0118 16.812C34.4223 16.5697 54.0007 16.5697 73.4018 16.812Z" stroke="#A6A3A3"/>
<path d="M73.3542 23.0229L76.8954 26.1409H11.5291L15.0135 23.1012L15.5399 22.9171L72.9051 22.9109L73.3542 23.0229Z" stroke="#A6A3A3"/>
<path d="M73.4 29.3539L76.8858 32.3938H11.5291L15.0034 29.3629L15.679 29.1653L72.8751 29.17L73.4 29.3539Z" stroke="#A6A3A3"/>
<path d="M29.6044 35.59C40.6028 35.5697 51.899 35.5587 62.8917 35.59L62.8918 35.59C63.3771 35.5913 63.863 35.5932 64.3495 35.5951C67.2594 35.6066 70.1869 35.618 73.1026 35.5036L76.8441 38.6465H11.5694L15.3151 35.5045C19.4093 35.6176 23.5136 35.6062 27.6046 35.595C28.2716 35.5931 28.9382 35.5913 29.6044 35.59ZM29.6044 35.59L29.6035 35.09L29.6044 35.59Z" stroke="#A6A3A3"/>
<path d="M73.556 48.2687L76.7618 51.1507H11.69L15.1053 48.1737L73.0351 48.085L73.556 48.2687Z" stroke="#A6A3A3"/>
<path d="M73.5679 42.025L76.8807 44.8994H11.5345L14.8562 42.0174L15.3834 41.832L72.8931 41.8273L73.5679 42.025Z" stroke="#A6A3A3"/>
<path d="M79.9785 57.353V53.2466H80.264H80.764V52.7466V7.44458H81.335V52.7466V53.2466H81.835H82.1205V57.3408C82.1162 57.3499 82.1046 57.3709 82.0768 57.4038C82.02 57.471 81.9259 57.5508 81.7998 57.6297C81.5343 57.7956 81.2482 57.8842 81.1143 57.8884C80.9485 57.8935 80.6242 57.8154 80.3345 57.6567C80.1953 57.5805 80.0929 57.5008 80.0314 57.4318C79.991 57.3863 79.9807 57.3602 79.9785 57.353Z" stroke="#A6A3A3"/>
<path d="M4.82727 1.81689V4.09963H1.3212C1.25737 4.09963 1.07875 4.02271 0.883179 3.69031C0.702127 3.38259 0.618624 3.03452 0.632259 2.84058C0.641464 2.71128 0.760938 2.44026 0.992992 2.17521C1.1006 2.05231 1.21279 1.95411 1.31286 1.89027C1.36226 1.85876 1.40315 1.83916 1.43416 1.82807C1.46432 1.81727 1.47836 1.81691 1.47836 1.81689C1.47836 1.81689 1.47835 1.81689 1.47832 1.81689H4.82727Z" stroke="#A6A3A3"/>
<path d="M87.6285 2.83922L87.6286 2.84035C87.6423 3.03425 87.5588 3.38247 87.3777 3.69031C87.1821 4.02271 87.0035 4.09963 86.9397 4.09963H83.4336V1.81689H86.7826L86.7825 1.81689C86.7825 1.81691 86.7966 1.81727 86.8268 1.8281C86.8579 1.83922 86.8989 1.85884 86.9484 1.89037C87.0486 1.95426 87.1609 2.05248 87.2686 2.17535C87.5009 2.44055 87.6197 2.71098 87.6285 2.83922Z" stroke="#A6A3A3"/>
</svg>
