<svg width="89" height="72" viewBox="0 0 89 72" fill="none" xmlns="http://www.w3.org/2000/svg">
<path d="M7.29612 1.96605C7.50481 1.54758 7.80381 1.27592 8.17508 1.17867L80.4351 1.26757C81.0601 1.55539 81.4646 2.42817 81.4234 3.45891C81.3817 4.50109 80.9019 5.31705 80.1757 5.51078L8.70653 5.61855C8.19417 5.61446 7.81105 5.38939 7.53139 5.02719C7.24132 4.65152 7.06096 4.12097 7.01908 3.54759C6.97727 2.97504 7.0771 2.40526 7.29612 1.96605Z" stroke="#A6A3A3"/>
<path d="M75.014 56.3552C75.8209 57.0263 76.6348 57.748 77.0714 58.1392H11.5248L15.103 55.0042L73.0567 54.9139C73.0779 54.923 73.1284 54.9455 73.2156 54.9962C73.3436 55.0706 73.5062 55.1791 73.6973 55.3171C74.0782 55.5922 74.5416 55.9623 75.014 56.3552Z" stroke="#A6A3A3"/>
<path d="M73.3125 61.2573L76.8908 64.3936H11.5244L15.1027 61.2573H73.3125Z" stroke="#A6A3A3"/>
<path d="M73.3125 68.1786L76.8908 71.3148H11.5244L15.1027 68.1786H73.3125Z" stroke="#A6A3A3"/>
<path d="M73.4018 11.1385L76.8942 14.2146H11.5195L15.0118 11.1385C34.4223 10.8962 54.0007 10.8962 73.4018 11.1385Z" stroke="#A6A3A3"/>
<path d="M73.4018 17.3913L76.8942 20.4674H11.5195L15.0118 17.3913C34.4223 17.149 54.0007 17.149 73.4018 17.3913Z" stroke="#A6A3A3"/>
<path d="M73.3542 23.6022L76.8954 26.7203H11.5291L15.0135 23.6805L15.5399 23.4965L72.9051 23.4902L73.3542 23.6022Z" stroke="#A6A3A3"/>
<path d="M73.4 29.9332L76.8858 32.9731H11.5291L15.0034 29.9422L15.679 29.7446L72.8751 29.7493L73.4 29.9332Z" stroke="#A6A3A3"/>
<path d="M29.6044 36.1694C40.6028 36.149 51.899 36.1381 62.8917 36.1694L62.8918 36.1694C63.3771 36.1707 63.863 36.1726 64.3495 36.1745C67.2594 36.1859 70.1869 36.1974 73.1026 36.0829L76.8441 39.2259H11.5694L15.3151 36.0838C19.4093 36.1969 23.5136 36.1856 27.6046 36.1743C28.2716 36.1725 28.9382 36.1706 29.6044 36.1694ZM29.6044 36.1694L29.6035 35.6694L29.6044 36.1694Z" stroke="#A6A3A3"/>
<path d="M73.556 48.848L76.7618 51.7301H11.69L15.1053 48.753L73.0351 48.6643L73.556 48.848Z" stroke="#A6A3A3"/>
<path d="M73.5679 42.6043L76.8807 45.4788H11.5345L14.8562 42.5968L15.3834 42.4113L72.8931 42.4066L73.5679 42.6043Z" stroke="#A6A3A3"/>
<path d="M4.82727 2.39624V4.67898H1.3212C1.25737 4.67898 1.07875 4.60205 0.883179 4.26965C0.702127 3.96194 0.618624 3.61387 0.632259 3.41992C0.641464 3.29063 0.760938 3.0196 0.992992 2.75455C1.1006 2.63165 1.21279 2.53346 1.31286 2.46962C1.36226 2.4381 1.40315 2.41851 1.43416 2.40741C1.46432 2.39662 1.47836 2.39625 1.47836 2.39624C1.47836 2.39624 1.47835 2.39624 1.47832 2.39624H4.82727Z" stroke="#A6A3A3"/>
<path d="M87.6285 3.41856L87.6286 3.4197C87.6423 3.61359 87.5588 3.96182 87.3777 4.26965C87.1821 4.60205 87.0035 4.67898 86.9397 4.67898H83.4336V2.39624H86.7826L86.7825 2.39624C86.7825 2.39625 86.7966 2.39662 86.8268 2.40744C86.8579 2.41856 86.8989 2.43818 86.9484 2.46972C87.0486 2.5336 87.1609 2.63182 87.2686 2.75469C87.5009 3.01989 87.6197 3.29033 87.6285 3.41856Z" stroke="#A6A3A3"/>
</svg>
