<svg width="74" height="71" viewBox="0 0 74 71" fill="none" xmlns="http://www.w3.org/2000/svg">
<path d="M14.0237 26.2639C13.9006 26.1411 13.7681 26.0269 13.627 25.9226V9.06152H69.7267L69.7488 9.0834V48.3637L69.5719 48.5393C60.3727 48.5393 51.1705 48.5393 41.9711 48.5423L41.0371 31.8141L41.0317 31.7174L41.0019 31.6252L40.9401 31.4341L40.9393 31.4316C40.7778 30.9381 40.4556 30.386 39.8436 29.9649C39.2361 29.547 38.4084 29.3031 37.313 29.3031C36.8821 29.3031 36.456 29.3349 36.132 29.3591L36.1109 29.3607L36.1109 29.3606L36.1009 29.3615C36.0123 29.3693 35.9281 29.3747 35.8368 29.3806L35.8188 29.3817L35.8179 29.3818C34.8859 29.4429 34.0412 29.9211 33.5092 30.6874C33.0768 31.3047 32.8271 32.0307 32.7855 32.7821L32.7854 32.783L31.9371 48.4146C22.7356 48.4538 13.5341 48.4958 4.33273 48.5379L4.15723 48.3637V9.08192L4.17768 9.06152H9.45753V25.9215C8.59106 26.559 8.03011 27.5865 8.03011 28.7434V34.0286C8.03011 35.967 9.60357 37.5336 11.5423 37.5336C13.4809 37.5336 15.0544 35.967 15.0544 34.0286V28.7434C15.0544 27.776 14.6611 26.8961 14.0237 26.2639ZM14.0237 26.2639C14.024 26.2642 14.0243 26.2645 14.0246 26.2647L13.4949 26.7957L14.0229 26.2631C14.0232 26.2634 14.0235 26.2636 14.0237 26.2639Z" stroke="#A6A3A3" stroke-width="1.5" stroke-miterlimit="10"/>
<path d="M3.38184 1.22203L3.37125 0.75H70.5567L70.5617 1.25246L70.569 1.98941L71.306 1.995L73.0201 2.008L73.0708 3.80392L71.2911 3.82333L70.5493 3.83142V4.57329V4.81869H3.33257L3.32609 4.59755L3.30488 3.87327L2.5803 3.86952L0.936157 3.86102L0.915536 1.98245L2.62923 1.98885L3.39912 1.99173L3.38184 1.22203ZM66.9602 4.73158L67.3638 4.7339L67.5557 4.44678C68.4029 3.548 68.3381 2.11262 67.3917 1.29885L67.1847 1.12082L66.9116 1.11758L64.3102 1.08676L63.9949 1.08303L63.7716 1.3057L63.6666 1.41048L63.6606 1.41646L63.6547 1.42258C62.8422 2.27047 62.8422 3.60639 63.6547 4.45428L63.6719 4.47218L63.6902 4.48891L63.7272 4.5228L63.9412 4.71843L64.2311 4.71927C65.3022 4.72235 65.8854 4.72542 66.9602 4.73158Z" stroke="#A6A3A3" stroke-width="1.5" stroke-miterlimit="10"/>
<path d="M39.2806 55.0138L40.0165 54.9728L40.0067 55.7218L41.1964 55.7529L36.9918 61.5725L32.7408 55.7894L33.0846 55.7684L33.9205 55.7176L34.5874 55.6769L34.6237 55.0098L35.8255 32.9463C35.8255 32.9461 35.8255 32.9458 35.8256 32.9456C35.8364 32.7572 35.8985 32.5781 36.0054 32.426L36.0055 32.426L36.0076 32.4228C36.0087 32.4213 36.0102 32.4198 36.0126 32.4185C36.015 32.4171 36.0173 32.4165 36.0194 32.4163C36.1346 32.4087 36.2518 32.3996 36.3699 32.3905C36.7779 32.3589 37.1956 32.3267 37.5739 32.3489C37.7845 32.3613 37.9302 32.3892 38.0208 32.4204L39.2806 55.0138Z" stroke="#A6A3A3" stroke-width="1.5" stroke-miterlimit="10"/>
<path d="M0.904297 69.9418V65.9316H73.0892V69.9418H0.904297Z" stroke="#A6A3A3" stroke-width="1.5" stroke-miterlimit="10"/>
</svg>
