<svg width="69" height="69" viewBox="0 0 69 69" fill="none" xmlns="http://www.w3.org/2000/svg">
<path d="M66.7054 64.532C66.5413 64.4779 66.3324 64.4664 66.076 64.5262V8.14752H68.2188V0.323608H26.5885C26.0328 0.323608 26.0589 1.47422 26.4952 1.47422H67.2406C67.3609 1.57097 67.3805 1.83587 67.3805 1.99251V6.99807H1.05702V1.64698L1.19689 1.47422H27.838C28.1765 1.47422 28.3844 0.441088 27.7447 0.323608H0.21875V8.14752H2.36152V21.4941H65.1445V27.132H16.2188V28.1674H65.0046L65.1445 28.3402V33.8053H16.2188V34.8407H65.1445V40.4786H16.2188V41.5141H65.1445V47.1519H16.2188V48.3025H65.1445V53.6525C65.1445 53.687 65.2619 53.7412 65.2377 53.8252H16.2188V54.9758H65.1445V60.4985H2.7802C2.72984 60.4985 2.50605 60.7162 2.46409 60.798C2.18809 61.3405 2.47342 64.3892 2.36152 64.5262C2.14799 64.4859 1.93353 64.4894 1.75357 64.5378V65.6354L2.36152 65.6769V68.3236H66.076V65.6769C66.3324 65.7367 66.5413 65.7252 66.7054 65.6711V64.532ZM65.1445 20.4587H3.29304V14.8208H65.1445V20.4587ZM65.1445 13.7854H3.29304V8.14752H65.1445V13.7854ZM65.1445 67.2882H3.29304V61.6503H65.1445V67.2882Z" fill="#A6A3A3"/>
<path d="M13.171 55.6451H0.601562V26.6138H13.1719V55.6451H13.171ZM1.44077 54.6085H12.3327V27.6504H1.44077V54.6085Z" fill="#A6A3A3"/>
<path d="M7.67565 27.132H6.64062V29.6094H7.67565V27.132Z" fill="#A6A3A3"/>
<path d="M4.65234 38.7947L7.15784 35.7L9.66334 38.7947H4.65234Z" fill="#A6A3A3"/>
<path d="M9.66334 44.8853L7.15784 47.9812L4.65234 44.8853H9.66334Z" fill="#A6A3A3"/>
</svg>
