<svg width="79" height="77" viewBox="0 0 79 77" fill="none" xmlns="http://www.w3.org/2000/svg">
<path d="M0.0722656 0.678589V10.6058H2.81808V42.4995H45.2726L45.2874 39.7537H5.5639V5.959H60.0578V6.80598H61.1139V3.25754L61.4476 3.24065L63.0148 3.22164V6.80387L65.7606 6.69826V0.678589H0.0722656ZM4.63032 8.18734H2.70825V3.10758H4.63032V8.18734ZM60.0578 5.32535H5.88072L5.5639 5.32113V3.21319H60.0578V5.32535Z" fill="#A6A3A3"/>
<path d="M11.4782 44.8229V61.9314H45.2729V64.6772H8.73242V44.8229H11.4782Z" fill="#A6A3A3"/>
<path d="M60.6473 8.97728C65.6574 8.46191 70.3886 9.94254 73.9941 13.4572L72.4142 15.0371C67.1887 9.70598 58.1887 9.66796 52.9822 15.0371L51.4023 13.4572C53.8799 11.1 57.1918 9.33424 60.6473 8.97728Z" fill="#A6A3A3"/>
<path d="M14.2235 44.8229V59.1856H45.2723V60.0305H13.5898V44.8229H14.2235Z" fill="#A6A3A3"/>
<path d="M62.7346 13.4319C65.6177 13.4298 68.5367 14.6696 70.6108 16.6487L69.2189 18.1948C65.5142 14.9062 59.9507 14.6675 56.3347 18.1948L54.7949 16.8071C56.5248 14.6189 59.9993 13.434 62.7346 13.4319Z" fill="#A6A3A3"/>
<path d="M61.9136 18.0596C63.8864 17.8589 66.083 18.5052 67.4475 20.007L65.8676 21.3883C63.7723 19.6965 61.525 19.9943 59.3515 21.3482L57.9512 20.007C58.9692 18.9002 60.4224 18.2116 61.9136 18.0596Z" fill="#A6A3A3"/>
<path d="M64.422 26.5864C62.1767 28.8316 58.6135 25.298 61.0045 23.0633C63.3469 20.873 66.6144 24.3961 64.422 26.5864Z" fill="#A6A3A3"/>
<path d="M70.6186 37.2191V53.0604H54.7773V37.2191H70.6186ZM69.5625 38.2752H55.8334V52.0043H69.5625V38.2752Z" fill="#A6A3A3"/>
<path d="M70.6186 55.3837V71.2249H54.7773V55.3837H70.6186ZM69.5625 56.4398H55.8334V70.1688H69.5625V56.4398Z" fill="#A6A3A3"/>
<path d="M59.8464 45.5621L57.7363 45.1418L62.6978 40.1803L67.6614 45.1418L65.5492 45.2453V49.4696H59.8464V45.5621Z" fill="#A6A3A3"/>
<path d="M65.5492 58.9744V62.8819L67.6614 63.3043L62.6978 68.2637L57.7363 63.3043L59.8464 62.8819V58.9744H65.5492Z" fill="#A6A3A3"/>
<path d="M78.1908 76.6786H48.0059V30.7327H78.1908V76.6786ZM49.2732 75.4113H76.9235V32H49.2732V75.4113Z" fill="#A6A3A3"/>
</svg>
