<svg width="75" height="72" viewBox="0 0 75 72" fill="none" xmlns="http://www.w3.org/2000/svg">
<path d="M73.3746 0.678467C73.7505 0.884128 74.0239 1.06257 74.2646 1.43306V12.2983L73.5975 13.0529H69.8161V71.075C69.8161 71.1416 69.4758 71.6285 69.3718 71.6799L4.86916 71.6754L4.42192 71.2262V13.0529H0.639012L0.135317 12.6597L0.130859 1.06711L0.713303 0.678467H73.3746ZM72.4846 2.48859H1.60331V11.2413H72.4846V2.48859ZM68.0361 13.0529H6.05187V18.636H68.0361V13.0529ZM68.0361 20.2964H6.05187V25.8795H68.0361V20.2964ZM68.0361 27.6896H6.05187V33.2727H68.0361V27.6896ZM68.0361 34.9331H6.27475L6.05187 35.16V40.5162H68.0361V34.9331ZM9.46184 42.3279H6.05187V70.0936H68.0361V42.3279H64.6261V66.0953L64.3765 66.4839L9.84964 66.4567L9.46333 65.9441V42.3279H9.46184ZM36.3018 42.3279H11.2419V64.9627H36.0804L36.3033 64.7358V42.3263L36.3018 42.3279ZM56.4689 42.3279H37.9332V64.9627H62.9932V42.3279H58.1003V50.7025C60.0809 51.4722 61.1478 53.3852 60.2503 55.4569C59.1597 57.9762 55.3649 57.9823 54.3189 55.4569C53.4616 53.3867 54.4749 51.4631 56.4689 50.704V42.3294V42.3279ZM56.8716 52.4688C55.3739 52.815 55.2906 55.3616 57.0008 55.599C59.5654 55.9574 59.3752 51.8911 56.8716 52.4688Z" fill="#A6A3A3"/>
<path d="M21.7383 47.2001C25.8095 46.7782 30.4126 47.8579 33.4853 50.6994C34.0127 51.1863 34.8894 51.8502 34.6412 52.632C34.558 52.8709 34.3857 53.001 34.142 53.0418C33.2683 53.184 31.8509 51.5069 31.0084 50.9565C26.3548 47.9154 20.2629 48.1362 15.7906 51.4086C15.2468 51.8063 14.174 52.9647 13.6748 53.0358C12.8397 53.1552 12.4638 52.44 12.8635 51.7489C12.972 51.5614 13.7654 50.8234 13.9883 50.6298C15.9466 48.9271 19.1693 47.4648 21.7383 47.1986V47.2001Z" fill="#A6A3A3"/>
<path d="M22.7779 52.1814C25.222 51.9652 27.589 52.6411 29.5874 54.0641C30.2694 54.5495 31.4595 55.2361 31.0331 56.2069C30.2308 57.391 29.1966 55.8425 28.372 55.3011C25.335 53.3095 21.7363 53.4759 18.7543 55.4811C18.203 55.8516 16.9326 57.5029 16.3576 56.2054C15.9728 55.3359 17.0307 54.6403 17.6295 54.1851C19.0871 53.0782 20.9622 52.3402 22.7764 52.1799L22.7779 52.1814Z" fill="#A6A3A3"/>
<path d="M22.7722 57.3063C24.518 57.0644 26.8181 57.5332 27.564 59.2994C27.5224 60.1085 27.0499 60.2748 26.3218 60.1024C24.7721 58.5418 22.6355 58.5297 21.0724 60.1024L20.1363 60.0586C19.8422 59.741 19.701 59.2193 19.9833 58.8428C20.6995 58.0534 21.7187 57.4515 22.7722 57.3048V57.3063Z" fill="#A6A3A3"/>
<path d="M43.2299 54.8838L50.7972 54.9655L51.2058 55.3027C51.3559 55.6188 51.3024 55.8849 51.1984 56.201C50.8997 57.1038 48.57 60.9947 47.9311 61.9292C47.4407 62.6491 46.9757 63.384 46.1704 62.3889C45.6251 61.716 43.0204 57.1053 42.695 56.2675C42.4335 55.5931 42.5063 55.1379 43.2299 54.8823V54.8838ZM48.9072 56.6637H44.9029L46.9044 60.1312L47.2505 59.732L48.9058 56.6637H48.9072Z" fill="#A6A3A3"/>
<path d="M46.7916 44.4646C47.2165 44.3981 47.4587 44.7005 47.6979 44.9924C48.4809 45.9451 50.3367 49.399 50.9118 50.6254C51.2282 51.2998 51.6086 51.8155 50.8315 52.3599C48.5493 52.3024 45.7158 52.7092 43.4915 52.4415C43.1186 52.3962 42.8214 52.316 42.6387 51.9486L42.6431 51.1244C43.9417 49.3612 44.8436 46.6906 46.111 44.9924C46.2804 44.764 46.4988 44.5115 46.7901 44.4661L46.7916 44.4646ZM48.9074 50.7781C48.79 50.2836 47.1095 47.1548 46.906 47.1594L44.9046 50.7781H48.9089H48.9074Z" fill="#A6A3A3"/>
</svg>
