<svg width="29" height="29" viewBox="0 0 29 29" fill="none" xmlns="http://www.w3.org/2000/svg">
<path d="M28.4404 11.6268H27.2895V11.5675H14.4304V17.2826H22.5052C21.3272 20.6096 18.1617 22.9978 14.4304 22.9978C9.69615 22.9978 5.85772 19.1593 5.85772 14.4251C5.85772 9.69078 9.69615 5.85235 14.4304 5.85235C16.6158 5.85235 18.6039 6.67676 20.1177 8.02339L24.159 3.98207C21.6072 1.60386 18.1939 0.137207 14.4304 0.137207C6.53996 0.137207 0.142578 6.53459 0.142578 14.4251C0.142578 22.3155 6.53996 28.7129 14.4304 28.7129C22.3209 28.7129 28.7183 22.3155 28.7183 14.4251C28.7183 13.4671 28.6197 12.5319 28.4404 11.6268Z" fill="#FFC107"/>
<path d="M1.78906 7.77478L6.48334 11.2174C7.75353 8.07268 10.8297 5.85235 14.4295 5.85235C16.6149 5.85235 18.603 6.67676 20.1168 8.02339L24.1581 3.98207C21.6063 1.60386 18.1929 0.137207 14.4295 0.137207C8.94156 0.137207 4.18228 3.23553 1.78906 7.77478Z" fill="#FF3D00"/>
<path d="M14.4327 28.713C18.1232 28.713 21.4766 27.3006 24.0119 25.0039L19.5899 21.2619C18.1074 22.3899 16.2955 22.9999 14.4327 22.9979C10.7164 22.9979 7.56091 20.6282 6.37216 17.3213L1.71289 20.9111C4.07753 25.5382 8.87968 28.713 14.4327 28.713Z" fill="#4CAF50"/>
<path d="M28.4396 11.6267H27.2888V11.5674H14.4297V17.2825H22.5045C21.941 18.8659 20.9259 20.2495 19.5847 21.2624L19.5869 21.261L24.009 25.003C23.6961 25.2873 28.7175 21.5689 28.7175 14.425C28.7175 13.467 28.619 12.5318 28.4396 11.6267Z" fill="#1976D2"/>
</svg>
