<svg width="133" height="44" viewBox="0 0 133 44" fill="none" xmlns="http://www.w3.org/2000/svg">
<path d="M128.736 26.7951L132.408 29.2431C131.216 30.9985 128.366 34.0104 123.437 34.0104C117.317 34.0104 112.76 29.2754 112.76 23.2519C112.76 16.8421 117.366 12.4937 122.922 12.4937C128.511 12.4937 131.248 16.9386 132.134 19.3383L132.618 20.5624L118.219 26.5213C119.315 28.6795 121.022 29.7746 123.437 29.7746C125.853 29.7746 127.528 28.5828 128.736 26.7951ZM117.446 22.914L127.061 18.9197C126.53 17.5831 124.952 16.633 123.067 16.633C120.667 16.633 117.334 18.7589 117.446 22.914Z" fill="#FF302F"/>
<path d="M105.818 1.52588H110.456V33.0279H105.818V1.52588Z" fill="#20B15A"/>
<path d="M98.5069 13.3309H102.984V32.4641C102.984 40.4038 98.2975 43.6732 92.7572 43.6732C87.5392 43.6732 84.3989 40.1623 83.2231 37.3118L87.3298 35.6044C88.0705 37.3599 89.8583 39.4377 92.7572 39.4377C96.3164 39.4377 98.5069 37.2311 98.5069 33.1083V31.5623H98.3458C97.2828 32.8506 95.2536 34.0101 92.6768 34.0101C87.2975 34.0101 82.3691 29.3234 82.3691 23.2841C82.3691 17.2123 87.2975 12.4775 92.6768 12.4775C95.2375 12.4775 97.2828 13.621 98.3458 14.8772H98.5069V13.3309ZM98.8288 23.2841C98.8288 19.4832 96.3003 16.7131 93.0793 16.7131C89.826 16.7131 87.0881 19.4832 87.0881 23.2841C87.0881 27.0365 89.826 29.7583 93.0793 29.7583C96.3006 29.7746 98.829 27.0365 98.829 23.2841" fill="#3686F7"/>
<path d="M56.9071 23.2035C56.9071 29.4041 52.0757 33.9617 46.1489 33.9617C40.2223 33.9617 35.3906 29.3881 35.3906 23.2035C35.3906 16.9708 40.2223 12.4292 46.1489 12.4292C52.0757 12.4292 56.9071 16.9708 56.9071 23.2035ZM52.2045 23.2035C52.2045 19.3384 49.402 16.6807 46.1489 16.6807C42.8958 16.6807 40.0933 19.3384 40.0933 23.2035C40.0933 27.0365 42.8958 29.7262 46.1489 29.7262C49.4022 29.7262 52.2045 27.0365 52.2045 23.2035Z" fill="#FF302F"/>
<path d="M80.4052 23.2519C80.4052 29.4525 75.5735 34.0102 69.6469 34.0102C63.7201 34.0102 58.8887 29.4523 58.8887 23.2519C58.8887 17.0192 63.7201 12.4937 69.6469 12.4937C75.5735 12.4937 80.4052 17.0032 80.4052 23.2519ZM75.6862 23.2519C75.6862 19.3869 72.884 16.7292 69.6306 16.7292C66.3773 16.7292 63.5751 19.3869 63.5751 23.2519C63.5751 27.0849 66.3775 29.7746 69.6306 29.7746C72.9 29.7746 75.6862 27.0689 75.6862 23.2519Z" fill="#FFBA40"/>
<path d="M17.7068 29.2914C10.9587 29.2914 5.67635 23.8478 5.67635 17.0996C5.67635 10.3517 10.9587 4.90809 17.7068 4.90809C21.3467 4.90809 24.0039 6.34139 25.9687 8.17747L29.206 4.94041C26.4682 2.31528 22.8123 0.317871 17.7068 0.317871C8.46253 0.31813 0.683594 7.8556 0.683594 17.0996C0.683594 26.3437 8.46253 33.8814 17.7068 33.8814C22.6996 33.8814 26.4682 32.2387 29.4154 29.1787C32.4431 26.1508 33.3772 21.899 33.3772 18.4525C33.3772 17.3734 33.2484 16.2623 33.1034 15.4409H17.7068V19.9181H28.6745C28.3524 22.7206 27.4666 24.6371 26.1621 25.9414C24.5838 27.536 22.0876 29.2914 17.7068 29.2914Z" fill="#3686F7"/>
</svg>
