<svg width="156" height="170" viewBox="0 0 156 170" fill="none" xmlns="http://www.w3.org/2000/svg">
<path d="M71.8589 35.8544C82.7727 32.7066 93.7168 32.7751 104.619 35.8849C136.663 45.0276 152.406 78.9038 143.885 110.454C155.359 111.779 160.549 125.767 151.095 133.49C147.835 136.154 144.62 136.295 140.659 137.095C136.614 150.127 126.697 161.128 113.766 165.665C101.78 169.867 80.8621 170 68.595 166.841C53.1663 162.867 41.5664 151.916 36.2479 136.897C31.2895 136.535 26.8694 135.287 23.7306 131.195C17.6198 123.224 22.8056 111.87 32.4419 110.842C31.5624 104.486 30.5654 98.1408 30.9369 91.6853C17.5098 85.3897 6.51264 74.3248 0.0113725 60.9875L0 14.8969C0.936334 11.9965 7.68021 14.5886 10.2542 14.5734C18.158 14.5239 25.5122 10.2913 30.5275 4.44479C32.4191 2.24094 32.2675 -0.0885176 36.0394 0.0370905C39.3867 0.15128 39.9856 3.34858 41.9227 5.57907C46.3807 10.71 54.2429 14.4782 61.074 14.5505C63.4167 14.5734 68.0453 13.127 69.7512 13.3896C70.6268 13.5228 71.8589 15.1443 71.8589 15.8675V35.8506V35.8544ZM66.5517 19.1067C54.8646 20.9604 42.6885 15.9779 36.0318 6.16524L35.4556 6.34033C28.4312 16.0464 16.6493 20.9946 4.76128 19.1067V59.2632C10.0571 69.4793 17.9913 78.4813 27.9156 84.3544C29.1856 85.1042 34.5458 88.0046 35.6489 88.0161C37.7111 88.0351 44.7355 83.734 46.7371 82.3789C55.1186 76.6999 61.9004 68.6229 66.5517 59.6438V19.1067ZM35.8422 92.9452C35.8233 95.9103 35.9181 98.9402 36.2251 101.89C36.5928 105.377 38.238 110.058 38.4086 113.023C38.9128 121.938 38.0296 127 41.3503 135.949C50.562 160.758 72.7725 165.086 96.7039 163.758C126.257 162.121 138.088 143.048 138.217 115.197C138.24 110.469 139.624 107.558 140.363 102.922C145.101 73.2438 127.72 44.8754 97.7161 39.3867C88.8076 37.7576 80.4868 38.4618 71.9006 41.2175C71.2902 41.9217 72.2417 57.1393 71.7717 59.9293C71.3623 62.373 67.6473 68.0139 66.1044 70.2254C60.5736 78.1577 52.3778 85.5991 43.8181 90.0981C41.4072 91.3656 38.5982 93.0442 35.846 92.9414L35.8422 92.9452ZM33.1887 115.783C22.9345 117.469 24.557 131.385 34.705 131.389C33.6625 126.25 32.9081 121.055 33.1887 115.783ZM141.989 131.389C152.91 131.674 154.287 116.674 143.126 115.787C143.377 120.96 143.396 126.319 141.989 131.389Z" fill="#FFA600"/>
<path d="M106.352 82.4815C105.048 96.0966 94.1384 108.357 80.336 109.647C77.6369 109.898 70.7187 110.572 72.8112 105.894C73.1941 105.038 78.3723 103.077 79.7863 102.244C85.3133 98.9742 89.252 93.889 90.8063 87.62C84.6575 92.9412 77.2161 94.7301 69.3805 92.199C67.2008 91.4948 62.72 89.8771 64.0923 86.8625C65.0438 84.7767 68.0348 85.5531 69.7255 85.2905C83.4255 83.1552 91.3256 71.1729 86.3065 57.7785L90.3097 55.6927C90.9503 55.5671 91.0147 56.1494 91.2119 56.5719C91.8374 57.9117 92.5614 61.1852 92.6979 62.6925C93.6986 73.9173 88.7895 82.55 79.0585 87.8103C83.3004 87.5971 87.1519 84.2514 89.8661 81.1531C90.7115 80.1901 91.8487 77.6893 92.7926 77.244C98.8693 74.3702 96.2954 87.2888 95.5448 89.8999C94.889 92.1799 93.8351 94.1592 92.7699 96.2489L89.2975 101.323C99.0778 95.5142 102.846 83.3036 101.045 72.3947L105.731 71.6068C105.951 71.6411 106.356 72.5242 106.356 72.5851C106.356 75.691 106.644 79.4859 106.356 82.4815H106.352Z" fill="#FFA600"/>
<path d="M80.7099 144.197C86.5478 149.857 95.9566 148.114 100.089 141.334L104.459 143.58C98.1704 155.642 80.2664 155.654 74.1328 143.58L78.4998 141.334C78.7387 141.357 80.2626 143.767 80.7099 144.201V144.197Z" fill="#FFA600"/>
<path d="M61.1648 117.031C66.6122 116.392 72.2112 118.957 75.2591 123.544L71.2901 126.349C68.2574 123.205 64.5917 120.96 60.1147 122.448C57.8175 123.213 56.3201 125.002 54.4057 126.292L50.7969 123.788C52.3208 120.221 57.4157 117.469 61.1648 117.031Z" fill="#FFA600"/>
<path d="M110.824 117.035C116.063 116.434 122.383 118.988 124.771 123.791L120.95 126.353C117.538 122.687 113.239 120.72 108.379 122.95C106.605 123.765 105.699 125.432 104.069 126.292L100.312 123.548L100.464 123.019C103.129 120 106.727 117.503 110.824 117.035Z" fill="#FFA600"/>
<path d="M14.6726 53.6942C14.1078 52.716 17.0836 50.2419 17.4627 49.1761L27.3226 57.1503L53.8584 30.9097L57.4521 34.518L27.7017 64.0017L14.6764 53.6904L14.6726 53.6942Z" fill="#FFA600"/>
</svg>
