<svg width="139" height="139" viewBox="0 0 139 139" fill="none" xmlns="http://www.w3.org/2000/svg">
<path d="M137.261 0.492508L1.75867 0.458008C1.06867 0.458008 0.509766 1.01691 0.509766 1.70691V14.7065C0.509766 15.3965 1.06867 15.9554 1.75867 15.9554H6.39546L3.42157 30.68C3.24907 31.5494 3.46987 32.4809 4.03567 33.233C4.05637 33.2606 4.07707 33.2813 4.09087 33.3089C4.67737 33.9782 5.46397 34.3508 6.32647 34.3922L3.60097 45.4391C3.34567 46.3292 3.54577 47.3297 4.13917 48.1232C4.64977 48.8063 5.47087 49.2548 6.32647 49.3307L3.60097 60.3845C3.34567 61.2746 3.54577 62.2751 4.13917 63.0686C4.64977 63.7517 5.46396 64.1933 6.31266 64.2761L3.60097 75.2747C3.34567 76.1648 3.54577 77.1653 4.13917 77.9588C4.64977 78.6419 5.46396 79.0835 6.31266 79.1663L3.60097 90.1649C3.34567 91.055 3.54577 92.0555 4.13917 92.849C4.64977 93.5321 5.47087 93.9806 6.32647 94.0565L3.60097 105.11C3.34567 106 3.54577 107.001 4.13917 107.794C4.70497 108.547 5.64337 109.016 6.58177 109.016H34.6855C34.8097 109.057 34.9408 109.085 35.0857 109.085H43.8211C43.9591 109.085 44.0971 109.057 44.2213 109.016H79.1077V106.518H45.07V94.0772H79.1077V91.5794H45.07V79.187H79.1077V76.6892H45.07V64.3037H79.1077V61.8059H45.07V49.3652H79.1077V46.8674H45.07V34.4198H79.1077V31.922H45.07V15.9761H79.1077V13.4783H3.00757V2.95581L136.005 2.99031V13.4921L125.538 13.4576V15.9554L130.064 15.9899L133.142 31.2044C133.19 31.439 133.059 31.6529 132.976 31.7633C132.9 31.8599 132.721 31.9289 132.534 31.9289L125.538 31.8944V34.3922L130.106 34.4267L132.969 46.0325C133.01 46.2533 132.969 46.4603 132.845 46.6673C132.741 46.7846 132.569 46.8674 132.417 46.8674L125.538 46.8329V49.3307L130.106 49.3652L132.969 60.971C133.01 61.1918 132.969 61.3988 132.845 61.6127C132.741 61.73 132.569 61.8128 132.417 61.8128H131.437C131.23 61.7507 131.009 61.7369 130.789 61.7921C130.768 61.7921 130.754 61.8059 130.733 61.8128L125.538 61.7783V64.2761L130.119 64.3106L132.969 75.8612C133.01 76.082 132.969 76.289 132.845 76.496C132.741 76.6133 132.569 76.6961 132.417 76.6961H131.437C131.23 76.634 131.009 76.6202 130.789 76.6754C130.768 76.6754 130.754 76.6892 130.733 76.6961L125.538 76.6616V79.1594L130.119 79.1939L132.969 90.7445C133.01 90.9653 132.969 91.1723 132.845 91.3793C132.741 91.4966 132.569 91.5794 132.417 91.5794L125.538 91.5449V94.0427L130.106 94.0772L132.969 105.683C133.01 105.904 132.969 106.152 132.866 106.297C132.769 106.428 132.583 106.518 132.417 106.518L125.538 106.483V108.981L132.417 109.016C133.355 109.016 134.294 108.547 134.86 107.794C135.391 107.084 135.605 106.111 135.405 105.131L132.672 94.0565C133.528 93.9806 134.342 93.5321 134.86 92.849C134.873 92.8283 134.887 92.8145 134.901 92.7938C135.419 92.0141 135.598 91.1378 135.405 90.1925L132.686 79.1663C133.535 79.0835 134.349 78.6419 134.86 77.9588C134.873 77.9381 134.887 77.9243 134.901 77.9036C135.419 77.1239 135.598 76.2476 135.405 75.3023L132.686 64.2761C133.535 64.1933 134.349 63.7517 134.86 63.0686C134.873 63.0479 134.887 63.0272 134.901 63.0134C135.419 62.2337 135.598 61.3574 135.405 60.4121L132.672 49.3376C133.528 49.2617 134.342 48.8132 134.86 48.1301C134.873 48.1094 134.887 48.0956 134.901 48.0749C135.419 47.2952 135.598 46.4189 135.405 45.4736L132.672 34.406C133.597 34.3646 134.446 33.9437 134.963 33.2468C135.529 32.4947 135.75 31.5632 135.577 30.6938L132.603 15.9692H137.24C137.93 15.9692 138.489 15.4103 138.489 14.7203V1.74141C138.489 1.05141 137.93 0.492508 137.24 0.492508H137.261ZM36.3415 106.511V15.9554H42.5722V106.58H36.3415V106.511ZM33.8437 106.511H6.59556C6.43686 106.511 6.25057 106.414 6.15397 106.29C6.03667 106.132 5.98147 105.918 6.01596 105.787C6.01596 105.766 6.02977 105.745 6.02977 105.724L8.90707 94.0634H33.8437V106.504V106.511ZM33.8437 91.5656H6.59556C6.43686 91.5656 6.25057 91.469 6.15397 91.3448C6.03667 91.1861 5.98147 90.9722 6.01596 90.8411C6.01596 90.8204 6.02977 90.7997 6.02977 90.779L8.89326 79.1732H33.8437V91.5656ZM33.8437 76.6754H8.27917C8.27917 76.6754 8.24467 76.6616 8.22397 76.6547C8.00317 76.5995 7.78236 76.6133 7.57537 76.6754H6.58867C6.42997 76.6754 6.24367 76.5788 6.14707 76.4546C6.02977 76.2959 5.97457 76.082 6.00907 75.9509C6.00907 75.9302 6.02286 75.9095 6.02286 75.8888L8.88636 64.283H33.8368V76.6685L33.8437 76.6754ZM33.8437 61.7852H8.27917C8.27917 61.7852 8.24467 61.7714 8.22397 61.7645C8.00317 61.7093 7.77547 61.7231 7.57537 61.7852H6.59556C6.43686 61.7852 6.25057 61.6886 6.15397 61.5644C6.03667 61.4057 5.98147 61.1918 6.01596 61.0607C6.01596 61.04 6.02977 61.0193 6.02977 60.9986L8.90707 49.3376H33.8437V61.7783V61.7852ZM33.8437 46.8398H6.59556C6.43686 46.8398 6.25057 46.7432 6.15397 46.619C6.03667 46.4603 5.98147 46.2464 6.01596 46.1153C6.01596 46.0946 6.02977 46.0739 6.02977 46.0532L8.90707 34.3922H33.8437V46.8398ZM33.8437 15.9485V31.8944H6.48517C6.29886 31.8944 6.14707 31.8323 6.01596 31.6874C5.94007 31.5701 5.83657 31.3769 5.87797 31.1699L8.95537 15.9485H33.8506H33.8437Z" fill="#1E3C6F"/>
<path d="M122.902 120.78H91.0237C90.9754 120.78 90.9271 120.78 90.8788 120.787C90.8443 120.787 90.8167 120.801 90.7822 120.801C90.7822 120.801 90.7753 120.801 90.7684 120.801C85.4761 121.477 85.2346 125.596 85.2208 129.115C85.2208 129.281 85.2208 129.454 85.2208 129.619C85.2208 132.821 87.8221 135.422 91.0237 135.422C94.2253 135.422 96.8266 132.821 96.8266 129.619C96.8266 128.384 96.3574 127.177 95.5708 126.224C95.2672 125.859 94.9153 125.521 94.5151 125.245C93.4249 124.492 92.1829 124.237 91.0237 124.52C90.8788 124.555 90.727 124.596 90.5821 124.651C88.8088 125.314 88.3879 126.79 88.2844 128.26C88.2499 128.722 88.2499 129.184 88.2499 129.619C88.2499 131.144 89.4919 132.386 91.0168 132.386C92.5417 132.386 93.7837 131.144 93.7837 129.619C93.7837 128.929 93.2248 128.37 92.5348 128.37C91.8448 128.37 91.2859 128.929 91.2859 129.619C91.2859 129.764 91.1686 129.888 91.0168 129.888C90.8719 129.888 90.7477 129.771 90.7477 129.619C90.7477 128.536 90.7822 127.908 90.934 127.515C90.9547 127.453 90.9823 127.404 91.0099 127.356C91.1134 127.183 91.2514 127.066 91.4515 126.997C91.8034 126.866 92.2036 126.894 92.6038 127.052C92.7625 127.114 92.9212 127.197 93.0799 127.301C93.8458 127.832 94.315 128.722 94.315 129.626C94.315 131.448 92.8315 132.931 91.0099 132.931C89.1883 132.931 87.7048 131.448 87.7048 129.626C87.7048 129.198 87.7048 128.798 87.7186 128.425C87.7945 125.058 88.3051 123.658 91.0099 123.299C91.0375 123.299 91.0582 123.292 91.0789 123.285C93.2179 123.306 95.0947 124.396 96.2263 126.038C96.9301 127.059 97.3441 128.294 97.3441 129.626C97.3441 133.124 94.5013 135.967 91.003 135.967C87.5047 135.967 84.6619 133.124 84.6619 129.626V10.8977H120.114V118.993C120.114 119.11 120.135 119.221 120.162 119.331C120.307 119.856 120.79 120.249 121.363 120.249C122.053 120.249 122.612 119.69 122.612 119V9.6488C122.612 8.9588 122.053 8.3999 121.363 8.3999H83.413C82.723 8.3999 82.1641 8.9588 82.1641 9.6488V129.619C82.1641 134.491 86.1316 138.458 91.003 138.458H122.881C127.752 138.458 131.72 134.491 131.72 129.619C131.72 124.748 127.752 120.78 122.881 120.78H122.902ZM122.902 135.96H97.1716C98.8276 134.353 99.8626 132.11 99.8626 129.619C99.8626 128.067 99.4555 126.604 98.7448 125.334C98.3239 124.575 97.7857 123.885 97.1647 123.285H122.895C126.393 123.285 129.236 126.128 129.236 129.626C129.236 133.124 126.393 135.967 122.895 135.967L122.902 135.96Z" fill="#FFA600"/>
</svg>
