<svg width="196" height="158" viewBox="0 0 196 158" fill="none" xmlns="http://www.w3.org/2000/svg">
<path d="M24.5303 18.859C23.6288 18.6667 22.9311 17.5639 22.79 16.6769C22.3589 13.9649 22.4647 5.44832 22.743 2.54796C22.8684 1.23319 23.131 0.424697 24.5421 0.0322266L188.59 0.197064L189.844 1.29598L190.13 84.8019C192.133 84.853 194.532 84.1583 195.218 86.5759C194.61 93.8916 196.064 102.585 195.233 109.728C195.034 111.451 194.422 112.079 192.686 112.279C190.691 112.51 184.404 112.561 182.51 112.247C181.742 112.122 180.641 111.604 180.409 110.819L180.699 85.7517C181.597 84.2486 183.929 84.9158 185.427 84.7941V18.859H24.5303ZM185.43 4.7301H27.47V14.1494H185.43V4.7301ZM190.526 89.5037H185.039V107.557H190.526V89.5037Z" fill="#FFA600"/>
<path d="M36.3796 42.894L168.373 42.8037C170.638 42.945 173.017 44.1656 173.758 46.438C174.201 47.7959 174.334 54.464 174.052 55.9397C173.801 57.2623 172.304 57.7686 171.14 57.7333L34.3296 57.7137C33.189 57.5724 31.9661 57.3997 31.5624 56.1673C31.1782 55.0056 31.2253 49.1382 31.4252 47.741C31.8093 45.0408 33.824 43.4591 36.3835 42.894H36.3796ZM169.748 53.004C169.552 51.6343 170.344 48.3768 168.964 47.7057L36.454 47.6821L36.0856 53.004H169.744H169.748Z" fill="#FFA600"/>
<path d="M36.384 102.549L168.377 102.459C170.548 102.604 173.065 103.946 173.766 106.089C174.209 107.455 174.343 114.111 174.06 115.591C173.81 116.914 172.312 117.42 171.148 117.385L34.338 117.365C33.1974 117.224 31.9745 117.051 31.5707 115.819C31.2101 114.724 31.218 108.684 31.4218 107.381C31.8137 104.865 33.9891 103.056 36.3919 102.545L36.384 102.549ZM169.753 112.659C169.557 111.29 170.349 108.032 168.969 107.361L36.4585 107.337L36.09 112.659H169.749H169.753Z" fill="#FFA600"/>
<path d="M35.5961 23.2704L169.925 23.1997C171.654 23.6667 173.296 25.0365 173.798 26.779C174.213 28.2233 174.327 34.4401 174.053 35.9236C173.868 36.9048 172.92 37.7211 171.928 37.7211L33.162 37.6936C30.7005 37.2227 31.1474 30.17 31.4257 28.1213C31.7039 26.0726 33.4364 23.6667 35.6 23.2743L35.5961 23.2704ZM169.749 32.9879C169.553 31.6182 170.345 28.3607 168.965 27.6896L38.2262 27.4776L36.141 27.9447L36.0861 32.9918H169.745L169.749 32.9879Z" fill="#FFA600"/>
<path d="M35.5961 82.9261L169.925 82.8555C171.654 83.3225 173.296 84.6922 173.798 86.4348C174.213 87.8791 174.327 94.0958 174.053 95.5794C173.868 96.5605 172.92 97.3769 171.928 97.3769L33.162 97.3494C30.7005 96.8784 31.1474 89.8257 31.4257 87.7771C31.7039 85.7284 33.4364 83.3225 35.6 82.93L35.5961 82.9261ZM169.749 92.6437C169.553 91.274 170.345 88.0165 168.965 87.3453L38.2262 87.1334L36.141 87.6004L36.0861 92.6476H169.745L169.749 92.6437Z" fill="#FFA600"/>
<path d="M35.5968 142.581L169.926 142.511C171.654 142.978 173.297 144.348 173.798 146.09C174.214 147.534 174.328 153.751 174.053 155.235C173.869 156.216 172.92 157.032 171.929 157.032L33.5704 156.989C30.5209 156.797 31.1167 149.709 31.4263 147.432C31.7164 145.293 33.4371 142.978 35.6007 142.585L35.5968 142.581ZM169.75 152.299C169.554 150.929 170.345 147.672 168.966 147.001L38.2269 146.789L36.1416 147.256L36.0868 152.303H169.746L169.75 152.299Z" fill="#FFA600"/>
<path d="M173.583 76.8546L171.537 77.357H33.5275C30.5094 77.2942 31.1483 70.3985 31.3914 68.1182C31.7284 64.9628 33.8921 62.9416 37.0591 62.8042L169.174 62.8121C175.574 63.5852 174.391 72.3883 173.579 76.8586L173.583 76.8546ZM169.362 67.5256H36.6828C35.4834 68.8836 36.3379 71.2776 36.0949 73.0202H169.166C170.263 72.5021 169.687 67.7336 169.362 67.5256Z" fill="#FFA600"/>
<path d="M173.583 136.51L171.537 137.012H33.5275C30.5094 136.949 31.1483 130.054 31.3914 127.774C31.7284 124.618 33.8921 122.597 37.0591 122.459L169.174 122.467C175.574 123.24 174.391 132.044 173.579 136.514L173.583 136.51ZM169.362 127.181H36.6828C35.4834 128.539 36.3379 130.933 36.0949 132.675H169.166C170.263 132.157 169.687 127.389 169.362 127.181Z" fill="#FFA600"/>
<circle cx="35.5" cy="58.0322" r="33" fill="white" stroke="#FFA600" stroke-width="4"/>
</svg>
