<svg width="142" height="142" viewBox="0 0 142 142" fill="none" xmlns="http://www.w3.org/2000/svg">
<path d="M30.4581 62.2657L37.265 63.0736L41.6077 52.6349L36.2349 48.3972C39.3783 43.4489 43.5794 39.2589 48.5359 36.1285L52.7211 41.5499L63.2244 37.2193C62.9578 34.8803 62.7033 32.7028 62.4407 30.4244C68.1338 29.0982 74.0574 29.1148 79.743 30.4729C79.4521 32.7594 79.1774 34.9166 78.8865 37.2476L89.3495 41.6145L93.5751 36.2336C98.5924 39.3805 102.555 43.4607 105.852 48.5104L100.459 52.6915C101.889 56.1738 103.311 59.6277 104.773 63.1948L111.354 62.4313C112.901 65.7277 112.946 75.4757 111.423 79.6851L104.761 78.9498C103.319 82.3836 101.901 85.773 100.398 89.3562L105.783 93.6061C102.634 98.5393 98.4486 102.728 93.5185 105.883L89.297 100.466L78.7936 104.776C79.0603 107.046 79.3188 109.22 79.6016 111.583C73.908 112.912 67.9848 112.912 62.2913 111.583L63.0992 104.784L52.6282 100.413L48.4309 105.806C43.4725 102.663 39.276 98.4555 36.146 93.4889L41.5876 89.3481L37.2368 78.8448L30.4298 79.6245C29.1077 73.9126 29.1174 67.9732 30.4581 62.2657ZM96.6049 70.9633C96.6076 67.5924 95.9427 64.2544 94.6484 61.1419C93.354 58.0295 91.456 55.2043 89.0638 52.8294C86.6716 50.4545 83.8327 48.577 80.7109 47.3052C77.5892 46.0335 74.2465 45.3927 70.8757 45.42C67.5209 45.4295 64.2009 46.1003 61.1055 47.394C58.0102 48.6878 55.2003 50.5791 52.8365 52.9597C50.4728 55.3404 48.6015 58.1637 47.3298 61.2682C46.0581 64.3726 45.411 67.6973 45.4253 71.0521C45.421 74.4253 46.0849 77.7658 47.3789 80.8809C48.6728 83.9959 50.5712 86.8238 52.9642 89.201C55.3572 91.5783 58.1975 93.4579 61.3211 94.7312C64.4446 96.0045 67.7895 96.6464 71.1625 96.6197C74.5194 96.6102 77.8414 95.9386 80.9384 94.6433C84.0353 93.348 86.8462 91.4546 89.2103 89.0714C91.5744 86.6881 93.4452 83.862 94.7154 80.7547C95.9857 77.6474 96.6305 74.3201 96.613 70.9633H96.6049Z" fill="#FFA600"/>
<path d="M31.4036 28.8566L40.6304 37.8168C39.6689 38.7621 38.7721 39.6347 37.843 40.5396L29.0161 31.4946C23.821 32.25 21.3406 31.3249 19.9348 28.3274C19.3457 27.1072 19.1686 25.7288 19.4302 24.3993C19.6917 23.0698 20.3777 21.8611 21.385 20.9549C22.3833 20.0376 23.6509 19.4668 24.9994 19.327C26.3479 19.1873 27.7055 19.4862 28.8707 20.1793C31.5571 21.7831 32.4257 24.4372 31.4036 28.8566ZM27.7921 25.6249C27.7997 25.0511 27.5809 24.4974 27.1832 24.0838C26.7855 23.6702 26.2408 23.4299 25.6672 23.4151C25.0951 23.4369 24.5514 23.6698 24.1411 24.0689C23.7307 24.4681 23.4829 25.0052 23.4453 25.5764C23.4536 26.1499 23.6846 26.6977 24.0894 27.104C24.4942 27.5104 25.0412 27.7434 25.6147 27.7538C25.8971 27.7636 26.1786 27.7163 26.4424 27.6149C26.7062 27.5135 26.9469 27.3601 27.1501 27.1636C27.3534 26.9672 27.5149 26.7319 27.6252 26.4717C27.7355 26.2115 27.7923 25.9317 27.7921 25.6491V25.6249Z" fill="#1E3C6F"/>
<path d="M104.509 40.7177C103.253 39.5664 102.328 38.7261 101.277 37.7687L110.516 28.7641C109.676 23.9972 110.605 21.4521 113.554 19.9857C114.763 19.3753 116.137 19.1714 117.471 19.4043C118.805 19.6372 120.028 20.2945 120.959 21.2784C121.9 22.2553 122.499 23.511 122.666 24.857C122.832 26.2031 122.558 27.5669 121.884 28.7439C120.325 31.5071 117.707 32.3797 113.441 31.495L104.509 40.7177ZM116.224 27.7703C116.799 27.8081 117.365 27.6167 117.799 27.2382C118.233 26.8597 118.499 26.3248 118.539 25.7504C118.552 25.1786 118.349 24.6229 117.97 24.1945C117.591 23.7661 117.064 23.4966 116.495 23.4397C115.925 23.4066 115.366 23.6005 114.939 23.9791C114.512 24.3576 114.252 24.89 114.217 25.4596C114.186 25.7469 114.215 26.0375 114.302 26.313C114.389 26.5884 114.533 26.8428 114.724 27.06C114.914 27.2772 115.148 27.4524 115.41 27.5747C115.671 27.697 115.956 27.7636 116.245 27.7703H116.224Z" fill="#1E3C6F"/>
<path d="M110.514 113.361L101.154 104.255L104.293 101.649L113.031 110.565C117.843 109.628 120.452 110.565 121.963 113.393C122.611 114.584 122.853 115.954 122.653 117.296C122.452 118.637 121.82 119.876 120.852 120.826C119.901 121.791 118.662 122.422 117.321 122.623C115.981 122.824 114.612 122.585 113.419 121.941C110.555 120.434 109.638 117.837 110.514 113.361ZM114.235 116.431C114.249 117.004 114.488 117.548 114.901 117.945C115.314 118.342 115.868 118.56 116.441 118.552C117.01 118.507 117.542 118.253 117.935 117.839C118.328 117.425 118.554 116.88 118.57 116.31C118.546 115.736 118.297 115.195 117.876 114.804C117.456 114.414 116.897 114.205 116.324 114.225C116.039 114.225 115.758 114.283 115.497 114.396C115.236 114.508 115 114.673 114.805 114.879C114.61 115.085 114.458 115.329 114.36 115.596C114.262 115.863 114.22 116.147 114.235 116.431Z" fill="#1E3C6F"/>
<path d="M28.7136 110.537L37.799 101.245L40.5864 104.38L31.497 113.162C32.3413 118.034 31.4283 120.539 28.4793 122.017C27.2725 122.633 25.8986 122.841 24.5636 122.611C23.2285 122.38 22.0043 121.722 21.0744 120.737C20.1324 119.762 19.5315 118.508 19.3618 117.163C19.1922 115.818 19.4628 114.454 20.1331 113.275C21.6844 110.496 24.3143 109.607 28.7136 110.537ZM27.7965 116.402C27.8064 116.118 27.7586 115.835 27.656 115.569C27.5534 115.304 27.3981 115.062 27.1996 114.858C27.0011 114.654 26.7634 114.493 26.5008 114.383C26.2382 114.274 25.9562 114.218 25.6716 114.221C25.0978 114.213 24.5438 114.431 24.129 114.828C23.7142 115.224 23.4718 115.768 23.4538 116.342C23.4795 116.909 23.7139 117.448 24.112 117.853C24.5101 118.259 25.0439 118.503 25.611 118.539C26.1827 118.54 26.7319 118.317 27.1407 117.918C27.5494 117.518 27.7849 116.974 27.7965 116.402Z" fill="#1E3C6F"/>
<path d="M72.9996 13.1385V26.0293H69.0972V13.1829C65.114 10.8156 64.0799 8.21402 64.9969 4.91354C65.724 2.29983 68.3216 0.506177 71.1009 0.542535C72.419 0.561545 73.6984 0.990763 74.7612 1.77051C75.824 2.55026 76.6175 3.64179 77.0313 4.89335C78.017 8.02819 76.9142 10.3713 72.9996 13.1385ZM68.8791 6.85264C68.8791 8.06457 69.9011 9.11893 71.0646 9.01794C71.6139 9.01475 72.1398 8.79482 72.5279 8.40599C72.9159 8.01715 73.1349 7.49086 73.137 6.9415C73.1626 6.6551 73.1275 6.3665 73.034 6.09457C72.9405 5.82265 72.7907 5.57351 72.5944 5.36343C72.398 5.15335 72.1595 4.98708 71.8945 4.87545C71.6295 4.76382 71.344 4.70934 71.0565 4.7156C70.7697 4.69905 70.4826 4.74267 70.2136 4.84367C69.9446 4.94466 69.6997 5.10079 69.4946 5.30203C69.2896 5.50328 69.1289 5.74521 69.0229 6.01224C68.9169 6.27928 68.8679 6.56555 68.8791 6.85264Z" fill="#1E3C6F"/>
<path d="M69.0263 128.909V115.982H72.9368V128.82C76.8957 131.612 78.0188 133.967 77.0331 137.114C76.6069 138.397 75.7816 139.511 74.6776 140.292C73.5737 141.074 72.2489 141.482 70.8967 141.457C69.5444 141.437 68.2344 140.982 67.1605 140.16C66.0867 139.338 65.306 138.192 64.934 136.892C64.0816 133.761 65.2531 131.369 69.0263 128.909ZM73.1347 135.223C73.1455 134.937 73.0998 134.652 73.0003 134.384C72.9007 134.115 72.7493 133.869 72.5545 133.659C72.3598 133.45 72.1256 133.28 71.8654 133.161C71.6052 133.042 71.3241 132.975 71.0381 132.965C70.751 132.965 70.4669 133.023 70.2026 133.135C69.9383 133.247 69.6991 133.411 69.4992 133.617C69.2992 133.823 69.1426 134.067 69.0384 134.335C68.9343 134.602 68.8849 134.888 68.893 135.175C68.9414 136.431 69.6039 137.195 70.8845 137.271C71.1709 137.304 71.4609 137.276 71.7352 137.187C72.0095 137.099 72.2617 136.953 72.4749 136.758C72.688 136.564 72.8572 136.327 72.971 136.062C73.0848 135.797 73.1406 135.511 73.1347 135.223Z" fill="#1E3C6F"/>
<path d="M13.1356 72.9101C10.6632 76.756 8.2394 77.9396 5.12072 77.0751C3.82065 76.7026 2.67525 75.921 1.85442 74.8462C1.0336 73.7714 0.581041 72.4607 0.56387 71.1084C0.535703 69.7555 0.942371 68.4292 1.72409 67.3246C2.50581 66.2201 3.62132 65.3954 4.9066 64.972C8.00912 63.9904 10.3683 65.1134 13.1517 69.0118H26.0143V72.9182L13.1356 72.9101ZM6.83357 68.8704C6.55039 68.8579 6.26775 68.9052 6.00404 69.0091C5.74033 69.1131 5.50145 69.2714 5.30293 69.4737C5.10441 69.676 4.95072 69.9179 4.85181 70.1835C4.7529 70.4491 4.711 70.7326 4.72885 71.0155C4.71627 71.2994 4.76376 71.5828 4.86818 71.8471C4.9726 72.1114 5.13161 72.3507 5.33484 72.5493C5.53806 72.748 5.7809 72.9015 6.04751 72.9999C6.31412 73.0982 6.5985 73.1392 6.88204 73.1202C7.45231 73.115 7.99805 72.8876 8.40318 72.4862C8.80832 72.0848 9.04088 71.5413 9.05138 70.9711C9.02725 70.4017 8.78207 69.8641 8.36795 69.4727C7.95383 69.0812 7.40339 68.8666 6.83357 68.8744V68.8704Z" fill="#1E3C6F"/>
<path d="M115.963 73.0398V69.0525H128.761C131.508 64.8189 134.045 64.0029 137.394 65.0976C139.947 65.9298 141.534 68.4628 141.433 71.2098C141.395 72.526 140.946 73.7972 140.149 74.8455C139.353 75.8937 138.248 76.6664 136.99 77.0553C133.863 77.9723 131.488 76.8169 128.91 73.0398H115.963ZM137.297 71.0199C137.317 70.7368 137.278 70.4525 137.182 70.1856C137.085 69.9187 136.933 69.6752 136.736 69.4708C136.539 69.2665 136.301 69.1061 136.038 68.9999C135.775 68.8937 135.492 68.8442 135.208 68.8546C134.637 68.8402 134.083 69.0499 133.665 69.4387C133.247 69.8275 132.997 70.3646 132.97 70.9351C132.976 71.505 133.204 72.0502 133.605 72.4551C134.006 72.86 134.549 73.0929 135.119 73.1044C135.401 73.1266 135.685 73.0892 135.951 72.9949C136.218 72.9005 136.462 72.7512 136.667 72.5566C136.872 72.362 137.035 72.1264 137.143 71.8652C137.252 71.604 137.304 71.3229 137.297 71.0401V71.0199Z" fill="#1E3C6F"/>
<path d="M84.8607 68.1075V84.2422H74.3331V76.0254H67.8291V84.2018H57.1602V67.1258C58.3196 66.1482 59.7577 64.9363 61.1313 63.785V57.3497H65.0942C65.2235 57.7819 65.3528 58.2061 65.6194 59.0988L70.1682 53.5806C75.2542 58.6141 79.8676 63.1709 84.8607 68.1075Z" fill="#1E3C6F"/>
</svg>
