<svg width="126" height="126" viewBox="0 0 126 126" fill="none" xmlns="http://www.w3.org/2000/svg">
<path d="M105.183 123.428C105.183 123.372 105.183 123.31 105.183 123.254C105.183 123.143 105.183 123.037 105.176 122.92C105.176 122.858 105.176 122.796 105.17 122.734C105.17 122.616 105.164 122.504 105.158 122.38C105.158 122.287 105.152 122.188 105.145 122.095C105.145 122.002 105.139 121.903 105.133 121.804C105.133 121.717 105.127 121.63 105.121 121.543C105.121 121.432 105.108 121.314 105.102 121.196C105.102 121.122 105.09 121.041 105.09 120.96C105.083 120.824 105.071 120.694 105.065 120.551C105.065 120.471 105.052 120.39 105.046 120.316C105.034 120.173 105.028 120.03 105.015 119.888C105.009 119.795 105.003 119.696 104.997 119.596C104.984 119.46 104.978 119.33 104.966 119.187C104.959 119.076 104.947 118.958 104.941 118.84C104.928 118.716 104.922 118.592 104.91 118.462C104.897 118.332 104.885 118.195 104.879 118.059C104.866 117.941 104.86 117.829 104.848 117.712C104.835 117.594 104.829 117.47 104.817 117.352C104.804 117.209 104.792 117.073 104.78 116.93C104.767 116.819 104.761 116.701 104.749 116.589C104.736 116.441 104.724 116.286 104.705 116.131C104.693 116.013 104.68 115.889 104.674 115.771C104.662 115.616 104.643 115.461 104.631 115.306C104.618 115.188 104.606 115.064 104.594 114.94C104.581 114.785 104.563 114.63 104.55 114.469C104.538 114.339 104.525 114.202 104.513 114.072C104.494 113.917 104.482 113.762 104.463 113.601C104.451 113.483 104.439 113.359 104.426 113.235C104.408 113.068 104.389 112.894 104.37 112.721C104.358 112.572 104.339 112.423 104.321 112.274C104.308 112.132 104.29 111.983 104.277 111.84C104.259 111.679 104.24 111.512 104.228 111.35C104.215 111.208 104.197 111.065 104.184 110.923C104.166 110.749 104.147 110.575 104.129 110.402C104.116 110.272 104.098 110.141 104.085 110.011C104.06 109.813 104.042 109.614 104.017 109.422C104.005 109.311 103.992 109.193 103.98 109.081C103.961 108.895 103.936 108.709 103.918 108.523C103.905 108.393 103.887 108.263 103.874 108.126C103.856 107.947 103.831 107.761 103.812 107.581C103.8 107.451 103.781 107.314 103.769 107.184C103.744 106.967 103.719 106.756 103.695 106.539C103.682 106.434 103.67 106.335 103.657 106.229C103.626 105.987 103.602 105.739 103.571 105.498C103.564 105.423 103.552 105.343 103.546 105.268C103.521 105.051 103.496 104.834 103.465 104.617C103.453 104.506 103.44 104.388 103.422 104.276C103.397 104.053 103.366 103.83 103.341 103.607C103.329 103.507 103.316 103.414 103.304 103.315C103.273 103.067 103.242 102.825 103.211 102.577C103.199 102.497 103.192 102.422 103.18 102.342C103.149 102.094 103.118 101.84 103.087 101.592C103.075 101.517 103.068 101.437 103.056 101.362C103.025 101.114 102.994 100.872 102.963 100.624C102.951 100.544 102.944 100.463 102.932 100.376C102.901 100.128 102.87 99.8804 102.839 99.6262C102.827 99.5518 102.82 99.4774 102.808 99.3968C102.771 99.124 102.74 98.845 102.703 98.5722C102.703 98.5288 102.69 98.4792 102.684 98.4358C102.647 98.1382 102.61 97.8468 102.572 97.5492C102.572 97.543 102.572 97.5306 102.572 97.5244C102.572 97.5058 102.572 97.4934 102.566 97.4748C102.523 97.1524 102.486 96.8362 102.442 96.52C102.393 96.1294 102.343 95.7388 102.287 95.3544C102.256 95.125 102.225 94.8956 102.2 94.6662C102.2 94.6476 102.2 94.6228 102.194 94.598C102.132 94.1454 102.076 93.6928 102.014 93.2464C102.002 93.1286 101.983 93.0108 101.971 92.8992C101.946 92.7318 101.928 92.5706 101.903 92.4032C101.89 92.304 101.878 92.2048 101.866 92.1056C101.866 92.0932 101.866 92.0808 101.866 92.0622C101.804 91.6158 101.748 91.1756 101.686 90.7416C101.673 90.63 101.655 90.5184 101.642 90.4068C101.63 90.3262 101.624 90.2456 101.611 90.165C101.599 90.0782 101.587 89.9914 101.574 89.9046C101.562 89.8054 101.549 89.7062 101.537 89.607C101.525 89.5388 101.518 89.4706 101.506 89.4024C101.481 89.204 101.45 89.0056 101.425 88.8072C101.363 88.367 101.308 87.9392 101.246 87.5114C101.239 87.4432 101.227 87.3812 101.221 87.313C101.153 86.8108 101.084 86.321 101.016 85.8436C100.985 85.639 100.96 85.4344 100.929 85.236C100.799 84.306 100.675 83.4318 100.564 82.6258C100.557 82.5824 100.551 82.5328 100.545 82.4832C100.508 82.2166 100.471 81.9562 100.433 81.702C100.049 78.9616 99.7823 77.1574 99.7389 76.8412C99.7265 76.742 99.6955 76.6428 99.6521 76.556C99.6521 76.5498 99.6521 76.5436 99.6521 76.5374L87.9031 51.0802C87.0351 49.2016 85.1441 47.9926 83.0733 47.9926H82.7819V37.279C82.7819 34.7432 80.7173 32.6724 78.1815 32.6724H52.1167C49.5809 32.6724 47.5163 34.737 47.5163 37.279V57.2182L43.3747 60.498C42.8787 60.8762 42.4633 61.4342 42.1347 62.1534C41.4217 63.7344 41.5209 65.644 42.3951 67.256C43.2197 68.7812 44.6085 69.798 46.2019 70.046C46.2701 70.0584 46.3445 70.0646 46.4127 70.077L44.1745 71.8502C43.6785 72.2284 43.2631 72.7864 42.9345 73.5056C42.2215 75.0866 42.3207 76.9962 43.1949 78.6082C44.0195 80.1334 45.4083 81.1502 47.0017 81.3982C47.1753 81.423 47.3489 81.4416 47.5225 81.454V81.7392L43.7529 84.7214C43.2569 85.0996 42.8415 85.6576 42.5129 86.3768C42.0231 87.468 41.9239 88.708 42.1905 89.9046C42.3083 90.444 42.5005 90.9772 42.7733 91.4794C42.8911 91.6964 43.0275 91.901 43.1639 92.0994C44.0009 93.2774 45.2161 94.0586 46.5801 94.2694C46.7599 94.2942 46.9335 94.3128 47.1133 94.319C47.2497 94.3252 47.3861 94.3314 47.5225 94.3252V95.1436L47.1939 95.342L46.8591 95.5466C46.3631 95.838 45.9229 96.303 45.5447 96.923C45.4269 97.1214 45.3277 97.326 45.2347 97.5368C44.7077 98.783 44.6891 100.246 45.2161 101.585C45.7989 103.061 46.9459 104.14 48.3657 104.537C50.2567 105.07 52.1849 104.45 53.6543 103.855C53.8155 103.793 53.9829 103.712 54.1441 103.638H63.1093C63.5061 104.282 64.2563 105.386 65.6575 107.401C66.3891 108.455 67.2943 109.757 68.4289 111.375C70.5803 114.457 72.7255 117.519 73.5873 118.741C74.5917 121.742 75.3977 123.974 75.4845 124.222C75.5279 124.339 75.5961 124.445 75.6705 124.544C75.6953 124.575 75.7201 124.606 75.7511 124.637C75.7759 124.662 75.8007 124.687 75.8317 124.705C75.8627 124.73 75.8875 124.749 75.9185 124.773C75.9495 124.792 75.9805 124.811 76.0115 124.829C76.0425 124.848 76.0735 124.86 76.1045 124.873C76.1355 124.885 76.1727 124.897 76.2037 124.91C76.2409 124.922 76.2719 124.928 76.3091 124.941C76.3401 124.947 76.3773 124.953 76.4083 124.953C76.4455 124.953 76.4827 124.959 76.5199 124.959C76.5571 124.959 76.5881 124.959 76.6253 124.959C76.6625 124.959 76.6997 124.953 76.7369 124.947C76.7741 124.941 76.8113 124.928 76.8485 124.916C76.8733 124.91 76.8919 124.91 76.9167 124.897C76.9291 124.897 76.9415 124.885 76.9539 124.879C76.9911 124.866 77.0221 124.848 77.0593 124.829C77.0965 124.811 77.1275 124.792 77.1585 124.773C77.1833 124.755 77.2081 124.736 77.2267 124.718C77.2701 124.68 77.3135 124.643 77.3569 124.6C77.3755 124.581 77.3941 124.563 77.4127 124.538C77.4561 124.488 77.4871 124.432 77.5181 124.377C77.5243 124.364 77.5367 124.352 77.5429 124.339C77.6173 124.191 77.6545 124.023 77.6545 123.85C77.6545 123.85 77.6545 123.85 77.6545 123.843C77.6545 123.713 77.6359 123.583 77.5925 123.459C77.5801 123.428 77.3259 122.721 76.9353 121.599C76.6749 120.861 76.3587 119.937 76.0053 118.883C76.0053 118.883 76.0053 118.871 76.0053 118.865C75.8813 118.499 75.7573 118.127 75.6271 117.736C74.1515 113.297 72.2853 107.302 71.6901 103.644C71.6219 103.241 71.5723 102.863 71.5413 102.522C71.5165 102.261 71.4979 102.013 71.4917 101.79C71.4917 101.728 71.4979 101.66 71.4917 101.598C71.4917 101.53 71.4855 101.468 71.4793 101.399C71.4359 100.829 71.4111 100.308 71.4111 99.8246C71.4111 99.7998 71.4111 99.7688 71.4111 99.744L71.2561 97.5368L71.1011 95.342L70.8717 92.0994L70.7539 90.4192C70.7415 90.2456 70.7167 90.0782 70.6981 89.9046C70.6237 89.173 70.5183 88.4476 70.3633 87.7284C70.2083 87.034 70.0161 86.3396 69.7867 85.6638C69.6565 85.2794 69.5139 84.895 69.3589 84.5168C69.3589 84.5044 69.3527 84.4982 69.3465 84.4858L68.8443 83.3698L65.7009 76.37L64.9135 74.4666L64.4485 73.3444L63.6239 71.348L63.1527 70.201L61.1315 65.303C61.0013 64.962 60.9145 64.6086 60.8525 64.249C60.7905 63.877 60.7595 63.4988 60.7781 63.1268C60.7843 62.9594 60.7905 62.792 60.8153 62.6246C60.8153 62.606 60.8215 62.5812 60.8215 62.5564C60.8463 62.4014 60.8711 62.2464 60.9083 62.0914C60.9145 62.0666 60.9269 62.0294 60.9331 62.0108C60.9331 62.0108 60.9331 62.0046 60.9331 61.9984C60.9393 61.9674 60.9517 61.9364 60.9579 61.9054L60.9827 61.8186C60.9827 61.8186 61.0013 61.7628 61.0137 61.7318C61.0447 61.6264 61.0757 61.521 61.1129 61.4218C61.1377 61.3536 61.1625 61.2854 61.1935 61.2172C61.2493 61.0808 61.3175 60.9444 61.3857 60.808L61.4663 60.653C61.4663 60.653 61.4973 60.5972 61.4911 60.6034C61.5097 60.5662 61.5345 60.529 61.5655 60.4856C61.5965 60.436 61.6337 60.3802 61.6833 60.312C61.7143 60.2686 61.7453 60.219 61.7701 60.1694C61.7825 60.1446 61.7949 60.126 61.8135 60.1012C61.8569 60.0454 61.9003 59.9958 61.9499 59.94C62.3405 59.4688 62.8365 59.1092 63.4069 58.8798C63.8285 58.7124 64.2873 58.6132 64.7585 58.607C64.8329 58.607 64.9073 58.607 64.9879 58.607C65.0065 58.607 65.0251 58.607 65.0375 58.607C65.0809 58.6132 65.1243 58.6194 65.1739 58.6256H65.2297C65.3103 58.638 65.3909 58.6442 65.4839 58.6628C65.5149 58.669 65.5459 58.6814 65.5707 58.6814C65.9427 58.7496 66.3023 58.8674 66.6371 59.0224C67.2509 59.3014 67.7903 59.7106 68.2367 60.219C68.3049 60.2996 68.3731 60.3802 68.4351 60.4608C68.6335 60.7212 68.8071 61.0002 68.9497 61.2978L69.0861 61.583L69.2783 61.9922L69.8053 63.1144L70.3323 64.2366L73.3703 70.6846L73.9097 71.8378L74.0089 72.0548L74.6599 73.3382L75.2303 74.4604L80.5561 84.9694L80.7421 85.3414C80.9281 85.7072 81.2939 85.9242 81.6783 85.949C81.8581 85.9614 82.0441 85.9304 82.2177 85.8498L82.5773 85.6824L82.6269 84.4176L82.7695 80.9208L82.8005 80.0838V50.2184H83.0919C83.3895 50.2184 83.6809 50.2618 83.9599 50.3424C84.7969 50.5904 85.5037 51.1856 85.8819 51.9978L96.7505 75.5516H96.7195L97.3023 76.7792L97.5689 77.3434L97.7611 77.7526L97.7363 78.5028C98.0339 80.5612 98.6353 84.7772 99.3235 89.8922C99.4227 90.6052 99.5219 91.343 99.6211 92.087C99.7637 93.1472 99.9063 94.226 100.049 95.3296C100.142 96.055 100.241 96.7866 100.334 97.5244C101.246 104.561 102.138 112.057 102.622 117.6C102.684 118.307 102.74 118.989 102.783 119.627C102.814 120.055 102.845 120.464 102.864 120.855C102.882 121.115 102.895 121.363 102.907 121.605C102.926 121.915 102.938 122.213 102.951 122.492C102.969 122.913 102.975 123.298 102.975 123.657C102.975 123.726 102.975 123.794 102.975 123.856C102.975 124.476 103.478 124.978 104.098 124.978C104.718 124.978 105.22 124.476 105.22 123.856C105.22 123.707 105.22 123.552 105.22 123.391L105.183 123.428ZM45.2781 67.3118C44.9061 67.0328 44.5837 66.6546 44.3419 66.202C43.7963 65.1976 43.7281 64.0382 44.1559 63.0896C44.3791 62.5936 44.5961 62.3766 44.7201 62.2836L47.4853 60.095V67.8512C47.1567 67.8822 46.8343 67.8884 46.5119 67.8388C46.0655 67.7706 45.6439 67.5846 45.2719 67.3056L45.2781 67.3118ZM47.3117 79.1972C46.8467 79.1228 46.4127 78.9244 46.0283 78.6268C45.6749 78.3478 45.3711 77.9882 45.1355 77.5542C44.7201 76.7854 44.5837 75.9236 44.7325 75.1424C44.7511 75.0308 44.7821 74.9192 44.8131 74.8076C44.8503 74.6836 44.8937 74.5596 44.9495 74.4418C45.1727 73.9458 45.3897 73.7288 45.5137 73.6358L47.4853 72.0796V79.2096C47.4295 79.2096 47.3675 79.2096 47.3117 79.1972ZM47.2621 92.0994C47.1381 92.0994 47.0141 92.0932 46.8901 92.0684C46.4437 92.0002 46.0221 91.8142 45.6501 91.5352C45.2781 91.2562 44.9557 90.878 44.7139 90.4254C44.6271 90.2642 44.5527 90.0906 44.4907 89.917C44.2613 89.3032 44.1931 88.6584 44.2985 88.057C44.3419 87.7966 44.4163 87.5486 44.5279 87.313C44.5899 87.1766 44.6519 87.065 44.7077 86.9658C44.8627 86.7116 44.9991 86.5752 45.0921 86.507L47.4853 84.616V92.0994C47.4109 92.0994 47.3365 92.0994 47.2621 92.0994ZM47.6403 101.461C47.4915 101.257 47.3675 101.034 47.2683 100.786C47.0637 100.271 46.9955 99.7316 47.0575 99.2232C47.0761 99.0558 47.1133 98.8884 47.1629 98.7272C47.2249 98.5102 47.3179 98.3056 47.4295 98.1196C47.4481 98.0886 47.4667 98.0638 47.4853 98.0328V99.0682C47.4853 100.376 48.0371 101.561 48.9175 102.398C48.4153 102.249 47.9689 101.92 47.6403 101.468V101.461ZM69.3775 103.669C69.7061 105.82 70.4439 108.715 71.3057 111.654C69.9851 109.769 68.7017 107.922 67.6229 106.372C66.8851 105.305 66.2403 104.382 65.7567 103.669H69.3775ZM71.5227 61.6078L70.9957 60.4856L70.9399 60.3678C70.7477 59.9524 70.5059 59.5742 70.2393 59.2084C69.2163 57.8258 67.7097 56.84 66.0109 56.5114C65.9737 56.499 65.9303 56.4928 65.8931 56.4866C65.7319 56.4556 65.5645 56.437 65.4033 56.4246H65.3537C65.2917 56.406 65.2297 56.3998 65.1615 56.3936C65.1615 56.3936 65.1491 56.3936 65.1367 56.3936C65.1243 56.3936 65.1119 56.3936 65.1057 56.3936C64.9383 56.3812 64.7709 56.3812 64.6345 56.3936C62.7869 56.4184 61.0323 57.3236 59.9473 58.8054C59.8915 58.8798 59.8419 58.9542 59.7985 59.0348L59.7861 59.0596C59.6807 59.2084 59.5815 59.3572 59.4885 59.5122C59.4699 59.5432 59.4513 59.5804 59.4513 59.5804C59.4203 59.63 59.3955 59.6858 59.3707 59.7416L59.3459 59.7974C59.2467 59.9834 59.1537 60.1756 59.0731 60.374C59.0359 60.467 58.9987 60.5662 58.9615 60.6592C58.8933 60.8452 58.8313 61.0374 58.7755 61.2234L58.7569 61.2854C58.7321 61.3598 58.7135 61.428 58.7073 61.4652C58.7011 61.49 58.6825 61.552 58.6763 61.5768C58.6391 61.7256 58.6205 61.8744 58.5895 62.0294H56.7605C55.4585 62.0294 54.4045 60.9692 54.4045 59.6734V58.0428C54.4045 56.7408 55.4647 55.6868 56.7605 55.6868H73.6679C74.9699 55.6868 76.0239 56.747 76.0239 58.0428V59.6734C76.0239 60.9754 74.9637 62.0294 73.6679 62.0294H71.7149L71.5227 61.6202V61.6078ZM80.5065 48.005V80.0218L77.6979 74.4852L77.1275 73.363L76.4331 71.9928L75.9805 71.1L75.8565 70.8396L72.7627 64.2676H73.6555C76.1913 64.2676 78.2559 62.203 78.2559 59.661V58.0304C78.2559 55.4946 76.1913 53.4238 73.6555 53.4238H56.7481C56.4133 53.4238 56.0909 53.461 55.7747 53.5292C54.3735 53.833 53.2079 54.7754 52.6003 56.0402C52.3089 56.6416 52.1415 57.3174 52.1415 58.0304V59.661C52.1415 62.1968 54.2061 64.2676 56.7419 64.2676H58.5027C58.5771 64.9124 58.7383 65.5448 58.9739 66.1586L60.8711 70.7528L61.3237 71.844L61.9499 73.363L62.4149 74.4852L63.5681 77.2814L66.2589 83.2706L66.7735 84.4176L67.1083 85.1678L67.2137 85.4034C67.3315 85.6886 67.4307 85.98 67.5299 86.2714C67.9453 87.4556 68.2243 88.6832 68.3669 89.9356C68.3917 90.1588 68.4227 90.382 68.4413 90.6114L68.5529 92.1366L68.7823 95.3792L68.9373 97.574L69.1047 99.899C69.1047 100.376 69.1295 100.885 69.1667 101.43H52.0671C50.7651 101.43 49.7111 100.37 49.7111 99.0744V96.4394V82.8552V70.3126V58.328V37.2976C49.7111 35.9956 50.7713 34.9416 52.0671 34.9416H78.1319C79.4339 34.9416 80.4879 36.0018 80.4879 37.2976V48.0112L80.5065 48.005Z" fill="#FFA600" stroke="#FFA600"/>
<path d="M73.3945 39.0273H56.4871C53.9513 39.0273 51.8867 41.0919 51.8867 43.6339V45.2645C51.8867 47.8003 53.9513 49.8711 56.4871 49.8711H73.3945C74.3059 49.8711 75.1553 49.5983 75.8683 49.1395C76.3333 48.8419 76.7425 48.4575 77.0711 48.0173C77.6477 47.2485 77.9949 46.2999 77.9949 45.2645V43.6339C77.9949 41.0981 75.9303 39.0273 73.3945 39.0273ZM75.7505 45.2583C75.7505 46.5603 74.6903 47.6143 73.3945 47.6143H56.4871C55.1851 47.6143 54.1311 46.5541 54.1311 45.2583V43.6277C54.1311 42.3257 55.1913 41.2717 56.4871 41.2717H73.3945C74.6965 41.2717 75.7505 42.3319 75.7505 43.6277V45.2583Z" fill="#FFA600" stroke="#FFA600"/>
<path d="M118.017 1.02152C117.725 1.02152 2.46725 1.02152 2.06425 1.02152C1.41945 1.01532 0.917249 1.82132 1.01645 2.42272C1.01645 2.42272 1.00405 13.8059 1.01645 13.8989V13.9113C1.01645 14.5065 1.51865 14.9963 2.11385 14.9963H7.85505V94.5175C7.85505 95.1189 8.35725 95.6149 8.95245 95.6149H43.4492C42.8726 94.9267 42.3456 94.1951 41.8744 93.4201H10.0498V90.1713H40.436C40.219 89.4087 40.1074 88.6709 40.1074 87.9765H10.0498V15.0025H109.628V87.9765H104.085C104.079 88.2307 104.067 88.4911 104.06 88.7453C104.079 88.8259 104.104 88.9065 104.116 88.9933C104.178 89.3901 104.222 89.7807 104.265 90.1713H109.628V93.4201H104.445C104.519 94.1517 104.581 94.8833 104.625 95.6149H110.775C111.376 95.6149 111.872 95.1127 111.823 94.5175V15.0025H118.01C121.854 15.0025 124.998 11.8591 124.998 7.95932C124.998 4.05952 121.861 1.02152 118.017 1.02152ZM3.26085 12.6961V3.32792C5.83385 3.40852 7.85505 5.46692 7.85505 8.01512C7.85505 10.5633 5.79045 12.6217 3.26085 12.7023V12.6961ZM8.49985 12.7023C8.41925 12.7023 8.33245 12.7023 8.24565 12.7023C9.37405 11.4499 10.0746 9.79452 10.0994 7.96552C10.0994 6.19232 9.40505 4.56172 8.27665 3.32792C8.35105 3.32792 8.42545 3.32792 8.49985 3.32792C11.1472 3.32792 13.2428 5.42352 13.2428 8.02132C13.2428 10.6191 11.0976 12.7147 8.49985 12.7147V12.7023ZM111.6 12.7519H13.59C14.7494 11.4933 15.4686 9.81312 15.4935 7.95932C15.4935 6.17992 14.799 4.54932 13.6706 3.31552H113.026C115.673 3.31552 117.769 5.41112 117.769 8.00892C117.769 12.4171 114.65 12.7519 111.606 12.7519H111.6ZM118.221 12.6899C119.343 11.4375 120.032 9.78212 120.007 7.95932C120.007 6.18612 119.312 4.56172 118.19 3.32172C120.751 3.41472 122.753 5.46692 122.753 8.00892C122.753 10.5509 120.72 12.5845 118.221 12.6899Z" fill="#1E3C6F" stroke="#1E3C6F"/>
</svg>
