<svg width="172" height="172" viewBox="0 0 172 172" fill="none" xmlns="http://www.w3.org/2000/svg">
<path d="M11.929 7.56075C14.4253 7.40428 16.5432 5.10717 18.8356 7.51993C21.2186 5.37928 23.255 7.05507 25.7467 7.78751V2.00504C25.7467 0.780519 28.0119 0.975536 28.0119 1.77828V7.44737L28.4808 7.69681C30.6577 6.86685 32.9478 5.44278 34.9185 7.51993C37.3468 5.27951 39.2723 7.11629 41.8297 7.56075V2.00504C41.8297 1.17736 43.6147 0.608179 44.0564 1.5946C44.0881 1.66716 44.3214 3.00734 44.3214 3.13886V7.56075C46.2899 7.46097 47.1665 6.05731 49.3184 6.52897C49.9867 6.67637 50.7229 7.38614 51.2144 7.34305C51.5769 7.31131 51.9869 6.84644 52.4082 6.70131C54.6077 5.94166 55.8671 7.28863 57.9126 7.78751V2.00504C57.9126 0.853083 60.4044 0.853083 60.4044 2.00504V7.78751C62.7534 7.08908 64.971 5.3498 67.1773 7.47004C67.3857 7.66959 68.3326 9.12542 68.3326 9.26147V19.1257C79.1829 13.0507 92.8194 13.0507 103.67 19.1257V9.26147C103.67 8.09364 105.668 6.66276 106.782 6.48135C108.828 6.15028 109.713 7.47911 111.598 7.56075V2.00504C111.598 0.853083 114.09 0.853083 114.09 2.00504V7.56075C116.072 7.44963 116.919 6.07318 119.087 6.52897C119.687 6.65596 120.591 7.34079 121.001 7.32718C121.438 7.31131 122.353 6.43827 123.49 6.41106C125.099 6.37251 126.113 7.59023 127.681 7.56301V3.13886C127.681 3.01187 127.846 1.82817 127.878 1.76694C128.505 0.515206 130.173 1.19776 130.173 2.00504V7.56075C132.177 7.44737 133.203 5.9598 135.389 6.53351C135.892 6.66503 136.594 7.34079 137.084 7.32491C137.412 7.31358 138.153 6.66276 138.767 6.52897C140.996 6.03916 141.92 7.5993 143.99 7.56075V1.77828L145.2 1.03223C145.553 1.0413 146.256 1.73973 146.256 2.00504V7.56075C148.324 7.4383 149.422 5.91444 151.654 6.57886C152.163 6.73079 152.725 7.34079 153.167 7.32718C153.488 7.31811 154.24 6.66276 154.85 6.52897C157.079 6.03916 158.003 7.5993 160.073 7.56075V1.77828L161.283 1.03223C161.636 1.0413 162.339 1.73973 162.339 2.00504V7.56075C163.548 7.73762 164.842 6.60154 165.863 6.44054C168.611 6.00742 170.491 8.25464 170.502 10.8397L170.341 163.76C167.451 168.914 161.736 172.016 156.243 168.429C155.004 167.619 154.184 166.399 152.945 165.615C149.592 170.096 144.172 171.531 139.48 167.976C138.991 167.606 137.231 165.549 136.88 165.624C133.586 169.697 128.802 171.536 124.077 168.429C122.795 167.585 122.052 166.447 120.804 165.631C115.628 172.307 107.709 170.774 103.67 163.914V135.002H68.3326V163.914C68.3326 164.672 65.1137 167.771 64.3299 168.298C59.4801 171.561 54.6281 169.964 51.228 165.615L50.8837 165.719C47.1053 170.567 41.585 171.577 36.7398 167.422C36.1327 166.901 35.546 166.311 35.1451 165.613C34.6716 165.613 33.197 167.438 32.6511 167.878C27.9576 171.663 22.4826 170.18 19.0621 165.613C17.8231 166.4 17.0008 167.622 15.7617 168.431C10.2686 172.019 4.55349 168.921 1.66309 163.762L1.5 10.8397C1.51133 8.25238 3.39144 6.00742 6.13914 6.44054C7.16074 6.60154 8.45191 7.73762 9.66379 7.56075V2.00504C9.66379 0.780519 11.929 0.975536 11.929 1.77828V7.56075ZM5.29648 8.72858C4.90687 8.78754 4.4946 9.20705 4.21145 9.47236L3.98946 162.789C5.21267 165.508 8.26163 167.876 11.3695 167.665C13.7955 167.499 17.1095 164.873 17.8208 162.558L17.8253 10.8397C17.4244 7.33172 15.4763 9.20932 13.5101 9.71273C12.0626 10.0824 10.6514 10.2025 9.15412 9.99619C8.14611 9.85786 5.84013 8.64468 5.29648 8.72858ZM60.4836 76.1907C46.129 61.8887 46.5322 38.0604 61.3082 24.2256C61.9968 23.5816 65.9133 20.6972 66.0221 20.3275L65.9677 9.81931C64.9914 7.74216 62.8462 9.63563 61.0998 9.95537C59.9966 10.1572 58.2705 10.2161 57.1764 10.003C55.5478 9.68552 52.6075 7.2841 52.2474 10.3908C51.8577 13.7559 52.5532 17.8309 52.2474 21.2754C51.9302 22.2822 50.9267 22.5612 50.1951 21.7493C49.4997 18.1778 50.4057 13.9918 49.9912 10.3908C49.6288 7.23874 46.5889 9.76262 45.0621 10.0007C44.2014 10.1345 42.5863 10.1459 41.7096 10.0642C40.4026 9.94176 38.2575 8.71271 37.6413 8.71044C37.1588 8.71044 36.5246 9.22292 36.3388 9.65831L36.0013 131.773L35.5641 132.244L34.5153 132.235L34.0147 131.827L33.8901 10.1799C33.1154 7.47458 30.7392 9.59028 28.9339 9.9531C27.6767 10.2048 26.0865 10.2207 24.8316 9.9531C23.1191 9.58574 21.2707 7.71268 20.1336 9.76035L20.0769 162.789C21.6762 166.173 25.6924 168.871 29.4594 167.173C31.0813 166.443 33.7452 164.161 33.9173 162.338C34.3568 157.612 33.4031 152.043 33.906 147.358C34.0238 146.272 34.5516 145.814 35.6185 146.326L36.1667 147.14L36.2958 163.34C40.0719 169.127 46.5368 168.985 49.9436 162.962L50.2109 82.0503C51.3231 81.3382 52.3651 81.7986 52.2655 83.1796V162.998C55.7584 169.109 62.3139 169.159 66.0266 163.186V80.6262C64.0694 79.3223 62.1576 77.8484 60.4904 76.1907H60.4836ZM119.753 163.234V82.2793C119.753 81.5401 122.018 81.5401 122.018 82.2793V163.007C122.018 163.127 123.157 164.597 123.372 164.826C127.699 169.493 132.739 167.991 135.831 163.003L136.046 36.4572C136.771 35.7724 137.408 35.7089 137.983 36.5933L138.114 162.769C141.313 169.066 148.462 169.243 151.907 162.998L151.912 9.94857C150.899 7.73762 149.515 9.20705 148.018 9.66738C146.598 10.1028 144.724 10.232 143.252 10.003C141.571 9.74221 138.472 7.18205 138.096 10.393C137.702 13.7514 138.407 17.8354 138.096 21.2754C137.881 22.4183 136.037 22.6178 135.833 20.8332C135.448 17.4612 136.135 13.3999 135.833 9.95084C134.823 7.78071 133.577 9.14809 132.112 9.61522C130.236 10.2116 128.188 10.2479 126.279 9.76489C124.976 9.43608 123.019 7.71721 122.192 9.66285C121.458 11.3862 122.421 16.3886 122.016 18.5565C121.764 19.8989 120.009 19.8876 119.762 18.5565C119.359 16.3886 120.319 11.3794 119.585 9.66285C118.733 7.66959 116.162 9.78983 114.599 10.0007C113.036 10.2116 111.315 10.1232 109.838 9.66965C108.565 9.27961 106.347 7.63785 105.951 10.1867C105.489 13.1505 106.227 17.2435 105.985 20.3298C108.785 22.6995 111.523 24.763 113.859 27.6407C127.42 44.3304 123.669 68.8844 105.935 80.7441L106.06 163.343C109.938 169.125 115.902 168.93 119.755 163.238L119.753 163.234ZM155.484 8.72858C154.533 8.89412 154.17 9.98938 154.175 10.8397L154.179 162.558C154.397 164.399 158.057 167.182 159.833 167.556C163.238 168.273 166.654 165.755 168.011 162.792L167.789 9.47463C166.62 7.98026 165.331 9.33631 163.924 9.71727C162.517 10.0982 161.022 10.1957 159.564 9.99846C158.431 9.84426 156.168 8.61293 155.484 8.73085V8.72858ZM83.2353 16.9238C57.5796 18.8218 43.5897 48.4575 58.1799 69.7642C74.58 93.7127 112.087 86.8463 118.779 58.6279C120.697 50.5347 119.472 38.9698 114.28 32.1963C114.173 32.058 114.044 31.7043 113.861 31.931L99.1529 46.7069C100.276 48.8068 109.74 56.5938 109.974 58.0655C110.003 58.2469 109.996 58.417 109.919 58.5871L98.3442 70.372L97.4382 70.8119L96.5321 70.372L65.8748 39.3689C65.7729 38.8564 66.1263 38.5321 66.4026 38.167C68.0358 36.0128 75.2301 28.8312 77.3866 27.1713C77.6969 26.9332 77.9778 26.6248 78.4105 26.6225L89.9313 37.4754L104.796 22.6383C98.564 18.264 90.8351 16.3614 83.2331 16.9238H83.2353ZM106.547 24.1372L88.4385 42.3123C88.2845 42.6093 88.2188 42.9245 88.2664 43.2579C88.366 43.9654 91.7729 47.4258 92.4955 47.8861C93.5715 48.5687 93.9452 48.4235 94.9487 47.6979L112.4 30.2326C112.669 29.6475 111.589 28.584 111.152 28.076C110.459 27.2733 109.235 26.042 108.431 25.3571C108.037 25.0215 106.945 24.0328 106.549 24.1372H106.547ZM78.4127 29.5613L68.8015 39.3893L97.4087 67.8617L107.063 58.2401L97.5514 48.7024C97.001 48.419 96.3282 49.6344 95.857 49.9655C94.516 50.9089 92.6699 50.9111 91.3221 49.9655C90.6063 49.4621 87.3286 46.1672 86.7872 45.4348C85.786 44.081 85.641 42.3191 86.5833 40.9086C86.8461 40.5163 88.0897 39.6047 88.024 39.2237L78.4127 29.5591V29.5613ZM103.67 82.1659C102.052 82.9437 100.433 83.7533 98.7429 84.3769C90.3186 87.4813 81.6905 87.4835 73.2616 84.3769C71.5718 83.7533 69.9499 82.946 68.3348 82.1659V121.736H103.672V82.1659H103.67ZM103.67 124.344H68.3326V132.734H103.67V124.344Z" fill="#FDBA3C" stroke="#FFA600" stroke-width="2"/>
<path d="M85.7097 72.2201C87.2206 71.8096 87.7665 74.4809 86.0767 74.6328C84.7402 74.753 84.38 72.5806 85.7097 72.2201Z" fill="#FDBA3C" stroke="#FFA600" stroke-width="2"/>
<path d="M78.0058 64.7413C79.5846 64.2583 80.1441 66.5305 78.8212 66.9341C77.2424 67.4171 76.6829 65.145 78.0058 64.7413Z" fill="#FDBA3C" stroke="#FFA600" stroke-width="2"/>
<path d="M62.8261 49.5485C64.4049 49.0655 64.9644 51.3376 63.6415 51.7413C62.0627 52.2243 61.5032 49.9521 62.8261 49.5485Z" fill="#FDBA3C" stroke="#FFA600" stroke-width="2"/>
<path d="M70.5335 57.0267C71.8247 56.6775 72.5812 58.8431 71.3422 59.2173C69.3624 59.8137 69.2265 57.3805 70.5335 57.0267Z" fill="#FDBA3C" stroke="#FFA600" stroke-width="2"/>
</svg>
