<svg width="122" height="122" viewBox="0 0 122 122" fill="none" xmlns="http://www.w3.org/2000/svg">
<path d="M76.1161 111.105L74.5095 109.506C73.2038 108.207 71.9702 106.974 70.7639 105.768C70.01 105.014 69.2668 104.271 68.5234 103.529C67.2153 102.228 65.44 102.243 64.3473 103.337L63.6397 102.63L64.3473 103.337C63.215 104.471 63.2014 106.177 64.5223 107.501C68.5861 111.572 72.6535 115.64 76.7245 119.707L76.7256 119.708C77.6199 120.604 78.4076 120.937 79.0819 120.942C79.7533 120.948 80.5369 120.63 81.4286 119.744L81.4288 119.743C85.536 115.665 89.6317 111.572 93.7159 107.464L93.7161 107.464C94.9765 106.197 94.9654 104.476 93.8696 103.362C92.7694 102.243 91.0457 102.203 89.7777 103.438L89.7765 103.439C88.5398 104.639 87.3249 105.855 86.1033 107.078C85.5235 107.658 84.9423 108.239 84.3565 108.822C84.1972 108.984 84.007 109.145 83.8072 109.314C83.7278 109.381 83.647 109.45 83.566 109.52L81.9105 110.957V108.765V107.61V107.61C81.9111 105.824 81.9092 104.038 81.9073 102.25C81.9024 97.5973 81.8974 92.9387 81.9365 88.2833L81.9366 88.2708H81.9366C81.9644 86.9438 81.5506 85.6452 80.7602 84.5789L80.7532 84.5695L80.7464 84.5599C69.2833 68.3147 57.8382 52.0616 46.411 35.8005L46.4068 35.7945L46.4027 35.7885C45.9983 35.1947 45.7727 34.4974 45.7525 33.7793L45.7522 33.7679L45.7522 33.7565C45.7281 29.1618 45.7314 24.566 45.7347 19.9745C45.7359 18.3785 45.737 16.7831 45.737 15.1884C45.737 14.9392 45.7667 14.655 45.795 14.385C45.8067 14.2729 45.8181 14.1633 45.8271 14.0596L46.0125 11.9178L47.5312 13.4394C48.0464 13.9557 48.553 14.4641 49.0533 14.9662C50.5791 16.4973 52.0468 17.9703 53.5252 19.4307L53.5262 19.4316C54.7894 20.6829 56.5566 20.672 57.6392 19.608L57.6399 19.6073C58.7845 18.4848 58.8095 16.739 57.5182 15.4461L57.5175 15.4455C53.4072 11.3226 49.2875 7.20694 45.1584 3.09846C44.3618 2.31072 43.6006 1.98919 42.9337 1.97374C42.2757 1.9585 41.5368 2.23711 40.7651 2.99856C36.5685 7.14723 32.3979 11.3175 28.2531 15.5093L76.1161 111.105ZM76.1161 111.105L76.2138 108.84C76.2214 108.664 76.2304 108.501 76.2387 108.348C76.2536 108.077 76.2665 107.84 76.2665 107.63C76.2665 106.294 76.2673 104.957 76.268 103.621C76.2706 98.8423 76.2732 94.0595 76.2428 89.2761L76.2427 89.2663C76.2299 88.4762 75.9889 87.7067 75.5487 87.0505L75.5433 87.0424L75.5378 87.0345C70.5116 79.8458 65.4653 72.6707 60.3989 65.5094M76.1161 111.105L60.3989 65.5094M60.3989 65.5094C53.8623 56.2308 47.3236 46.9487 40.7827 37.6629L40.7824 37.6625C40.2778 36.9469 40.1019 36.1654 40.1017 35.1995C40.1146 28.6151 40.1146 22.0308 40.1017 15.4464V14.1912V12.0547L38.4611 13.4233C38.356 13.511 38.2488 13.5971 38.1448 13.6807C37.9512 13.8363 37.7685 13.9831 37.6302 14.115L37.6227 14.1221L37.6153 14.1294C36.9689 14.7718 36.3275 15.4133 35.6874 16.0533C34.5485 17.1921 33.4141 18.3265 32.2643 19.454L32.2635 19.4548C30.9834 20.7129 29.2887 20.6966 28.162 19.5921C27.0361 18.4883 26.9926 16.7848 28.2529 15.5095L60.3989 65.5094Z" stroke="#FFA600" stroke-width="2"/>
<path d="M74.297 13.6928C74.0951 13.8648 73.8722 14.0548 73.6863 14.2421C73.0761 14.85 72.4713 15.4573 71.8681 16.063C70.6981 17.2377 69.5341 18.4065 68.3485 19.5622C67.8637 20.0303 67.2334 20.3186 66.5621 20.3793C65.8902 20.44 65.2177 20.269 64.6564 19.8946L64.648 19.889L64.6394 19.8835C64.1041 19.542 63.7265 18.7832 63.6662 17.819C63.605 16.8405 63.8948 16.0254 64.2431 15.6813L64.2434 15.681C66.2499 13.6967 68.233 11.7137 70.2141 9.73255C72.5213 7.42533 74.8259 5.12074 77.1619 2.81999L77.1619 2.81995C77.7821 2.20901 78.4688 1.96353 79.1295 1.99025C79.7998 2.01736 80.5446 2.33014 81.2437 3.02291L81.2442 3.02339C85.4317 7.16728 89.5968 11.3356 93.7398 15.5283C94.1215 15.9297 94.4028 16.4157 94.5607 16.9467C94.9176 18.1525 94.3982 19.3822 93.2619 20.0501C92.733 20.361 92.1159 20.4878 91.5072 20.4105C90.8986 20.3333 90.3327 20.0565 89.8982 19.6234L89.8982 19.6233L89.8916 19.6169C88.3762 18.1338 86.8907 16.6239 85.308 15.0152C84.7799 14.4784 84.2411 13.9307 83.6867 13.3693L82.0914 11.754L81.9764 14.0213C81.9677 14.1931 81.9581 14.353 81.9491 14.5038C81.9295 14.8307 81.9125 15.1145 81.9125 15.3822C81.9125 17.5619 81.9101 19.7429 81.9077 21.9245C81.903 26.2906 81.8981 30.6595 81.9125 35.0276L81.9126 35.0401L81.9129 35.0525C81.9423 36.0936 81.629 37.1155 81.0212 37.9612L81.0181 37.9655C77.7071 42.6241 74.417 47.2981 71.1278 51.9709C69.9572 53.6338 68.7868 55.2965 67.6156 56.9582L64.1757 52.0677L72.4727 40.2729C72.4727 40.2729 72.4727 40.2728 72.4728 40.2728C72.8199 39.7795 73.1759 39.3387 73.5532 38.8716C73.814 38.5487 74.085 38.2132 74.3703 37.839C75.0186 36.9886 75.6598 36.0306 76.0131 34.9338C76.3656 33.8397 76.4099 32.6913 76.3829 31.6219C76.3716 31.173 76.3467 30.719 76.3228 30.2826C76.3182 30.1977 76.3136 30.1135 76.3091 30.0301C76.2812 29.5095 76.2584 29.0135 76.2599 28.5326V28.5295V28.5023V28.4751V28.4479V28.4208V28.3936V28.3664V28.3392V28.312V28.2849V28.2577V28.2305V28.2033V28.1761V28.149V28.1218V28.0946V28.0674V28.0402V28.0131V27.9859V27.9587V27.9315V27.9043V27.8771V27.85V27.8228V27.7956V27.7684V27.7412V27.7141V27.6869V27.6597V27.6325V27.6053V27.5781V27.551V27.5238V27.4966V27.4694V27.4422V27.415V27.3879V27.3607V27.3335V27.3063V27.2791V27.252V27.2248V27.1976V27.1704V27.1432V27.116V27.0889V27.0617V27.0345V27.0073V26.9801V26.9529V26.9257V26.8986V26.8714V26.8442V26.817V26.7898V26.7626V26.7355V26.7083V26.6811V26.6539V26.6267V26.5995V26.5723V26.5452V26.518V26.4908V26.4636V26.4364V26.4092V26.3821V26.3549V26.3277V26.3005V26.2733V26.2461V26.2189V26.1918V26.1646V26.1374V26.1102V26.083V26.0558V26.0286V26.0015V25.9743V25.9471V25.9199V25.8927V25.8655V25.8383V25.8111V25.784V25.7568V25.7296V25.7024V25.6752V25.648V25.6208V25.5937V25.5665V25.5393V25.5121V25.4849V25.4577V25.4305V25.4033V25.3762V25.349V25.3218V25.2946V25.2674V25.2402V25.213V25.1858V25.1587V25.1315V25.1043V25.0771V25.0499V25.0227V24.9955V24.9683V24.9412V24.914V24.8868V24.8596V24.8324V24.8052V24.778V24.7508V24.7236V24.6965V24.6693V24.6421V24.6149V24.5877V24.5605V24.5333V24.5061V24.479V24.4518V24.4246V24.3974V24.3702V24.343V24.3158V24.2886V24.2614V24.2343V24.2071V24.1799V24.1527V24.1255V24.0983V24.0711V24.0439V24.0167V23.9896V23.9624V23.9352V23.908V23.8808V23.8536V23.8264V23.7992V23.772V23.7449V23.7177V23.6905V23.6633V23.6361V23.6089V23.5817V23.5545V23.5273V23.5002V23.473V23.4458V23.4186V23.3914V23.3642V23.337V23.3098V23.2826V23.2555V23.2283V23.2011V23.1739V23.1467V23.1195V23.0923V23.0651V23.0379V23.0107V22.9836V22.9564V22.9292V22.902V22.8748V22.8476V22.8204V22.7932V22.766V22.7389V22.7117V22.6845V22.6573V22.6301V22.6029V22.5757V22.5485V22.5213V22.4942V22.467V22.4398V22.4126V22.3854V22.3582V22.331V22.3038V22.2766V22.2495V22.2223V22.1951V22.1679V22.1407V22.1135V22.0863V22.0591V22.0319V22.0048V21.9776V21.9504V21.9232V21.896V21.8688V21.8416V21.8144V21.7872V21.7601V21.7329V21.7057V21.6785V21.6513V21.6241V21.5969V21.5697V21.5425V21.5154V21.4882V21.461V21.4338V21.4066V21.3794V21.3522V21.325V21.2978V21.2707V21.2435V21.2163V21.1891V21.1619V21.1347V21.1075V21.0803V21.0532V21.026V20.9988V20.9716V20.9444V20.9172V20.89V20.8628V20.8356V20.8085V20.7813V20.7541V20.7269V20.6997V20.6725V20.6453V20.6181V20.591V20.5638V20.5366V20.5094V20.4822V20.455V20.4278V20.4007V20.3735V20.3463V20.3191V20.2919V20.2647V20.2375V20.2103V20.1832V20.156V20.1288V20.1016V20.0744V20.0472V20.02V19.9928V19.9657V19.9385V19.9113V19.8841V19.8569V19.8297V19.8025V19.7754V19.7482V19.721V19.6938V19.6666V19.6394V19.6122V19.5851V19.5579V19.5307V19.5035V19.4763V19.4491V19.4219V19.3948V19.3676V19.3404V19.3132V19.286V19.2588V19.2317V19.2045V19.1773V19.1501V19.1229V19.0957V19.0685V19.0414V19.0142V18.987V18.9598V18.9326V18.9054V18.8783V18.8511V18.8239V18.7967V18.7695V18.7423V18.7152V18.688V18.6608V18.6336V18.6064V18.5792V18.5521V18.5249V18.4977V18.4705V18.4433V18.4161V18.389V18.3618V18.3346V18.3074V18.2802V18.2531V18.2259V18.1987V18.1715V18.1443V18.1171V18.09V18.0628V18.0356V18.0084V17.9812V17.9541V17.9269V17.8997V17.8725V17.8453V17.8182V17.791V17.7638V17.7366V17.7094V17.6823V17.6551V17.6279V17.6007V17.5735V17.5464V17.5192V17.492V17.4648V17.4376V17.4105V17.3833V17.3561V17.3289V17.3017V17.2746V17.2474V17.2202V17.193V17.1658V17.1387V17.1115V17.0843V17.0571V17.03V17.0028V16.9756V16.9484V16.9212V16.8941V16.8669V16.8397V16.8125V16.7854V16.7582V16.731V16.7038V16.6767V16.6495V16.6223V16.5951V16.5679V16.5408V16.5136V16.4864V16.4592V16.4321V16.4049V16.3777V16.3505V16.3234V16.2962V16.269V16.2418V16.2147V16.1875V16.1603V16.1332V16.106V16.0788V16.0516V16.0245V15.9973V15.9701V15.9429V15.9158V15.8886V15.8614V15.8342V15.8071V15.7799V15.7527V15.7256V15.6984V15.6712V15.644V15.6169V15.5897V15.5625V15.5354V15.5082V15.481V15.4538V15.4267V15.3995V15.3723V15.3452V15.318V15.2908V15.2636V15.2365V15.2093V15.1821V15.155V15.1278V15.1006V15.0735V15.0463V15.0191V14.992V14.9648V14.9376V14.9104V14.8833V14.8561V14.8289V14.8018V14.7746V14.7474V14.7203V14.6931V14.6659V14.6388V14.6116V14.549L76.2521 14.4868C76.231 14.319 76.1987 14.1527 76.1555 13.9891L75.7424 12.4262L74.5283 13.4937C74.4573 13.5562 74.3789 13.623 74.297 13.6928Z" stroke="#1E3C6F" stroke-width="2"/>
<path d="M47.1484 109.974L46.4707 109.558L46.2246 109.407L45.7478 109.115V108.555V108.528V108.5V108.473V108.446V108.418V108.391V108.363V108.336V108.309V108.281V108.254V108.227V108.199V108.172V108.144V108.117V108.09V108.062V108.035V108.008V107.98V107.953V107.925V107.898V107.871V107.843V107.816V107.789V107.761V107.734V107.706V107.679V107.652V107.624V107.597V107.569V107.542V107.515V107.487V107.46V107.433V107.405V107.378V107.35V107.323V107.296V107.268V107.241V107.214V107.186V107.159V107.131V107.104V107.077V107.049V107.022V106.995V106.967V106.94V106.912V106.885V106.858V106.83V106.803V106.776V106.748V106.721V106.693V106.666V106.639V106.611V106.584V106.557V106.529V106.502V106.474V106.447V106.42V106.392V106.365V106.338V106.31V106.283V106.255V106.228V106.201V106.173V106.146V106.119V106.091V106.064V106.036V106.009V105.982V105.954V105.927V105.899V105.872V105.845V105.817V105.79V105.763V105.735V105.708V105.68V105.653V105.626V105.598V105.571V105.544V105.516V105.489V105.461V105.434V105.407V105.379V105.352V105.325V105.297V105.27V105.242V105.215V105.188V105.16V105.133V105.106V105.078V105.051V105.023V104.996V104.969V104.941V104.914V104.887V104.859V104.832V104.804V104.777V104.75V104.722V104.695V104.668V104.64V104.613V104.585V104.558V104.531V104.503V104.476V104.448V104.421V104.394V104.366V104.339V104.312V104.284V104.257V104.229V104.202V104.175V104.147V104.12V104.093V104.065V104.038V104.01V103.983V103.956V103.928V103.901V103.874V103.846V103.819V103.791V103.764V103.737V103.709V103.682V103.655V103.627V103.6V103.572V103.545V103.518V103.49V103.463V103.436V103.408V103.381V103.353V103.326V103.299V103.271V103.244V103.217V103.189V103.162V103.134V103.107V103.08V103.052V103.025V102.997V102.97V102.943V102.915V102.888V102.861V102.833V102.806V102.778V102.751V102.724V102.696V102.669V102.642V102.614V102.587V102.559V102.532V102.505V102.477V102.45V102.423V102.395V102.368V102.34V102.313V102.286V102.258V102.231V102.204V102.176V102.149V102.121V102.094V102.067V102.039V102.012V101.985V101.957V101.93V101.902V101.875V101.848V101.82V101.793V101.766V101.738V101.711V101.683V101.656V101.629V101.601V101.574V101.547V101.519V101.492V101.464V101.437V101.41V101.382V101.355V101.327V101.3V101.273V101.245V101.218V101.191V101.163V101.136V101.108V101.081V101.054V101.026V100.999V100.972V100.944V100.917V100.889V100.862V100.835V100.807V100.78V100.753V100.725V100.698V100.67V100.643V100.616V100.588V100.561V100.534V100.506V100.479V100.451V100.424V100.397V100.369V100.342V100.315V100.287V100.26V100.232V100.205V100.178V100.15V100.123V100.096V100.068V100.041V100.013V99.986V99.9586V99.9312V99.9039V99.8765V99.8491V99.8217V99.7944V99.767V99.7396V99.7122V99.6848V99.6575V99.6301V99.6027V99.5753V99.548V99.5206V99.4932V99.4658V99.4385V99.4111V99.3837V99.3563V99.3289V99.3016V99.2742V99.2468V99.2194V99.1921V99.1647V99.1373V99.1099V99.0826V99.0552V99.0278V99.0004V98.973V98.9457V98.9183V98.8909V98.8635V98.8362V98.8088V98.7814V98.754V98.7266V98.6993V98.6719V98.6445V98.6171V98.5898V98.5624V98.535V98.5076V98.4803V98.4529V98.4255V98.3981V98.3707V98.3434V98.316V98.2886V98.2612V98.2339V98.2065V98.1791V98.1517V98.1243V98.097V98.0696V98.0422V98.0148V97.9875V97.9601V97.9327V97.9053V97.878V97.8506V97.8232V97.7958V97.7684V97.7411V97.7137V97.6863V97.6589V97.6316V97.6042V97.5768V97.5494V97.522V97.4947V97.4673V97.4399V97.4125V97.3852V97.3578V97.3304V97.303V97.2757V97.2483V97.2209V97.1935V97.1661V97.1388V97.1114V97.084V97.0566V97.0293V97.0019V96.9745V96.9471V96.9197V96.8924V96.865V96.8376V96.8102V96.7829V96.7555V96.7281V96.7007V96.6734V96.646V96.6186V96.5912V96.5638V96.5365V96.5091V96.4817V96.4543V96.427V96.3996V96.3722V96.3448V96.3174V96.2901V96.2627V96.2353V96.2079V96.1806V96.1532V96.1258V96.0984V96.0711V96.0437V96.0163V95.9889V95.9615V95.9342V95.9068V95.8794V95.852V95.8247V95.7973V95.7699V95.7425V95.7151V95.6878V95.6604V95.633V95.6056V95.5783V95.5509V95.5235V95.4961V95.4688V95.4414V95.414V95.3866V95.3592V95.3319V95.3045V95.2771V95.2497V95.2224V95.195V95.1676V95.1402V95.1128V95.0855V95.0581V95.0307V95.0033V94.976V94.9486V94.9212V94.8938V94.8665V94.8391V94.8117V94.7843V94.7569V94.7296V94.7022V94.6748V94.6474V94.6201V94.5927V94.5653V94.5379V94.5369C45.7484 93.9394 45.7136 93.3861 45.6768 92.8005C45.6501 92.3756 45.6223 91.9336 45.6062 91.4454C45.5708 90.375 45.606 89.2213 45.9597 88.1238C46.3161 87.009 46.9581 86.0328 47.6117 85.1632C47.9097 84.7668 48.1906 84.415 48.4609 84.0765C48.8323 83.6115 49.1837 83.1715 49.532 82.6749L49.5325 82.6741C51.643 79.6709 53.7559 76.6699 55.8775 73.6565C56.5294 72.7305 57.1822 71.8034 57.8359 70.8747L54.4047 66.0027C49.9332 72.3632 45.445 78.7124 40.94 85.0501L40.9376 85.0535C40.372 85.8422 40.0805 86.7945 40.1078 87.7646L40.1081 87.7775L40.1081 87.7904C40.1182 92.1578 40.1149 96.5256 40.1115 100.891C40.1098 103.073 40.1081 105.254 40.1081 107.435V108.818V111.098L38.431 109.554C38.305 109.438 38.1903 109.334 38.0843 109.237C37.8456 109.02 37.6511 108.843 37.4717 108.665L37.4699 108.664C36.7304 107.927 35.9955 107.192 35.2613 106.458C34.3189 105.516 33.3779 104.575 32.4302 103.633L32.4301 103.633C31.7002 102.908 30.9081 102.567 30.1947 102.528C29.4926 102.489 28.7883 102.736 28.1819 103.335C27.5732 103.936 27.3131 104.642 27.3397 105.345C27.3667 106.056 27.6928 106.848 28.4083 107.578C29.9266 109.116 31.454 110.64 32.9847 112.168C33.6422 112.825 34.3003 113.481 34.9585 114.14L34.9601 114.142C35.1383 114.321 35.3166 114.5 35.4949 114.68C37.2402 116.435 38.988 118.193 40.7567 119.921L40.7571 119.921C42.0951 121.229 43.7233 121.232 44.7721 120.202C49.1169 115.906 53.4387 111.587 57.7376 107.247L57.7377 107.247C58.1203 106.861 58.3744 106.244 58.4196 105.542C58.4649 104.84 58.2924 104.175 57.9776 103.728C56.9607 102.284 54.9685 102.083 53.5835 103.449L47.1484 109.974ZM47.1484 109.974L47.7064 109.408M47.1484 109.974L47.7064 109.408M47.7064 109.408C48.326 108.779 48.941 108.15 49.5546 107.522M47.7064 109.408L49.5546 107.522M49.5546 107.522C50.8927 106.154 52.2242 104.792 53.5831 103.45L49.5546 107.522Z" stroke="#1E3C6F" stroke-width="2"/>
<path d="M13.3194 76.7315L13.0367 76.2036L12.89 75.9295L12.5367 75.2697L13.07 74.7447C13.6893 74.1352 14.3086 73.5283 14.9271 72.9223C16.2561 71.6202 17.581 70.322 18.8925 69.0091L13.3194 76.7315ZM13.3194 76.7315H13.9183M13.3194 76.7315H13.9183M13.9183 76.7315H18.2141C19.3895 76.7315 20.5658 76.7329 21.7428 76.7342C25.4923 76.7386 29.2486 76.7429 33.0032 76.7034L33.0117 76.7033M13.9183 76.7315L33.0117 76.7033M33.0117 76.7033C33.8997 76.6864 34.7648 76.4183 35.5067 75.9302L35.5162 75.9239M33.0117 76.7033L35.5162 75.9239M35.5162 75.9239L35.5255 75.9175M35.5162 75.9239L35.5255 75.9175M35.5255 75.9175C38.7082 73.7185 41.8741 71.4872 45.0344 69.2599C45.4933 68.9364 45.9522 68.6131 46.4109 68.2899M35.5255 75.9175L46.4109 68.2899M46.4109 68.2899C45.759 69.2148 45.1064 70.1397 44.4536 71.0648C42.026 74.5053 39.5961 77.9491 37.1885 81.4116L37.1794 81.4246L37.1708 81.4379C37.0031 81.6962 36.7768 81.9115 36.5105 82.0663C36.2441 82.2211 35.945 82.311 35.6374 82.3289L35.6224 82.3298L35.6073 82.3311C35.1771 82.3691 34.7385 82.3855 34.2965 82.3855H34.259H34.2215H34.184H34.1465H34.109H34.0715H34.034H33.9965H33.959H33.9215H33.884H33.8465H33.809H33.7715H33.734H33.6965H33.659H33.6215H33.584H33.5465H33.509H33.4715H33.434H33.3965H33.359H33.3215H33.284H33.2465H33.209H33.1715H33.134H33.0965H33.059H33.0215H32.984H32.9465H32.909H32.8715H32.834H32.7965H32.759H32.7215H32.684H32.6465H32.609H32.5715H32.534H32.4965H32.459H32.4214H32.3839H32.3464H32.3089H32.2714H32.2339H32.1964H32.1589H32.1214H32.0839H32.0464H32.0089H31.9714H31.9339H31.8964H31.8589H31.8214H31.7839H31.7464H31.7089H31.6713H31.6338H31.5963H31.5588H31.5213H31.4838H31.4463H31.4088H31.3713H31.3338H31.2963H31.2588H31.2213H31.1838H31.1463H31.1087H31.0712H31.0337H30.9962H30.9587H30.9212H30.8837H30.8462H30.8087H30.7712H30.7337H30.6962H30.6586H30.6211H30.5836H30.5461H30.5086H30.4711H30.4336H30.3961H30.3586H30.3211H30.2836H30.246H30.2085H30.171H30.1335H30.096H30.0585H30.021H29.9835H29.946H29.9085H29.8709H29.8334H29.7959H29.7584H29.7209H29.6834H29.6459H29.6084H29.5709H29.5333H29.4958H29.4583H29.4208H29.3833H29.3458H29.3083H29.2708H29.2332H29.1957H29.1582H29.1207H29.0832H29.0457H29.0082H28.9707H28.9331H28.8956H28.8581H28.8206H28.7831H28.7456H28.7081H28.6705H28.633H28.5955H28.558H28.5205H28.483H28.4455H28.4079H28.3704H28.3329H28.2954H28.2579H28.2204H28.1829H28.1453H28.1078H28.0703H28.0328H27.9953H27.9578H27.9202H27.8827H27.8452H27.8077H27.7702H27.7327H27.6952H27.6576H27.6201H27.5826H27.5451H27.5076H27.47H27.4325H27.395H27.3575H27.32H27.2825H27.2449H27.2074H27.1699H27.1324H27.0949H27.0574H27.0198H26.9823H26.9448H26.9073H26.8698H26.8322H26.7947H26.7572H26.7197H26.6822H26.6446H26.6071H26.5696H26.5321H26.4946H26.4571H26.4195H26.382H26.3445H26.307H26.2695H26.2319H26.1944H26.1569H26.1194H26.0818H26.0443H26.0068H25.9693H25.9318H25.8942H25.8567H25.8192H25.7817H25.7442H25.7066H25.6691H25.6316H25.5941H25.5565H25.519H25.4815H25.444H25.4065H25.3689H25.3314H25.2939H25.2564H25.2188H25.1813H25.1438H25.1063H25.0688H25.0312H24.9937H24.9562H24.9187H24.8811H24.8436H24.8061H24.7686H24.731H24.6935H24.656H24.6185H24.5809H24.5434H24.5059H24.4684H24.4308H24.3933H24.3558H24.3183H24.2807H24.2432H24.2057H24.1682H24.1306H24.0931H24.0556H24.0181H23.9805H23.943H23.9055H23.868H23.8304H23.7929H23.7554H23.7178H23.6803H23.6428H23.6053H23.5677H23.5302H23.4927H23.4552H23.4176H23.3801H23.3426H23.305H23.2675H23.23H23.1925H23.1549H23.1174H23.0799H23.0423H23.0048H22.9673H22.9298H22.8922H22.8547H22.8172H22.7796H22.7421H22.7046H22.667H22.6295H22.592H22.5545H22.5169H22.4794H22.4419H22.4043H22.3668H22.3293H22.2917H22.2542H22.2167H22.1792H22.1416H22.1041H22.0666H22.029H21.9915H21.954H21.9164H21.8789H21.8414H21.8038H21.7663H21.7288H21.6912H21.6537H21.6162H21.5786H21.5411H21.5036H21.466H21.4285H21.391H21.3534H21.3159H21.2784H21.2408H21.2033H21.1658H21.1282H21.0907H21.0532H21.0156H20.9781H20.9406H20.903H20.8655H20.828H20.7904H20.7529H20.7154H20.6778H20.6403H20.6028H20.5652H20.5277H20.4902H20.4526H20.4151H20.3775H20.34H20.3025H20.2649H20.2274H20.1899H20.1523H20.1148H20.0773H20.0397H20.0022H19.9646H19.9271H19.8896H19.852H19.8145H19.777H19.7394H19.7019H19.6644H19.6268H19.5893H19.5517H19.5142H19.4767H19.4391H19.4016H19.364H19.3265H19.289H19.2514H19.2139H19.1764H19.1388H19.1013H19.0637H19.0262H18.9887H18.9511H18.9136H18.876H18.8385H18.801H18.7634H18.7259H18.6883H18.6508H18.6133H18.5757H18.5382H18.5006H18.4631H18.4256H18.388H18.3505H18.3129H18.2754H18.2378H18.2003H18.1628H18.1252H18.0877H18.0501H18.0126H17.9751H17.9375H17.9H17.8624H17.8249H17.7873H17.7498H17.7123H17.6747H17.6372H17.5996H17.5621H17.5245H17.487H17.4495H17.4119H17.3744H17.3368H17.2993H17.2617H17.2242H17.1866H17.1491H17.1116H17.074H17.0365H16.9989H16.9614H16.9238H16.8863H16.8487H16.8112H16.7737H16.7361H16.6986H16.661H16.6235H16.5859H16.5484H16.5108H16.4733H16.4357H16.3982H16.3607H16.3231H16.2856H16.248H16.2105H16.1729H16.1354H16.0978H16.0603H16.0227H15.9852H15.9476H15.9101H15.8725H15.835H15.7974H15.7599H15.7224H15.6848H15.6473H15.6097H15.5722H15.5346H15.4971H15.4595H15.422H15.3844H15.3469H15.3093H15.2718H15.2342H15.1967H15.1591H15.1216H15.084H13.7111H11.5049L12.959 84.0446C13.0612 84.1611 13.1597 84.2775 13.2548 84.3898C13.4327 84.5998 13.5986 84.7957 13.7539 84.9525L13.7561 84.9547C14.3784 85.5793 15 86.1979 15.6198 86.8149C16.7559 87.9457 17.8864 89.071 19.0056 90.2166L19.0067 90.2177C20.2328 91.4686 20.2103 93.2002 19.101 94.3204C18.0075 95.4247 16.2737 95.4452 15.0156 94.189L15.0141 94.1875C10.8911 90.088 6.77963 85.9726 2.67964 81.8414C1.82494 80.9802 1.51501 80.2058 1.52159 79.5354C1.5282 78.861 1.85711 78.0784 2.72308 77.2084C6.78808 73.141 10.856 69.0771 14.9267 65.0169C16.2801 63.6671 17.9845 63.6787 19.1002 64.7742C20.215 65.8688 20.2602 67.6398 18.8926 69.0091L46.4109 68.2899Z" stroke="#1E3C6F" stroke-width="2"/>
<path d="M108.665 82.394L108.945 82.9352L109.15 83.3323L109.573 84.1517L108.79 84.6396C108.507 84.8161 108.238 85.0128 107.983 85.2282C107.767 85.4413 107.552 85.6538 107.337 85.8659C105.848 87.3343 104.376 88.7859 102.92 90.2976C101.64 91.6262 101.806 93.5255 103.192 94.5846C104.314 95.4353 105.831 95.3509 107.06 94.1263C111.128 90.06 115.196 85.9916 119.262 81.9209L119.263 81.9206C120.144 81.0392 120.474 80.2481 120.477 79.5663C120.48 78.8864 120.158 78.099 119.282 77.2217L119.281 77.2211C117.742 75.6776 116.197 74.1353 114.651 72.5921C112.176 70.1208 109.699 67.6474 107.238 65.1637L107.223 65.1485L107.208 65.1327C106.909 64.8037 106.542 64.5429 106.134 64.368C105.725 64.1931 105.283 64.1082 104.838 64.1191L104.825 64.1194L104.811 64.1194C104.133 64.1176 103.647 64.2571 103.284 64.4796C102.923 64.7003 102.611 65.048 102.354 65.5884C101.832 66.6854 101.944 67.7006 102.752 68.6306L102.759 68.6394L102.759 68.6395C103.148 69.0985 103.579 69.5181 104.049 69.9761C104.172 70.0956 104.297 70.2177 104.425 70.3438L104.425 70.3439C105.567 71.469 106.712 72.59 107.944 73.7957C108.327 74.1707 108.718 74.5539 109.121 74.9479L110.699 76.4936L108.496 76.6595C108.35 76.6705 108.217 76.6823 108.095 76.6932C107.861 76.7141 107.669 76.7313 107.506 76.7314L108.665 82.394ZM108.665 82.394H108.056H106.901C105.189 82.394 103.475 82.3926 101.762 82.3912C96.9998 82.3875 92.2343 82.3837 87.47 82.4091C86.714 82.4088 86.1473 82.2945 85.6814 82.0646C85.2214 81.8378 84.7849 81.4615 84.3487 80.8159L84.3486 80.8157C81.8044 77.0523 79.1769 73.3384 76.5571 69.6351C76.2454 69.1946 75.9338 68.7542 75.6226 68.3139M108.665 82.394L75.6226 68.3139M75.6226 68.3139C76.246 68.7535 76.8695 69.1934 77.4931 69.6333C80.5176 71.7672 83.545 73.9032 86.5843 76.0183M75.6226 68.3139L86.5843 76.0183M86.5843 76.0183C87.1679 76.4326 87.8575 76.672 88.5724 76.7085L88.5951 76.7097L88.6178 76.7098C93.9082 76.7388 99.1974 76.7358 104.484 76.7329C105.491 76.7323 106.498 76.7317 107.506 76.7314L86.5843 76.0183Z" stroke="#1E3C6F" stroke-width="2"/>
<path d="M109.177 39.7342L109.472 39.0963L108.972 38.6023C108.354 37.9912 107.737 37.3917 107.124 36.796C105.762 35.4732 104.42 34.1691 103.122 32.7987C102.638 32.2873 102.3 31.6563 102.141 30.9707C101.899 29.7427 102.513 28.6321 103.659 28.0732L103.659 28.0729C104.695 27.5669 105.945 27.7409 106.895 28.6688L106.896 28.6696C108.568 30.3007 110.217 31.9533 111.872 33.6126C112.274 34.0157 112.676 34.4192 113.08 34.8229C113.652 35.3963 114.229 35.9726 114.808 36.5507C116.311 38.0535 117.827 39.5689 119.324 41.0795L119.324 41.0796C120.155 41.9181 120.474 42.6963 120.478 43.3724C120.482 44.0454 120.175 44.81 119.361 45.6271L119.36 45.6273C115.251 49.7521 111.135 53.8704 107.013 57.9823C105.715 59.2763 103.994 59.2565 102.856 58.1058L102.856 58.1055C101.795 57.0336 101.773 55.2762 103.028 54.0025C104.352 52.6596 105.687 51.3342 107.067 49.9653C107.708 49.3294 108.358 48.6842 109.021 48.0234L110.498 46.5504L108.425 46.3212C108.291 46.3064 108.183 46.2915 108.072 46.2762C108.025 46.2696 107.976 46.2629 107.925 46.2561C107.769 46.2353 107.585 46.2137 107.386 46.2137C105.823 46.2137 104.259 46.2126 102.695 46.2116C97.9987 46.2083 93.2989 46.2051 88.6002 46.231L88.5725 46.2312L88.5448 46.2328C87.834 46.2762 87.1502 46.5209 86.5734 46.9383C82.9091 49.4907 79.2532 52.0691 75.5978 54.6512C76.3827 53.5367 77.1707 52.4222 77.9592 51.3068C80.1724 48.1764 82.3905 45.0392 84.5608 41.8741C84.9211 41.3558 85.2747 41.0469 85.6398 40.86C86.0057 40.6727 86.4538 40.5719 87.059 40.5791L87.0631 40.5792C90.1007 40.6027 93.1402 40.5989 96.1777 40.595C97.316 40.5936 98.4539 40.5921 99.5914 40.5921H108.159H108.905L109.118 39.8777C109.127 39.8479 109.14 39.8127 109.177 39.7342Z" stroke="#1E3C6F" stroke-width="2"/>
<path d="M13.2052 40.5746L12.9784 39.8884L12.8942 39.6337L12.7007 39.0485L13.1366 38.6127C15.0388 36.7107 16.9433 34.8043 18.8499 32.8936C19.5709 32.1708 19.9103 31.3783 19.9497 30.6603C19.9886 29.9518 19.7414 29.2433 19.1512 28.6393C18.0424 27.5045 16.3224 27.4772 14.9076 28.8691C13.5869 30.1684 12.2758 31.4817 10.9631 32.7966C10.5481 33.2123 10.133 33.6281 9.71735 34.0437L9.71703 34.0441C9.05997 34.7004 8.4028 35.3548 7.74629 36.0085C6.0332 37.7142 4.32465 39.4154 2.63458 41.1365L2.63399 41.1371C1.24198 42.5522 1.24119 44.186 2.27813 45.2347L2.27958 45.2361C4.33963 47.3281 6.41753 49.4005 8.49885 51.4764L8.74721 51.7241C10.9104 53.8816 13.0765 56.0436 15.2221 58.2291L15.2236 58.2306C15.5079 58.5214 16.2459 58.794 17.2022 58.7783C18.1557 58.7627 18.8812 58.4678 19.1725 58.1329L19.1799 58.1244L19.1799 58.1245C19.6842 57.5579 19.9517 56.8194 19.9271 56.0614C19.9024 55.3034 19.5876 54.5838 19.0476 54.0512L19.0422 54.0458L19.0368 54.0403C17.9407 52.9255 16.838 51.8275 15.7312 50.7255C15.0565 50.0536 14.3802 49.3803 13.703 48.7007L13.7006 48.6982C13.5299 48.5258 13.3522 48.303 13.186 48.0947C13.1153 48.006 13.0466 47.9199 12.9814 47.8414L11.6208 46.2026H13.7508C14.9872 46.2026 16.2175 46.2024 17.4429 46.2021C22.9275 46.2008 28.313 46.1995 33.6954 46.2242L33.6964 46.2242C34.0934 46.2265 34.4466 46.3546 34.7074 46.4783C34.9762 46.6058 35.2184 46.7638 35.4052 46.8943C37.7964 48.5638 40.1828 50.2453 42.5673 51.9254C43.6805 52.7097 44.7932 53.4937 45.9058 54.276L45.9063 54.2764C46.0577 54.383 46.209 54.4895 46.3603 54.5959C46.0774 54.1965 45.7942 53.7971 45.511 53.3976C42.8641 49.6635 40.2102 45.9198 37.6364 42.1286M13.2052 40.5746L38.4637 41.5669M13.2052 40.5746H13.9278H15.0806C16.8766 40.5746 18.6739 40.5771 20.472 40.5796C25.1505 40.5861 29.8346 40.5926 34.5164 40.5551M13.2052 40.5746L34.5089 39.5552M37.6364 42.1286L38.4637 41.5669M37.6364 42.1286C37.6365 42.1288 37.6367 42.129 37.6368 42.1292L38.4637 41.5669M37.6364 42.1286C37.1979 41.484 36.7646 41.1109 36.3087 40.8876C35.8464 40.6611 35.2809 40.5494 34.5164 40.5551M38.4637 41.5669C37.4362 40.0559 36.2359 39.5422 34.5089 39.5552M34.5164 40.5551C34.5166 40.5551 34.5168 40.5551 34.5169 40.5551L34.5089 39.5552M34.5164 40.5551L34.5089 39.5552M49.8638 58.2735C49.8227 57.8788 49.6691 57.5042 49.4213 57.1942C49.2116 56.8964 49.0016 56.5987 48.7915 56.3011L49.8638 58.2735ZM49.8638 58.2735C49.5455 58.0502 49.2271 57.8271 48.9087 57.6041C48.8971 57.5959 48.8856 57.5878 48.874 57.5797C48.6998 57.4577 48.5256 57.3357 48.3515 57.2137C48.2593 57.1492 48.1672 57.0847 48.0751 57.0201L49.8638 58.2735ZM13.7508 47.2026C14.1809 47.2026 14.6102 47.2026 15.0389 47.2026C14.9783 47.1344 14.9213 47.0622 14.8437 46.9642C14.7652 46.8649 14.6656 46.739 14.5202 46.5639L13.7508 47.2026ZM13.7508 47.2026C13.8511 47.3234 13.9372 47.4317 14.0157 47.5303C14.1601 47.7117 14.2785 47.8605 14.4114 47.9948C14.4804 48.0641 14.5495 48.1334 14.6186 48.2026C14.4801 48.2026 14.3415 48.2026 14.2028 48.2026C14.2023 48.2026 14.2019 48.2026 14.2014 48.2026C14.0513 48.2026 13.9011 48.2026 13.7508 48.2026V47.2026ZM14.5889 38.5746H13.9278V39.2357C14.1482 39.0154 14.3685 38.795 14.5889 38.5746ZM14.0983 39.5746H15.0032C14.8523 39.7254 14.7015 39.8762 14.5507 40.027L14.0983 39.5746Z" stroke="#1E3C6F" stroke-width="2"/>
</svg>
