<svg width="93" height="122" viewBox="0 0 93 122" fill="none" xmlns="http://www.w3.org/2000/svg">
<path d="M23.3 77.9637H34.9M23.3 95.3637H34.9M58.1 77.9637H69.7M58.1 95.3637H69.7M49.4 2.56372C68.54 2.56372 78.11 2.56372 84.055 8.50872C90 14.4537 90 24.0237 90 43.1637V77.9637C90 97.1037 90 106.674 84.055 112.619C78.11 118.564 68.54 118.564 49.4 118.564H43.6C24.46 118.564 14.89 118.564 8.945 112.619C3 106.674 3 97.1037 3 77.9637V43.1637C3 24.0237 3 14.4537 8.945 8.50872C14.89 2.56372 24.46 2.56372 43.6 2.56372H49.4Z" stroke="#013F68" stroke-width="5" stroke-linecap="round" stroke-linejoin="round"/>
<path d="M63.8996 37.3639C63.8996 41.9786 62.0664 46.4044 58.8033 49.6675C55.5401 52.9307 51.1144 54.7639 46.4996 54.7639C41.8848 54.7639 37.4591 52.9307 34.1959 49.6675C30.9328 46.4044 29.0996 41.9786 29.0996 37.3639C29.0996 32.7491 30.9328 28.3233 34.1959 25.0602C37.4591 21.7971 41.8848 19.9639 46.4996 19.9639C51.1144 19.9639 55.5401 21.7971 58.8033 25.0602C62.0664 28.3233 63.8996 32.7491 63.8996 37.3639Z" stroke="#013F68" stroke-width="5" stroke-linecap="round" stroke-linejoin="round"/>
</svg>
