<svg width="139" height="140" viewBox="0 0 139 140" fill="none" xmlns="http://www.w3.org/2000/svg">
<path d="M79.5907 18.3714C86.7057 19.521 93.4967 22.5073 99.4137 26.5525C101.957 24.255 104.031 21.1655 107.54 20.2934C116.467 18.0742 123.272 27.8036 117.984 35.3619C116.691 37.2092 114.721 38.6739 113.238 40.3734C117.273 46.2962 120.262 53.091 121.398 60.2168C125.18 60.2577 128.926 59.7523 132.239 61.9252C138.668 66.1395 137.646 76.2 130.471 78.9905C127.528 80.1348 124.49 79.7308 121.398 79.7967C120.262 86.9225 117.273 93.7173 113.238 99.64C115.1 101.751 117.727 103.603 118.906 106.221C122.261 113.674 115.798 121.608 107.832 119.784C104.145 118.941 102.038 115.878 99.4137 113.461C93.4789 117.499 86.7128 120.443 79.596 121.647C78.9765 124.774 79.9859 127.757 78.706 130.814C75.9148 137.486 66.9289 138.828 62.3025 133.269C59.417 129.8 60.0186 125.849 59.9813 121.619C54.6552 120.768 49.1886 118.834 44.4927 116.193C44.1242 115.986 42.4812 115.177 42.5506 114.789C44.5443 112.409 48.0404 110.154 48.8611 107.027C49.1352 105.983 49.0853 105.048 49.2171 104.002L51.1965 102.069C55.0486 104.02 59.0431 105.689 63.3314 106.435C90.8123 111.206 113.199 85.4578 104.887 58.8375C97.4966 35.1608 68.5844 25.7143 48.3555 40.1421C32.8937 51.1707 28.3278 72.2491 37.8815 88.7573C37.8548 88.8926 36.0925 90.6722 35.9483 90.7363C35.4623 90.957 34.1077 90.8253 33.2444 91.0584C29.8925 91.9625 27.4733 95.3741 25.0043 97.588C21.5795 92.2508 19.2814 86.2017 18.0691 79.964C17.8181 79.6063 13.5477 79.8572 12.7146 79.8002C-0.173196 78.9389 -0.126914 61.1529 12.5455 60.2185C13.3911 60.1562 17.8235 60.3983 18.0691 60.0459C19.4184 52.9984 22.231 46.2517 26.3091 40.3717C24.7747 38.6329 22.8077 37.1665 21.494 35.2516C16.3211 27.7182 23.1548 17.9977 31.9965 20.3023C35.5264 21.2224 37.5806 24.2123 40.1333 26.5507C45.9987 22.4646 52.7737 19.6616 59.8121 18.3127C60.2287 16.0187 59.7623 13.5574 60.1824 11.2082C61.699 2.72097 73.129 0.320194 77.8569 7.55455C80.2048 11.1477 78.9943 14.4294 79.5889 18.3696L79.5907 18.3714Z" stroke="#013F68" stroke-width="5" stroke-miterlimit="10"/>
<path d="M66.7127 39.9838C87.424 38.3554 103.792 56.0595 99.4467 76.6254C95.1549 96.9314 71.6133 106.841 53.8783 95.9562C53.3532 95.634 50.5638 93.4931 50.3697 93.5803L40.9424 103.02C41.6722 103.913 43.2583 104.598 42.1849 105.867L21.2725 126.782C20.79 127.182 20.2827 127.738 19.6241 127.357L12.8135 120.638C11.7988 119.352 13.1624 118.885 13.8869 118.152C20.701 111.263 27.549 104.404 34.4308 97.5828C35.4989 96.9083 36.1664 98.4513 36.9336 99.0119L46.4144 89.496C35.3814 75.9402 37.87 55.8442 52.0252 45.5844C56.123 42.6141 61.6323 40.3824 66.7145 39.982L66.7127 39.9838ZM68.8488 45.5008C48.6715 46.4048 37.8646 69.8235 50.7329 85.7533C61.6875 99.3126 83.3084 97.1752 91.5218 81.8736C100.25 65.6181 88.7591 46.1717 70.5737 45.4509L68.847 45.5008H68.8488Z" fill="#013F68"/>
<path d="M81.6368 56.4954L87.2174 61.9091L65.568 83.5196L52.3438 70.4284L57.7588 64.8491L65.568 72.4857L81.6368 56.4954Z" fill="#013F68"/>
</svg>
