<svg width="113" height="124" viewBox="0 0 113 124" fill="none" xmlns="http://www.w3.org/2000/svg">
<path d="M85.9624 43.5756H105.966C108.871 43.5756 112.625 47.7072 112.631 50.6446L112.642 116.404C112.285 120.197 109.357 123.223 105.564 123.675H17.3277C8.81961 122.907 1.82565 116.379 0.438763 107.97C0.0694718 84.6231 0.0140782 61.1404 0.467485 37.7951C1.51996 31.697 5.72578 26.189 11.417 23.737C17.8611 20.9594 25.5608 22.4568 32.4173 22.0697V7.42171C32.4173 4.4618 36.7113 0.71941 39.7046 0.768571C49.0641 1.27247 59.1478 0.0823637 68.4211 0.768571C78.0575 1.47936 85.4823 9.30826 85.9727 18.8865L85.9645 43.5776L85.9624 43.5756ZM37.7494 8.03622V65.2884C38.5455 65.2208 39.2984 64.9279 40.1006 64.8705C49.1975 64.2294 59.0391 65.3622 68.2118 64.8808C72.748 65.2515 76.9312 67.0766 80.2138 70.2045C79.3111 65.4482 75.5833 61.4498 70.9343 60.1142C70.3763 59.9544 68.895 59.5529 68.419 59.5529H56.4171V54.2272H69.0345C72.6495 54.2272 76.9189 56.8163 79.5983 59.0429C79.7624 59.1801 80.0127 59.5837 80.2179 59.2436C79.2721 55.3579 76.5681 51.8592 72.9018 50.1611C72.1468 49.8109 69.529 48.9034 68.8273 48.9034H56.415V43.5776H69.2376C73.3183 43.5776 76.7855 46.4843 79.9101 48.4897C80.1091 48.6167 80.3123 48.928 80.2076 48.3975C79.3418 43.9668 73.6958 38.2519 69.0325 38.2519H56.415V32.9261H69.648C70.1752 32.9261 72.1407 33.4976 72.7787 33.6922C75.5053 34.5238 78.0534 36.099 80.1112 38.047C79.8117 35.2776 77.8811 32.3792 75.7023 30.5684C74.3769 29.4664 70.9282 27.6003 69.2376 27.6003H56.7228L56.415 27.293V22.3769C56.5956 22.084 56.8233 22.0942 57.1229 22.0594C59.6422 21.7645 64.5538 21.916 67.1942 22.0594C72.1673 22.3319 76.5824 23.9829 80.2117 27.3934C79.2393 22.2786 74.855 18.0466 69.7629 17.0368C69.4366 16.9733 68.2098 16.7418 68.0067 16.7418H56.415V11.416C61.8949 11.6926 67.8815 10.6684 73.1419 12.4341C75.7802 13.319 78.1888 14.8696 80.2117 16.7418C79.0444 10.7626 73.8456 6.51427 67.8097 6.08207C58.9221 5.44502 49.2775 6.57573 40.3099 6.09026C39.2984 6.09026 37.9423 7.05505 37.7453 8.03622H37.7494ZM32.4152 27.5982H16.7204C11.696 27.5982 5.53908 34.8761 5.53908 39.7861V91.7125L8.63497 89.3753C11.0702 87.794 13.8481 86.8148 16.7224 86.3888L66.786 86.3929C70.4891 86.4912 70.9487 81.1859 67.1922 80.9647C58.6513 80.4608 49.2836 81.6632 40.714 81.0691C37.4766 80.8438 34.5346 79.3956 33.1272 76.3538C32.9692 76.0137 32.4132 74.6475 32.4132 74.4037V27.5982H32.4152ZM107.299 54.6368V50.8473C107.299 50.3619 105.838 48.9014 105.35 48.9014H85.9624L85.9727 84.0413C85.4085 93.9555 78.3058 101.377 68.419 102.362L18.5853 102.383C15.3376 102.997 15.6864 107.491 18.971 107.698L104.95 107.682L107.299 108.102V104.312C107.299 103.827 105.838 102.366 105.35 102.366H93.9637V97.0403H105.966C106.218 97.0403 106.907 97.5217 107.299 97.45V93.6605C107.299 93.3 105.949 91.7145 105.555 91.7145H93.9637V86.3888H106.376C106.538 86.3888 107.053 86.7698 107.299 86.7984V83.0089C107.299 82.4497 105.994 81.0917 105.338 81.0753L93.9637 81.063V75.5324C98.4055 75.6757 102.917 75.1657 107.299 75.942V72.3574C107.299 71.5687 105.662 70.2066 104.94 70.2066H93.9637V64.8808C98.3931 65.0631 102.942 64.4568 107.299 65.2905V61.501C107.299 60.9213 105.711 59.555 105.145 59.555H93.9637V54.2292H105.76C105.966 54.2292 107.195 54.7597 107.299 54.6389V54.6368ZM40.1621 70.2598C37.1483 70.7207 36.8837 74.33 39.5364 75.4893C49.3431 75.7474 59.2114 75.178 68.9853 75.7884C77.9796 78.2649 76.9517 90.9116 67.3932 91.7105L17.5349 91.7064C1.61023 93.9514 1.7559 116.32 17.74 118.35H104.747C108.208 118.02 108.157 113.323 104.737 113.016L18.3555 113.024C8.68626 111.891 8.46468 98.4046 18.1504 97.0321L67.8036 97.0362C84.752 95.5389 84.7376 71.2984 67.4035 70.1963C58.5569 69.633 49.0723 70.5896 40.1621 70.2578V70.2598Z" fill="#013F68"/>
</svg>
