<svg width="116" height="133" viewBox="0 0 116 133" fill="none" xmlns="http://www.w3.org/2000/svg">
<path d="M19.1842 132.32V6.18262C19.1842 5.80383 18.9223 4.5986 18.8115 4.15993C18.3774 2.44117 17.3282 1.38866 16.041 0.270264L102.185 0.412496C106.782 0.809248 107.454 4.90702 107.8 8.72033V131.802L107.569 132.318H19.1842V132.32ZM104.948 8.05409H21.8784V18.2349H98.138C98.587 17.666 98.2981 16.6539 98.3386 15.9382L98.138 15.6897H23.2254C23.2928 15.1552 23.0234 14.4381 23.45 14.0428H103.601V15.6897H100.009V18.2349H104.948V8.05409ZM98.3625 30.2123H21.8784V40.3931H98.3625V30.2123ZM104.948 30.2123H100.009V40.3931H104.948V30.2123ZM21.8784 62.7011H98.138L98.3625 62.4765V52.5951L98.138 52.3705H21.8784V62.7011ZM104.948 52.3705H100.009V62.7011H104.948V52.3705ZM98.3625 74.6785H21.8784V84.8593H98.3625V74.6785ZM104.948 74.6785H100.009V84.8593H104.948V74.6785ZM98.3625 107.018V97.0613L98.138 96.8367H21.8784V107.018H98.3625ZM104.948 96.8367H100.009V107.018H104.948V96.8367ZM98.3625 119.145H21.8784V129.325H104.948V119.145H100.009V124.46L99.7844 124.684H23.0758V123.037H98.138L98.3625 122.813V119.145Z" fill="#013F68"/>
<path d="M12.4478 16.8875V123.337H17.3871V129.55C17.3871 129.602 17.652 129.716 17.3122 129.924H6.01172V16.8875H12.0736C12.1649 16.8875 12.3026 17.0072 12.4478 16.8875Z" fill="#013F68"/>
<path d="M15.2927 16.8875V120.342H17.3881V121.989H13.8707L13.6582 121.745L13.7166 17.0342L15.2927 16.8875Z" fill="#013F68"/>
<path d="M112.582 85.3085V15.7646C112.582 15.6688 113.577 14.6088 113.784 14.2719C114.158 13.6566 114.345 12.9844 114.754 12.3975L114.763 85.1693L112.584 85.31L112.582 85.3085Z" fill="#013F68"/>
<path d="M7.80799 15.3902C7.71669 15.3108 8.52045 14.2463 8.6342 14.0457C10.4977 10.7474 10.6264 6.37866 9.13412 2.9097L7.80949 0.568115L13.9926 0.732805C15.0717 1.70747 16.5715 2.66866 17.0954 4.08049C17.2061 4.37694 17.5369 5.64504 17.5369 5.88459V15.3917H7.80799V15.3902Z" fill="#013F68"/>
<path d="M3.578 0.752205C7.97846 -0.155085 8.85107 7.02837 8.36761 10.0332C7.96948 12.5006 6.07908 16.6807 2.97181 14.914C-0.729659 12.809 -0.663802 3.47108 2.88051 1.10254C3.07509 0.97229 3.35349 0.798617 3.578 0.752205Z" fill="#013F68"/>
<path d="M109.291 6.93112C109.177 5.74086 108.535 3.47264 107.972 2.41114C107.833 2.14913 106.667 0.65046 106.748 0.568115C108.579 1.03523 110.107 0.0456004 111.692 1.53529C114.353 4.03558 114.427 12.6803 111.286 14.7658C111.029 14.9365 109.291 15.736 109.291 15.1656C109.104 12.5171 109.543 9.53771 109.291 6.93112Z" fill="#013F68"/>
<path d="M113.448 85.9389C114.751 85.8356 115.615 86.8522 115.73 88.0724C115.886 89.7222 115.947 94.5896 115.688 96.1272C115.289 98.5062 111.768 98.5212 111.526 96.0209C111.27 93.3813 111.723 90.3241 111.542 87.6382C111.758 86.7354 112.497 86.0137 113.446 85.9389H113.448ZM114.673 95.4879L114.747 88.4302C114.609 87.5693 114.024 87.7565 113.922 88.52C113.759 89.7477 113.772 93.7257 113.922 94.9728C113.941 95.1315 113.917 95.3202 114.069 95.425L114.673 95.4879Z" fill="#013F68"/>
</svg>
